<svg version="1.2" xmlns="http://www.w3.org/2000/svg" viewBox="0 0 1000 1300" width="500" height="650">
	<title>6198974-ai</title>
	<defs>
		<clipPath clipPathUnits="userSpaceOnUse" id="cp1">
			<path d="m1000 1300h-1000v-717.18h1000z"/>
		</clipPath>
	</defs>
	<style>
		.s0 { fill: #23a9d8 } 
		.s1 { fill: #ffae0b } 
		.s2 { fill: #ffbe06 } 
		.s3 { fill: #f49c00 } 
		.s4 { fill: #e08a00 } 
		.s5 { fill: #b7dae2 } 
		.s6 { fill: #ffffff } 
		.s7 { fill: #9bc7ce } 
		.s8 { fill: #51d2f4 } 
		.s9 { fill: #22b8e0 } 
		.s10 { fill: #032544 } 
		.s11 { fill: #ffbc8f } 
		.s12 { opacity: .3;mix-blend-mode: overlay;fill: #032544 } 
		.s13 { opacity: .2;mix-blend-mode: multiply;fill: #032544 } 
	</style>
	<g id="OBJECTS">
		<g id="&lt;Clip Group&gt;" clip-path="url(#cp1)">
			<g id="&lt;Group&gt;">
				<g id="&lt;Group&gt;">
					<path id="&lt;Path&gt;" class="s0" d="m900.7 1052.4l1.6-0.9 55.7 32.2-1.5 0.9z"/>
				</g>
				<g id="&lt;Group&gt;">
					<g id="&lt;Group&gt;">
						<path id="&lt;Path&gt;" class="s0" d="m440.6 720.8l1.6-1 56.6 32.7-1.6 0.9z"/>
					</g>
					<g id="&lt;Group&gt;">
						<path id="&lt;Path&gt;" class="s0" d="m498.8 754.3l1.6-0.9 55.8 32.2-1.6 0.9z"/>
					</g>
					<g id="&lt;Group&gt;">
						<path id="&lt;Path&gt;" class="s0" d="m383.6 753.9l1.6-0.9 56.6 32.6-1.6 0.9z"/>
					</g>
					<g id="&lt;Group&gt;">
						<path id="&lt;Path&gt;" class="s0" d="m556.2 787.5l1.6-1 55.7 32.2-1.6 0.9z"/>
					</g>
					<g id="&lt;Group&gt;">
						<path id="&lt;Path&gt;" class="s0" d="m441.8 787.5l1.6-1 55.8 32.2-1.6 1z"/>
					</g>
					<g id="&lt;Group&gt;">
						<path id="&lt;Path&gt;" class="s0" d="m326.7 787l1.6-0.9 56.5 32.6-1.6 0.9z"/>
					</g>
					<g id="&lt;Group&gt;">
						<path id="&lt;Path&gt;" class="s0" d="m613.5 820.6l1.6-1 55.8 32.2-1.6 1z"/>
					</g>
					<g id="&lt;Group&gt;">
						<path id="&lt;Path&gt;" class="s0" d="m499.2 820.6l1.6-0.9 55.7 32.1-1.6 1z"/>
					</g>
					<g id="&lt;Group&gt;">
						<path id="&lt;Path&gt;" class="s0" d="m384.8 820.6l1.6-1 55.8 32.2-1.6 1z"/>
					</g>
					<g id="&lt;Group&gt;">
						<path id="&lt;Path&gt;" class="s0" d="m269.7 820.1l1.6-0.9 56.5 32.6-1.6 1z"/>
					</g>
					<g id="&lt;Group&gt;">
						<path id="&lt;Path&gt;" class="s0" d="m670.9 853.7l1.6-0.9 55.7 32.2-1.5 0.9z"/>
					</g>
					<g id="&lt;Group&gt;">
						<path id="&lt;Path&gt;" class="s0" d="m556.5 853.7l1.6-0.9 55.8 32.2-1.6 0.9z"/>
					</g>
					<g id="&lt;Group&gt;">
						<path id="&lt;Path&gt;" class="s0" d="m442.2 853.7l1.6-0.9 55.7 32.2-1.5 0.9z"/>
					</g>
					<g id="&lt;Group&gt;">
						<path id="&lt;Path&gt;" class="s0" d="m327.8 853.7l1.6-0.9 55.8 32.2-1.6 0.9z"/>
					</g>
					<g id="&lt;Group&gt;">
						<path id="&lt;Path&gt;" class="s0" d="m212.7 853.2l1.6-0.9 56.5 32.7-1.5 0.9z"/>
					</g>
					<g id="&lt;Group&gt;">
						<path id="&lt;Path&gt;" class="s0" d="m728.3 886.8l1.5-0.9 55.8 32.2-1.6 0.9z"/>
					</g>
					<g id="&lt;Group&gt;">
						<path id="&lt;Path&gt;" class="s0" d="m613.9 886.8l1.6-0.9 55.7 32.2-1.5 0.9z"/>
					</g>
					<g id="&lt;Group&gt;">
						<path id="&lt;Path&gt;" class="s0" d="m499.6 886.8l1.5-0.9 55.8 32.2-1.6 0.9z"/>
					</g>
					<g id="&lt;Group&gt;">
						<path id="&lt;Path&gt;" class="s0" d="m385.2 886.8l1.6-0.9 55.7 32.2-1.5 0.9z"/>
					</g>
					<g id="&lt;Group&gt;">
						<path id="&lt;Path&gt;" class="s0" d="m270.9 886.8l1.5-0.9 55.8 32.2-1.6 0.9z"/>
					</g>
					<g id="&lt;Group&gt;">
						<path id="&lt;Path&gt;" class="s0" d="m155.7 886.4l1.6-1 56.5 32.7-1.5 0.9z"/>
					</g>
					<g id="&lt;Group&gt;">
						<path id="&lt;Path&gt;" class="s0" d="m785.6 919.9l1.6-0.9 55.8 32.2-1.6 0.9z"/>
					</g>
					<g id="&lt;Group&gt;">
						<path id="&lt;Path&gt;" class="s0" d="m671.3 919.9l1.5-0.9 55.8 32.2-1.6 0.9z"/>
					</g>
					<g id="&lt;Group&gt;">
						<path id="&lt;Path&gt;" class="s0" d="m556.9 919.9l1.6-0.9 55.8 32.2-1.6 0.9z"/>
					</g>
					<g id="&lt;Group&gt;">
						<path id="&lt;Path&gt;" class="s0" d="m442.6 919.9l1.5-0.9 55.8 32.2-1.6 0.9z"/>
					</g>
					<g id="&lt;Group&gt;">
						<path id="&lt;Path&gt;" class="s0" d="m328.2 919.9l1.6-0.9 55.8 32.2-1.6 0.9z"/>
					</g>
					<g id="&lt;Group&gt;">
						<path id="&lt;Path&gt;" class="s0" d="m213.9 919.9l1.5-0.9 55.8 32.2-1.6 0.9z"/>
					</g>
					<g id="&lt;Group&gt;">
						<path id="&lt;Path&gt;" class="s0" d="m98.7 919.5l1.6-1 56.6 32.7-1.6 0.9z"/>
					</g>
					<g id="&lt;Group&gt;">
						<path id="&lt;Path&gt;" class="s0" d="m843 953l1.6-0.9 55.7 32.2-1.6 0.9z"/>
					</g>
					<g id="&lt;Group&gt;">
						<path id="&lt;Path&gt;" class="s0" d="m728.6 953l1.6-0.9 55.8 32.2-1.6 0.9z"/>
					</g>
					<g id="&lt;Group&gt;">
						<path id="&lt;Path&gt;" class="s0" d="m614.3 953l1.6-0.9 55.7 32.2-1.6 0.9z"/>
					</g>
					<g id="&lt;Group&gt;">
						<path id="&lt;Path&gt;" class="s0" d="m499.9 953.1l1.6-1 55.8 32.2-1.6 0.9z"/>
					</g>
					<g id="&lt;Group&gt;">
						<path id="&lt;Path&gt;" class="s0" d="m385.6 953l1.6-0.9 55.7 32.2-1.6 0.9z"/>
					</g>
					<g id="&lt;Group&gt;">
						<path id="&lt;Path&gt;" class="s0" d="m271.2 953.1l1.6-1 55.8 32.2-1.6 0.9z"/>
					</g>
					<g id="&lt;Group&gt;">
						<path id="&lt;Path&gt;" class="s0" d="m156.9 953l1.6-0.9 55.7 32.2-1.6 0.9z"/>
					</g>
					<g id="&lt;Group&gt;">
						<path id="&lt;Path&gt;" class="s0" d="m41.7 952.6l1.6-0.9 56.6 32.6-1.6 0.9z"/>
					</g>
					<g id="&lt;Group&gt;">
						<path id="&lt;Path&gt;" class="s0" d="m900.3 986.2l1.6-1 55.8 32.2-1.6 1z"/>
					</g>
					<g id="&lt;Group&gt;">
						<path id="&lt;Path&gt;" class="s0" d="m786 986.2l1.6-1 55.7 32.2-1.6 1z"/>
					</g>
					<g id="&lt;Group&gt;">
						<path id="&lt;Path&gt;" class="s0" d="m671.6 986.2l1.6-1 55.8 32.2-1.6 1z"/>
					</g>
					<g id="&lt;Group&gt;">
						<path id="&lt;Path&gt;" class="s0" d="m557.3 986.2l1.6-1 55.7 32.2-1.6 1z"/>
					</g>
					<g id="&lt;Group&gt;">
						<path id="&lt;Path&gt;" class="s0" d="m442.9 986.2l1.6-1 55.8 32.2-1.6 1z"/>
					</g>
					<g id="&lt;Group&gt;">
						<path id="&lt;Path&gt;" class="s0" d="m328.6 986.2l1.6-1 55.7 32.2-1.6 1z"/>
					</g>
					<g id="&lt;Group&gt;">
						<path id="&lt;Path&gt;" class="s0" d="m214.2 986.2l1.6-1 55.8 32.2-1.6 1z"/>
					</g>
					<g id="&lt;Group&gt;">
						<path id="&lt;Path&gt;" class="s0" d="m99.9 986.2l1.6-1 55.7 32.2-1.6 1z"/>
					</g>
					<g id="&lt;Group&gt;">
						<path id="&lt;Path&gt;" class="s0" d="m-15.3 985.7l1.6-0.9 56.6 32.6-1.6 1z"/>
					</g>
					<g id="&lt;Group&gt;">
						<path id="&lt;Path&gt;" class="s0" d="m957.7 1019.3l1.6-0.9 55.7 32.1-1.5 1z"/>
					</g>
					<g id="&lt;Group&gt;">
						<path id="&lt;Path&gt;" class="s0" d="m843.3 1019.3l1.6-0.9 55.8 32.2-1.6 0.9z"/>
					</g>
					<g id="&lt;Group&gt;">
						<path id="&lt;Path&gt;" class="s0" d="m729 1019.3l1.6-0.9 55.7 32.1-1.5 1z"/>
					</g>
					<g id="&lt;Group&gt;">
						<path id="&lt;Path&gt;" class="s0" d="m614.6 1019.3l1.6-0.9 55.8 32.2-1.6 0.9z"/>
					</g>
					<g id="&lt;Group&gt;">
						<path id="&lt;Path&gt;" class="s0" d="m500.3 1019.3l1.6-0.9 55.7 32.1-1.5 1z"/>
					</g>
					<g id="&lt;Group&gt;">
						<path id="&lt;Path&gt;" class="s0" d="m385.9 1019.3l1.6-0.9 55.8 32.2-1.6 0.9z"/>
					</g>
					<g id="&lt;Group&gt;">
						<path id="&lt;Path&gt;" class="s0" d="m271.6 1019.3l1.6-0.9 55.7 32.1-1.5 1z"/>
					</g>
					<g id="&lt;Group&gt;">
						<path id="&lt;Path&gt;" class="s0" d="m157.2 1019.3l1.6-0.9 55.8 32.1-1.6 1z"/>
					</g>
					<g id="&lt;Group&gt;">
						<path id="&lt;Path&gt;" class="s0" d="m42.9 1019.3l1.6-0.9 55.8 32.2-1.6 0.9z"/>
					</g>
					<g id="&lt;Group&gt;">
						<path id="&lt;Path&gt;" class="s0" d="m-72.3 1018.8l1.6-0.9 56.6 32.6-1.6 1z"/>
					</g>
					<g id="&lt;Group&gt;">
						<path id="&lt;Path&gt;" class="s0" d="m1016.6 1051.5l56.6 32.6-1.6 0.9-56.5-32.6z"/>
					</g>
					<g id="&lt;Group&gt;">
						<path id="&lt;Path&gt;" class="s0" d="m786.4 1052.4l1.5-0.9 55.8 32.2-1.6 0.9z"/>
					</g>
					<g id="&lt;Group&gt;">
						<path id="&lt;Path&gt;" class="s0" d="m672 1052.4l1.6-0.9 55.7 32.2-1.5 0.9z"/>
					</g>
					<g id="&lt;Group&gt;">
						<path id="&lt;Path&gt;" class="s0" d="m557.7 1052.4l1.5-0.9 55.8 32.2-1.6 0.9z"/>
					</g>
					<g id="&lt;Group&gt;">
						<path id="&lt;Path&gt;" class="s0" d="m443.3 1052.4l1.6-0.9 55.7 32.2-1.5 0.9z"/>
					</g>
					<g id="&lt;Group&gt;">
						<path id="&lt;Path&gt;" class="s0" d="m329 1052.4l1.6-0.9 55.7 32.2-1.6 0.9z"/>
					</g>
					<g id="&lt;Group&gt;">
						<path id="&lt;Path&gt;" class="s0" d="m214.6 1052.4l1.6-0.9 55.8 32.2-1.6 0.9z"/>
					</g>
					<g id="&lt;Group&gt;">
						<path id="&lt;Path&gt;" class="s0" d="m100.3 1052.4l1.6-0.9 55.7 32.2-1.6 0.9z"/>
					</g>
					<g id="&lt;Group&gt;">
						<path id="&lt;Path&gt;" class="s0" d="m-14.1 1052.4l1.6-0.9 55.8 32.2-1.6 0.9z"/>
					</g>
					<g id="&lt;Group&gt;">
						<path id="&lt;Path&gt;" class="s0" d="m556.6 720.8l-56.2 32.6-1.6 0.9-55.4 32.2-1.6 1-55.4 32.1-1.6 1-55.4 32.2-1.6 0.9-55.4 32.2-1.5 0.9-55.5 32.2-1.5 0.9-55.4 32.2-1.6 0.9-55.4 32.2-1.6 1-55.4 32.2-1.6 0.9-55.4 32.2-1.6 0.9-56.2 32.7-1.6-1 56.2-32.6 1.6-1 55.4-32.1 1.6-1 55.4-32.2 1.6-0.9 55.4-32.2 1.6-0.9 55.4-32.2 1.5-0.9 55.5-32.2 1.5-0.9 55.4-32.2 1.6-1 55.4-32.2 1.6-0.9 55.4-32.2 1.6-0.9 55.4-32.2 1.6-0.9 56.2-32.7z"/>
					</g>
					<g id="&lt;Group&gt;">
						<path id="&lt;Path&gt;" class="s0" d="m843.7 1085.5l1.6-0.9 55.8 32.2-1.6 0.9z"/>
					</g>
					<g id="&lt;Group&gt;">
						<path id="&lt;Path&gt;" class="s0" d="m959.6 1084.6l56.6 32.6-1.6 1-56.5-32.7z"/>
					</g>
					<g id="&lt;Group&gt;">
						<path id="&lt;Path&gt;" class="s0" d="m729.4 1085.5l1.5-0.9 55.8 32.2-1.6 0.9z"/>
					</g>
					<g id="&lt;Group&gt;">
						<path id="&lt;Path&gt;" class="s0" d="m615 1085.5l1.6-0.9 55.8 32.2-1.6 0.9z"/>
					</g>
					<g id="&lt;Group&gt;">
						<path id="&lt;Path&gt;" class="s0" d="m500.7 1085.5l1.5-0.9 55.8 32.2-1.6 0.9z"/>
					</g>
					<g id="&lt;Group&gt;">
						<path id="&lt;Path&gt;" class="s0" d="m386.3 1085.5l1.6-0.9 55.8 32.2-1.6 0.9z"/>
					</g>
					<g id="&lt;Group&gt;">
						<path id="&lt;Path&gt;" class="s0" d="m272 1085.5l1.6-0.9 55.7 32.2-1.6 0.9z"/>
					</g>
					<g id="&lt;Group&gt;">
						<path id="&lt;Path&gt;" class="s0" d="m157.6 1085.5l1.6-0.9 55.8 32.2-1.6 0.9z"/>
					</g>
					<g id="&lt;Group&gt;">
						<path id="&lt;Path&gt;" class="s0" d="m43.3 1085.5l1.6-0.9 55.7 32.2-1.6 0.9z"/>
					</g>
					<g id="&lt;Group&gt;">
						<path id="&lt;Path&gt;" class="s0" d="m614 753.9l-56.2 32.6-1.6 1-55.4 32.2-1.6 0.9-55.4 32.2-1.6 0.9-55.4 32.2-1.6 0.9-55.4 32.2-1.6 0.9-55.4 32.2-1.6 1-55.4 32.1-1.6 1-55.4 32.2-1.6 0.9-55.3 32.2-1.6 0.9-55.4 32.2-1.6 0.9-56.2 32.7-1.6-0.9 56.2-32.7 1.6-0.9 55.4-32.2 1.6-0.9 55.3-32.2 1.6-1 55.4-32.2 1.6-0.9 55.4-32.2 1.6-0.9 55.4-32.2 1.6-0.9 55.4-32.2 1.6-0.9 55.4-32.2 1.6-1 55.4-32.1 1.6-1 55.4-32.2 1.6-0.9 56.2-32.6z"/>
					</g>
					<g id="&lt;Group&gt;">
						<path id="&lt;Path&gt;" class="s0" d="m786.7 1118.6l1.6-0.9 55.8 32.2-1.6 0.9z"/>
					</g>
					<g id="&lt;Group&gt;">
						<path id="&lt;Path&gt;" class="s0" d="m902.7 1117.7l56.5 32.7-1.6 0.9-56.5-32.7z"/>
					</g>
					<g id="&lt;Group&gt;">
						<path id="&lt;Path&gt;" class="s0" d="m672.4 1118.6l1.6-0.9 55.7 32.2-1.6 0.9z"/>
					</g>
					<g id="&lt;Group&gt;">
						<path id="&lt;Path&gt;" class="s0" d="m558 1118.6l1.6-0.9 55.8 32.2-1.6 0.9z"/>
					</g>
					<g id="&lt;Group&gt;">
						<path id="&lt;Path&gt;" class="s0" d="m443.7 1118.6l1.6-0.9 55.7 32.2-1.6 0.9z"/>
					</g>
					<g id="&lt;Group&gt;">
						<path id="&lt;Path&gt;" class="s0" d="m329.3 1118.6l1.6-0.9 55.8 32.2-1.6 0.9z"/>
					</g>
					<g id="&lt;Group&gt;">
						<path id="&lt;Path&gt;" class="s0" d="m215 1118.6l1.6-0.9 55.7 32.2-1.6 0.9z"/>
					</g>
					<g id="&lt;Group&gt;">
						<path id="&lt;Path&gt;" class="s0" d="m100.6 1118.6l1.6-0.9 55.8 32.2-1.6 0.9z"/>
					</g>
					<g id="&lt;Group&gt;">
						<path id="&lt;Path&gt;" class="s0" d="m671.3 787l-56.2 32.6-1.6 1-55.4 32.2-1.6 0.9-55.4 32.2-1.5 0.9-55.5 32.2-1.5 0.9-55.4 32.2-1.6 0.9-55.4 32.2-1.6 1-55.4 32.2-1.6 0.9-55.4 32.2-1.6 0.9-55.4 32.2-1.6 0.9-55.4 32.2-1.6 0.9-56.2 32.7-1.6-0.9 56.2-32.7 1.6-0.9 55.4-32.2 1.6-0.9 55.4-32.2 1.6-1 55.4-32.1 1.6-1 55.4-32.2 1.6-0.9 55.4-32.2 1.6-0.9 55.4-32.2 1.5-0.9 55.5-32.2 1.5-0.9 55.4-32.2 1.6-1 55.4-32.2 1.6-0.9 56.2-32.6z"/>
					</g>
					<g id="&lt;Group&gt;">
						<path id="&lt;Path&gt;" class="s0" d="m729.7 1151.7l1.6-0.9 55.8 32.2-1.6 0.9z"/>
					</g>
					<g id="&lt;Group&gt;">
						<path id="&lt;Path&gt;" class="s0" d="m845.7 1150.8l56.5 32.7-1.6 0.9-56.5-32.7z"/>
					</g>
					<g id="&lt;Group&gt;">
						<path id="&lt;Path&gt;" class="s0" d="m615.4 1151.7l1.6-0.9 55.7 32.2-1.6 0.9z"/>
					</g>
					<g id="&lt;Group&gt;">
						<path id="&lt;Path&gt;" class="s0" d="m501 1151.7l1.6-0.9 55.8 32.2-1.6 0.9z"/>
					</g>
					<g id="&lt;Group&gt;">
						<path id="&lt;Path&gt;" class="s0" d="m386.7 1151.7l1.6-0.9 55.8 32.2-1.7 0.9z"/>
					</g>
					<g id="&lt;Group&gt;">
						<path id="&lt;Path&gt;" class="s0" d="m272.3 1151.8l1.6-1 55.8 32.2-1.6 0.9z"/>
					</g>
					<g id="&lt;Group&gt;">
						<path id="&lt;Path&gt;" class="s0" d="m158 1151.8l1.6-1 55.7 32.2-1.6 1z"/>
					</g>
					<g id="&lt;Group&gt;">
						<path id="&lt;Path&gt;" class="s0" d="m728.7 820.1l-56.2 32.7-1.6 0.9-55.4 32.2-1.6 0.9-55.4 32.2-1.6 0.9-55.4 32.2-1.6 1-55.4 32.1-1.6 1-55.4 32.2-1.6 0.9-55.3 32.2-1.6 0.9-55.4 32.2-1.6 0.9-55.4 32.2-1.6 0.9-55.4 32.2-1.6 1-56.2 32.6-1.6-0.9 56.2-32.7 1.6-0.9 55.4-32.2 1.6-0.9 55.4-32.2 1.6-0.9 55.4-32.2 1.5-1 55.4-32.1 1.6-1 55.4-32.2 1.6-0.9 55.4-32.2 1.6-0.9 55.4-32.2 1.6-0.9 55.4-32.2 1.6-0.9 55.4-32.2 1.6-1 56.2-32.6z"/>
					</g>
					<g id="&lt;Group&gt;">
						<path id="&lt;Path&gt;" class="s0" d="m672.7 1184.9l1.6-1 55.8 32.2-1.6 1z"/>
					</g>
					<g id="&lt;Group&gt;">
						<path id="&lt;Path&gt;" class="s0" d="m788.7 1183.9l56.5 32.7-1.5 0.9-56.6-32.6z"/>
					</g>
					<g id="&lt;Group&gt;">
						<path id="&lt;Path&gt;" class="s0" d="m558.4 1184.9l1.6-1 55.8 32.2-1.6 1z"/>
					</g>
					<g id="&lt;Group&gt;">
						<path id="&lt;Path&gt;" class="s0" d="m444 1184.9l1.6-1 55.8 32.2-1.6 1z"/>
					</g>
					<g id="&lt;Group&gt;">
						<path id="&lt;Path&gt;" class="s0" d="m329.7 1184.9l1.6-1 55.8 32.2-1.6 1z"/>
					</g>
					<g id="&lt;Group&gt;">
						<path id="&lt;Path&gt;" class="s0" d="m215.3 1184.9l1.6-1 55.8 32.2-1.6 1z"/>
					</g>
					<g id="&lt;Group&gt;">
						<path id="&lt;Path&gt;" class="s0" d="m786 853.2l-56.2 32.7-1.5 0.9-55.5 32.2-1.5 0.9-55.4 32.2-1.6 0.9-55.4 32.2-1.6 1-55.4 32.2-1.6 0.9-55.4 32.2-1.6 0.9-55.4 32.2-1.6 0.9-55.4 32.2-1.6 0.9-55.4 32.2-1.6 1-55.4 32.1-1.6 1-56.1 32.6-1.6-0.9 56.1-32.6 1.7-1 55.3-32.2 1.6-0.9 55.4-32.2 1.6-0.9 55.4-32.2 1.6-0.9 55.4-32.2 1.6-0.9 55.4-32.2 1.6-1 55.4-32.2 1.6-0.9 55.4-32.2 1.6-0.9 55.4-32.2 1.5-0.9 55.5-32.2 1.5-0.9 56.2-32.7z"/>
					</g>
					<g id="&lt;Group&gt;">
						<path id="&lt;Path&gt;" class="s0" d="m615.8 1218l1.6-0.9 55.7 32.2-1.6 0.9z"/>
					</g>
					<g id="&lt;Group&gt;">
						<path id="&lt;Path&gt;" class="s0" d="m731.7 1217.1l56.6 32.6-1.6 0.9-56.6-32.6z"/>
					</g>
					<g id="&lt;Group&gt;">
						<path id="&lt;Path&gt;" class="s0" d="m501.4 1218l1.6-0.9 55.8 32.2-1.6 0.9z"/>
					</g>
					<g id="&lt;Group&gt;">
						<path id="&lt;Path&gt;" class="s0" d="m387.1 1218l1.6-0.9 55.7 32.2-1.6 0.9z"/>
					</g>
					<g id="&lt;Group&gt;">
						<path id="&lt;Path&gt;" class="s0" d="m272.7 1218l1.6-0.9 55.8 32.2-1.6 0.9z"/>
					</g>
					<g id="&lt;Group&gt;">
						<path id="&lt;Path&gt;" class="s0" d="m843.4 886.3l-56.2 32.7-1.6 0.9-55.4 32.2-1.6 0.9-55.4 32.2-1.6 1-55.4 32.2-1.6 0.9-55.4 32.2-1.5 0.9-55.5 32.2-1.5 0.9-55.4 32.2-1.6 0.9-55.4 32.2-1.6 1-55.4 32.1-1.6 1-55.4 32.2-1.6 0.9-56.2 32.6-1.6-0.9 56.2-32.6 1.6-1 55.4-32.2 1.6-0.9 55.4-32.2 1.6-0.9 55.4-32.2 1.6-0.9 55.4-32.2 1.5-0.9 55.5-32.2 1.5-1 55.4-32.1 1.6-1 55.4-32.2 1.6-0.9 55.4-32.2 1.6-0.9 55.4-32.2 1.6-0.9 56.2-32.7z"/>
					</g>
					<g id="&lt;Group&gt;">
						<path id="&lt;Path&gt;" class="s0" d="m558.8 1251.1l1.6-0.9 55.7 32.2-1.6 0.9z"/>
					</g>
					<g id="&lt;Group&gt;">
						<path id="&lt;Path&gt;" class="s0" d="m674.7 1250.2l56.6 32.6-1.6 1-56.6-32.7z"/>
					</g>
					<g id="&lt;Group&gt;">
						<path id="&lt;Path&gt;" class="s0" d="m444.4 1251.1l1.6-0.9 55.8 32.2-1.6 0.9z"/>
					</g>
					<g id="&lt;Group&gt;">
						<path id="&lt;Path&gt;" class="s0" d="m330.1 1251.1l1.6-0.9 55.7 32.2-1.6 0.9z"/>
					</g>
					<g id="&lt;Group&gt;">
						<path id="&lt;Path&gt;" class="s0" d="m900.8 919.5l-56.2 32.6-1.6 0.9-55.4 32.2-1.6 1-55.4 32.2-1.6 0.9-55.4 32.2-1.6 0.9-55.4 32.2-1.6 0.9-55.4 32.2-1.6 0.9-55.4 32.2-1.6 0.9-55.4 32.2-1.6 1-55.3 32.2-1.6 0.9-55.4 32.2-1.6 0.9-56.2 32.7-1.6-1 56.2-32.6 1.6-0.9 55.4-32.2 1.6-1 55.3-32.2 1.7-0.9 55.3-32.2 1.6-0.9 55.4-32.2 1.6-0.9 55.4-32.2 1.6-0.9 55.4-32.2 1.6-0.9 55.4-32.2 1.6-1 55.4-32.2 1.6-0.9 55.4-32.2 1.6-0.9 56.2-32.7z"/>
					</g>
					<g id="&lt;Group&gt;">
						<path id="&lt;Path&gt;" class="s0" d="m501.8 1284.2l1.6-0.9 55.7 32.2-1.6 0.9z"/>
					</g>
					<g id="&lt;Group&gt;">
						<path id="&lt;Path&gt;" class="s0" d="m617.7 1283.3l56.6 32.6-1.6 1-56.6-32.7z"/>
					</g>
					<g id="&lt;Group&gt;">
						<path id="&lt;Path&gt;" class="s0" d="m387.4 1284.2l1.6-0.9 55.8 32.2-1.6 0.9z"/>
					</g>
					<g id="&lt;Group&gt;">
						<path id="&lt;Path&gt;" class="s0" d="m958.1 952.6l-56.2 32.6-1.6 1-55.4 32.2-1.6 0.9-55.4 32.2-1.5 0.9-55.5 32.2-1.5 0.9-55.4 32.2-1.6 0.9-55.4 32.2-1.6 0.9-55.4 32.2-1.6 1-55.4 32.2-1.6 0.9-55.4 32.2-1.6 0.9-55.4 32.2-1.6 0.9-56.2 32.7-1.6-1 56.2-32.6 1.6-0.9 55.4-32.2 1.6-0.9 55.4-32.2 1.6-1 55.4-32.2 1.6-0.9 55.4-32.2 1.6-0.9 55.4-32.2 1.6-0.9 55.4-32.2 1.5-0.9 55.5-32.2 1.5-1 55.4-32.1 1.6-1 55.4-32.2 1.6-0.9 56.2-32.6z"/>
					</g>
					<g id="&lt;Group&gt;">
						<path id="&lt;Path&gt;" class="s0" d="m444.8 1317.3l1.6-0.9 55.8 32.2-1.7 0.9z"/>
					</g>
					<g id="&lt;Group&gt;">
						<path id="&lt;Path&gt;" class="s0" d="m560.7 1316.4l56.6 32.7-1.6 0.9-56.6-32.7z"/>
					</g>
					<g id="&lt;Group&gt;">
						<path id="&lt;Path&gt;" class="s0" d="m1015.5 985.7l-56.2 32.7-1.6 0.9-55.4 32.2-1.6 0.9-55.4 32.2-1.6 0.9-55.4 32.2-1.6 0.9-55.4 32.2-1.6 0.9-55.4 32.2-1.6 1-55.3 32.2-1.6 0.9-55.4 32.2-1.6 0.9-55.4 32.2-1.6 0.9-55.4 32.2-1.6 0.9-56.2 32.7-1.6-0.9 56.2-32.7 1.6-0.9 55.4-32.2 1.6-0.9 55.4-32.2 1.6-0.9 55.4-32.2 1.6-1 55.3-32.2 1.6-0.9 55.4-32.2 1.6-0.9 55.4-32.2 1.6-0.9 55.4-32.2 1.6-0.9 55.4-32.2 1.6-0.9 55.4-32.2 1.6-1 56.2-32.6z"/>
					</g>
					<g id="&lt;Group&gt;">
						<path id="&lt;Path&gt;" class="s0" d="m503.7 1349.5l56.6 32.7-1.6 0.9-56.6-32.6z"/>
					</g>
					<g id="&lt;Group&gt;">
						<path id="&lt;Path&gt;" class="s0" d="m1072.8 1018.8l-56.2 32.7-1.5 0.9-55.5 32.2-1.5 0.9-55.4 32.2-1.6 0.9-55.4 32.2-1.6 0.9-55.4 32.2-1.6 1-55.4 32.2-1.6 0.9-55.4 32.2-1.6 0.9-55.4 32.2-1.6 0.9-55.4 32.2-1.6 0.9-55.4 32.2-1.6 1-56.1 32.6-1.6-0.9 56.1-32.7 1.7-0.9 55.3-32.2 1.6-0.9 55.4-32.2 1.6-0.9 55.4-32.2 1.6-0.9 55.4-32.2 1.6-1 55.4-32.2 1.6-0.9 55.4-32.2 1.6-0.9 55.4-32.2 1.6-0.9 55.4-32.2 1.5-0.9 55.5-32.2 1.5-1 56.2-32.6z"/>
					</g>
				</g>
			</g>
		</g>
		<g id="&lt;Group&gt;">
			<g id="&lt;Group&gt;">
				<g id="&lt;Group&gt;">
					<g id="&lt;Group&gt;">
						<path id="&lt;Path&gt;" class="s1" d="m429.2 900.1l-0.1 17.2c0-11.5-7.6-23.1-22.9-31.9-30.3-17.6-79.5-17.6-109.6 0-14.9 8.7-22.4 20.1-22.5 31.5l0.1-17.2c0-11.5 7.5-22.9 22.5-31.6 30.1-17.5 79.3-17.5 109.6 0 15.3 8.9 22.9 20.4 22.9 32z"/>
					</g>
					<g id="&lt;Group&gt;">
						<path id="&lt;Path&gt;" class="s2" d="m406.6 948.9c-11.3 6.5-25.3 10.6-39.9 12.3q0-8.6 0-17.2c14.7-1.7 28.7-5.8 40-12.4 14.9-8.6 22.4-20.1 22.5-31.5l-0.1 17.2c0 11.5-7.5 22.9-22.5 31.6z"/>
					</g>
					<g id="&lt;Group&gt;">
						<path id="&lt;Path&gt;" class="s2" d="m353 962q0.1-8.6 0.1-17.2 6.9-0.1 13.6-0.8 0 8.6 0 17.2-6.8 0.7-13.7 0.8z"/>
					</g>
					<g id="&lt;Group&gt;">
						<path id="&lt;Path&gt;" class="s2" d="m353 962q-0.5 0-1.1 0 0-8.6 0-17.2 0.6 0 1.2 0 0 8.6-0.1 17.2z"/>
					</g>
					<g id="&lt;Group&gt;">
						<path id="&lt;Path&gt;" class="s2" d="m297 948.9c-15.3-8.9-22.9-20.4-22.9-32l0.1-17.2c0 11.5 7.6 23.1 22.8 31.9 15.2 8.8 35.1 13.2 54.9 13.2q0 8.6 0 17.2c-19.9 0-39.8-4.4-54.9-13.1z"/>
					</g>
					<g id="&lt;Group&gt;">
						<path id="&lt;Path&gt;" class="s2" d="m406.3 868.1c30.3 17.6 30.5 46 0.4 63.5-30.2 17.6-79.3 17.6-109.7 0-30.3-17.5-30.5-46-0.3-63.5 30.1-17.5 79.3-17.5 109.6 0z"/>
					</g>
					<g id="&lt;Group&gt;">
						<path id="&lt;Path&gt;" class="s1" d="m439.7 900.2v17.2c-0.1 12.9-8.6 25.9-25.6 35.8-34.2 19.9-90.1 19.9-124.6 0-17.3-10-26-23.2-25.9-36.3v-17.3c0 13.2 8.6 26.4 26 36.4 34.4 19.9 90.3 19.9 124.6 0 17-9.9 25.5-22.9 25.5-35.8z"/>
					</g>
					<g id="&lt;Group&gt;">
						<path id="&lt;Compound Path&gt;" fill-rule="evenodd" class="s3" d="m413.7 863.8c34.5 19.9 34.7 52.3 0.5 72.2-34.3 19.9-90.2 19.9-124.6 0-34.5-19.9-34.7-52.3-0.4-72.2 34.2-19.9 90.1-19.9 124.5 0zm-116.7 67.8c30.4 17.6 79.5 17.6 109.7 0 30.1-17.5 29.9-45.9-0.4-63.5-30.3-17.5-79.5-17.5-109.6 0-30.2 17.5-30 46 0.3 63.5z"/>
					</g>
				</g>
			</g>
			<g id="&lt;Group&gt;">
				<g id="&lt;Group&gt;">
					<g id="&lt;Group&gt;">
						<path id="&lt;Path&gt;" class="s1" d="m416.2 876.8l-0.1 17.2c0-11.6-7.6-23.2-22.8-32-30.4-17.5-79.6-17.5-109.7 0-14.9 8.7-22.4 20.1-22.5 31.6l0.1-17.3c0-11.4 7.5-22.8 22.5-31.5 30.1-17.5 79.3-17.5 109.6 0 15.3 8.8 22.9 20.4 22.9 32z"/>
					</g>
					<g id="&lt;Group&gt;">
						<path id="&lt;Path&gt;" class="s2" d="m393.6 925.5c-11.3 6.6-25.3 10.7-39.9 12.3q0-8.6 0-17.2c14.7-1.6 28.7-5.7 40-12.3 14.9-8.7 22.4-20.1 22.5-31.5l-0.1 17.2c0 11.4-7.5 22.8-22.5 31.5z"/>
					</g>
					<g id="&lt;Group&gt;">
						<path id="&lt;Path&gt;" class="s2" d="m340 938.7q0.1-8.6 0.1-17.2 6.9-0.1 13.6-0.9 0 8.6 0 17.2-6.8 0.8-13.7 0.9z"/>
					</g>
					<g id="&lt;Group&gt;">
						<path id="&lt;Path&gt;" class="s2" d="m340 938.7q-0.5 0-1.1 0 0-8.6 0-17.2 0.6 0 1.2 0 0 8.6-0.1 17.2z"/>
					</g>
					<g id="&lt;Group&gt;">
						<path id="&lt;Path&gt;" class="s2" d="m284 925.5c-15.3-8.8-22.9-20.4-22.9-31.9l0.1-17.2c0 11.5 7.6 23.1 22.8 31.9 15.2 8.8 35.1 13.2 54.9 13.2q0 8.6 0 17.2c-19.9 0-39.8-4.4-54.9-13.2z"/>
					</g>
					<g id="&lt;Group&gt;">
						<path id="&lt;Path&gt;" class="s3" d="m393.3 844.8c30.3 17.5 30.5 46 0.4 63.5-30.2 17.5-79.3 17.5-109.7 0-30.3-17.5-30.4-46-0.3-63.5 30.1-17.5 79.3-17.5 109.6 0z"/>
					</g>
					<g id="&lt;Group&gt;">
						<path id="&lt;Path&gt;" class="s3" d="m426.7 876.8v17.2c-0.1 13-8.6 26-25.6 35.9-34.2 19.9-90.1 19.9-124.6 0-17.3-10-26-23.2-25.9-36.4v-17.2c0 13.2 8.6 26.3 26 36.3 34.4 19.9 90.3 20 124.6 0.1 17-9.9 25.5-22.9 25.5-35.9z"/>
					</g>
					<g id="&lt;Group&gt;">
						<path id="&lt;Compound Path&gt;" fill-rule="evenodd" class="s4" d="m400.7 840.5c34.5 19.9 34.7 52.3 0.5 72.2-34.3 19.9-90.2 19.8-124.6-0.1-34.5-19.8-34.7-52.2-0.4-72.1 34.2-19.9 90.1-19.9 124.5 0zm-116.7 67.8c30.4 17.5 79.5 17.5 109.7 0 30.1-17.5 29.9-46-0.4-63.5-30.3-17.5-79.5-17.5-109.6 0-30.1 17.5-30 46 0.3 63.5z"/>
					</g>
				</g>
			</g>
			<g id="&lt;Group&gt;">
				<g id="&lt;Group&gt;">
					<g id="&lt;Group&gt;">
						<path id="&lt;Path&gt;" class="s1" d="m410.2 853.9v17.2c0-11.5-7.6-23.1-22.9-32-30.3-17.5-79.5-17.5-109.6 0.1-15 8.6-22.5 20.1-22.5 31.5v-17.2c0.1-11.5 7.6-22.9 22.5-31.6 30.1-17.5 79.3-17.5 109.7 0 15.2 8.9 22.8 20.4 22.8 32z"/>
					</g>
					<g id="&lt;Group&gt;">
						<path id="&lt;Path&gt;" class="s2" d="m387.7 902.7c-11.3 6.5-25.3 10.6-40 12.3q0.1-8.6 0.1-17.2c14.7-1.7 28.6-5.8 39.9-12.4 15-8.7 22.5-20.1 22.5-31.5v17.2c-0.1 11.5-7.6 22.9-22.5 31.6z"/>
					</g>
					<g id="&lt;Group&gt;">
						<path id="&lt;Path&gt;" class="s2" d="m334.1 915.8q0-8.6 0.1-17.2 6.8-0.1 13.6-0.8 0 8.6-0.1 17.2-6.7 0.7-13.6 0.8z"/>
					</g>
					<g id="&lt;Group&gt;">
						<path id="&lt;Path&gt;" class="s2" d="m334.1 915.8q-0.6 0-1.2 0 0.1-8.6 0.1-17.2 0.6 0 1.2 0-0.1 8.6-0.1 17.2z"/>
					</g>
					<g id="&lt;Group&gt;">
						<path id="&lt;Path&gt;" class="s2" d="m278 902.6c-15.2-8.8-22.8-20.3-22.8-31.9v-17.2c0 11.5 7.6 23.1 22.9 31.9 15.2 8.8 35 13.2 54.9 13.2q0 8.6-0.1 17.2c-19.8 0-39.7-4.4-54.9-13.2z"/>
					</g>
					<g id="&lt;Group&gt;">
						<path id="&lt;Path&gt;" class="s2" d="m387.4 821.9c30.3 17.6 30.4 46 0.3 63.5-30.1 17.5-79.3 17.5-109.6 0-30.3-17.5-30.5-46-0.4-63.5 30.1-17.5 79.3-17.5 109.7 0z"/>
					</g>
					<g id="&lt;Group&gt;">
						<path id="&lt;Path&gt;" class="s1" d="m420.8 854l-0.1 17.2c0 12.9-8.5 25.9-25.5 35.8-34.3 19.9-90.2 19.9-124.6 0-17.3-10-26-23.2-26-36.4l0.1-17.2c-0.1 13.2 8.6 26.4 25.9 36.4 34.5 19.9 90.4 19.9 124.6 0 17-9.9 25.5-22.9 25.6-35.8z"/>
					</g>
					<g id="&lt;Group&gt;">
						<path id="&lt;Compound Path&gt;" fill-rule="evenodd" class="s3" d="m394.8 817.6c34.5 19.9 34.7 52.3 0.4 72.2-34.2 19.9-90.1 19.9-124.6 0-34.4-19.9-34.6-52.3-0.4-72.2 34.3-19.9 90.2-19.9 124.6 0zm-116.7 67.8c30.3 17.5 79.5 17.5 109.6 0 30.1-17.5 30-45.9-0.3-63.5-30.4-17.5-79.6-17.5-109.7 0-30.1 17.5-29.9 46 0.4 63.5z"/>
					</g>
				</g>
			</g>
			<g id="&lt;Group&gt;">
				<g id="&lt;Group&gt;">
					<g id="&lt;Group&gt;">
						<path id="&lt;Path&gt;" class="s1" d="m429.9 836.3l-0.1 17.2c0.1-11.5-7.5-23.1-22.8-31.9-30.3-17.5-79.5-17.5-109.6 0-15 8.7-22.5 20.1-22.5 31.5v-17.2c0.1-11.4 7.5-22.8 22.5-31.5 30.1-17.6 79.3-17.6 109.6 0 15.3 8.8 22.9 20.4 22.9 31.9z"/>
					</g>
					<g id="&lt;Group&gt;">
						<path id="&lt;Path&gt;" class="s2" d="m407.4 885.1c-11.3 6.5-25.3 10.6-40 12.3q0.1-8.6 0.1-17.2c14.6-1.7 28.6-5.8 39.9-12.3 15-8.7 22.5-20.1 22.5-31.6l-0.1 17.2c0 11.5-7.5 22.9-22.4 31.6z"/>
					</g>
					<g id="&lt;Group&gt;">
						<path id="&lt;Path&gt;" class="s2" d="m353.8 898.2q0-8.6 0-17.2 6.9-0.1 13.7-0.8 0 8.6-0.1 17.2-6.7 0.7-13.6 0.8z"/>
					</g>
					<g id="&lt;Group&gt;">
						<path id="&lt;Path&gt;" class="s2" d="m353.8 898.2q-0.6 0-1.2 0 0-8.6 0.1-17.2 0.6 0 1.1 0 0 8.6 0 17.2z"/>
					</g>
					<g id="&lt;Group&gt;">
						<path id="&lt;Path&gt;" class="s2" d="m297.7 885.1c-15.2-8.8-22.9-20.4-22.8-32v-17.2c0 11.6 7.6 23.1 22.9 32 15.1 8.7 35 13.1 54.9 13.1q-0.1 8.6-0.1 17.2c-19.8 0-39.7-4.4-54.9-13.1z"/>
					</g>
					<g id="&lt;Group&gt;">
						<path id="&lt;Path&gt;" class="s3" d="m407 804.4c30.4 17.5 30.5 46 0.4 63.5-30.1 17.5-79.3 17.5-109.6 0-30.4-17.6-30.5-46-0.4-63.5 30.1-17.6 79.3-17.6 109.6 0z"/>
					</g>
					<g id="&lt;Group&gt;">
						<path id="&lt;Path&gt;" class="s3" d="m440.5 836.4l-0.1 17.2c0 13-8.5 25.9-25.5 35.8-34.3 19.9-90.2 19.9-124.6 0-17.4-10-26-23.2-26-36.3l0.1-17.2c-0.1 13.1 8.6 26.3 25.9 36.3 34.5 19.9 90.4 19.9 124.6 0 17-9.9 25.5-22.9 25.6-35.8z"/>
					</g>
					<g id="&lt;Group&gt;">
						<path id="&lt;Compound Path&gt;" fill-rule="evenodd" class="s4" d="m414.5 800c34.4 19.9 34.6 52.3 0.4 72.2-34.2 19.9-90.1 19.9-124.6 0-34.4-19.9-34.6-52.3-0.4-72.2 34.2-19.9 90.1-19.9 124.6 0zm-116.7 67.9c30.3 17.5 79.5 17.5 109.6 0 30.1-17.5 30-46-0.4-63.5-30.3-17.6-79.5-17.6-109.6 0-30.1 17.5-30 45.9 0.4 63.5z"/>
					</g>
				</g>
			</g>
			<g id="&lt;Group&gt;">
				<g id="&lt;Group&gt;">
					<g id="&lt;Group&gt;">
						<path id="&lt;Path&gt;" class="s1" d="m265.4 951.9l-0.1 17.2c0.1-11.5-7.6-23.1-22.8-32-30.4-17.5-79.5-17.5-109.7 0-14.9 8.7-22.4 20.1-22.4 31.6v-17.2c0-11.5 7.5-22.9 22.5-31.6 30.1-17.5 79.3-17.5 109.6 0 15.3 8.8 22.9 20.4 22.9 32z"/>
					</g>
					<g id="&lt;Group&gt;">
						<path id="&lt;Path&gt;" class="s2" d="m242.8 1000.7c-11.3 6.5-25.2 10.6-39.9 12.3q0-8.6 0.1-17.3c14.6-1.6 28.6-5.7 39.9-12.3 15-8.7 22.4-20.1 22.5-31.5l-0.1 17.2c0 11.4-7.5 22.9-22.5 31.6z"/>
					</g>
					<g id="&lt;Group&gt;">
						<path id="&lt;Path&gt;" class="s2" d="m189.3 1013.8q0-8.6 0-17.2 6.9-0.1 13.7-0.9-0.1 8.7-0.1 17.3-6.8 0.7-13.6 0.8z"/>
					</g>
					<g id="&lt;Group&gt;">
						<path id="&lt;Path&gt;" class="s2" d="m189.3 1013.8q-0.6 0-1.2 0 0-8.6 0-17.2 0.6 0 1.2 0 0 8.6 0 17.2z"/>
					</g>
					<g id="&lt;Group&gt;">
						<path id="&lt;Path&gt;" class="s2" d="m133.2 1000.6c-15.3-8.8-22.9-20.4-22.8-31.9v-17.2c0 11.5 7.6 23.1 22.8 31.9 15.2 8.8 35.1 13.2 54.9 13.2q0 8.6 0 17.2c-19.9 0-39.7-4.4-54.9-13.2z"/>
					</g>
					<g id="&lt;Group&gt;">
						<path id="&lt;Path&gt;" class="s2" d="m242.5 919.9c30.3 17.5 30.5 46 0.4 63.5-30.1 17.5-79.3 17.5-109.7 0-30.3-17.5-30.4-46-0.3-63.5 30.1-17.5 79.3-17.5 109.6 0z"/>
					</g>
					<g id="&lt;Group&gt;">
						<path id="&lt;Path&gt;" class="s1" d="m275.9 951.9v17.3c-0.1 12.9-8.6 25.9-25.6 35.8-34.2 19.9-90.1 19.9-124.5 0-17.4-10-26-23.2-26-36.4v-17.2c0 13.2 8.7 26.4 26 36.4 34.5 19.9 90.3 19.9 124.6 0 17-9.9 25.5-22.9 25.5-35.9z"/>
					</g>
					<g id="&lt;Group&gt;">
						<path id="&lt;Compound Path&gt;" fill-rule="evenodd" class="s3" d="m250 915.6c34.4 19.9 34.6 52.3 0.4 72.2-34.3 19.9-90.1 19.9-124.6 0-34.4-19.9-34.6-52.3-0.4-72.2 34.2-19.9 90.1-19.9 124.6 0zm-116.8 67.8c30.4 17.5 79.6 17.5 109.7 0 30.1-17.5 29.9-46-0.4-63.5-30.3-17.5-79.5-17.5-109.6 0-30.1 17.5-30 46 0.3 63.5z"/>
					</g>
				</g>
			</g>
			<g id="&lt;Group&gt;">
				<g id="&lt;Group&gt;">
					<g id="&lt;Group&gt;">
						<path id="&lt;Path&gt;" class="s1" d="m253.4 931.3l-0.1 17.2c0.1-11.6-7.6-23.2-22.8-32-30.3-17.5-79.5-17.5-109.6 0-15 8.7-22.5 20.1-22.5 31.6v-17.3c0-11.4 7.5-22.8 22.5-31.5 30.1-17.5 79.3-17.5 109.6 0 15.3 8.8 22.9 20.4 22.9 32z"/>
					</g>
					<g id="&lt;Group&gt;">
						<path id="&lt;Path&gt;" class="s2" d="m230.8 980c-11.2 6.6-25.2 10.7-39.9 12.3q0-8.6 0.1-17.2c14.6-1.6 28.6-5.7 39.9-12.3 15-8.7 22.4-20.1 22.5-31.5l-0.1 17.2c0 11.4-7.5 22.8-22.5 31.5z"/>
					</g>
					<g id="&lt;Group&gt;">
						<path id="&lt;Path&gt;" class="s2" d="m177.3 993.2q0-8.6 0-17.3 6.9 0 13.7-0.8-0.1 8.6-0.1 17.2-6.7 0.8-13.6 0.9z"/>
					</g>
					<g id="&lt;Group&gt;">
						<path id="&lt;Path&gt;" class="s2" d="m177.3 993.2q-0.6 0-1.2 0 0-8.6 0.1-17.3 0.5 0 1.1 0 0 8.7 0 17.3z"/>
					</g>
					<g id="&lt;Group&gt;">
						<path id="&lt;Path&gt;" class="s2" d="m121.2 980c-15.2-8.8-22.9-20.4-22.8-31.9v-17.3c0 11.6 7.6 23.2 22.9 32 15.1 8.8 35 13.1 54.9 13.1q-0.1 8.7-0.1 17.3c-19.8 0-39.7-4.4-54.9-13.2z"/>
					</g>
					<g id="&lt;Group&gt;">
						<path id="&lt;Path&gt;" class="s3" d="m230.5 899.3c30.4 17.5 30.5 46 0.4 63.5-30.1 17.5-79.3 17.5-109.6 0-30.4-17.5-30.5-46-0.4-63.5 30.1-17.5 79.3-17.5 109.6 0z"/>
					</g>
					<g id="&lt;Group&gt;">
						<path id="&lt;Path&gt;" class="s3" d="m263.9 931.3v17.2c0 13-8.6 26-25.6 35.9-34.2 19.9-90.1 19.8-124.5 0-17.4-10.1-26-23.2-26-36.4l0.1-17.2c-0.1 13.2 8.6 26.3 25.9 36.3 34.5 19.9 90.4 19.9 124.6 0 17-9.8 25.5-22.8 25.5-35.8z"/>
					</g>
					<g id="&lt;Group&gt;">
						<path id="&lt;Compound Path&gt;" fill-rule="evenodd" class="s4" d="m238 895c34.4 19.9 34.6 52.3 0.4 72.1-34.2 19.9-90.1 19.9-124.6 0-34.4-19.8-34.6-52.2-0.4-72.1 34.2-19.9 90.1-19.9 124.6 0zm-116.7 67.8c30.3 17.5 79.5 17.5 109.6 0 30.1-17.5 30-46-0.4-63.5-30.3-17.5-79.5-17.5-109.6 0-30.1 17.5-30 46 0.4 63.5z"/>
					</g>
				</g>
			</g>
			<g id="&lt;Group&gt;">
				<g id="&lt;Group&gt;">
					<g id="&lt;Group&gt;">
						<path id="&lt;Path&gt;" class="s1" d="m268.4 917.4v17.2c0-11.6-7.6-23.2-22.9-32-30.3-17.5-79.5-17.5-109.6 0-15 8.7-22.5 20.1-22.5 31.5l0.1-17.2c0-11.4 7.5-22.8 22.4-31.5 30.2-17.5 79.4-17.5 109.7 0 15.2 8.8 22.9 20.4 22.8 32z"/>
					</g>
					<g id="&lt;Group&gt;">
						<path id="&lt;Path&gt;" class="s2" d="m141.8 906c-13.4 7.8-20.1 18-20.1 28.2l0.1-17.2c0-10.2 6.7-20.4 20-28.2 26.9-15.6 70.9-15.6 97.9 0 13.7 7.9 20.5 18.2 20.4 28.5v17.3c0-10.4-6.8-20.7-20.4-28.6-27.1-15.6-71-15.6-97.9 0z"/>
					</g>
					<g id="&lt;Group&gt;">
						<path id="&lt;Path&gt;" class="s3" d="m258 917.3v17.3c0-10.1-6.6-20.1-19.8-27.7-26.3-15.2-68.8-15.2-94.9 0-13 7.5-19.5 17.4-19.5 27.3l0.1-17.2c0-9.9 6.5-19.8 19.4-27.3 26.1-15.2 68.7-15.2 94.9 0 13.3 7.6 19.9 17.6 19.8 27.6z"/>
					</g>
					<g id="&lt;Group&gt;">
						<path id="&lt;Path&gt;" class="s2" d="m236.7 894.4v17.2l-7-4v-17.2z"/>
					</g>
					<g id="&lt;Group&gt;">
						<path id="&lt;Path&gt;" class="s2" d="m229.7 890.4v17.2l-7.8 4.5 0.1-17.2z"/>
					</g>
					<g id="&lt;Group&gt;">
						<path id="&lt;Path&gt;" class="s3" d="m236.7 894.4v17.2l-7.6 4.4 0.1-17.2z"/>
					</g>
					<g id="&lt;Group&gt;">
						<path id="&lt;Path&gt;" class="s2" d="m174.8 919.6v-17.2q0-0.4 0-0.7 0.5-5.2 7.3-9.1 7.4-4.3 17.9-3.7 10.6 0.6 22 6l-0.1 17.2q-11.4-5.4-21.9-6-10.6-0.6-17.9 3.7-6.9 4-7.3 9.1 0 0.3 0 0.7z"/>
					</g>
					<g id="&lt;Group&gt;">
						<path id="&lt;Path&gt;" class="s3" d="m195.3 921.5l0.1-17.2q0-1.6 2.1-2.9 4.3-2.5 11.9 0.8l-0.1 17.2q-7.5-3.2-11.8-0.7-2.2 1.2-2.2 2.8z"/>
					</g>
					<g id="&lt;Group&gt;">
						<path id="&lt;Path&gt;" class="s2" d="m195.3 921.7q0-0.1 0-0.2l0.1-17.2q0 0.1 0 0.2-0.1 8.6-0.1 17.2 0-8.6 0.1-17.2 0.1 1.7 2 4.6v17.2q-2-2.9-2.1-4.6z"/>
					</g>
					<g id="&lt;Group&gt;">
						<path id="&lt;Path&gt;" class="s2" d="m209.4 902.2l-0.1 17.2-11.9 6.9v-17.2z"/>
					</g>
					<g id="&lt;Group&gt;">
						<path id="&lt;Path&gt;" class="s2" d="m245.6 913.7v17.2q-5.3-7.8-16.5-14.9l0.1-17.2q11.1 7 16.4 14.9z"/>
					</g>
					<g id="&lt;Group&gt;">
						<path id="&lt;Path&gt;" class="s3" d="m216.6 906.1l-0.1 17.2-15 8.7 0.1-17.2z"/>
					</g>
					<g id="&lt;Group&gt;">
						<path id="&lt;Path&gt;" class="s3" d="m174.8 919.6v-17.2q0 5 5.8 12.6l-0.1 17.2q-5.7-7.6-5.7-12.6z"/>
					</g>
					<g id="&lt;Group&gt;">
						<path id="&lt;Path&gt;" class="s3" d="m182.7 917.7l-0.1 17.2-2.1-2.7 0.1-17.2z"/>
					</g>
					<g id="&lt;Group&gt;">
						<path id="&lt;Path&gt;" class="s2" d="m156.5 935.2q-3.7-3.9-5.6-7.2v-17.2q2 3.3 5.7 7.2-0.1 8.6-0.1 17.2z"/>
					</g>
					<g id="&lt;Group&gt;">
						<path id="&lt;Path&gt;" class="s2" d="m204.2 935.5q-1.2-1.6-2.7-3.5l0.1-17.2q1.4 1.9 2.6 3.5 0 8.6 0 17.2z"/>
					</g>
					<g id="&lt;Group&gt;">
						<path id="&lt;Path&gt;" class="s2" d="m150.9 910.8v17.2l-13.4 7.8v-17.2z"/>
					</g>
					<g id="&lt;Group&gt;">
						<path id="&lt;Path&gt;" class="s2" d="m156.5 935.2q0 0 0-0.1 0-0.9 0-1.8 0-4.4 0-8.8 0-3.3 0.1-6.5 0.5 0.6 1.2 1.2 4.5 4.6 9.1 7.6v17.3q-4.6-3.1-9.2-7.6-0.6-0.7-1.2-1.3z"/>
					</g>
					<g id="&lt;Group&gt;">
						<path id="&lt;Path&gt;" class="s2" d="m182.7 917.7l-0.1 17.2-15.7 9.2v-17.3z"/>
					</g>
					<g id="&lt;Group&gt;">
						<path id="&lt;Path&gt;" class="s3" d="m189.1 928.5v17.2q0-0.2-0.1-0.4-0.2-1.8-2.1-4.8v-17.2q1.9 2.9 2.2 4.8 0 0.2 0 0.4z"/>
					</g>
					<g id="&lt;Group&gt;">
						<path id="&lt;Path&gt;" class="s2" d="m204.2 935.5c-0.1-0.1 0-0.2 0-0.2q0-8.5 0-17 3.9 5.4 5 8.5 0.4 1.2 0.6 2.2-0.1 8.6-0.1 17.2-0.2-1-0.6-2.2-1.1-3.1-4.9-8.5z"/>
					</g>
					<g id="&lt;Group&gt;">
						<path id="&lt;Path&gt;" class="s2" d="m209.7 946.2q0-0.1 0-0.2 0-2.7 0-5.3 0-5.9 0.1-11.7 0.1 0.9 0.1 1.7l-0.1 17.2q0-0.8-0.1-1.7z"/>
					</g>
					<g id="&lt;Group&gt;">
						<path id="&lt;Path&gt;" class="s3" d="m186.9 923.3v17.2l-12.6 7.4v-17.2z"/>
					</g>
					<g id="&lt;Group&gt;">
						<path id="&lt;Path&gt;" class="s2" d="m187.2 948.4q-4.8 2.8-12.9-0.5v-17.2q8.1 3.3 12.9 0.5 0 8.6 0 17.2 0-8.6 0-17.2 1.9-1.1 1.9-2.7v17.2q0 1.6-1.9 2.7z"/>
					</g>
					<g id="&lt;Group&gt;">
						<path id="&lt;Path&gt;" class="s3" d="m245.6 913.7v17.2l-16.7 4.2v-17.3z"/>
					</g>
					<g id="&lt;Group&gt;">
						<path id="&lt;Path&gt;" class="s3" d="m228.9 917.8v17.3q-4.7-6.5-12.4-11.8l0.1-17.2q7.6 5.2 12.3 11.7z"/>
					</g>
					<g id="&lt;Group&gt;">
						<path id="&lt;Path&gt;" class="s2" d="m126.3 944.9c-1.7-3.5-2.5-7.1-2.5-10.7l0.1-17.2c-0.1 3.6 0.8 7.2 2.5 10.6q0 8.7-0.1 17.3z"/>
					</g>
					<g id="&lt;Group&gt;">
						<path id="&lt;Path&gt;" class="s3" d="m155 933.8v17.2q-12.2-7.4-17.5-15.2v-17.2q5.3 7.8 17.5 15.2z"/>
					</g>
					<g id="&lt;Group&gt;">
						<path id="&lt;Path&gt;" class="s3" d="m209.9 930.7l-0.1 17.2q0 1.8-0.6 3.3v-17.2q0.7-1.6 0.7-3.3z"/>
					</g>
					<g id="&lt;Group&gt;">
						<path id="&lt;Path&gt;" class="s2" d="m155 933.8v17.2l-10.2 5.9v-17.2z"/>
					</g>
					<g id="&lt;Group&gt;">
						<path id="&lt;Path&gt;" class="s3" d="m151.8 943.7v17.3l-7-4.1v-17.2z"/>
					</g>
					<g id="&lt;Group&gt;">
						<path id="&lt;Path&gt;" class="s3" d="m162.2 937.7v17.2l-10.4 6.1v-17.3z"/>
					</g>
					<g id="&lt;Group&gt;">
						<path id="&lt;Path&gt;" class="s3" d="m209.2 934v17.2q-1.4 3-5.9 5.6-8.1 4.7-18.8 4.2-10.8-0.6-22.3-6.1v-17.2q11.6 5.5 22.3 6.1 10.8 0.5 18.9-4.2 4.4-2.6 5.8-5.6z"/>
					</g>
					<g id="&lt;Group&gt;">
						<path id="&lt;Path&gt;" class="s2" d="m126.3 944.9c0-0.2 0-0.3 0-0.5q0.1-8.4 0.1-16.8c3 6.3 8.8 12.1 17.2 17 26.3 15.2 68.9 15.2 95 0 12.9-7.5 19.4-17.4 19.4-27.3v17.3c-0.1 9.8-6.5 19.7-19.5 27.2-26.1 15.2-68.7 15.2-94.9 0-8.5-4.8-14.2-10.7-17.3-16.9z"/>
					</g>
					<g id="&lt;Group&gt;">
						<path id="&lt;Path&gt;" class="s3" d="m260.1 917.3v17.3c0 10.2-6.7 20.3-20.1 28.1-26.9 15.6-70.8 15.6-97.9 0-13.6-7.9-20.4-18.2-20.4-28.5l0.1-17.2c-0.1 10.3 6.7 20.6 20.3 28.5 27.1 15.6 71 15.6 98 0 13.3-7.8 20-18 20-28.2z"/>
					</g>
					<g id="&lt;Group&gt;">
						<path id="&lt;Compound Path&gt;" fill-rule="evenodd" class="s3" d="m239.7 888.8c27.1 15.6 27.2 41.1 0.4 56.7-27 15.6-70.9 15.6-98 0-27-15.6-27.2-41.1-0.3-56.7 26.9-15.6 70.9-15.6 97.9 0zm-96.1 55.8c26.3 15.2 68.9 15.2 95 0 26-15.1 25.9-39.8-0.4-54.9-26.2-15.2-68.8-15.2-94.9 0-26.1 15.1-25.9 39.8 0.3 54.9z"/>
					</g>
					<g id="&lt;Group&gt;">
						<path id="&lt;Path&gt;" class="s2" d="m189.1 928.1q0.3 1.9-1.9 3.1-4.8 2.8-12.9-0.5l12.6-7.4q1.9 2.9 2.2 4.8z"/>
					</g>
					<g id="&lt;Group&gt;">
						<path id="&lt;Compound Path&gt;" fill-rule="evenodd" class="s3" d="m216.6 906.1l-15 8.7q6.2 8 7.6 12 1.4 4.1 0 7.2-1.4 3-5.8 5.6-8.1 4.7-18.9 4.2-10.7-0.6-22.3-6.1l-10.4 6-7-4 10.2-5.9q-12.2-7.4-17.5-15.2l13.4-7.8q2.3 3.9 6.9 8.4 4.5 4.6 9.1 7.6l15.8-9.1-2.1-2.7q-6.2-8.2-5.8-13.3 0.5-5.2 7.3-9.1 7.4-4.3 17.9-3.7 10.6 0.6 22 6l7.7-4.5 7 4-7.5 4.4q11.1 7 16.4 14.9l-16.7 4.1q-4.7-6.5-12.3-11.7zm-27.5 22q-0.3-1.9-2.2-4.8l-12.6 7.4q8.1 3.3 12.9 0.5 2.2-1.2 1.9-3.1zm20.3-25.9q-7.6-3.3-11.9-0.8-2.2 1.3-2.1 3.1 0.1 1.7 2 4.6z"/>
					</g>
					<g id="&lt;Group&gt;">
						<path id="&lt;Compound Path&gt;" fill-rule="evenodd" class="s2" d="m238.2 889.7c26.3 15.1 26.4 39.8 0.4 54.9-26.1 15.2-68.7 15.2-95 0-26.2-15.1-26.4-39.8-0.3-54.9 26.1-15.2 68.7-15.2 94.9 0zm-53.7 54.1q10.8 0.5 18.9-4.2 4.4-2.6 5.8-5.6 1.4-3.1 0-7.2-1.4-4-7.6-12l15-8.7q7.6 5.2 12.3 11.7l16.7-4.1q-5.3-7.9-16.4-14.9l7.5-4.4-7-4-7.7 4.5q-11.4-5.4-22-6-10.5-0.6-17.9 3.7-6.8 3.9-7.3 9.1-0.4 5.1 5.8 13.3l2.1 2.7-15.8 9.1q-4.6-3-9.1-7.6-4.6-4.5-6.9-8.4l-13.4 7.8q5.3 7.8 17.5 15.2l-10.2 5.9 7 4 10.4-6q11.6 5.5 22.3 6.1z"/>
					</g>
					<g id="&lt;Group&gt;">
						<path id="&lt;Path&gt;" class="s2" d="m114.9 942.9q-1.5-4.3-1.5-8.8l0.1-17.2q-0.1 4.5 1.4 8.8 0 8.6 0 17.2z"/>
					</g>
					<g id="&lt;Group&gt;">
						<path id="&lt;Path&gt;" class="s2" d="m119.3 951.5q0 0 0 0 0.1-8.6 0.1-17.2c3.8 5.3 9.4 10.3 16.9 14.6q0.4 0.2 0.8 0.4-0.1 8.6-0.1 17.2-0.4-0.2-0.8-0.4c-7.4-4.3-13-9.3-16.9-14.6z"/>
					</g>
					<g id="&lt;Group&gt;">
						<path id="&lt;Path&gt;" class="s2" d="m137 966.5q0-8.6 0.1-17.2c30.3 17.1 79 17 108.8-0.4 15-8.7 22.5-20.1 22.5-31.5v17.2c0 11.4-7.5 22.8-22.5 31.5-29.9 17.4-78.5 17.5-108.9 0.4z"/>
					</g>
					<g id="&lt;Group&gt;">
						<path id="&lt;Compound Path&gt;" fill-rule="evenodd" class="s2" d="m245.6 885.4c30.3 17.5 30.5 46 0.3 63.5-30.1 17.5-79.3 17.5-109.6 0-30.3-17.5-30.5-46-0.4-63.5 30.2-17.5 79.4-17.5 109.7 0zm-103.5 60.1c27.1 15.6 71 15.6 98 0 26.8-15.6 26.7-41.1-0.4-56.7-27-15.6-71-15.6-97.9 0-26.9 15.6-26.7 41.1 0.3 56.7z"/>
					</g>
					<g id="&lt;Group&gt;">
						<path id="&lt;Path&gt;" class="s2" d="m116.2 946.2q-0.8-1.6-1.3-3.3 0-8.6 0-17.2 0.6 1.7 1.4 3.3-0.1 8.6-0.1 17.2z"/>
					</g>
					<g id="&lt;Group&gt;">
						<path id="&lt;Path&gt;" class="s2" d="m116.2 946.2c0-0.1 0-0.2 0-0.4q0-8.4 0.1-16.8 1.2 2.6 2.9 5.1 0 8.6 0 17.2-1.8-2.5-3-5.1z"/>
					</g>
					<g id="&lt;Group&gt;">
						<path id="&lt;Path&gt;" class="s2" d="m119.3 951.5q0-0.1-0.1-0.2 0-8.6 0-17.2 0.1 0.1 0.2 0.2 0 8.6-0.1 17.2z"/>
					</g>
					<g id="&lt;Group&gt;">
						<path id="&lt;Path&gt;" class="s1" d="m279 917.4l-0.1 17.2c0 13-8.5 25.9-25.5 35.8-34.3 19.9-90.1 19.9-124.6 0-17.3-10-26-23.1-25.9-36.3v-17.2c0 13.1 8.6 26.3 26 36.3 34.4 19.9 90.3 19.9 124.5 0 17-9.9 25.5-22.8 25.6-35.8z"/>
					</g>
					<g id="&lt;Group&gt;">
						<path id="&lt;Compound Path&gt;" fill-rule="evenodd" class="s3" d="m253 881.1c34.5 19.9 34.7 52.2 0.4 72.1-34.2 19.9-90.1 19.9-124.5 0-34.5-19.9-34.7-52.2-0.4-72.1 34.2-19.9 90.1-19.9 124.5 0zm-116.7 67.8c30.3 17.5 79.5 17.5 109.6 0 30.2-17.5 30-46-0.3-63.5-30.3-17.5-79.5-17.5-109.7 0-30.1 17.5-29.9 46 0.4 63.5z"/>
					</g>
					<g id="&lt;Group&gt;">
						<path id="&lt;Path&gt;" class="s2" d="m197.5 901.4q4.3-2.5 11.9 0.8l-12 6.9q-1.9-2.9-2-4.6-0.1-1.8 2.1-3.1z"/>
					</g>
				</g>
			</g>
			<g id="&lt;Group&gt;">
				<g id="&lt;Group&gt;">
					<g id="&lt;Group&gt;">
						<path id="&lt;Path&gt;" class="s1" d="m410.9 813.8l-0.1 17.3c0.1-11.6-7.6-23.2-22.8-32-30.3-17.5-79.5-17.5-109.6 0-15 8.7-22.5 20.1-22.5 31.5v-17.2c0.1-11.4 7.5-22.8 22.5-31.5 30.1-17.5 79.3-17.5 109.6 0 15.3 8.8 22.9 20.4 22.9 31.9z"/>
					</g>
					<g id="&lt;Group&gt;">
						<path id="&lt;Path&gt;" class="s2" d="m388.4 862.6c-11.3 6.5-25.3 10.6-40 12.3q0-8.6 0.1-17.2c14.6-1.7 28.6-5.8 39.9-12.3 15-8.7 22.5-20.1 22.5-31.6l-0.1 17.3c0 11.4-7.5 22.8-22.4 31.5z"/>
					</g>
					<g id="&lt;Group&gt;">
						<path id="&lt;Path&gt;" class="s2" d="m334.8 875.7q0-8.6 0-17.2 6.9-0.1 13.7-0.8-0.1 8.6-0.1 17.2-6.7 0.7-13.6 0.8z"/>
					</g>
					<g id="&lt;Group&gt;">
						<path id="&lt;Path&gt;" class="s2" d="m334.8 875.7q-0.6 0-1.2 0 0-8.6 0.1-17.2 0.5 0 1.1 0 0 8.6 0 17.2z"/>
					</g>
					<g id="&lt;Group&gt;">
						<path id="&lt;Path&gt;" class="s2" d="m278.7 862.6c-15.2-8.8-22.9-20.4-22.8-32v-17.2c0 11.6 7.6 23.2 22.9 32 15.1 8.7 35 13.1 54.9 13.1q-0.1 8.6-0.1 17.2c-19.8 0-39.7-4.4-54.9-13.1z"/>
					</g>
					<g id="&lt;Group&gt;">
						<path id="&lt;Path&gt;" class="s2" d="m388 781.9c30.4 17.5 30.5 46 0.4 63.5-30.1 17.5-79.3 17.5-109.6 0-30.4-17.5-30.5-46-0.4-63.5 30.1-17.5 79.3-17.5 109.6 0z"/>
					</g>
					<g id="&lt;Group&gt;">
						<path id="&lt;Path&gt;" class="s1" d="m421.4 813.9v17.2c0 13-8.5 25.9-25.6 35.8-34.2 19.9-90.1 19.9-124.5 0-17.4-10-26-23.2-26-36.3l0.1-17.2c-0.1 13.1 8.6 26.3 25.9 36.3 34.5 19.9 90.4 19.9 124.6 0 17-9.9 25.5-22.8 25.5-35.8z"/>
					</g>
					<g id="&lt;Group&gt;">
						<path id="&lt;Compound Path&gt;" fill-rule="evenodd" class="s3" d="m395.5 777.5c34.4 19.9 34.6 52.3 0.4 72.2-34.2 19.9-90.1 19.9-124.6 0-34.4-19.9-34.6-52.3-0.4-72.2 34.2-19.9 90.1-19.9 124.6 0zm-116.7 67.9c30.3 17.5 79.5 17.5 109.6 0 30.1-17.5 30-46-0.4-63.5-30.3-17.5-79.5-17.5-109.6 0-30.1 17.5-30 46 0.4 63.5z"/>
					</g>
				</g>
			</g>
			<g id="&lt;Group&gt;">
				<g id="&lt;Group&gt;">
					<g id="&lt;Group&gt;">
						<path id="&lt;Path&gt;" class="s1" d="m430.6 796.3l-0.1 17.2c0.1-11.6-7.6-23.2-22.8-32-30.4-17.5-79.5-17.5-109.7 0-14.9 8.7-22.4 20.1-22.4 31.5v-17.2c0-11.4 7.5-22.8 22.5-31.5 30.1-17.5 79.3-17.5 109.6 0 15.3 8.8 22.9 20.4 22.9 32z"/>
					</g>
					<g id="&lt;Group&gt;">
						<path id="&lt;Path&gt;" class="s2" d="m408 845c-11.3 6.6-25.2 10.7-39.9 12.3q0-8.6 0.1-17.2c14.6-1.6 28.6-5.7 39.9-12.3 14.9-8.7 22.4-20.1 22.5-31.5l-0.1 17.2c0 11.4-7.5 22.8-22.5 31.5z"/>
					</g>
					<g id="&lt;Group&gt;">
						<path id="&lt;Path&gt;" class="s2" d="m354.5 858.1q0-8.6 0-17.2 6.9-0.1 13.7-0.8-0.1 8.6-0.1 17.2-6.8 0.8-13.6 0.8z"/>
					</g>
					<g id="&lt;Group&gt;">
						<path id="&lt;Path&gt;" class="s2" d="m354.5 858.1q-0.6 0-1.2 0 0-8.6 0-17.2 0.6 0 1.2 0 0 8.6 0 17.2z"/>
					</g>
					<g id="&lt;Group&gt;">
						<path id="&lt;Path&gt;" class="s2" d="m298.4 845c-15.3-8.8-22.9-20.4-22.8-32v-17.2c0 11.6 7.6 23.2 22.8 32 15.2 8.7 35.1 13.1 54.9 13.1q0 8.6 0 17.2c-19.9 0-39.7-4.4-54.9-13.1z"/>
					</g>
					<g id="&lt;Group&gt;">
						<path id="&lt;Path&gt;" class="s3" d="m407.7 764.3c30.3 17.5 30.5 46 0.4 63.5-30.1 17.5-79.3 17.5-109.7 0-30.3-17.5-30.4-46-0.3-63.5 30.1-17.5 79.3-17.5 109.6 0z"/>
					</g>
					<g id="&lt;Group&gt;">
						<path id="&lt;Path&gt;" class="s3" d="m441.1 796.3v17.2c-0.1 13-8.6 25.9-25.6 35.8-34.2 19.9-90.1 19.9-124.5 0-17.4-10-26-23.2-26-36.3v-17.2c0 13.1 8.7 26.3 26 36.3 34.5 19.9 90.3 19.9 124.6 0 17-9.9 25.5-22.8 25.5-35.8z"/>
					</g>
					<g id="&lt;Group&gt;">
						<path id="&lt;Compound Path&gt;" fill-rule="evenodd" class="s4" d="m415.2 760c34.4 19.8 34.6 52.2 0.4 72.1-34.3 19.9-90.1 19.9-124.6 0-34.4-19.9-34.6-52.3-0.4-72.1 34.2-19.9 90.1-19.9 124.6 0zm-116.8 67.8c30.4 17.5 79.6 17.5 109.7 0 30.1-17.5 29.9-46-0.4-63.5-30.3-17.5-79.5-17.5-109.6 0-30.1 17.5-30 46 0.3 63.5z"/>
					</g>
				</g>
			</g>
			<g id="&lt;Group&gt;">
				<g id="&lt;Group&gt;">
					<g id="&lt;Group&gt;">
						<path id="&lt;Path&gt;" class="s1" d="m410.2 771.8v17.3c0-11.6-7.6-23.2-22.9-32-30.3-17.5-79.5-17.5-109.6 0-15 8.7-22.5 20.1-22.5 31.5v-17.2c0.1-11.4 7.6-22.8 22.5-31.5 30.2-17.5 79.3-17.5 109.7 0 15.2 8.8 22.8 20.4 22.8 31.9z"/>
					</g>
					<g id="&lt;Group&gt;">
						<path id="&lt;Path&gt;" class="s2" d="m283.6 760.5c-13.4 7.7-20.1 17.9-20.1 28.1v-17.2c0.1-10.2 6.8-20.4 20.1-28.1 26.9-15.7 70.8-15.7 97.9-0.1 13.6 7.9 20.4 18.3 20.4 28.6v17.2c0-10.3-6.8-20.7-20.4-28.5-27.1-15.7-71-15.7-97.9 0z"/>
					</g>
					<g id="&lt;Group&gt;">
						<path id="&lt;Path&gt;" class="s3" d="m399.8 771.8v17.2c0-10-6.6-20-19.8-27.7-26.3-15.1-68.9-15.1-94.9 0-13 7.6-19.5 17.4-19.5 27.3v-17.2c0.1-9.9 6.6-19.7 19.5-27.3 26.1-15.1 68.7-15.1 94.9 0 13.2 7.7 19.8 17.7 19.8 27.7z"/>
					</g>
					<g id="&lt;Group&gt;">
						<path id="&lt;Path&gt;" class="s2" d="m378.5 748.9l-0.1 17.2-6.9-4.1v-17.2z"/>
					</g>
					<g id="&lt;Group&gt;">
						<path id="&lt;Path&gt;" class="s2" d="m371.5 744.8v17.2l-7.8 4.5v-17.2z"/>
					</g>
					<g id="&lt;Group&gt;">
						<path id="&lt;Path&gt;" class="s3" d="m378.5 748.9l-0.1 17.2-7.5 4.4v-17.2z"/>
					</g>
					<g id="&lt;Group&gt;">
						<path id="&lt;Path&gt;" class="s2" d="m316.5 774l0.1-17.2q0-0.3 0-0.7 0.5-5.1 7.3-9.1 7.4-4.2 17.9-3.7 10.6 0.6 21.9 6v17.2q-11.4-5.4-22-5.9-10.5-0.6-17.8 3.6-6.9 4-7.3 9.2 0 0.3-0.1 0.6z"/>
					</g>
					<g id="&lt;Group&gt;">
						<path id="&lt;Path&gt;" class="s3" d="m337.1 776v-17.2q0.1-1.7 2.2-2.9 4.3-2.5 11.9 0.7l-0.1 17.3q-7.6-3.3-11.9-0.8-2.1 1.3-2.1 2.9z"/>
					</g>
					<g id="&lt;Group&gt;">
						<path id="&lt;Path&gt;" class="s2" d="m337.1 776.2q0-0.1 0-0.2v-17.2q0 0.1 0.1 0.1-0.1 8.6-0.1 17.3 0-8.7 0.1-17.3 0.1 1.8 2 4.7v17.2q-2-2.9-2.1-4.6z"/>
					</g>
					<g id="&lt;Group&gt;">
						<path id="&lt;Path&gt;" class="s2" d="m351.2 756.6l-0.1 17.3-11.9 6.9v-17.2z"/>
					</g>
					<g id="&lt;Group&gt;">
						<path id="&lt;Path&gt;" class="s2" d="m387.4 768.2v17.2q-5.3-7.9-16.5-14.9v-17.2q11.2 7 16.5 14.9z"/>
					</g>
					<g id="&lt;Group&gt;">
						<path id="&lt;Path&gt;" class="s3" d="m358.4 760.6l-0.1 17.2-15 8.7 0.1-17.2z"/>
					</g>
					<g id="&lt;Group&gt;">
						<path id="&lt;Path&gt;" class="s3" d="m316.5 774l0.1-17.2q0 5 5.7 12.6v17.2q-5.8-7.6-5.8-12.6z"/>
					</g>
					<g id="&lt;Group&gt;">
						<path id="&lt;Path&gt;" class="s3" d="m324.5 772.2l-0.1 17.2-2.1-2.8v-17.2z"/>
					</g>
					<g id="&lt;Group&gt;">
						<path id="&lt;Path&gt;" class="s2" d="m298.3 789.7q-3.7-3.9-5.7-7.2l0.1-17.2q1.9 3.3 5.6 7.2 0 8.6 0 17.2z"/>
					</g>
					<g id="&lt;Group&gt;">
						<path id="&lt;Path&gt;" class="s2" d="m345.9 790q-1.1-1.7-2.6-3.5l0.1-17.2q1.4 1.8 2.6 3.5 0 8.6-0.1 17.2z"/>
					</g>
					<g id="&lt;Group&gt;">
						<path id="&lt;Path&gt;" class="s2" d="m292.7 765.3l-0.1 17.2-13.3 7.8v-17.2z"/>
					</g>
					<g id="&lt;Group&gt;">
						<path id="&lt;Path&gt;" class="s2" d="m298.3 789.7q0-0.1 0-0.2 0-0.9 0-1.7 0-4.5 0-8.9 0-3.2 0-6.4 0.6 0.6 1.2 1.2 4.6 4.6 9.2 7.6v17.2q-4.6-3-9.2-7.6-0.6-0.6-1.2-1.2z"/>
					</g>
					<g id="&lt;Group&gt;">
						<path id="&lt;Path&gt;" class="s2" d="m324.5 772.2l-0.1 17.2-15.7 9.1v-17.2z"/>
					</g>
					<g id="&lt;Group&gt;">
						<path id="&lt;Path&gt;" class="s3" d="m330.9 783v17.2q0-0.2-0.1-0.4-0.2-1.9-2.1-4.8v-17.2q1.9 2.9 2.2 4.8 0 0.2 0 0.4z"/>
					</g>
					<g id="&lt;Group&gt;">
						<path id="&lt;Path&gt;" class="s2" d="m345.9 790c0-0.1 0-0.2 0-0.3q0.1-8.5 0.1-16.9 3.9 5.4 5 8.5 0.4 1.1 0.5 2.2 0 8.6 0 17.2-0.2-1.1-0.6-2.2-1.1-3.1-5-8.5z"/>
					</g>
					<g id="&lt;Group&gt;">
						<path id="&lt;Path&gt;" class="s2" d="m351.5 800.7q0-0.1 0-0.3 0-2.6 0-5.3 0-5.8 0-11.6 0.2 0.9 0.2 1.7l-0.1 17.2q0-0.8-0.1-1.7z"/>
					</g>
					<g id="&lt;Group&gt;">
						<path id="&lt;Path&gt;" class="s3" d="m328.7 777.8v17.2l-12.7 7.3 0.1-17.2z"/>
					</g>
					<g id="&lt;Group&gt;">
						<path id="&lt;Path&gt;" class="s2" d="m329 802.9q-4.9 2.8-13-0.6l0.1-17.2q8.1 3.4 12.9 0.6 0 8.6 0 17.2 0-8.6 0-17.2 1.9-1.1 1.9-2.7v17.2q-0.1 1.6-1.9 2.7z"/>
					</g>
					<g id="&lt;Group&gt;">
						<path id="&lt;Path&gt;" class="s3" d="m387.4 768.2v17.2l-16.7 4.1v-17.2z"/>
					</g>
					<g id="&lt;Group&gt;">
						<path id="&lt;Path&gt;" class="s3" d="m370.7 772.3v17.2q-4.7-6.5-12.4-11.7l0.1-17.2q7.6 5.2 12.3 11.7z"/>
					</g>
					<g id="&lt;Group&gt;">
						<path id="&lt;Path&gt;" class="s2" d="m268.1 799.3c-1.7-3.5-2.5-7.1-2.5-10.7v-17.2c0 3.6 0.9 7.2 2.6 10.7q-0.1 8.6-0.1 17.2z"/>
					</g>
					<g id="&lt;Group&gt;">
						<path id="&lt;Path&gt;" class="s3" d="m296.8 788.2v17.2q-12.3-7.3-17.5-15.1v-17.2q5.3 7.8 17.5 15.1z"/>
					</g>
					<g id="&lt;Group&gt;">
						<path id="&lt;Path&gt;" class="s3" d="m351.7 785.2l-0.1 17.2q0 1.7-0.7 3.2l0.1-17.2q0.7-1.5 0.7-3.2z"/>
					</g>
					<g id="&lt;Group&gt;">
						<path id="&lt;Path&gt;" class="s2" d="m296.8 788.2v17.2l-10.3 6 0.1-17.2z"/>
					</g>
					<g id="&lt;Group&gt;">
						<path id="&lt;Path&gt;" class="s3" d="m293.6 798.2l-0.1 17.2-7-4 0.1-17.2z"/>
					</g>
					<g id="&lt;Group&gt;">
						<path id="&lt;Path&gt;" class="s3" d="m304 792.2v17.2l-10.5 6 0.1-17.2z"/>
					</g>
					<g id="&lt;Group&gt;">
						<path id="&lt;Path&gt;" class="s3" d="m351 788.4l-0.1 17.2q-1.3 3.1-5.8 5.7-8.1 4.7-18.8 4.2-10.8-0.6-22.3-6.1v-17.2q11.5 5.5 22.3 6 10.8 0.6 18.8-4.1 4.5-2.6 5.9-5.7z"/>
					</g>
					<g id="&lt;Group&gt;">
						<path id="&lt;Path&gt;" class="s2" d="m268.1 799.3c0-0.1 0-0.3 0-0.4q0-8.4 0.1-16.8c3 6.2 8.7 12.1 17.2 17 26.3 15.2 68.8 15.2 94.9 0 13-7.5 19.5-17.4 19.5-27.3v17.2c-0.1 9.9-6.6 19.8-19.5 27.3-26.1 15.2-68.7 15.2-94.9 0-8.5-4.9-14.2-10.8-17.3-17z"/>
					</g>
					<g id="&lt;Group&gt;">
						<path id="&lt;Path&gt;" class="s3" d="m401.9 771.8v17.2c-0.1 10.2-6.8 20.4-20.1 28.2-26.9 15.6-70.8 15.6-97.9 0-13.6-7.9-20.4-18.2-20.4-28.6v-17.2c0 10.4 6.8 20.7 20.4 28.6 27.1 15.6 71 15.6 97.9 0 13.4-7.8 20.1-18 20.1-28.2z"/>
					</g>
					<g id="&lt;Group&gt;">
						<path id="&lt;Compound Path&gt;" fill-rule="evenodd" class="s3" d="m381.5 743.2c27.1 15.7 27.2 41.1 0.3 56.8-26.9 15.6-70.8 15.6-97.9 0-27-15.7-27.2-41.1-0.3-56.7 26.9-15.7 70.8-15.7 97.9-0.1zm-96.1 55.9c26.3 15.2 68.8 15.2 94.9 0 26.1-15.2 26-39.8-0.3-55-26.2-15.1-68.8-15.1-94.9 0-26.1 15.2-25.9 39.8 0.3 55z"/>
					</g>
					<g id="&lt;Group&gt;">
						<path id="&lt;Path&gt;" class="s2" d="m330.9 782.6q0.2 1.8-1.9 3.1-4.8 2.8-12.9-0.6l12.6-7.3q1.9 2.9 2.2 4.8z"/>
					</g>
					<g id="&lt;Group&gt;">
						<path id="&lt;Compound Path&gt;" fill-rule="evenodd" class="s3" d="m358.4 760.6l-15 8.7q6.1 7.9 7.6 12 1.4 4 0 7.1-1.4 3.1-5.9 5.7-8 4.7-18.8 4.1-10.8-0.5-22.3-6l-10.4 6-7-4 10.2-6q-12.2-7.3-17.5-15.1l13.4-7.8q2.2 3.8 6.8 8.4 4.6 4.6 9.2 7.6l15.8-9.1-2.2-2.8q-6.1-8.1-5.7-13.3 0.5-5.1 7.3-9.1 7.4-4.2 17.9-3.7 10.6 0.6 21.9 6l7.8-4.5 7 4.1-7.6 4.4q11.2 7 16.5 14.9l-16.7 4.1q-4.7-6.5-12.3-11.7zm-27.5 22q-0.3-1.9-2.2-4.8l-12.6 7.3q8.1 3.4 12.9 0.6 2.1-1.3 1.9-3.1zm20.3-26q-7.6-3.2-11.9-0.7-2.3 1.3-2.1 3 0.1 1.8 2 4.7z"/>
					</g>
					<g id="&lt;Group&gt;">
						<path id="&lt;Compound Path&gt;" fill-rule="evenodd" class="s2" d="m380 744.1c26.3 15.2 26.4 39.8 0.3 55-26.1 15.2-68.6 15.2-94.9 0-26.2-15.2-26.4-39.8-0.3-55 26.1-15.1 68.7-15.1 94.9 0zm-53.7 54.1q10.8 0.6 18.8-4.1 4.5-2.6 5.9-5.7 1.4-3.1 0-7.1-1.5-4.1-7.6-12l15-8.7q7.6 5.2 12.3 11.7l16.7-4.1q-5.3-7.9-16.5-14.9l7.6-4.4-7-4.1-7.8 4.5q-11.3-5.4-21.9-6-10.5-0.5-17.9 3.7-6.8 4-7.3 9.1-0.4 5.2 5.7 13.3l2.2 2.8-15.8 9.1q-4.6-3-9.2-7.6-4.6-4.6-6.8-8.4l-13.4 7.8q5.3 7.8 17.5 15.1l-10.2 6 7 4 10.4-6q11.5 5.5 22.3 6z"/>
					</g>
					<g id="&lt;Group&gt;">
						<path id="&lt;Path&gt;" class="s2" d="m256.6 797.4q-1.4-4.4-1.4-8.8v-17.2q0 4.4 1.5 8.8 0 8.6-0.1 17.2z"/>
					</g>
					<g id="&lt;Group&gt;">
						<path id="&lt;Path&gt;" class="s2" d="m261.1 806q0 0 0 0 0-8.6 0.1-17.2c3.8 5.3 9.4 10.3 16.9 14.6q0.4 0.2 0.7 0.4 0 8.6 0 17.2-0.4-0.2-0.8-0.4c-7.4-4.3-13.1-9.3-16.9-14.6z"/>
					</g>
					<g id="&lt;Group&gt;">
						<path id="&lt;Path&gt;" class="s2" d="m278.8 821q0-8.6 0-17.2c30.4 17.1 79 16.9 108.9-0.4 15-8.7 22.5-20.1 22.5-31.6v17.2c-0.1 11.5-7.6 22.9-22.5 31.6-29.9 17.3-78.5 17.5-108.9 0.4z"/>
					</g>
					<g id="&lt;Group&gt;">
						<path id="&lt;Compound Path&gt;" fill-rule="evenodd" class="s2" d="m387.4 739.9c30.3 17.5 30.4 46 0.3 63.5-30.1 17.5-79.3 17.5-109.6 0-30.3-17.5-30.5-46-0.4-63.5 30.2-17.5 79.3-17.5 109.7 0zm-103.5 60.1c27.1 15.6 71 15.6 97.9 0 26.9-15.7 26.8-41.1-0.3-56.8-27.1-15.6-71-15.6-97.9 0.1-26.9 15.6-26.7 41 0.3 56.7z"/>
					</g>
					<g id="&lt;Group&gt;">
						<path id="&lt;Path&gt;" class="s2" d="m258 800.7q-0.8-1.6-1.4-3.3 0.1-8.6 0.1-17.2 0.6 1.7 1.3 3.3 0 8.6 0 17.2z"/>
					</g>
					<g id="&lt;Group&gt;">
						<path id="&lt;Path&gt;" class="s2" d="m258 800.7c0-0.1 0-0.3 0-0.4q0-8.4 0-16.8 1.2 2.5 3 5 0 8.6-0.1 17.2-1.7-2.4-2.9-5z"/>
					</g>
					<g id="&lt;Group&gt;">
						<path id="&lt;Path&gt;" class="s2" d="m261.1 806q-0.1-0.1-0.2-0.3 0.1-8.6 0.1-17.2 0.1 0.1 0.2 0.3 0 8.6-0.1 17.2z"/>
					</g>
					<g id="&lt;Group&gt;">
						<path id="&lt;Path&gt;" class="s1" d="m420.8 771.9l-0.1 17.2c0 13-8.5 25.9-25.5 35.8-34.3 19.9-90.1 19.9-124.6 0-17.3-10-26-23.2-26-36.3l0.1-17.2c-0.1 13.1 8.6 26.3 25.9 36.3 34.5 19.9 90.4 19.9 124.6 0 17-9.9 25.5-22.9 25.6-35.8z"/>
					</g>
					<g id="&lt;Group&gt;">
						<path id="&lt;Compound Path&gt;" fill-rule="evenodd" class="s3" d="m394.8 735.5c34.5 19.9 34.6 52.3 0.4 72.2-34.2 19.9-90.1 19.9-124.6 0-34.4-19.9-34.6-52.3-0.4-72.2 34.3-19.9 90.2-19.9 124.6 0zm-116.7 67.9c30.3 17.5 79.5 17.5 109.6 0 30.1-17.5 30-46-0.3-63.5-30.4-17.5-79.5-17.5-109.7 0-30.1 17.5-29.9 46 0.4 63.5z"/>
					</g>
					<g id="&lt;Group&gt;">
						<path id="&lt;Path&gt;" class="s2" d="m339.3 755.9q4.3-2.5 11.9 0.7l-12 7q-1.9-2.9-2-4.7-0.2-1.7 2.1-3z"/>
					</g>
				</g>
			</g>
		</g>
		<g id="&lt;Group&gt;">
			<g id="&lt;Group&gt;">
				<g id="&lt;Group&gt;">
					<g id="&lt;Group&gt;">
						<path id="&lt;Path&gt;" class="s5" d="m885.8 942.8l-0.1 40.8-465.7 270.6 0.2-40.8z"/>
					</g>
					<g id="&lt;Group&gt;">
						<path id="&lt;Path&gt;" class="s5" d="m420.2 1213.4l-0.2 40.8-308.7-178.3 0.1-40.8z"/>
					</g>
					<g id="&lt;Group&gt;">
						<path id="&lt;Path&gt;" class="s6" d="m885.8 942.8l-465.6 270.6-308.8-178.3 465.6-270.6z"/>
					</g>
				</g>
			</g>
			<g id="&lt;Group&gt;">
				<g id="&lt;Group&gt;">
					<path id="&lt;Path&gt;" class="s6" d="m885.8 942.7l-465.6 270.6-308.8-178.3 465.6-270.5z"/>
				</g>
				<g id="&lt;Group&gt;">
					<path id="&lt;Path&gt;" class="s7" d="m751.2 1000.9l-11.8 6.9-270.2-156 11.8-6.8z"/>
				</g>
				<g id="&lt;Group&gt;">
					<path id="&lt;Path&gt;" class="s8" d="m637.4 1033c16.6 9.6 16.7 25.2 0.1 34.8-16.5 9.6-43.3 9.6-59.9 0-16.6-9.6-16.7-25.2-0.2-34.8l15.8 9.1c-7.9 4.6-7.9 12 0 16.6 7.9 4.5 20.7 4.5 28.6 0 7.9-4.6 7.8-12-0.1-16.6z"/>
				</g>
				<g id="&lt;Group&gt;">
					<g id="&lt;Group&gt;">
						<path id="&lt;Path&gt;" class="s8" d="m427.4 911.8c16.6 9.6 16.7 25.2 0.2 34.8l-14.3-8.3c7.1-4.6 6.9-11.7-0.8-16.1q-0.7-0.5-1.5-0.8z"/>
					</g>
					<g id="&lt;Group&gt;">
						<path id="&lt;Path&gt;" class="s9" d="m427.4 911.8l-16.4 9.6c-8-3.8-19.7-3.5-27.1 0.8-7.8 4.5-7.8 11.9 0.1 16.5 8 4.6 20.7 4.6 28.6 0q0.3-0.2 0.7-0.4l14.3 8.3c-16.5 9.6-43.3 9.6-60 0-16.6-9.6-16.7-25.2-0.1-34.8 16.5-9.6 43.3-9.6 59.9 0z"/>
					</g>
					<g id="&lt;Group&gt;">
						<path id="&lt;Path&gt;" class="s7" d="m579.7 958.1l-11.8 6.8-147.2-84.9 11.8-6.9z"/>
					</g>
					<g id="&lt;Group&gt;">
						<path id="&lt;Path&gt;" class="s8" d="m531.6 972c16.7 9.6 16.8 25.1 0.2 34.7-16.5 9.6-43.3 9.6-59.9 0l15.6-9.1c7.9 4.6 20.7 4.6 28.6 0 7.8-4.5 7.8-11.9-0.1-16.5z"/>
					</g>
					<g id="&lt;Group&gt;">
						<path id="&lt;Path&gt;" class="s9" d="m531.6 972l-15.6 9.1c-7.9-4.6-20.7-4.6-28.5 0-7.9 4.6-7.9 12 0 16.5l-15.6 9.1c16.6 9.6 43.4 9.6 59.9 0-16.5 9.6-43.3 9.6-59.9 0-16.7-9.5-16.7-25.1-0.2-34.7 16.5-9.6 43.3-9.6 59.9 0z"/>
					</g>
					<g id="&lt;Group&gt;">
						<path id="&lt;Path&gt;" class="s7" d="m726.9 1015l-11.8 6.9-270.2-156 11.8-6.9z"/>
					</g>
					<g id="&lt;Group&gt;">
						<path id="&lt;Path&gt;" class="s9" d="m637.4 1033l-15.7 9.1c-7.9-4.5-20.7-4.5-28.5 0l-15.8-9.1c16.5-9.6 43.4-9.6 60 0z"/>
					</g>
				</g>
				<g id="&lt;Group&gt;">
					<path id="&lt;Path&gt;" class="s9" d="m286.1 996.9v6h-40.6l-0.1-14.2h10.3l0.1 8.2z"/>
				</g>
				<g id="&lt;Group&gt;">
					<path id="&lt;Path&gt;" class="s9" d="m232.5 1028l0.1 6h-40.7l-0.1-14.2h10.4v8.2z"/>
				</g>
				<g id="&lt;Group&gt;">
					<path id="&lt;Path&gt;" class="s7" d="m457.8 1055.8l-11.8 6.9-120.3-69.5 11.8-6.8z"/>
				</g>
				<g id="&lt;Group&gt;">
					<path id="&lt;Path&gt;" class="s7" d="m403.4 1087.4l-11.8 6.9-120.3-69.4 11.8-6.9z"/>
				</g>
				<g id="&lt;Group&gt;">
					<path id="&lt;Path&gt;" class="s7" d="m349.6 1118.7l-11.7 6.8-120.3-69.4 11.8-6.9z"/>
				</g>
				<g id="&lt;Group&gt;">
					<path id="&lt;Path&gt;" class="s7" d="m474.3 1162.6l-11.7 6.9-220.8-127.5 11.8-6.8z"/>
				</g>
				<g id="&lt;Group&gt;">
					<path id="&lt;Compound Path&gt;" fill-rule="evenodd" class="s5" d="m208.5 1007.1l37.9 21.9-37.6 21.8-37.9-21.8zm-16.6 26.9h40.6v-6h-30.3l-0.1-8.2h-10.3z"/>
				</g>
				<g id="&lt;Group&gt;">
					<path id="&lt;Path&gt;" class="s7" d="m528.1 1131.4l-11.8 6.8-220.8-127.4 11.8-6.9z"/>
				</g>
				<g id="&lt;Group&gt;">
					<path id="&lt;Compound Path&gt;" fill-rule="evenodd" class="s5" d="m262.1 975.9l37.9 21.9-37.6 21.9-37.9-21.9zm-16.7 26.9h40.7v-6h-30.3l-0.1-8.2h-10.3z"/>
				</g>
				<g id="&lt;Group&gt;">
					<path id="&lt;Path&gt;" class="s9" d="m339.7 965.7v6h-40.6l-0.1-14.2h10.3l0.1 8.2z"/>
				</g>
				<g id="&lt;Group&gt;">
					<path id="&lt;Compound Path&gt;" fill-rule="evenodd" class="s5" d="m315.7 944.8l37.9 21.9-37.7 21.8-37.8-21.8zm-16.7 26.9h40.7v-6h-30.3l-0.1-8.2h-10.4z"/>
				</g>
				<g id="&lt;Group&gt;">
					<path id="&lt;Path&gt;" class="s7" d="m582.5 1099.8l-11.8 6.8-220.8-127.4 11.8-6.9z"/>
				</g>
				<g id="&lt;Group&gt;">
					<path id="&lt;Path&gt;" class="s7" d="m775.4 986.9l-11.8 6.8-270.2-156 11.8-6.8z"/>
				</g>
				<g id="&lt;Group&gt;">
					<path id="&lt;Path&gt;" class="s7" d="m799.6 972.8l-11.8 6.8-270.2-155.9 11.8-6.9z"/>
				</g>
				<g id="&lt;Group&gt;">
					<path id="&lt;Path&gt;" class="s9" d="m781.7 920.8l-11.8 6.9-216.3-125 11.8-6.8z"/>
				</g>
			</g>
			<g id="&lt;Group&gt;">
				<path id="&lt;Path&gt;" class="s6" d="m420.1 1227.1l-1.3-0.8-308.8-178.2 2.5-4.4 307.5 177.6 464.4-269.9 2.5 4.3z"/>
			</g>
			<g id="&lt;Group&gt;">
				<path id="&lt;Path&gt;" class="s6" d="m420.1 1242.1l-1.3-0.7-308.8-178.3 2.5-4.4 307.5 177.6 464.4-269.9 2.5 4.4z"/>
			</g>
			<g id="&lt;Group&gt;">
				<path id="&lt;Path&gt;" class="s6" d="m420.1 1254.6l-1.3-0.7-308.8-178.3 2.5-4.3 307.5 177.5 464.4-269.8 2.5 4.3z"/>
			</g>
		</g>
		<g id="&lt;Group&gt;" style="opacity: .4">
			<g id="&lt;Group&gt;" style="opacity: .3">
				<path id="&lt;Path&gt;" class="s10" d="m553.4 958.8c61.4 35.4 61.7 92.9 0.7 128.4-61 35.5-160.3 35.5-221.7 0-61.4-35.4-61.7-92.9-0.7-128.4 61-35.5 160.3-35.5 221.7 0z"/>
			</g>
			<g id="&lt;Group&gt;" style="opacity: .3">
				<path id="&lt;Path&gt;" class="s10" d="m530.2 972.3c48.5 28 48.8 73.4 0.6 101.4-48.2 28-126.7 28-175.2 0-48.5-28-48.7-73.4-0.5-101.4 48.2-28 126.6-28 175.1 0z"/>
			</g>
			<g id="&lt;Group&gt;" style="opacity: .3">
				<path id="&lt;Path&gt;" class="s10" d="m508.6 984.8c36.6 21.1 36.8 55.3 0.5 76.4-36.3 21.1-95.4 21.1-131.9 0-36.6-21.1-36.8-55.3-0.5-76.4 36.3-21.1 95.4-21.1 131.9 0z"/>
			</g>
			<g id="&lt;Group&gt;" style="opacity: .3">
				<path id="&lt;Path&gt;" class="s10" d="m488.7 996.4c25.5 14.7 25.6 38.5 0.3 53.2-25.3 14.7-66.4 14.7-91.9 0-25.5-14.7-25.6-38.5-0.3-53.2 25.3-14.7 66.5-14.7 91.9 0z"/>
			</g>
		</g>
		<g id="&lt;Group&gt;">
			<g id="&lt;Group&gt;">
				<path id="&lt;Path&gt;" class="s9" d="m176.3 626.9l45.6 14.1 0.1 24.3-45.6-14-45.3 66.6-0.1-24.4z"/>
			</g>
			<g id="&lt;Group&gt;">
				<path id="&lt;Path&gt;" class="s9" d="m176.5 676l45.6 14.1 0.1 24.4-45.6-14.1-45.4 66.6-0.1-24.4z"/>
			</g>
			<g id="&lt;Group&gt;">
				<path id="&lt;Path&gt;" class="s9" d="m176.6 730.7l45.6 14.1 0.1 24.4-45.6-14.1-45.3 66.6-0.1-24.4z"/>
			</g>
			<g id="&lt;Group&gt;">
				<path id="&lt;Path&gt;" class="s9" d="m176.8 779.9l45.6 14v24.4l-45.5-14.1-45.4 66.6-0.1-24.4z"/>
			</g>
		</g>
		<g id="&lt;Group&gt;">
			<path id="&lt;Path&gt;" class="s10" d="m505.2 320.4q-0.4 2.4-1.1 4.7c-2.4 7.6-7.3 14.3-13.8 18.7-0.3 17.8-3.2 35.6-9.9 52q-0.5 1.2-1 2.4c-7.3 16.8-18.7 32-33.8 42.4-15.8 10.9-35.7 16.2-54.6 13-7.5-1.2-15-3.9-21-8.6-6-4.6-10.6-11.5-11.5-19.1-1-8.1 2.1-16.3 6.3-23.4 4.2-7.1 9.4-13.5 13.3-20.7 6.2-11.5 8.7-24.5 11.9-37.1 3.2-12.6 7.4-25.5 16.1-35.1 8.8-9.6 23.2-15.2 35.2-10.2 9.1-5.9 22-1.8 29.4 0 1.5 0.4 2.8 0.7 3.8 0.8 4.9 0.4 9.8-0.3 14.7 0.1 5 0.3 10.1 1.9 13.2 5.7 3.2 3.9 3.6 9.4 2.8 14.4z"/>
			<path id="&lt;Path&gt;" class="s10" d="m377.8 967.2c0 0-16.4 54.2-16.8 65-0.3 10.8 6.3 30.7 14 32.9 7.6 2.2 29.3-20.7 31.5-29.9 2.2-9.2 4.5-62.2 4.5-62.2z"/>
			<path id="&lt;Path&gt;" class="s10" d="m462.9 932.4c0 0-10.8 6.9-11.8 18.1-1.1 11.1 0 61.7 0 61.7l5.7 4 7.3-38.1 2.5 42.5c0 0 35.9 20.6 49.9 17.6 14.1-3-18.8-58.3-18.8-58.3l-1.8-51.5z"/>
			<path id="&lt;Path&gt;" class="s11" d="m655.3 377.6c0 0 33.2-25 41.9-28.4 8.8-3.4 21.4-13.1 26.1-11.8 4.8 1.2-11.3 15.6-11.3 15.6 0 0 4.9 6 4.6 15.6-0.4 9.6-14.3 13.4-14.3 13.4 0 0-11.4 20.2-27.3 15.4l-11.5 9.1c0 0-14-14.9-8.2-28.9z"/>
			<path id="&lt;Compound Path&gt;" class="s9" d="m655.1 377.9l-73.1 31.3c0 0-81.7-14.3-111.8-12.9-30.1 1.4-27.2 2.3-27.2 2.3 0 0-46.8 18.5-62.8 29.3l22.8 86.4 10.3 38.6c0 0-0.4 0.7-0.9 2.1-1.7 3.7-5.3 12.2-9.5 22.1-7.2 17.3-16.1 39.1-18.9 49l-0.1 0.4c-0.3 1-0.5 1.9-0.7 2.6q0 0 0.2 0.1c0.3 0.2 0.9 0.6 1.9 1.2q0 0.1 0.1 0.1c7.1 4.7 31 20.1 50.7 30.6 2.6 1.4 5.2 2.7 7.6 3.9 16.5 8.1 76.4-37.3 76.4-37.3q0 0 0-0.1c-1.4-71.1-7.4-111.6-7.4-111.6 0 0 12-10.6 12.7-22.9 0.6-12.3-15.4-40.4-15.4-40.4 0 0 66.6 10.4 72.9 9.7 1.1-0.1 4.2-1.7 8.6-4.3 21.4-12.8 73.7-49.3 73.7-49.3 0 0-14.8-14.9-10.1-30.9z"/>
			<path id="&lt;Path&gt;" class="s6" d="m520.2 682.8c-2.1 93.7-20.2 252.1-20.2 252.1-22 7.9-44.5-4.5-44.5-4.5 0 0-2.8-80-3.3-95.7-0.4-15.8 10.7-37.2 10.7-37.2l-6.9-28.8-36.7 202.2c-28.5 9.4-46.4-7.2-46.4-7.2l15.1-144.4c0 0-12.2-115-7.6-168.7 0.6-7.2 1.6-14.4 3-21.4 0.3 0.2 0.9 0.6 1.9 1.2q0 0.1 0.1 0.1c7.1 4.7 31 20.1 50.7 30.6 2.6 1.4 5.2 2.7 7.6 3.9 16.5 8.1 76.4-37.3 76.4-37.3q0 0 0-0.1 0.2-0.1 0.2-0.1c0.3 17.8 0.4 36.5-0.1 55.3z"/>
			<g id="&lt;Group&gt;">
				<path id="&lt;Path&gt;" class="s6" d="m415.7 405.2c8.3 18.7 32.3 33.2 42.1 38.2 3.7 1.8 6 2.8 6 2.8-2.3-12.7 6.3-18.7 6.3-18.7l-47-27.1 0.7-7.6c-7.9 4.5-8.1 12.4-8.1 12.4z"/>
			</g>
			<g id="&lt;Group&gt;">
				<path id="&lt;Path&gt;" class="s6" d="m470.1 399.9v27.6c0 0 5.8 0.9 9.2 6.5 0.8 1.3 1.5 2.9 2 4.8 0 0 2.1-6.1 2.4-13.9 0.3-8.6-1.6-19.1-11.2-25.9q-1.2 0.6-2.4 0.9z"/>
			</g>
			<path id="&lt;Path&gt;" class="s11" d="m448.7 327.8c0 0-3.1 21.4-15.4 28.9v5.4c0 5.2 1.3 10.2 3.6 14.6 5.3 10.6 16.3 17.8 28.9 17.8 3.1 0 8-1.9 8.9-2.3 5.5-2.4 10-6.5 13-11.7q0 0 0 0c3.1-5.3 4.8-11.6 4.8-18.4v-27.9c-16.5 8.2-40.1-1.1-43.8-6.4z"/>
			<path id="&lt;Path&gt;" class="s11" d="m433.3 356.7q0 0 0 0c-4.2 14.1-8.3 28.2-12.5 42.4l49.5 28.6c-0.6-9.4-1.4-23.8-1.9-33.3q-1.3 0.1-2.6 0.1c-17.9 0-32.5-14.6-32.5-32.4z"/>
			<g id="&lt;Group&gt;" style="opacity: .7;mix-blend-mode: overlay">
				<path id="&lt;Path&gt;" class="s10" d="m468.4 394.4q-1.3 0.1-2.6 0.1c-12.6 0-23.6-7.2-28.9-17.8 5 23.6 23.5 30.2 32.5 32.1q-0.6-7.2-1-14.4z"/>
			</g>
			<g id="&lt;Group&gt;" style="opacity: .3;mix-blend-mode: overlay">
				<path id="&lt;Path&gt;" class="s10" d="m488.1 629.4l-104-3.1 0.1-0.4c2.8-9.9 11.7-31.7 18.9-49z"/>
			</g>
			<path id="&lt;Path&gt;" class="s9" d="m462.2 597.3q-1.4 0.9-2.6 1.9h-0.1c-8.2 6.5-10.6 13.7-11.2 18.2-0.4 2.8-0.1 4.5-0.1 4.5 0 0-84.1-42.7-87.7-50.5-3.6-7.9 0-64.6 0-99.6 0-35 19.9-44.1 19.9-44.1 0 0 20.8-0.8 26.3 25.5 5.5 26.2-8.9 89.4-8.9 89.4z"/>
			<g id="&lt;Group&gt;">
				<path id="&lt;Path&gt;" class="s6" d="m539.1 553.9l-27.4 53.7-49.1 36.9 27.4-53.6z"/>
			</g>
			<path id="&lt;Compound Path&gt;" fill-rule="evenodd" class="s11" d="m470.7 636.5c-8.4-0.5-18.3-13.2-22.4-19.1 0.6-4.5 3-11.7 11.2-18.2h0.1c22.5 4.2 30 9.3 32.4 11.8 4-1.9 7.9-2.6 8.7 1.2 1.8 8-19.1 25.1-30 24.3zm15.6-22.3l-7.8-1.4 4.4 3.8c0 0 1.4-1.1 3.4-2.4z"/>
			<path id="&lt;Path&gt;" class="s12" d="m591.5 458.1c-4.4 2.6-7.5 4.2-8.6 4.3-6.3 0.7-72.9-9.7-72.9-9.7l-15.8-24.7z"/>
			<path id="&lt;Path&gt;" class="s12" d="m412.4 555c0.5-1.4 0.9-2.1 0.9-2.1l-10.3-38.6 3.7-36.9 55.5 119.9z"/>
			<path id="&lt;Path&gt;" class="s12" d="m447.2 551l62.6-34.7c0 0-9.7-8-27.5-2.2-17.7 5.8-35.1 36.9-35.1 36.9z"/>
			<path id="&lt;Path&gt;" class="s10" d="m435 351c-2 8.6-1.4 17.8-0.6 26.6 1.3 16.3 2.5 35.7-11.3 47.5-6.7 5.6-15.2 6.2-23.5 5.2-8.9-1-18.4-3.4-26.8 0.9-0.9 0.5 2.9-23.3 8.8-32.8 5.5-8.8 12.8-15.7 21.1-21.9 4.4-3.3 8.9-6.5 12.9-10.2 4-3.7 19.8-15.9 19.4-15.3z"/>
			<path id="&lt;Path&gt;" class="s13" d="m456 768.7l12.5-78.7 38.7-19.1-44.3 126.6z"/>
		</g>
		<g id="&lt;Group&gt;">
			<g id="&lt;Group&gt;">
				<g id="&lt;Group&gt;">
					<g id="&lt;Group&gt;">
						<path id="&lt;Path&gt;" class="s1" d="m805.1 932.6l-0.1 17.2c0.1-11.6-7.5-23.2-22.8-32-30.3-17.5-79.5-17.5-109.6 0-15 8.7-22.5 20.1-22.5 31.6v-17.3c0.1-11.4 7.5-22.8 22.5-31.5 30.1-17.5 79.3-17.5 109.6 0 15.3 8.8 22.9 20.4 22.9 32z"/>
					</g>
					<g id="&lt;Group&gt;">
						<path id="&lt;Path&gt;" class="s2" d="m782.6 981.3c-11.3 6.6-25.3 10.7-40 12.3q0.1-8.6 0.1-17.2c14.6-1.6 28.6-5.7 39.9-12.3 15-8.7 22.5-20.1 22.5-31.5l-0.1 17.2c0 11.4-7.5 22.8-22.4 31.5z"/>
					</g>
					<g id="&lt;Group&gt;">
						<path id="&lt;Path&gt;" class="s2" d="m729 994.5q0-8.7 0-17.3 6.9 0 13.7-0.8 0 8.6-0.1 17.2-6.7 0.8-13.6 0.9z"/>
					</g>
					<g id="&lt;Group&gt;">
						<path id="&lt;Path&gt;" class="s2" d="m729 994.5q-0.6 0-1.2 0 0-8.6 0.1-17.3 0.6 0 1.1 0 0 8.6 0 17.3z"/>
					</g>
					<g id="&lt;Group&gt;">
						<path id="&lt;Path&gt;" class="s2" d="m672.9 981.3c-15.2-8.8-22.9-20.4-22.8-31.9v-17.3c0 11.6 7.6 23.2 22.9 32 15.1 8.8 35 13.1 54.9 13.1q-0.1 8.7-0.1 17.3c-19.8 0-39.7-4.4-54.9-13.2z"/>
					</g>
					<g id="&lt;Group&gt;">
						<path id="&lt;Path&gt;" class="s2" d="m782.2 900.6c30.4 17.5 30.5 46 0.4 63.5-30.1 17.5-79.3 17.5-109.6 0-30.3-17.5-30.5-46-0.4-63.5 30.1-17.5 79.3-17.5 109.6 0z"/>
					</g>
					<g id="&lt;Group&gt;">
						<path id="&lt;Path&gt;" class="s1" d="m815.7 932.6l-0.1 17.2c0 13-8.5 26-25.5 35.9-34.3 19.9-90.2 19.8-124.6 0-17.4-10.1-26-23.2-26-36.4l0.1-17.2c-0.1 13.2 8.6 26.3 25.9 36.3 34.5 19.9 90.4 19.9 124.6 0 17-9.8 25.5-22.8 25.6-35.8z"/>
					</g>
					<g id="&lt;Group&gt;">
						<path id="&lt;Compound Path&gt;" fill-rule="evenodd" class="s3" d="m789.7 896.3c34.4 19.9 34.6 52.3 0.4 72.1-34.2 19.9-90.1 19.9-124.6 0-34.4-19.8-34.6-52.2-0.4-72.1 34.3-19.9 90.1-19.9 124.6 0zm-116.7 67.8c30.3 17.5 79.5 17.5 109.6 0 30.1-17.5 30-46-0.4-63.5-30.3-17.5-79.5-17.5-109.6 0-30.1 17.5-29.9 46 0.4 63.5z"/>
					</g>
				</g>
			</g>
			<g id="&lt;Group&gt;">
				<g id="&lt;Group&gt;">
					<g id="&lt;Group&gt;">
						<path id="&lt;Path&gt;" class="s1" d="m792.1 909.3v17.2c0-11.6-7.6-23.2-22.9-32-30.3-17.5-79.5-17.5-109.6 0-15 8.7-22.5 20.1-22.5 31.5v-17.2c0.1-11.4 7.6-22.8 22.5-31.5 30.1-17.5 79.3-17.5 109.6 0 15.3 8.8 22.9 20.4 22.9 32z"/>
					</g>
					<g id="&lt;Group&gt;">
						<path id="&lt;Path&gt;" class="s2" d="m769.6 958c-11.3 6.6-25.3 10.7-40 12.3q0.1-8.6 0.1-17.2c14.6-1.6 28.6-5.7 39.9-12.3 15-8.7 22.5-20.1 22.5-31.5v17.2c-0.1 11.4-7.6 22.8-22.5 31.5z"/>
					</g>
					<g id="&lt;Group&gt;">
						<path id="&lt;Path&gt;" class="s2" d="m716 971.1q0-8.6 0-17.2 6.9 0 13.7-0.8 0 8.6-0.1 17.2-6.7 0.8-13.6 0.8z"/>
					</g>
					<g id="&lt;Group&gt;">
						<path id="&lt;Path&gt;" class="s2" d="m716 971.1q-0.6 0-1.2 0 0.1-8.6 0.1-17.2 0.6 0 1.1 0 0 8.6 0 17.2z"/>
					</g>
					<g id="&lt;Group&gt;">
						<path id="&lt;Path&gt;" class="s2" d="m659.9 958c-15.2-8.8-22.9-20.4-22.8-32v-17.2c0 11.6 7.6 23.2 22.9 32 15.1 8.7 35 13.1 54.9 13.1q0 8.6-0.1 17.2c-19.8 0-39.7-4.3-54.9-13.1z"/>
					</g>
					<g id="&lt;Group&gt;">
						<path id="&lt;Path&gt;" class="s3" d="m769.2 877.3c30.4 17.5 30.5 46 0.4 63.5-30.1 17.5-79.3 17.5-109.6 0-30.3-17.5-30.5-46-0.4-63.5 30.1-17.5 79.3-17.5 109.6 0z"/>
					</g>
					<g id="&lt;Group&gt;">
						<path id="&lt;Path&gt;" class="s3" d="m802.7 909.3l-0.1 17.2c0 13-8.5 26-25.5 35.8-34.3 19.9-90.2 19.9-124.6 0-17.4-10-26-23.1-26-36.3l0.1-17.2c-0.1 13.1 8.6 26.3 25.9 36.3 34.5 19.9 90.4 19.9 124.6 0 17-9.9 25.5-22.8 25.6-35.8z"/>
					</g>
					<g id="&lt;Group&gt;">
						<path id="&lt;Compound Path&gt;" fill-rule="evenodd" class="s4" d="m776.7 873c34.4 19.9 34.6 52.2 0.4 72.1-34.2 19.9-90.1 19.9-124.6 0-34.4-19.9-34.6-52.2-0.4-72.1 34.3-19.9 90.1-19.9 124.6 0zm-116.7 67.8c30.3 17.5 79.5 17.5 109.6 0 30.1-17.5 30-46-0.4-63.5-30.3-17.5-79.5-17.5-109.6 0-30.1 17.5-29.9 46 0.4 63.5z"/>
					</g>
				</g>
			</g>
			<g id="&lt;Group&gt;">
				<g id="&lt;Group&gt;">
					<g id="&lt;Group&gt;">
						<path id="&lt;Path&gt;" class="s1" d="m786.2 886.4l-0.1 17.2c0-11.6-7.6-23.2-22.9-32-30.3-17.5-79.5-17.5-109.6 0-14.9 8.7-22.4 20.1-22.5 31.5l0.1-17.2c0-11.4 7.5-22.8 22.5-31.5 30.1-17.5 79.3-17.5 109.6 0 15.3 8.8 22.9 20.4 22.9 32z"/>
					</g>
					<g id="&lt;Group&gt;">
						<path id="&lt;Path&gt;" class="s2" d="m763.6 935.1c-11.3 6.6-25.3 10.7-39.9 12.3q0-8.6 0-17.2c14.7-1.6 28.7-5.7 40-12.3 14.9-8.7 22.4-20.1 22.5-31.5l-0.1 17.2c0 11.4-7.5 22.8-22.5 31.5z"/>
					</g>
					<g id="&lt;Group&gt;">
						<path id="&lt;Path&gt;" class="s2" d="m710 948.2q0.1-8.6 0.1-17.2 6.9 0 13.6-0.8 0 8.6 0 17.2-6.8 0.8-13.7 0.8z"/>
					</g>
					<g id="&lt;Group&gt;">
						<path id="&lt;Path&gt;" class="s2" d="m710 948.2q-0.5 0.1-1.1 0.1 0-8.7 0-17.3 0.6 0 1.2 0 0 8.6-0.1 17.2z"/>
					</g>
					<g id="&lt;Group&gt;">
						<path id="&lt;Path&gt;" class="s2" d="m654 935.1c-15.3-8.8-22.9-20.4-22.9-32l0.1-17.2c0 11.6 7.6 23.2 22.8 32 15.2 8.8 35.1 13.1 54.9 13.1q0 8.6 0 17.3c-19.9 0-39.8-4.4-54.9-13.2z"/>
					</g>
					<g id="&lt;Group&gt;">
						<path id="&lt;Path&gt;" class="s2" d="m763.3 854.4c30.3 17.5 30.5 46 0.4 63.5-30.2 17.5-79.3 17.5-109.7 0-30.3-17.5-30.5-46-0.3-63.5 30.1-17.5 79.3-17.5 109.6 0z"/>
					</g>
					<g id="&lt;Group&gt;">
						<path id="&lt;Path&gt;" class="s1" d="m796.7 886.4v17.2c-0.1 13-8.6 26-25.6 35.9-34.2 19.8-90.1 19.8-124.6-0.1-17.3-10-26-23.1-25.9-36.3v-17.2c0 13.2 8.6 26.3 26 36.3 34.4 19.9 90.3 19.9 124.6 0 17-9.8 25.5-22.8 25.5-35.8z"/>
					</g>
					<g id="&lt;Group&gt;">
						<path id="&lt;Compound Path&gt;" fill-rule="evenodd" class="s3" d="m770.7 850.1c34.5 19.9 34.7 52.2 0.5 72.1-34.3 19.9-90.2 19.9-124.6 0-34.5-19.9-34.7-52.2-0.4-72.1 34.2-19.9 90.1-19.9 124.5 0zm-116.7 67.8c30.4 17.5 79.5 17.5 109.7 0 30.1-17.5 29.9-46-0.4-63.5-30.3-17.5-79.5-17.5-109.6 0-30.2 17.5-30 46 0.3 63.5z"/>
					</g>
				</g>
			</g>
			<g id="&lt;Group&gt;">
				<g id="&lt;Group&gt;">
					<g id="&lt;Group&gt;">
						<path id="&lt;Path&gt;" class="s1" d="m807.2 870.9l-0.1 17.2c0.1-11.6-7.5-23.2-22.8-32-30.3-17.5-79.5-17.5-109.6 0-15 8.7-22.5 20.1-22.5 31.6v-17.3c0.1-11.4 7.5-22.8 22.5-31.5 30.1-17.5 79.3-17.5 109.6 0 15.3 8.8 22.9 20.4 22.9 32z"/>
					</g>
					<g id="&lt;Group&gt;">
						<path id="&lt;Path&gt;" class="s2" d="m784.7 919.6c-11.3 6.6-25.3 10.7-40 12.3q0.1-8.6 0.1-17.2c14.6-1.6 28.6-5.7 39.9-12.3 15-8.7 22.5-20.1 22.5-31.5l-0.1 17.2c0 11.4-7.5 22.8-22.4 31.5z"/>
					</g>
					<g id="&lt;Group&gt;">
						<path id="&lt;Path&gt;" class="s2" d="m731.1 932.8q0-8.6 0-17.2 6.9-0.1 13.7-0.9 0 8.6-0.1 17.2-6.7 0.8-13.6 0.9z"/>
					</g>
					<g id="&lt;Group&gt;">
						<path id="&lt;Path&gt;" class="s2" d="m731.1 932.8q-0.6 0-1.2 0 0-8.6 0.1-17.2 0.6 0 1.1 0 0 8.6 0 17.2z"/>
					</g>
					<g id="&lt;Group&gt;">
						<path id="&lt;Path&gt;" class="s2" d="m675 919.6c-15.2-8.8-22.9-20.4-22.8-31.9v-17.2c0 11.5 7.6 23.1 22.9 31.9 15.1 8.8 35 13.2 54.9 13.2q-0.1 8.6-0.1 17.2c-19.8 0-39.7-4.4-54.9-13.2z"/>
					</g>
					<g id="&lt;Group&gt;">
						<path id="&lt;Path&gt;" class="s3" d="m784.3 838.9c30.4 17.5 30.5 46 0.4 63.5-30.1 17.5-79.3 17.5-109.6 0-30.3-17.5-30.5-46-0.4-63.5 30.1-17.5 79.3-17.5 109.6 0z"/>
					</g>
					<g id="&lt;Group&gt;">
						<path id="&lt;Path&gt;" class="s3" d="m817.8 870.9l-0.1 17.2c0 13-8.5 26-25.5 35.9-34.3 19.9-90.2 19.9-124.6 0-17.4-10-26-23.2-26-36.4l0.1-17.2c-0.1 13.2 8.6 26.3 25.9 36.3 34.5 19.9 90.4 20 124.6 0.1 17-9.9 25.5-22.9 25.6-35.9z"/>
					</g>
					<g id="&lt;Group&gt;">
						<path id="&lt;Compound Path&gt;" fill-rule="evenodd" class="s4" d="m791.8 834.6c34.4 19.9 34.6 52.3 0.4 72.2-34.2 19.9-90.1 19.8-124.6-0.1-34.4-19.8-34.6-52.2-0.4-72.1 34.3-19.9 90.1-19.9 124.6 0zm-116.7 67.8c30.3 17.5 79.5 17.5 109.6 0 30.1-17.5 30-46-0.4-63.5-30.3-17.5-79.5-17.5-109.6 0-30.1 17.5-29.9 46 0.4 63.5z"/>
					</g>
				</g>
			</g>
			<g id="&lt;Group&gt;">
				<g id="&lt;Group&gt;">
					<g id="&lt;Group&gt;">
						<path id="&lt;Path&gt;" class="s1" d="m796.9 850.1l-0.1 17.2c0-11.6-7.6-23.2-22.8-32-30.4-17.5-79.5-17.5-109.7 0-14.9 8.7-22.4 20.1-22.5 31.6l0.1-17.2c0-11.5 7.5-22.9 22.5-31.6 30.1-17.5 79.3-17.5 109.6 0 15.3 8.8 22.9 20.4 22.9 32z"/>
					</g>
					<g id="&lt;Group&gt;">
						<path id="&lt;Path&gt;" class="s2" d="m670.2 838.7c-13.3 7.8-20 18-20.1 28.2l0.1-17.2c0-10.2 6.7-20.4 20.1-28.2 26.9-15.6 70.8-15.6 97.9 0 13.6 7.9 20.4 18.2 20.4 28.6l-0.1 17.2c0-10.4-6.8-20.7-20.4-28.6-27.1-15.6-71-15.6-97.9 0z"/>
					</g>
					<g id="&lt;Group&gt;">
						<path id="&lt;Path&gt;" class="s3" d="m786.5 850.1l-0.1 17.2c0-10-6.6-20.1-19.8-27.7-26.2-15.2-68.8-15.2-94.9 0-12.9 7.5-19.4 17.4-19.5 27.3l0.1-17.2c0-9.9 6.5-19.8 19.5-27.3 26-15.2 68.6-15.2 94.9 0 13.2 7.6 19.8 17.6 19.8 27.7z"/>
					</g>
					<g id="&lt;Group&gt;">
						<path id="&lt;Path&gt;" class="s2" d="m765.1 827.1v17.2l-7-4v-17.2z"/>
					</g>
					<g id="&lt;Group&gt;">
						<path id="&lt;Path&gt;" class="s2" d="m758.1 823.1v17.2l-7.8 4.5 0.1-17.2z"/>
					</g>
					<g id="&lt;Group&gt;">
						<path id="&lt;Path&gt;" class="s3" d="m765.1 827.1v17.2l-7.6 4.4 0.1-17.2z"/>
					</g>
					<g id="&lt;Group&gt;">
						<path id="&lt;Path&gt;" class="s2" d="m703.2 852.3v-17.2q0-0.4 0.1-0.7 0.4-5.1 7.3-9.1 7.3-4.3 17.8-3.7 10.6 0.6 22 6l-0.1 17.2q-11.3-5.4-21.9-6-10.5-0.6-17.9 3.7-6.8 4-7.3 9.1 0 0.3 0 0.7z"/>
					</g>
					<g id="&lt;Group&gt;">
						<path id="&lt;Path&gt;" class="s3" d="m723.7 854.2l0.1-17.2q0-1.6 2.1-2.8 4.3-2.5 11.9 0.7v17.2q-7.6-3.2-11.9-0.7-2.1 1.2-2.2 2.8z"/>
					</g>
					<g id="&lt;Group&gt;">
						<path id="&lt;Path&gt;" class="s2" d="m723.8 854.4q-0.1-0.1-0.1-0.2l0.1-17.2q0 0.1 0 0.2 0 8.6 0 17.2 0-8.6 0-17.2 0.1 1.7 2.1 4.6l-0.1 17.3q-1.9-2.9-2-4.7z"/>
					</g>
					<g id="&lt;Group&gt;">
						<path id="&lt;Path&gt;" class="s2" d="m737.8 834.9v17.2l-12 7 0.1-17.3z"/>
					</g>
					<g id="&lt;Group&gt;">
						<path id="&lt;Path&gt;" class="s2" d="m774.1 846.4l-0.1 17.2q-5.3-7.8-16.5-14.9l0.1-17.2q11.2 7.1 16.5 14.9z"/>
					</g>
					<g id="&lt;Group&gt;">
						<path id="&lt;Path&gt;" class="s3" d="m745 838.8v17.2l-15 8.7v-17.2z"/>
					</g>
					<g id="&lt;Group&gt;">
						<path id="&lt;Path&gt;" class="s3" d="m703.2 852.3v-17.2q0 5 5.8 12.6l-0.1 17.2q-5.7-7.6-5.7-12.6z"/>
					</g>
					<g id="&lt;Group&gt;">
						<path id="&lt;Path&gt;" class="s3" d="m711.1 850.4v17.2l-2.2-2.7 0.1-17.2z"/>
					</g>
					<g id="&lt;Group&gt;">
						<path id="&lt;Path&gt;" class="s2" d="m684.9 867.9q-3.7-3.8-5.6-7.1v-17.3q2 3.4 5.7 7.2 0 8.6-0.1 17.2z"/>
					</g>
					<g id="&lt;Group&gt;">
						<path id="&lt;Path&gt;" class="s2" d="m732.6 868.2q-1.2-1.6-2.6-3.5v-17.2q1.5 1.9 2.6 3.5 0 8.6 0 17.2z"/>
					</g>
					<g id="&lt;Group&gt;">
						<path id="&lt;Path&gt;" class="s2" d="m679.3 843.5v17.3l-13.4 7.7v-17.2z"/>
					</g>
					<g id="&lt;Group&gt;">
						<path id="&lt;Path&gt;" class="s2" d="m684.9 867.9q0 0 0-0.1 0-0.9 0-1.8 0-4.4 0.1-8.8 0-3.2 0-6.5 0.6 0.6 1.2 1.3 4.6 4.5 9.2 7.6l-0.1 17.2q-4.6-3-9.2-7.6-0.6-0.6-1.2-1.3z"/>
					</g>
					<g id="&lt;Group&gt;">
						<path id="&lt;Path&gt;" class="s2" d="m711.1 850.4v17.2l-15.8 9.2 0.1-17.2z"/>
					</g>
					<g id="&lt;Group&gt;">
						<path id="&lt;Path&gt;" class="s3" d="m717.6 861.2l-0.1 17.3q0-0.3 0-0.5-0.3-1.8-2.2-4.7l0.1-17.2q1.9 2.9 2.1 4.7 0.1 0.2 0.1 0.4z"/>
					</g>
					<g id="&lt;Group&gt;">
						<path id="&lt;Path&gt;" class="s2" d="m732.6 868.2c0 0 0-0.1 0-0.2q0-8.5 0-17 3.9 5.4 5 8.5 0.4 1.2 0.6 2.3 0 8.6-0.1 17.2-0.1-1.1-0.5-2.2-1.1-3.2-5-8.6z"/>
					</g>
					<g id="&lt;Group&gt;">
						<path id="&lt;Path&gt;" class="s2" d="m738.1 879q0-0.2 0-0.3 0-2.7 0-5.3 0.1-5.8 0.1-11.6 0.1 0.8 0.1 1.6v17.2q0-0.8-0.2-1.6z"/>
					</g>
					<g id="&lt;Group&gt;">
						<path id="&lt;Path&gt;" class="s3" d="m715.4 856.1l-0.1 17.2-12.6 7.3v-17.2z"/>
					</g>
					<g id="&lt;Group&gt;">
						<path id="&lt;Path&gt;" class="s2" d="m715.6 881.1q-4.8 2.8-12.9-0.5v-17.2q8.1 3.3 13 0.5-0.1 8.6-0.1 17.2 0-8.6 0.1-17.2 1.8-1.1 1.9-2.7l-0.1 17.3q0 1.5-1.9 2.6z"/>
					</g>
					<g id="&lt;Group&gt;">
						<path id="&lt;Path&gt;" class="s3" d="m774.1 846.4l-0.1 17.2-16.7 4.2 0.1-17.2z"/>
					</g>
					<g id="&lt;Group&gt;">
						<path id="&lt;Path&gt;" class="s3" d="m757.4 850.6l-0.1 17.2q-4.7-6.5-12.3-11.8v-17.2q7.7 5.3 12.4 11.8z"/>
					</g>
					<g id="&lt;Group&gt;">
						<path id="&lt;Path&gt;" class="s2" d="m654.8 877.6c-1.7-3.5-2.6-7.1-2.6-10.7l0.1-17.2c0 3.6 0.8 7.2 2.5 10.7q0 8.6 0 17.2z"/>
					</g>
					<g id="&lt;Group&gt;">
						<path id="&lt;Path&gt;" class="s3" d="m683.4 866.5v17.2q-12.2-7.3-17.5-15.2v-17.2q5.3 7.8 17.5 15.2z"/>
					</g>
					<g id="&lt;Group&gt;">
						<path id="&lt;Path&gt;" class="s3" d="m738.3 863.4v17.2q0 1.8-0.7 3.3v-17.2q0.7-1.5 0.7-3.3z"/>
					</g>
					<g id="&lt;Group&gt;">
						<path id="&lt;Path&gt;" class="s2" d="m683.4 866.5v17.2l-10.2 5.9v-17.2z"/>
					</g>
					<g id="&lt;Group&gt;">
						<path id="&lt;Path&gt;" class="s3" d="m680.2 876.5v17.2l-7-4.1v-17.2z"/>
					</g>
					<g id="&lt;Group&gt;">
						<path id="&lt;Path&gt;" class="s3" d="m690.6 870.4v17.2l-10.4 6.1v-17.2z"/>
					</g>
					<g id="&lt;Group&gt;">
						<path id="&lt;Path&gt;" class="s3" d="m737.6 866.7v17.2q-1.4 3.1-5.9 5.7-8 4.7-18.8 4.1-10.8-0.5-22.3-6.1v-17.2q11.6 5.6 22.4 6.1 10.7 0.5 18.8-4.1 4.5-2.6 5.8-5.7z"/>
					</g>
					<g id="&lt;Group&gt;">
						<path id="&lt;Path&gt;" class="s2" d="m654.8 877.6c-0.1-0.1 0-0.3 0-0.4q0-8.4 0-16.8c3 6.2 8.8 12.1 17.3 17 26.2 15.1 68.8 15.1 94.9 0 12.9-7.6 19.4-17.4 19.5-27.3l-0.1 17.2c0 9.9-6.5 19.7-19.5 27.3-26.1 15.1-68.6 15.1-94.9 0-8.5-4.9-14.2-10.8-17.2-17z"/>
					</g>
					<g id="&lt;Group&gt;">
						<path id="&lt;Path&gt;" class="s3" d="m788.6 850.1l-0.1 17.2c0 10.2-6.7 20.4-20.1 28.1-26.9 15.7-70.8 15.7-97.9 0-13.6-7.8-20.4-18.2-20.4-28.5l0.1-17.2c0 10.3 6.8 20.7 20.4 28.5 27.1 15.7 71 15.7 97.9 0 13.3-7.7 20-17.9 20.1-28.1z"/>
					</g>
					<g id="&lt;Group&gt;">
						<path id="&lt;Compound Path&gt;" fill-rule="evenodd" class="s3" d="m768.2 821.5c27 15.6 27.2 41.1 0.3 56.7-26.9 15.7-70.8 15.7-97.9 0-27.1-15.6-27.2-41-0.3-56.7 26.9-15.6 70.8-15.6 97.9 0zm-96.1 55.9c26.2 15.1 68.8 15.1 94.9 0 26.1-15.2 25.9-39.9-0.3-55-26.3-15.2-68.9-15.2-94.9 0-26.1 15.1-26 39.8 0.3 55z"/>
					</g>
					<g id="&lt;Group&gt;">
						<path id="&lt;Path&gt;" class="s2" d="m717.5 860.8q0.3 1.9-1.8 3.1-4.9 2.8-13-0.5l12.7-7.3q1.9 2.9 2.1 4.7z"/>
					</g>
					<g id="&lt;Group&gt;">
						<path id="&lt;Compound Path&gt;" fill-rule="evenodd" class="s3" d="m745 838.8l-15 8.7q6.2 8 7.6 12 1.4 4.1 0 7.2-1.3 3.1-5.8 5.7-8.1 4.6-18.8 4.1-10.8-0.5-22.4-6.1l-10.4 6.1-7-4.1 10.2-5.9q-12.2-7.4-17.5-15.2l13.4-7.8q2.3 3.9 6.9 8.5 4.6 4.5 9.2 7.6l15.7-9.2-2.1-2.7q-6.2-8.2-5.7-13.3 0.4-5.1 7.2-9.1 7.4-4.3 17.9-3.7 10.6 0.6 22 6l7.7-4.5 7 4-7.5 4.4q11.2 7.1 16.5 14.9l-16.7 4.2q-4.7-6.5-12.4-11.8zm-27.5 22q-0.2-1.8-2.1-4.7l-12.7 7.3q8.1 3.3 13 0.5 2.1-1.2 1.8-3.1zm20.3-25.9q-7.6-3.2-11.9-0.7-2.2 1.3-2.1 3 0.1 1.7 2.1 4.6z"/>
					</g>
					<g id="&lt;Group&gt;">
						<path id="&lt;Compound Path&gt;" fill-rule="evenodd" class="s2" d="m766.7 822.4c26.2 15.1 26.4 39.8 0.3 55-26.1 15.1-68.7 15.1-94.9 0-26.3-15.2-26.4-39.9-0.3-55 26-15.2 68.6-15.2 94.9 0zm-53.7 54.1q10.7 0.5 18.8-4.1 4.5-2.6 5.8-5.7 1.4-3.1 0-7.2-1.4-4-7.6-12l15-8.7q7.7 5.3 12.4 11.8l16.7-4.2q-5.3-7.8-16.5-14.9l7.5-4.4-7-4-7.7 4.5q-11.4-5.4-22-6-10.5-0.6-17.8 3.7-6.9 4-7.3 9.1-0.5 5.1 5.7 13.3l2.1 2.7-15.7 9.2q-4.6-3.1-9.2-7.6-4.6-4.6-6.9-8.5l-13.4 7.8q5.3 7.8 17.5 15.2l-10.2 5.9 7 4.1 10.4-6.1q11.6 5.6 22.4 6.1z"/>
					</g>
					<g id="&lt;Group&gt;">
						<path id="&lt;Path&gt;" class="s2" d="m643.3 875.7q-1.5-4.4-1.5-8.8l0.1-17.2q0 4.4 1.4 8.8 0 8.6 0 17.2z"/>
					</g>
					<g id="&lt;Group&gt;">
						<path id="&lt;Path&gt;" class="s2" d="m647.8 884.2q0 0 0 0 0-8.6 0-17.2c3.8 5.3 9.5 10.3 16.9 14.6q0.4 0.2 0.8 0.5 0 8.6-0.1 17.2-0.4-0.2-0.7-0.5c-7.5-4.3-13.1-9.2-16.9-14.6z"/>
					</g>
					<g id="&lt;Group&gt;">
						<path id="&lt;Path&gt;" class="s2" d="m665.4 899.3q0.1-8.6 0.1-17.2c30.4 17 79 16.9 108.9-0.5 14.9-8.7 22.4-20.1 22.5-31.5l-0.1 17.2c0 11.4-7.5 22.8-22.5 31.5-29.9 17.4-78.5 17.5-108.9 0.5z"/>
					</g>
					<g id="&lt;Group&gt;">
						<path id="&lt;Compound Path&gt;" fill-rule="evenodd" class="s2" d="m774 818.1c30.3 17.5 30.5 46 0.4 63.5-30.2 17.5-79.3 17.5-109.7 0-30.3-17.5-30.5-46-0.3-63.5 30.1-17.5 79.3-17.5 109.6 0zm-103.4 60.1c27.1 15.7 71 15.7 97.9 0 26.9-15.6 26.7-41.1-0.3-56.7-27.1-15.6-71-15.6-97.9 0-26.9 15.7-26.8 41.1 0.3 56.7z"/>
					</g>
					<g id="&lt;Group&gt;">
						<path id="&lt;Path&gt;" class="s2" d="m644.6 879q-0.7-1.7-1.3-3.3 0-8.6 0-17.2 0.6 1.6 1.4 3.2 0 8.6-0.1 17.3z"/>
					</g>
					<g id="&lt;Group&gt;">
						<path id="&lt;Path&gt;" class="s2" d="m644.6 879c0-0.2 0-0.3 0-0.4q0.1-8.4 0.1-16.9 1.2 2.6 2.9 5.1 0 8.6 0 17.2-1.8-2.5-3-5z"/>
					</g>
					<g id="&lt;Group&gt;">
						<path id="&lt;Path&gt;" class="s2" d="m647.8 884.2q-0.1-0.1-0.2-0.2 0-8.6 0-17.2 0.1 0.1 0.2 0.2 0 8.6 0 17.2z"/>
					</g>
					<g id="&lt;Group&gt;">
						<path id="&lt;Path&gt;" class="s1" d="m807.4 850.1v17.2c-0.1 13-8.6 26-25.6 35.9-34.2 19.8-90.1 19.8-124.6 0-17.3-10.1-26-23.2-25.9-36.4v-17.2c0 13.2 8.7 26.3 26 36.3 34.4 19.9 90.3 19.9 124.6 0 17-9.8 25.5-22.8 25.5-35.8z"/>
					</g>
					<g id="&lt;Group&gt;">
						<path id="&lt;Compound Path&gt;" fill-rule="evenodd" class="s3" d="m781.5 813.8c34.4 19.9 34.6 52.2 0.4 72.1-34.3 19.9-90.2 19.9-124.6 0-34.5-19.8-34.7-52.2-0.4-72.1 34.2-19.9 90.1-19.9 124.6 0zm-116.8 67.8c30.4 17.5 79.5 17.5 109.7 0 30.1-17.5 29.9-46-0.4-63.5-30.3-17.5-79.5-17.5-109.6 0-30.2 17.5-30 46 0.3 63.5z"/>
					</g>
					<g id="&lt;Group&gt;">
						<path id="&lt;Path&gt;" class="s2" d="m725.9 834.2q4.3-2.5 11.9 0.7l-11.9 6.9q-2-2.9-2.1-4.6-0.1-1.7 2.1-3z"/>
					</g>
				</g>
			</g>
		</g>
		<g id="&lt;Group&gt;">
			<g id="&lt;Group&gt;">
				<g id="&lt;Group&gt;">
					<path id="&lt;Path&gt;" class="s3" d="m596.4 347l43.4 24.7c-15.9 27.6-25.8 58.7-25.7 86.6l-61.2 35.4c-0.1-47.4 16.5-100 43.5-146.7z"/>
				</g>
				<g id="&lt;Group&gt;">
					<path id="&lt;Path&gt;" class="s2" d="m701.9 235.7l0.2 70.3c-24.4 14-46.4 38.1-62.3 65.7l-43.4-24.7c27-46.7 64.3-87.5 105.5-111.3z"/>
				</g>
				<g id="&lt;Group&gt;">
					<path id="&lt;Path&gt;" class="s8" d="m701.9 235.7c41.1-23.8 78.6-26.1 105.7-10.6l-43.1 74.6c-16-9.1-38.1-7.8-62.4 6.3z"/>
				</g>
				<g id="&lt;Group&gt;">
					<path id="&lt;Path&gt;" class="s9" d="m807.6 225.1c27.1 15.5 44 48.7 44.2 96l-61.2 35.3c-0.1-27.9-10.1-47.5-26.1-56.7z"/>
				</g>
			</g>
			<g id="&lt;Group&gt;">
				<g id="&lt;Group&gt;">
					<path id="&lt;Path&gt;" class="s6" d="m858.4 432.4c0.7-0.4 1.3-0.1 1.3 0.8v8.9c0 0.9-0.5 1.9-1.3 2.3l-7.8 4.5c-0.7 0.4-1.3 0.1-1.3-0.8 0-0.8 0.6-1.8 1.3-2.2l6.5-3.8v-7.4c0-0.9 0.6-1.9 1.3-2.3z"/>
				</g>
				<g id="&lt;Group&gt;">
					<path id="&lt;Path&gt;" class="s6" d="m835.1 454.9c0.7-0.4 1.3-0.1 1.3 0.7 0 0.8-0.6 1.9-1.3 2.3l-15.6 9c-0.7 0.4-1.3 0.1-1.3-0.8 0-0.8 0.5-1.8 1.3-2.2z"/>
				</g>
				<g id="&lt;Group&gt;">
					<path id="&lt;Path&gt;" class="s6" d="m803.9 472.9c0.7-0.4 1.3-0.1 1.3 0.7 0 0.8-0.6 1.8-1.3 2.3l-15.6 9c-0.7 0.4-1.3 0-1.3-0.8 0-0.8 0.6-1.8 1.3-2.2z"/>
				</g>
				<g id="&lt;Group&gt;">
					<path id="&lt;Path&gt;" class="s6" d="m772.7 490.9c0.7-0.5 1.3-0.1 1.3 0.7 0 0.8-0.5 1.8-1.3 2.3l-15.6 9c-0.7 0.4-1.3 0-1.3-0.8 0-0.8 0.6-1.8 1.3-2.2z"/>
				</g>
				<g id="&lt;Group&gt;">
					<path id="&lt;Path&gt;" class="s6" d="m741.6 508.8c0.7-0.4 1.3 0 1.3 0.8 0 0.8-0.6 1.8-1.3 2.2l-15.6 9c-0.7 0.5-1.3 0.1-1.3-0.7 0-0.8 0.6-1.8 1.3-2.3z"/>
				</g>
				<g id="&lt;Group&gt;">
					<path id="&lt;Path&gt;" class="s6" d="m710.4 526.8c0.7-0.4 1.3 0 1.3 0.8 0 0.8-0.6 1.8-1.3 2.2l-15.6 9c-0.7 0.4-1.3 0.1-1.3-0.7 0-0.8 0.6-1.9 1.3-2.3z"/>
				</g>
				<g id="&lt;Group&gt;">
					<path id="&lt;Path&gt;" class="s6" d="m679.2 544.8c0.8-0.4 1.3-0.1 1.3 0.8 0 0.8-0.5 1.8-1.3 2.2l-15.5 9c-0.7 0.4-1.3 0.1-1.3-0.7 0-0.9 0.5-1.9 1.3-2.3z"/>
				</g>
				<g id="&lt;Group&gt;">
					<path id="&lt;Path&gt;" class="s6" d="m648.1 562.8c0.7-0.4 1.3-0.1 1.3 0.8 0 0.8-0.6 1.8-1.3 2.2l-15.6 9c-0.7 0.4-1.3 0.1-1.3-0.7 0-0.9 0.6-1.9 1.3-2.3z"/>
				</g>
				<g id="&lt;Group&gt;">
					<path id="&lt;Path&gt;" class="s6" d="m616.9 580.8c0.7-0.4 1.3-0.1 1.3 0.8 0 0.8-0.6 1.8-1.3 2.2l-15.5 9c-0.8 0.4-1.4 0.1-1.4-0.7 0-0.9 0.6-1.9 1.3-2.3z"/>
				</g>
				<g id="&lt;Group&gt;">
					<path id="&lt;Path&gt;" class="s6" d="m585.8 598.8c0.7-0.4 1.3-0.1 1.3 0.7 0 0.9-0.6 1.9-1.3 2.3l-15.6 9c-0.7 0.4-1.3 0.1-1.3-0.8 0-0.8 0.6-1.8 1.3-2.2z"/>
				</g>
				<g id="&lt;Group&gt;">
					<path id="&lt;Path&gt;" class="s6" d="m546.8 612.3c0.7-0.4 1.3 0 1.3 0.8v7.5l6.5-3.8c0.7-0.4 1.3-0.1 1.3 0.7 0 0.9-0.6 1.9-1.3 2.3l-7.8 4.5c-0.7 0.4-1.3 0.1-1.3-0.8v-8.9c0-0.9 0.6-1.9 1.3-2.3z"/>
				</g>
				<g id="&lt;Group&gt;">
					<path id="&lt;Path&gt;" class="s6" d="m545.9 290.1c0.7-0.4 1.2-0.1 1.2 0.7l0.1 17.9c0 0.9-0.6 1.9-1.3 2.3-0.7 0.4-1.3 0.1-1.3-0.8v-17.9c0-0.8 0.5-1.8 1.3-2.2z"/>
				</g>
				<g id="&lt;Group&gt;">
					<path id="&lt;Path&gt;" class="s6" d="m546 325.9c0.7-0.4 1.2-0.1 1.3 0.7v17.9c0 0.9-0.6 1.9-1.3 2.3-0.7 0.4-1.3 0.1-1.3-0.8v-17.9c0-0.8 0.5-1.8 1.3-2.2z"/>
				</g>
				<g id="&lt;Group&gt;">
					<path id="&lt;Path&gt;" class="s6" d="m546.1 361.7c0.7-0.4 1.2-0.1 1.3 0.7v17.9c0 0.9-0.6 1.9-1.3 2.3-0.7 0.4-1.3 0.1-1.3-0.8v-17.9c0-0.8 0.5-1.8 1.3-2.2z"/>
				</g>
				<g id="&lt;Group&gt;">
					<path id="&lt;Path&gt;" class="s6" d="m546.2 397.5c0.7-0.4 1.3-0.1 1.3 0.7v18c0 0.8-0.6 1.8-1.3 2.2-0.7 0.4-1.3 0.1-1.3-0.8v-17.9c0-0.8 0.5-1.8 1.3-2.2z"/>
				</g>
				<g id="&lt;Group&gt;">
					<path id="&lt;Path&gt;" class="s6" d="m546.3 433.3c0.7-0.4 1.3-0.1 1.3 0.7v18c0 0.8-0.6 1.8-1.3 2.2-0.7 0.4-1.3 0.1-1.3-0.8v-17.9c0-0.8 0.5-1.8 1.3-2.2z"/>
				</g>
				<g id="&lt;Group&gt;">
					<path id="&lt;Path&gt;" class="s6" d="m546.4 469.1c0.7-0.4 1.3-0.1 1.3 0.8v17.9c0 0.8-0.6 1.8-1.3 2.2-0.7 0.4-1.3 0.1-1.3-0.8v-17.8c0-0.9 0.5-1.9 1.3-2.3z"/>
				</g>
				<g id="&lt;Group&gt;">
					<path id="&lt;Path&gt;" class="s6" d="m546.5 504.9c0.7-0.4 1.3-0.1 1.3 0.8v17.9c0 0.8-0.6 1.8-1.3 2.2-0.7 0.4-1.3 0.1-1.3-0.7v-17.9c0-0.9 0.5-1.9 1.3-2.3z"/>
				</g>
				<g id="&lt;Group&gt;">
					<path id="&lt;Path&gt;" class="s6" d="m546.6 540.7c0.7-0.4 1.3 0 1.3 0.8v17.9c0 0.8-0.6 1.8-1.3 2.2-0.7 0.4-1.3 0.1-1.3-0.7v-17.9c0-0.9 0.5-1.9 1.3-2.3z"/>
				</g>
				<g id="&lt;Group&gt;">
					<path id="&lt;Path&gt;" class="s6" d="m546.7 576.5c0.7-0.4 1.3 0 1.3 0.8v17.9c0 0.8-0.6 1.8-1.3 2.2-0.7 0.4-1.3 0.1-1.3-0.7v-17.9c0-0.9 0.5-1.9 1.3-2.3z"/>
				</g>
				<g id="&lt;Group&gt;">
					<path id="&lt;Path&gt;" class="s6" d="m553.6 258.7c0.7-0.4 1.3-0.1 1.3 0.7 0 0.9-0.6 1.9-1.3 2.3l-6.5 3.7v7.5c0 0.8-0.6 1.8-1.3 2.3-0.7 0.4-1.3 0-1.3-0.8v-9c0-0.8 0.6-1.8 1.3-2.2z"/>
				</g>
				<g id="&lt;Group&gt;">
					<path id="&lt;Path&gt;" class="s6" d="m834 96.8c0.7-0.4 1.3-0.1 1.3 0.7 0 0.9-0.6 1.9-1.3 2.3l-15.5 9c-0.8 0.4-1.3 0-1.3-0.8-0.1-0.8 0.5-1.8 1.2-2.2z"/>
				</g>
				<g id="&lt;Group&gt;">
					<path id="&lt;Path&gt;" class="s6" d="m802.9 114.8c0.7-0.4 1.3-0.1 1.3 0.7 0 0.8-0.6 1.8-1.3 2.3l-15.6 9c-0.7 0.4-1.3 0-1.3-0.8 0-0.8 0.6-1.8 1.3-2.2z"/>
				</g>
				<g id="&lt;Group&gt;">
					<path id="&lt;Path&gt;" class="s6" d="m771.7 132.8c0.7-0.5 1.3-0.1 1.3 0.7 0 0.8-0.6 1.8-1.3 2.3l-15.6 8.9c-0.7 0.5-1.3 0.1-1.3-0.7 0-0.8 0.6-1.8 1.3-2.2z"/>
				</g>
				<g id="&lt;Group&gt;">
					<path id="&lt;Path&gt;" class="s6" d="m740.6 150.7c0.7-0.4 1.2 0 1.2 0.8 0 0.8-0.5 1.8-1.2 2.2l-15.6 9c-0.7 0.5-1.3 0.1-1.3-0.7 0-0.8 0.5-1.8 1.3-2.3z"/>
				</g>
				<g id="&lt;Group&gt;">
					<path id="&lt;Path&gt;" class="s6" d="m709.4 168.7c0.7-0.4 1.3 0 1.3 0.8 0 0.8-0.6 1.8-1.3 2.2l-15.6 9c-0.7 0.4-1.3 0.1-1.3-0.7 0-0.8 0.6-1.9 1.3-2.3z"/>
				</g>
				<g id="&lt;Group&gt;">
					<path id="&lt;Path&gt;" class="s6" d="m678.2 186.7c0.7-0.4 1.3-0.1 1.3 0.8 0 0.8-0.5 1.8-1.3 2.2l-15.6 9c-0.7 0.4-1.2 0.1-1.2-0.7 0-0.9 0.5-1.9 1.2-2.3z"/>
				</g>
				<g id="&lt;Group&gt;">
					<path id="&lt;Path&gt;" class="s6" d="m647.1 204.7c0.7-0.4 1.3-0.1 1.3 0.8 0 0.8-0.6 1.8-1.3 2.2l-15.6 9c-0.7 0.4-1.3 0.1-1.3-0.7 0-0.9 0.6-1.9 1.3-2.3z"/>
				</g>
				<g id="&lt;Group&gt;">
					<path id="&lt;Path&gt;" class="s6" d="m615.9 222.7c0.7-0.4 1.3-0.1 1.3 0.8 0 0.8-0.6 1.8-1.3 2.2l-15.6 9c-0.7 0.4-1.3 0.1-1.3-0.7 0-0.9 0.6-1.9 1.3-2.3z"/>
				</g>
				<g id="&lt;Group&gt;">
					<path id="&lt;Path&gt;" class="s6" d="m584.7 240.7c0.8-0.4 1.3-0.1 1.3 0.7 0 0.9-0.5 1.9-1.3 2.3l-15.5 9c-0.7 0.4-1.3 0.1-1.3-0.8 0-0.8 0.5-1.8 1.3-2.2z"/>
				</g>
				<g id="&lt;Group&gt;">
					<path id="&lt;Path&gt;" class="s6" d="m857.4 83.3c0.7-0.4 1.3-0.1 1.3 0.7v9c0 0.8-0.5 1.8-1.2 2.2-0.8 0.4-1.3 0.1-1.3-0.7l-0.1-7.5-6.5 3.8c-0.7 0.4-1.3 0.1-1.3-0.8 0-0.8 0.6-1.8 1.3-2.2z"/>
				</g>
				<g id="&lt;Group&gt;">
					<path id="&lt;Path&gt;" class="s6" d="m857.5 110.1c0.7-0.4 1.3 0 1.3 0.8v17.9c0 0.8-0.5 1.8-1.2 2.2-0.8 0.5-1.3 0.1-1.3-0.7l-0.1-17.9c0-0.8 0.6-1.8 1.3-2.3z"/>
				</g>
				<g id="&lt;Group&gt;">
					<path id="&lt;Path&gt;" class="s6" d="m857.6 146c0.7-0.4 1.3-0.1 1.3 0.7v17.9c0 0.8-0.5 1.8-1.2 2.2-0.8 0.5-1.3 0.1-1.3-0.7l-0.1-17.9c0-0.8 0.6-1.8 1.3-2.2z"/>
				</g>
				<g id="&lt;Group&gt;">
					<path id="&lt;Path&gt;" class="s6" d="m857.7 181.8c0.7-0.4 1.3-0.1 1.3 0.7v17.9c0 0.8-0.5 1.8-1.2 2.2-0.8 0.5-1.3 0.1-1.3-0.7l-0.1-17.9c0-0.8 0.6-1.8 1.3-2.2z"/>
				</g>
				<g id="&lt;Group&gt;">
					<path id="&lt;Path&gt;" class="s6" d="m857.8 217.6c0.7-0.4 1.3-0.1 1.3 0.7v17.9c0 0.9-0.5 1.9-1.2 2.3-0.8 0.4-1.3 0.1-1.3-0.8l-0.1-17.9c0-0.8 0.6-1.8 1.3-2.2z"/>
				</g>
				<g id="&lt;Group&gt;">
					<path id="&lt;Path&gt;" class="s6" d="m857.9 253.4c0.7-0.4 1.3-0.1 1.3 0.7v17.9c0.1 0.9-0.5 1.9-1.2 2.3-0.8 0.4-1.3 0.1-1.3-0.8l-0.1-17.9c0-0.8 0.6-1.8 1.3-2.2z"/>
				</g>
				<g id="&lt;Group&gt;">
					<path id="&lt;Path&gt;" class="s6" d="m858 289.2c0.7-0.4 1.3-0.1 1.3 0.7v17.9c0.1 0.9-0.5 1.9-1.2 2.3-0.8 0.4-1.3 0.1-1.3-0.8l-0.1-17.9c0-0.8 0.6-1.8 1.3-2.2z"/>
				</g>
				<g id="&lt;Group&gt;">
					<path id="&lt;Path&gt;" class="s6" d="m858.1 325c0.7-0.4 1.3-0.1 1.3 0.7l0.1 17.9c0 0.9-0.6 1.9-1.3 2.3-0.8 0.4-1.3 0.1-1.3-0.8l-0.1-17.9c0-0.8 0.6-1.8 1.3-2.2z"/>
				</g>
				<g id="&lt;Group&gt;">
					<path id="&lt;Path&gt;" class="s6" d="m858.2 360.8c0.7-0.4 1.3-0.1 1.3 0.7l0.1 17.9c0 0.9-0.6 1.9-1.3 2.3-0.8 0.4-1.3 0.1-1.3-0.8l-0.1-17.9c0-0.8 0.6-1.8 1.3-2.2z"/>
				</g>
				<g id="&lt;Group&gt;">
					<path id="&lt;Path&gt;" class="s6" d="m858.3 396.6c0.7-0.4 1.3-0.1 1.3 0.8l0.1 17.8c0 0.9-0.6 1.9-1.3 2.3-0.7 0.4-1.3 0.1-1.3-0.8l-0.1-17.8c0-0.9 0.6-1.9 1.3-2.3z"/>
				</g>
			</g>
			<g id="&lt;Group&gt;">
				<g id="&lt;Group&gt;">
					<path id="&lt;Path&gt;" class="s10" d="m712.8 387.6c3.1-1.8 6.2-2.7 9-2.7l-7.7 10.5 11.3 10.2 7.1-11.2c1.6 7.5-1 18.1-7.3 27.3-3.6 5.4-7.9 9.4-12.2 11.9-6 3.4-11.9 3.8-15.9 0.2-6.8-6.1-5.2-21.5 3.5-34.3 3.7-5.4 8-9.4 12.2-11.9z"/>
				</g>
				<g id="&lt;Group&gt;">
					<path id="&lt;Path&gt;" class="s10" d="m837.9 226.6l-105.4 167.8-7.1 11.2-11.3-10.2 7.7-10.5z"/>
				</g>
			</g>
			<g id="&lt;Group&gt;">
				<g id="&lt;Group&gt;">
					<path id="&lt;Path&gt;" class="s3" d="m555.9 227.1c21.4-12.4 38.9-2.5 39 22.2 0.1 24.7-17.3 54.8-38.8 67.2-21.5 12.4-38.9 2.4-39-22.3-0.1-24.7 17.3-54.7 38.8-67.1z"/>
				</g>
				<g id="&lt;Group&gt;">
					<path id="&lt;Path&gt;" class="s6" d="m572.3 233c1.4-0.9 2.8-1 3.9-0.4l3.8 2.1c2.1 1.2 2.1 5.2 0 8.9l-12.5 21.6 12.5 7.2c2.1 1.2 2.2 5.2 0 8.8l-3.7 6.6c-1.1 1.8-2.5 3.2-3.9 4-1.4 0.8-2.8 1-3.8 0.4l-12.6-7.1-12.4 21.4c-1 1.9-2.4 3.3-3.8 4.1-1.4 0.8-2.8 1-3.9 0.4l-3.8-2.2c-2.1-1.2-2.1-5.2 0-8.8l12.4-21.5-12.5-7.1c-2.1-1.3-2.2-5.2-0.1-8.9l3.8-6.5c1.1-1.9 2.5-3.3 3.9-4.1 1.4-0.8 2.8-1 3.8-0.4l12.6 7.2 12.5-21.7c1-1.8 2.4-3.2 3.8-4z"/>
				</g>
			</g>
			<g id="&lt;Group&gt;">
				<g id="&lt;Group&gt;">
					<path id="&lt;Path&gt;" class="s9" d="m856.1 50.7c21.5-12.4 38.9-2.4 39 22.3 0.1 24.6-17.3 54.7-38.8 67.1-21.4 12.4-38.9 2.4-39-22.2-0.1-24.7 17.3-54.8 38.8-67.2z"/>
				</g>
				<g id="&lt;Group&gt;">
					<path id="&lt;Path&gt;" class="s6" d="m875.8 57.1c1.2-0.7 2.4-1 3.4-0.7l3.8 0.9c2.7 0.6 3.3 4.4 1.4 8.5l-24.5 54-3.8 8.4c-1.1 2.5-2.9 4.5-4.7 5.6-1.2 0.6-2.4 0.9-3.4 0.7l-2.5-0.6-2.5-0.9-17-6c-2.6-0.9-3-5-0.9-9l2.9-5.9c1.1-2.3 2.8-4.1 4.5-5.1 1.3-0.7 2.6-1 3.7-0.6l12.9 4.6 22-48.3c1.1-2.5 2.9-4.6 4.7-5.6z"/>
				</g>
			</g>
		</g>
		<g id="&lt;Group&gt;">
			<path id="&lt;Path&gt;" class="s6" d="m830.7 875.5c9.7 7.3 12 17.7 12 19.8 0-2.1 2.3-12.5 12-19.8-9.7-7.3-12-17.7-12-19.9 0 2.2-2.3 12.6-12 19.9"/>
			<path id="&lt;Path&gt;" class="s6" d="m865.1 859.3c-0.2-1.8-1.8-2.8-3.5-2.8-1.8 0-3 2-2.8 3.5 0.2 1.9 1.7 2.8 3.5 2.8 1.7 0 2.9-1.9 2.8-3.5z"/>
			<path id="&lt;Path&gt;" class="s6" d="m872.8 837.9c-0.2-1.8-1.8-2.8-3.5-2.8-1.7 0-3 2-2.8 3.5 0.2 1.9 1.8 2.8 3.5 2.8 1.7 0 3-1.9 2.8-3.5z"/>
			<path id="&lt;Path&gt;" class="s6" d="m850.7 837c-0.2-1.9-1.8-2.8-3.5-2.8-1.7 0-3 1.9-2.8 3.5 0.2 1.8 1.8 2.8 3.5 2.8 1.7 0 3-2 2.8-3.5z"/>
			<path id="&lt;Path&gt;" class="s6" d="m276.6 691c-9.7 7.3-12.1 17.7-12.1 19.8 0-2.1-2.3-12.5-12-19.8 9.7-7.3 12-17.7 12-19.9 0 2.2 2.4 12.6 12.1 19.9"/>
			<path id="&lt;Path&gt;" class="s6" d="m242.2 674.9c0.2-1.9 1.7-2.8 3.5-2.8 1.7 0 2.9 1.9 2.8 3.5-0.2 1.8-1.8 2.8-3.5 2.8-1.8 0-3-2-2.8-3.5z"/>
			<path id="&lt;Path&gt;" class="s6" d="m234.4 653.4c0.2-1.8 1.8-2.8 3.5-2.8 1.7 0 3 2 2.8 3.6-0.2 1.8-1.8 2.8-3.5 2.8-1.7 0-3-2-2.8-3.6z"/>
			<path id="&lt;Path&gt;" class="s6" d="m256.5 652.5c0.2-1.9 1.8-2.8 3.5-2.8 1.7 0 3 1.9 2.8 3.5-0.2 1.9-1.8 2.8-3.5 2.8-1.7 0-3-1.9-2.8-3.5z"/>
			<path id="&lt;Path&gt;" class="s6" d="m581.8 726.9c-9.7 7.3-12.1 17.7-12.1 19.8 0-2.1-2.3-12.5-12-19.8 9.7-7.3 12-17.7 12-19.9 0 2.2 2.4 12.6 12.1 19.9"/>
			<path id="&lt;Path&gt;" class="s6" d="m587.6 703.7c0.2-1.8 1.8-2.8 3.5-2.8 1.7 0 3 2 2.8 3.5-0.2 1.9-1.8 2.8-3.5 2.8-1.7 0-3-1.9-2.8-3.5z"/>
			<path id="&lt;Path&gt;" class="s6" d="m582.3 687.6c0.2-1.9 1.8-2.8 3.5-2.8 1.7 0 3 1.9 2.8 3.5-0.2 1.9-1.8 2.8-3.5 2.8-1.7 0-3-1.9-2.8-3.5z"/>
			<path id="&lt;Path&gt;" class="s6" d="m572.4 693.4c0.2-1.9 1.8-2.8 3.5-2.8 1.7 0 3 1.9 2.8 3.5-0.2 1.9-1.8 2.8-3.5 2.8-1.7 0-3-1.9-2.8-3.5z"/>
			<path id="&lt;Path&gt;" class="s6" d="m585.9 747.4c-0.2-1.9-1.8-2.8-3.5-2.8-1.7 0-3 1.9-2.8 3.5 0.2 1.9 1.8 2.8 3.5 2.8 1.7 0 3-1.9 2.8-3.5z"/>
			<path id="&lt;Path&gt;" class="s6" d="m550.2 744.3c-0.3-1.8-1.8-2.8-3.6-2.8-1.7 0-2.9 2-2.8 3.5 0.2 1.9 1.8 2.9 3.6 2.9 1.7 0 2.9-2 2.8-3.6z"/>
		</g>
	</g>
</svg>