<svg version="1.2" xmlns="http://www.w3.org/2000/svg" viewBox="0 0 1000 1000" width="500" height="500">
	<title>6195122-ai</title>
	<defs>
		<clipPath clipPathUnits="userSpaceOnUse" id="cp1">
			<path d="m1000 1000h-1000v-717.18h1000z"/>
		</clipPath>
	</defs>
	<style>
		.s0 { fill: #23a9d8 } 
		.s1 { fill: #ffffff } 
		.s2 { fill: #b7dae2 } 
		.s3 { fill: #9bc7ce } 
		.s4 { fill: #cfdfe2 } 
		.s5 { fill: #032544 } 
		.s6 { fill: #7ccbdd } 
		.s7 { fill: #61afbc } 
		.s8 { fill: #22b8e0 } 
		.s9 { fill: #028cc9 } 
		.s10 { fill: #f49c00 } 
		.s11 { fill: #51d2f4 } 
		.s12 { fill: #ffbe06 } 
		.s13 { fill: #ffae0b } 
		.s14 { fill: #e08a00 } 
		.s15 { fill: #f28400 } 
		.s16 { opacity: .4;fill: #acdde5 } 
	</style>
	<g id="OBJECTS">
		<g id="&lt;Clip Group&gt;" clip-path="url(#cp1)">
			<g id="&lt;Group&gt;">
				<g id="&lt;Group&gt;">
					<path id="&lt;Path&gt;" class="s0" d="m900.7 752.4l1.6-0.9 55.7 32.2-1.5 0.9z"/>
				</g>
				<g id="&lt;Group&gt;">
					<g id="&lt;Group&gt;">
						<path id="&lt;Path&gt;" class="s0" d="m440.6 420.8l1.6-1 56.6 32.7-1.6 0.9z"/>
					</g>
					<g id="&lt;Group&gt;">
						<path id="&lt;Path&gt;" class="s0" d="m498.8 454.3l1.6-0.9 55.8 32.2-1.6 0.9z"/>
					</g>
					<g id="&lt;Group&gt;">
						<path id="&lt;Path&gt;" class="s0" d="m383.6 453.9l1.6-0.9 56.6 32.6-1.6 0.9z"/>
					</g>
					<g id="&lt;Group&gt;">
						<path id="&lt;Path&gt;" class="s0" d="m556.2 487.5l1.6-1 55.7 32.2-1.6 0.9z"/>
					</g>
					<g id="&lt;Group&gt;">
						<path id="&lt;Path&gt;" class="s0" d="m441.8 487.5l1.6-1 55.8 32.2-1.6 1z"/>
					</g>
					<g id="&lt;Group&gt;">
						<path id="&lt;Path&gt;" class="s0" d="m326.7 487l1.6-0.9 56.5 32.6-1.6 0.9z"/>
					</g>
					<g id="&lt;Group&gt;">
						<path id="&lt;Path&gt;" class="s0" d="m613.5 520.6l1.6-1 55.8 32.2-1.6 1z"/>
					</g>
					<g id="&lt;Group&gt;">
						<path id="&lt;Path&gt;" class="s0" d="m499.2 520.6l1.6-0.9 55.7 32.1-1.6 1z"/>
					</g>
					<g id="&lt;Group&gt;">
						<path id="&lt;Path&gt;" class="s0" d="m384.8 520.6l1.6-1 55.8 32.2-1.6 1z"/>
					</g>
					<g id="&lt;Group&gt;">
						<path id="&lt;Path&gt;" class="s0" d="m269.7 520.1l1.6-0.9 56.5 32.6-1.6 1z"/>
					</g>
					<g id="&lt;Group&gt;">
						<path id="&lt;Path&gt;" class="s0" d="m670.9 553.7l1.6-0.9 55.7 32.2-1.5 0.9z"/>
					</g>
					<g id="&lt;Group&gt;">
						<path id="&lt;Path&gt;" class="s0" d="m556.5 553.7l1.6-0.9 55.8 32.2-1.6 0.9z"/>
					</g>
					<g id="&lt;Group&gt;">
						<path id="&lt;Path&gt;" class="s0" d="m442.2 553.7l1.6-0.9 55.7 32.2-1.5 0.9z"/>
					</g>
					<g id="&lt;Group&gt;">
						<path id="&lt;Path&gt;" class="s0" d="m327.8 553.7l1.6-0.9 55.8 32.2-1.6 0.9z"/>
					</g>
					<g id="&lt;Group&gt;">
						<path id="&lt;Path&gt;" class="s0" d="m212.7 553.2l1.6-0.9 56.5 32.7-1.5 0.9z"/>
					</g>
					<g id="&lt;Group&gt;">
						<path id="&lt;Path&gt;" class="s0" d="m728.3 586.8l1.5-0.9 55.8 32.2-1.6 0.9z"/>
					</g>
					<g id="&lt;Group&gt;">
						<path id="&lt;Path&gt;" class="s0" d="m613.9 586.8l1.6-0.9 55.7 32.2-1.5 0.9z"/>
					</g>
					<g id="&lt;Group&gt;">
						<path id="&lt;Path&gt;" class="s0" d="m499.6 586.8l1.5-0.9 55.8 32.2-1.6 0.9z"/>
					</g>
					<g id="&lt;Group&gt;">
						<path id="&lt;Path&gt;" class="s0" d="m385.2 586.8l1.6-0.9 55.7 32.2-1.5 0.9z"/>
					</g>
					<g id="&lt;Group&gt;">
						<path id="&lt;Path&gt;" class="s0" d="m270.9 586.8l1.5-0.9 55.8 32.2-1.6 0.9z"/>
					</g>
					<g id="&lt;Group&gt;">
						<path id="&lt;Path&gt;" class="s0" d="m155.7 586.4l1.6-1 56.5 32.7-1.5 0.9z"/>
					</g>
					<g id="&lt;Group&gt;">
						<path id="&lt;Path&gt;" class="s0" d="m785.6 619.9l1.6-0.9 55.8 32.2-1.6 0.9z"/>
					</g>
					<g id="&lt;Group&gt;">
						<path id="&lt;Path&gt;" class="s0" d="m671.3 619.9l1.5-0.9 55.8 32.2-1.6 0.9z"/>
					</g>
					<g id="&lt;Group&gt;">
						<path id="&lt;Path&gt;" class="s0" d="m556.9 619.9l1.6-0.9 55.8 32.2-1.6 0.9z"/>
					</g>
					<g id="&lt;Group&gt;">
						<path id="&lt;Path&gt;" class="s0" d="m442.6 619.9l1.5-0.9 55.8 32.2-1.6 0.9z"/>
					</g>
					<g id="&lt;Group&gt;">
						<path id="&lt;Path&gt;" class="s0" d="m328.2 619.9l1.6-0.9 55.8 32.2-1.6 0.9z"/>
					</g>
					<g id="&lt;Group&gt;">
						<path id="&lt;Path&gt;" class="s0" d="m213.9 619.9l1.5-0.9 55.8 32.2-1.6 0.9z"/>
					</g>
					<g id="&lt;Group&gt;">
						<path id="&lt;Path&gt;" class="s0" d="m98.7 619.5l1.6-1 56.6 32.7-1.6 0.9z"/>
					</g>
					<g id="&lt;Group&gt;">
						<path id="&lt;Path&gt;" class="s0" d="m843 653l1.6-0.9 55.7 32.2-1.6 0.9z"/>
					</g>
					<g id="&lt;Group&gt;">
						<path id="&lt;Path&gt;" class="s0" d="m728.6 653l1.6-0.9 55.8 32.2-1.6 0.9z"/>
					</g>
					<g id="&lt;Group&gt;">
						<path id="&lt;Path&gt;" class="s0" d="m614.3 653l1.6-0.9 55.7 32.2-1.6 0.9z"/>
					</g>
					<g id="&lt;Group&gt;">
						<path id="&lt;Path&gt;" class="s0" d="m499.9 653.1l1.6-1 55.8 32.2-1.6 0.9z"/>
					</g>
					<g id="&lt;Group&gt;">
						<path id="&lt;Path&gt;" class="s0" d="m385.6 653l1.6-0.9 55.7 32.2-1.6 0.9z"/>
					</g>
					<g id="&lt;Group&gt;">
						<path id="&lt;Path&gt;" class="s0" d="m271.2 653.1l1.6-1 55.8 32.2-1.6 0.9z"/>
					</g>
					<g id="&lt;Group&gt;">
						<path id="&lt;Path&gt;" class="s0" d="m156.9 653l1.6-0.9 55.7 32.2-1.6 0.9z"/>
					</g>
					<g id="&lt;Group&gt;">
						<path id="&lt;Path&gt;" class="s0" d="m41.7 652.6l1.6-0.9 56.6 32.6-1.6 0.9z"/>
					</g>
					<g id="&lt;Group&gt;">
						<path id="&lt;Path&gt;" class="s0" d="m900.3 686.2l1.6-1 55.8 32.2-1.6 1z"/>
					</g>
					<g id="&lt;Group&gt;">
						<path id="&lt;Path&gt;" class="s0" d="m786 686.2l1.6-1 55.7 32.2-1.6 1z"/>
					</g>
					<g id="&lt;Group&gt;">
						<path id="&lt;Path&gt;" class="s0" d="m671.6 686.2l1.6-1 55.8 32.2-1.6 1z"/>
					</g>
					<g id="&lt;Group&gt;">
						<path id="&lt;Path&gt;" class="s0" d="m557.3 686.2l1.6-1 55.7 32.2-1.6 1z"/>
					</g>
					<g id="&lt;Group&gt;">
						<path id="&lt;Path&gt;" class="s0" d="m442.9 686.2l1.6-1 55.8 32.2-1.6 1z"/>
					</g>
					<g id="&lt;Group&gt;">
						<path id="&lt;Path&gt;" class="s0" d="m328.6 686.2l1.6-1 55.7 32.2-1.6 1z"/>
					</g>
					<g id="&lt;Group&gt;">
						<path id="&lt;Path&gt;" class="s0" d="m214.2 686.2l1.6-1 55.8 32.2-1.6 1z"/>
					</g>
					<g id="&lt;Group&gt;">
						<path id="&lt;Path&gt;" class="s0" d="m99.9 686.2l1.6-1 55.7 32.2-1.6 1z"/>
					</g>
					<g id="&lt;Group&gt;">
						<path id="&lt;Path&gt;" class="s0" d="m-15.3 685.7l1.6-0.9 56.6 32.6-1.6 1z"/>
					</g>
					<g id="&lt;Group&gt;">
						<path id="&lt;Path&gt;" class="s0" d="m957.7 719.3l1.6-0.9 55.7 32.1-1.5 1z"/>
					</g>
					<g id="&lt;Group&gt;">
						<path id="&lt;Path&gt;" class="s0" d="m843.3 719.3l1.6-0.9 55.8 32.2-1.6 0.9z"/>
					</g>
					<g id="&lt;Group&gt;">
						<path id="&lt;Path&gt;" class="s0" d="m729 719.3l1.6-0.9 55.7 32.1-1.5 1z"/>
					</g>
					<g id="&lt;Group&gt;">
						<path id="&lt;Path&gt;" class="s0" d="m614.6 719.3l1.6-0.9 55.8 32.2-1.6 0.9z"/>
					</g>
					<g id="&lt;Group&gt;">
						<path id="&lt;Path&gt;" class="s0" d="m500.3 719.3l1.6-0.9 55.7 32.1-1.5 1z"/>
					</g>
					<g id="&lt;Group&gt;">
						<path id="&lt;Path&gt;" class="s0" d="m385.9 719.3l1.6-0.9 55.8 32.2-1.6 0.9z"/>
					</g>
					<g id="&lt;Group&gt;">
						<path id="&lt;Path&gt;" class="s0" d="m271.6 719.3l1.6-0.9 55.7 32.1-1.5 1z"/>
					</g>
					<g id="&lt;Group&gt;">
						<path id="&lt;Path&gt;" class="s0" d="m157.2 719.3l1.6-0.9 55.8 32.1-1.6 1z"/>
					</g>
					<g id="&lt;Group&gt;">
						<path id="&lt;Path&gt;" class="s0" d="m42.9 719.3l1.6-0.9 55.8 32.2-1.6 0.9z"/>
					</g>
					<g id="&lt;Group&gt;">
						<path id="&lt;Path&gt;" class="s0" d="m-72.3 718.8l1.6-0.9 56.6 32.6-1.6 1z"/>
					</g>
					<g id="&lt;Group&gt;">
						<path id="&lt;Path&gt;" class="s0" d="m1016.6 751.5l56.6 32.6-1.6 0.9-56.5-32.6z"/>
					</g>
					<g id="&lt;Group&gt;">
						<path id="&lt;Path&gt;" class="s0" d="m786.4 752.4l1.5-0.9 55.8 32.2-1.6 0.9z"/>
					</g>
					<g id="&lt;Group&gt;">
						<path id="&lt;Path&gt;" class="s0" d="m672 752.4l1.6-0.9 55.7 32.2-1.5 0.9z"/>
					</g>
					<g id="&lt;Group&gt;">
						<path id="&lt;Path&gt;" class="s0" d="m557.7 752.4l1.5-0.9 55.8 32.2-1.6 0.9z"/>
					</g>
					<g id="&lt;Group&gt;">
						<path id="&lt;Path&gt;" class="s0" d="m443.3 752.4l1.6-0.9 55.7 32.2-1.5 0.9z"/>
					</g>
					<g id="&lt;Group&gt;">
						<path id="&lt;Path&gt;" class="s0" d="m329 752.4l1.6-0.9 55.7 32.2-1.6 0.9z"/>
					</g>
					<g id="&lt;Group&gt;">
						<path id="&lt;Path&gt;" class="s0" d="m214.6 752.4l1.6-0.9 55.8 32.2-1.6 0.9z"/>
					</g>
					<g id="&lt;Group&gt;">
						<path id="&lt;Path&gt;" class="s0" d="m100.3 752.4l1.6-0.9 55.7 32.2-1.6 0.9z"/>
					</g>
					<g id="&lt;Group&gt;">
						<path id="&lt;Path&gt;" class="s0" d="m-14.1 752.4l1.6-0.9 55.8 32.2-1.6 0.9z"/>
					</g>
					<g id="&lt;Group&gt;">
						<path id="&lt;Path&gt;" class="s0" d="m556.6 420.8l-56.2 32.6-1.6 0.9-55.4 32.2-1.6 1-55.4 32.1-1.6 1-55.4 32.2-1.6 0.9-55.4 32.2-1.5 0.9-55.5 32.2-1.5 0.9-55.4 32.2-1.6 0.9-55.4 32.2-1.6 1-55.4 32.2-1.6 0.9-55.4 32.2-1.6 0.9-56.2 32.7-1.6-1 56.2-32.6 1.6-1 55.4-32.1 1.6-1 55.4-32.2 1.6-0.9 55.4-32.2 1.6-0.9 55.4-32.2 1.5-0.9 55.5-32.2 1.5-0.9 55.4-32.2 1.6-1 55.4-32.2 1.6-0.9 55.4-32.2 1.6-0.9 55.4-32.2 1.6-0.9 56.2-32.7z"/>
					</g>
					<g id="&lt;Group&gt;">
						<path id="&lt;Path&gt;" class="s0" d="m843.7 785.5l1.6-0.9 55.8 32.2-1.6 0.9z"/>
					</g>
					<g id="&lt;Group&gt;">
						<path id="&lt;Path&gt;" class="s0" d="m959.6 784.6l56.6 32.6-1.6 1-56.5-32.7z"/>
					</g>
					<g id="&lt;Group&gt;">
						<path id="&lt;Path&gt;" class="s0" d="m729.4 785.5l1.5-0.9 55.8 32.2-1.6 0.9z"/>
					</g>
					<g id="&lt;Group&gt;">
						<path id="&lt;Path&gt;" class="s0" d="m615 785.5l1.6-0.9 55.8 32.2-1.6 0.9z"/>
					</g>
					<g id="&lt;Group&gt;">
						<path id="&lt;Path&gt;" class="s0" d="m500.7 785.5l1.5-0.9 55.8 32.2-1.6 0.9z"/>
					</g>
					<g id="&lt;Group&gt;">
						<path id="&lt;Path&gt;" class="s0" d="m386.3 785.5l1.6-0.9 55.8 32.2-1.6 0.9z"/>
					</g>
					<g id="&lt;Group&gt;">
						<path id="&lt;Path&gt;" class="s0" d="m272 785.5l1.6-0.9 55.7 32.2-1.6 0.9z"/>
					</g>
					<g id="&lt;Group&gt;">
						<path id="&lt;Path&gt;" class="s0" d="m157.6 785.5l1.6-0.9 55.8 32.2-1.6 0.9z"/>
					</g>
					<g id="&lt;Group&gt;">
						<path id="&lt;Path&gt;" class="s0" d="m43.3 785.5l1.6-0.9 55.7 32.2-1.6 0.9z"/>
					</g>
					<g id="&lt;Group&gt;">
						<path id="&lt;Path&gt;" class="s0" d="m614 453.9l-56.2 32.6-1.6 1-55.4 32.2-1.6 0.9-55.4 32.2-1.6 0.9-55.4 32.2-1.6 0.9-55.4 32.2-1.6 0.9-55.4 32.2-1.6 1-55.4 32.1-1.6 1-55.4 32.2-1.6 0.9-55.3 32.2-1.6 0.9-55.4 32.2-1.6 0.9-56.2 32.7-1.6-0.9 56.2-32.7 1.6-0.9 55.4-32.2 1.6-0.9 55.3-32.2 1.7-1 55.3-32.2 1.6-0.9 55.4-32.2 1.6-0.9 55.4-32.2 1.6-0.9 55.4-32.2 1.6-0.9 55.4-32.2 1.6-1 55.4-32.1 1.6-1 55.4-32.2 1.6-0.9 56.2-32.6z"/>
					</g>
					<g id="&lt;Group&gt;">
						<path id="&lt;Path&gt;" class="s0" d="m786.7 818.6l1.6-0.9 55.8 32.2-1.6 0.9z"/>
					</g>
					<g id="&lt;Group&gt;">
						<path id="&lt;Path&gt;" class="s0" d="m902.7 817.7l56.5 32.7-1.6 0.9-56.5-32.7z"/>
					</g>
					<g id="&lt;Group&gt;">
						<path id="&lt;Path&gt;" class="s0" d="m672.4 818.6l1.6-0.9 55.7 32.2-1.6 0.9z"/>
					</g>
					<g id="&lt;Group&gt;">
						<path id="&lt;Path&gt;" class="s0" d="m558 818.6l1.6-0.9 55.8 32.2-1.6 0.9z"/>
					</g>
					<g id="&lt;Group&gt;">
						<path id="&lt;Path&gt;" class="s0" d="m443.7 818.6l1.6-0.9 55.7 32.2-1.6 0.9z"/>
					</g>
					<g id="&lt;Group&gt;">
						<path id="&lt;Path&gt;" class="s0" d="m329.3 818.6l1.6-0.9 55.8 32.2-1.6 0.9z"/>
					</g>
					<g id="&lt;Group&gt;">
						<path id="&lt;Path&gt;" class="s0" d="m215 818.6l1.6-0.9 55.7 32.2-1.6 0.9z"/>
					</g>
					<g id="&lt;Group&gt;">
						<path id="&lt;Path&gt;" class="s0" d="m100.6 818.6l1.6-0.9 55.8 32.2-1.6 0.9z"/>
					</g>
					<g id="&lt;Group&gt;">
						<path id="&lt;Path&gt;" class="s0" d="m671.3 487l-56.2 32.6-1.6 1-55.4 32.2-1.6 0.9-55.4 32.2-1.5 0.9-55.5 32.2-1.5 0.9-55.4 32.2-1.6 0.9-55.4 32.2-1.6 1-55.4 32.2-1.6 0.9-55.4 32.2-1.6 0.9-55.4 32.2-1.6 0.9-55.4 32.2-1.6 0.9-56.2 32.7-1.6-0.9 56.2-32.7 1.6-0.9 55.4-32.2 1.6-0.9 55.4-32.2 1.6-1 55.4-32.1 1.6-1 55.4-32.2 1.6-0.9 55.4-32.2 1.6-0.9 55.4-32.2 1.5-0.9 55.5-32.2 1.5-0.9 55.4-32.2 1.6-1 55.4-32.2 1.6-0.9 56.2-32.6z"/>
					</g>
					<g id="&lt;Group&gt;">
						<path id="&lt;Path&gt;" class="s0" d="m729.7 851.7l1.6-0.9 55.8 32.2-1.6 0.9z"/>
					</g>
					<g id="&lt;Group&gt;">
						<path id="&lt;Path&gt;" class="s0" d="m845.7 850.8l56.5 32.7-1.6 0.9-56.5-32.7z"/>
					</g>
					<g id="&lt;Group&gt;">
						<path id="&lt;Path&gt;" class="s0" d="m615.4 851.7l1.6-0.9 55.7 32.2-1.6 0.9z"/>
					</g>
					<g id="&lt;Group&gt;">
						<path id="&lt;Path&gt;" class="s0" d="m501 851.7l1.6-0.9 55.8 32.2-1.6 0.9z"/>
					</g>
					<g id="&lt;Group&gt;">
						<path id="&lt;Path&gt;" class="s0" d="m386.7 851.7l1.6-0.9 55.8 32.2-1.7 0.9z"/>
					</g>
					<g id="&lt;Group&gt;">
						<path id="&lt;Path&gt;" class="s0" d="m272.3 851.8l1.6-1 55.8 32.2-1.6 0.9z"/>
					</g>
					<g id="&lt;Group&gt;">
						<path id="&lt;Path&gt;" class="s0" d="m158 851.8l1.6-1 55.7 32.2-1.6 1z"/>
					</g>
					<g id="&lt;Group&gt;">
						<path id="&lt;Path&gt;" class="s0" d="m728.7 520.1l-56.2 32.7-1.6 0.9-55.4 32.2-1.6 0.9-55.4 32.2-1.6 0.9-55.4 32.2-1.6 1-55.4 32.1-1.6 1-55.4 32.2-1.6 0.9-55.3 32.2-1.6 0.9-55.4 32.2-1.6 0.9-55.4 32.2-1.6 0.9-55.4 32.2-1.6 1-56.2 32.6-1.6-0.9 56.2-32.7 1.6-0.9 55.4-32.2 1.6-0.9 55.4-32.2 1.6-0.9 55.4-32.2 1.5-1 55.4-32.1 1.6-1 55.4-32.2 1.6-0.9 55.4-32.2 1.6-0.9 55.4-32.2 1.6-0.9 55.4-32.2 1.6-0.9 55.4-32.2 1.6-1 56.2-32.6z"/>
					</g>
					<g id="&lt;Group&gt;">
						<path id="&lt;Path&gt;" class="s0" d="m672.7 884.9l1.6-1 55.8 32.2-1.6 1z"/>
					</g>
					<g id="&lt;Group&gt;">
						<path id="&lt;Path&gt;" class="s0" d="m788.7 883.9l56.5 32.7-1.5 0.9-56.6-32.6z"/>
					</g>
					<g id="&lt;Group&gt;">
						<path id="&lt;Path&gt;" class="s0" d="m558.4 884.9l1.6-1 55.8 32.2-1.6 1z"/>
					</g>
					<g id="&lt;Group&gt;">
						<path id="&lt;Path&gt;" class="s0" d="m444 884.9l1.6-1 55.8 32.2-1.6 1z"/>
					</g>
					<g id="&lt;Group&gt;">
						<path id="&lt;Path&gt;" class="s0" d="m329.7 884.9l1.6-1 55.8 32.2-1.6 1z"/>
					</g>
					<g id="&lt;Group&gt;">
						<path id="&lt;Path&gt;" class="s0" d="m215.3 884.9l1.6-1 55.8 32.2-1.6 1z"/>
					</g>
					<g id="&lt;Group&gt;">
						<path id="&lt;Path&gt;" class="s0" d="m786 553.2l-56.2 32.7-1.5 0.9-55.5 32.2-1.5 0.9-55.4 32.2-1.6 0.9-55.4 32.2-1.6 1-55.4 32.2-1.6 0.9-55.4 32.2-1.6 0.9-55.4 32.2-1.6 0.9-55.4 32.2-1.6 0.9-55.4 32.2-1.6 1-55.4 32.1-1.6 1-56.1 32.6-1.6-0.9 56.1-32.6 1.7-1 55.3-32.2 1.6-0.9 55.4-32.2 1.6-0.9 55.4-32.2 1.6-0.9 55.4-32.2 1.6-0.9 55.4-32.2 1.6-1 55.4-32.2 1.6-0.9 55.4-32.2 1.6-0.9 55.4-32.2 1.5-0.9 55.5-32.2 1.5-0.9 56.2-32.7z"/>
					</g>
					<g id="&lt;Group&gt;">
						<path id="&lt;Path&gt;" class="s0" d="m615.8 918l1.6-0.9 55.7 32.2-1.6 0.9z"/>
					</g>
					<g id="&lt;Group&gt;">
						<path id="&lt;Path&gt;" class="s0" d="m731.7 917.1l56.6 32.6-1.6 0.9-56.6-32.6z"/>
					</g>
					<g id="&lt;Group&gt;">
						<path id="&lt;Path&gt;" class="s0" d="m501.4 918l1.6-0.9 55.8 32.2-1.6 0.9z"/>
					</g>
					<g id="&lt;Group&gt;">
						<path id="&lt;Path&gt;" class="s0" d="m387.1 918l1.6-0.9 55.7 32.2-1.6 0.9z"/>
					</g>
					<g id="&lt;Group&gt;">
						<path id="&lt;Path&gt;" class="s0" d="m272.7 918l1.6-0.9 55.8 32.2-1.6 0.9z"/>
					</g>
					<g id="&lt;Group&gt;">
						<path id="&lt;Path&gt;" class="s0" d="m843.4 586.3l-56.2 32.7-1.6 0.9-55.4 32.2-1.6 0.9-55.4 32.2-1.6 1-55.4 32.2-1.6 0.9-55.4 32.2-1.5 0.9-55.5 32.2-1.5 0.9-55.4 32.2-1.6 0.9-55.4 32.2-1.6 1-55.4 32.1-1.6 1-55.4 32.2-1.6 0.9-56.2 32.6-1.6-0.9 56.2-32.6 1.6-1 55.4-32.2 1.6-0.9 55.4-32.2 1.6-0.9 55.4-32.2 1.6-0.9 55.4-32.2 1.5-0.9 55.5-32.2 1.5-1 55.4-32.1 1.6-1 55.4-32.2 1.6-0.9 55.4-32.2 1.6-0.9 55.4-32.2 1.6-0.9 56.2-32.7z"/>
					</g>
					<g id="&lt;Group&gt;">
						<path id="&lt;Path&gt;" class="s0" d="m558.8 951.1l1.6-0.9 55.7 32.2-1.6 0.9z"/>
					</g>
					<g id="&lt;Group&gt;">
						<path id="&lt;Path&gt;" class="s0" d="m674.7 950.2l56.6 32.6-1.6 1-56.6-32.7z"/>
					</g>
					<g id="&lt;Group&gt;">
						<path id="&lt;Path&gt;" class="s0" d="m444.4 951.1l1.6-0.9 55.8 32.2-1.6 0.9z"/>
					</g>
					<g id="&lt;Group&gt;">
						<path id="&lt;Path&gt;" class="s0" d="m330.1 951.1l1.6-0.9 55.7 32.2-1.6 0.9z"/>
					</g>
					<g id="&lt;Group&gt;">
						<path id="&lt;Path&gt;" class="s0" d="m900.8 619.5l-56.2 32.6-1.6 0.9-55.4 32.2-1.6 1-55.4 32.2-1.6 0.9-55.4 32.2-1.6 0.9-55.4 32.2-1.6 0.9-55.4 32.2-1.6 0.9-55.4 32.2-1.6 0.9-55.4 32.2-1.6 1-55.3 32.2-1.6 0.9-55.4 32.2-1.6 0.9-56.2 32.7-1.6-1 56.2-32.6 1.6-0.9 55.4-32.2 1.6-1 55.3-32.2 1.7-0.9 55.3-32.2 1.6-0.9 55.4-32.2 1.6-0.9 55.4-32.2 1.6-0.9 55.4-32.2 1.6-0.9 55.4-32.2 1.6-1 55.4-32.2 1.6-0.9 55.4-32.2 1.6-0.9 56.2-32.7z"/>
					</g>
					<g id="&lt;Group&gt;">
						<path id="&lt;Path&gt;" class="s0" d="m501.8 984.2l1.6-0.9 55.7 32.2-1.6 0.9z"/>
					</g>
					<g id="&lt;Group&gt;">
						<path id="&lt;Path&gt;" class="s0" d="m617.7 983.3l56.6 32.6-1.6 1-56.6-32.7z"/>
					</g>
					<g id="&lt;Group&gt;">
						<path id="&lt;Path&gt;" class="s0" d="m387.4 984.2l1.6-0.9 55.8 32.2-1.6 0.9z"/>
					</g>
					<g id="&lt;Group&gt;">
						<path id="&lt;Path&gt;" class="s0" d="m958.1 652.6l-56.2 32.6-1.6 1-55.4 32.2-1.6 0.9-55.4 32.2-1.5 0.9-55.5 32.2-1.5 0.9-55.4 32.2-1.6 0.9-55.4 32.2-1.6 0.9-55.4 32.2-1.6 1-55.4 32.2-1.6 0.9-55.4 32.2-1.6 0.9-55.4 32.2-1.6 0.9-56.2 32.7-1.6-1 56.2-32.6 1.6-0.9 55.4-32.2 1.6-0.9 55.4-32.2 1.6-1 55.4-32.2 1.6-0.9 55.4-32.2 1.6-0.9 55.4-32.2 1.6-0.9 55.4-32.2 1.5-0.9 55.5-32.2 1.5-1 55.4-32.1 1.6-1 55.4-32.2 1.6-0.9 56.2-32.6z"/>
					</g>
					<g id="&lt;Group&gt;">
						<path id="&lt;Path&gt;" class="s0" d="m444.8 1017.3l1.6-0.9 55.8 32.2-1.7 0.9z"/>
					</g>
					<g id="&lt;Group&gt;">
						<path id="&lt;Path&gt;" class="s0" d="m560.7 1016.4l56.6 32.7-1.6 0.9-56.6-32.7z"/>
					</g>
					<g id="&lt;Group&gt;">
						<path id="&lt;Path&gt;" class="s0" d="m1015.5 685.7l-56.2 32.7-1.6 0.9-55.4 32.2-1.6 0.9-55.4 32.2-1.6 0.9-55.4 32.2-1.6 0.9-55.4 32.2-1.6 0.9-55.4 32.2-1.6 1-55.3 32.2-1.6 0.9-55.4 32.2-1.6 0.9-55.4 32.2-1.6 0.9-55.4 32.2-1.6 0.9-56.2 32.7-1.6-0.9 56.2-32.7 1.6-0.9 55.4-32.2 1.6-0.9 55.4-32.2 1.6-0.9 55.4-32.2 1.6-1 55.3-32.2 1.6-0.9 55.4-32.2 1.6-0.9 55.4-32.2 1.6-0.9 55.4-32.2 1.6-0.9 55.4-32.2 1.6-0.9 55.4-32.2 1.6-1 56.2-32.6z"/>
					</g>
					<g id="&lt;Group&gt;">
						<path id="&lt;Path&gt;" class="s0" d="m503.7 1049.5l56.6 32.7-1.6 0.9-56.6-32.6z"/>
					</g>
					<g id="&lt;Group&gt;">
						<path id="&lt;Path&gt;" class="s0" d="m1072.8 718.8l-56.2 32.7-1.5 0.9-55.5 32.2-1.5 0.9-55.4 32.2-1.6 0.9-55.4 32.2-1.6 0.9-55.4 32.2-1.6 1-55.4 32.2-1.6 0.9-55.4 32.2-1.6 0.9-55.4 32.2-1.6 0.9-55.4 32.2-1.6 0.9-55.4 32.2-1.6 1-56.1 32.6-1.6-0.9 56.1-32.7 1.7-0.9 55.3-32.2 1.6-0.9 55.4-32.2 1.6-0.9 55.4-32.2 1.6-0.9 55.4-32.2 1.6-1 55.4-32.2 1.6-0.9 55.4-32.2 1.6-0.9 55.4-32.2 1.6-0.9 55.4-32.2 1.5-0.9 55.5-32.2 1.5-1 56.2-32.6z"/>
					</g>
				</g>
			</g>
		</g>
		<g id="&lt;Group&gt;">
			<g id="&lt;Group&gt;">
				<g id="&lt;Group&gt;">
					<g id="&lt;Group&gt;">
						<g id="&lt;Group&gt;">
							<path id="&lt;Path&gt;" class="s1" d="m91.2 503l232.7-135.3c12.4-7.2 29.6-6.2 48.6 4.8l-232.7 135.2c-19-10.9-36.2-11.9-48.6-4.7z"/>
						</g>
						<g id="&lt;Group&gt;">
							<path id="&lt;Path&gt;" class="s1" d="m420.6 534.2l-232.7 135.3c12.3-7.2 19.9-22.3 19.9-43.9 0.2-43.3-30.3-96.1-68-117.9l232.7-135.2c37.7 21.8 68.2 74.6 68.1 117.9-0.1 21.5-7.7 36.7-20 43.8z"/>
						</g>
						<g id="&lt;Group&gt;">
							<path id="&lt;Path&gt;" class="s2" d="m139.8 507.7c37.7 21.8 68.2 74.6 68 117.9-0.1 43.4-30.8 60.9-68.5 39.1-37.7-21.8-68.2-74.6-68-117.9 0.1-43.4 30.8-60.8 68.5-39.1z"/>
						</g>
						<g id="&lt;Group&gt;">
							<path id="&lt;Path&gt;" class="s3" d="m135.6 547.4c19.6 11.3 35.5 38.7 35.4 61.3 0 22.5-16 31.6-35.6 20.3-19.6-11.4-35.5-38.8-35.4-61.3 0.1-22.6 16-31.7 35.6-20.3z"/>
						</g>
						<g id="&lt;Group&gt;">
							<g id="&lt;Group&gt;">
								<path id="&lt;Compound Path&gt;" fill-rule="evenodd" class="s3" d="m166.5 667.4c-8.5 0-18-2.8-27.8-8.5-33.8-19.5-61.2-66.9-61.1-105.7 0.1-19.1 6.6-33.3 18.5-40.1 11.9-6.9 27.6-5.3 44.3 4.3 33.8 19.5 61.2 66.9 61.1 105.7-0.1 19.1-6.6 33.3-18.5 40.1-4.9 2.8-10.5 4.2-16.5 4.2zm-53.9-155.9c-5.6 0-10.7 1.3-15.2 3.9-11 6.3-17.1 19.7-17.1 37.8-0.1 38 26.7 84.4 59.7 103.4 15.8 9.2 30.6 10.7 41.7 4.3 11-6.3 17.1-19.7 17.1-37.8 0.1-37.9-26.7-84.3-59.7-103.4-9.4-5.4-18.4-8.2-26.5-8.2z"/>
							</g>
						</g>
						<g id="&lt;Group&gt;">
							<g id="&lt;Group&gt;">
								<path id="&lt;Compound Path&gt;" fill-rule="evenodd" class="s3" d="m155.6 647.4c-6.5 0-13.6-2.2-20.9-6.4-25.2-14.5-45.6-49.9-45.5-78.8 0-14.3 5-25 13.9-30.1 8.9-5.1 20.7-4 33.2 3.2 25.2 14.5 45.6 49.9 45.5 78.8 0 14.3-4.9 25-13.8 30.1-3.7 2.1-7.9 3.2-12.4 3.2zm-40.1-115.8c-4.1 0-7.8 0.9-11.1 2.8-8.1 4.6-12.5 14.5-12.6 27.8 0 28.1 19.8 62.4 44.2 76.5 11.7 6.7 22.5 7.9 30.6 3.2 8.1-4.6 12.6-14.5 12.6-27.8 0.1-28.1-19.8-62.4-44.2-76.5-6.9-4-13.6-6-19.5-6z"/>
							</g>
						</g>
					</g>
					<path id="&lt;Path&gt;" class="s4" d="m214.1 431.5l-27.2 125.3 57.5 112.4 241-116.8-107.8-225.3z"/>
				</g>
				<g id="&lt;Group&gt;">
					<g id="&lt;Group&gt;">
						<g id="&lt;Group&gt;">
							<path id="&lt;Path&gt;" class="s5" d="m135.9 588.6v5.4c0 1.3-0.8 2.6-2.5 3.5l0.1-5.4c1.6-0.9 2.4-2.2 2.4-3.5z"/>
						</g>
						<g id="&lt;Group&gt;">
							<path id="&lt;Path&gt;" class="s5" d="m133.5 592.1l-0.1 5.4-8.9 5.2v-5.4z"/>
						</g>
						<g id="&lt;Group&gt;">
							<path id="&lt;Path&gt;" class="s5" d="m118.8 610.8v-5.4c0-2.9 1.9-5.9 5.7-8.1v5.4c-3.8 2.2-5.7 5.1-5.7 8.1z"/>
						</g>
						<g id="&lt;Group&gt;">
							<path id="&lt;Path&gt;" class="s5" d="m101.6 610.7v-5.4c0 5.5 3.6 11.1 10.9 15.3v5.3c-7.3-4.2-10.9-9.7-10.9-15.2z"/>
						</g>
						<g id="&lt;Group&gt;">
							<path id="&lt;Path&gt;" class="s5" d="m213.1 678.6v5.4l-100.6-58.1v-5.3z"/>
						</g>
						<g id="&lt;Group&gt;">
							<path id="&lt;Path&gt;" class="s5" d="m225.2 671.6v5.4l-12.1 7v-5.4z"/>
						</g>
						<g id="&lt;Group&gt;">
							<path id="&lt;Path&gt;" class="s5" d="m133.4 585.1c3.4 1.9 3.4 5.1 0.1 7l-9 5.2c-7.7 4.5-7.6 11.8 0.1 16.2l100.6 58.1-12.1 7-100.6-58c-14.5-8.4-14.5-22-0.1-30.3l8.9-5.2c3.3-1.9 8.8-1.9 12.1 0z"/>
						</g>
					</g>
				</g>
			</g>
			<g id="&lt;Group&gt;">
				<g id="&lt;Group&gt;">
					<g id="&lt;Group&gt;">
						<g id="&lt;Group&gt;">
							<path id="&lt;Path&gt;" class="s6" d="m155.6 578.4l279.3-162.3c2.9-1.7 6.9-1.4 11.4 1.1l-279.3 162.3c-4.4-2.5-8.5-2.8-11.4-1.1z"/>
						</g>
						<g id="&lt;Group&gt;">
							<path id="&lt;Path&gt;" class="s6" d="m167 579.5l279.3-162.3 35 20.3-279.3 162.2z"/>
						</g>
						<g id="&lt;Group&gt;">
							<path id="&lt;Path&gt;" class="s5" d="m202 599.7l279.3-162.2 71.8 84.6-279.3 162.3z"/>
						</g>
						<g id="&lt;Group&gt;">
							<path id="&lt;Path&gt;" class="s7" d="m886.8 815.3l-279.3 162.3c2.9-1.6 4.7-5.2 4.7-10.2l279.2-162.3c0 5-1.8 8.6-4.6 10.2z"/>
						</g>
						<g id="&lt;Group&gt;">
							<path id="&lt;Path&gt;" class="s7" d="m612.2 944.6l279.3-162.3-0.1 22.8-279.2 162.3z"/>
						</g>
						<g id="&lt;Group&gt;">
							<path id="&lt;Path&gt;" class="s6" d="m273.8 684.4l279.3-162.3 324.4 233.8-279.3 162.3z"/>
						</g>
						<g id="&lt;Group&gt;">
							<path id="&lt;Path&gt;" class="s6" d="m598.2 918.2l279.3-162.3c8 5.8 14 17.1 14 26.4l-279.3 162.3c0.1-9.3-5.9-20.6-14-26.4z"/>
						</g>
						<g id="&lt;Group&gt;">
							<path id="&lt;Path&gt;" class="s7" d="m202 599.7l71.8 84.7 324.4 233.8c8.1 5.8 14.1 17.1 14 26.4v22.8c-0.1 10.1-7.3 14.2-16.1 9.1l-429.5-248c-8.9-5.1-16-17.5-16-27.6l0.3-112.2c0.1-10.2 7.3-14.3 16.1-9.2z"/>
						</g>
					</g>
				</g>
				<g id="&lt;Group&gt;">
					<g id="&lt;Group&gt;">
						<path id="&lt;Path&gt;" class="s8" d="m538.5 607.7c-3.5-2.6-3.3-6.5 0.4-8.7l37.2-21.8c3.8-2.2 9.7-1.9 13.3 0.6l14.5 10.5c3.5 2.5 3.3 6.4-0.5 8.6l-37.3 21.7c-3.8 2.2-9.8 1.9-13.3-0.7z"/>
					</g>
					<g id="&lt;Group&gt;">
						<path id="&lt;Path&gt;" class="s8" d="m529.8 593.1c-3.7 2.2-9.7 1.9-13.2-0.7l-11.4-8.2c-3.6-2.5-3.4-6.4 0.4-8.6l37.3-21.7c3.8-2.2 9.8-1.9 13.3 0.6l11.2 8.1c3.5 2.6 3.4 6.4-0.4 8.7z"/>
					</g>
					<g id="&lt;Group&gt;">
						<path id="&lt;Path&gt;" class="s9" d="m562.6 786c-3.8 2.1-9.8 1.9-13.3-0.7l-38.5-27.8c-3.6-2.5-3.4-6.4 0.4-8.6l37.4-21.7c3.7-2.2 9.7-1.9 13.2 0.6l38.6 27.8c3.5 2.6 3.3 6.5-0.5 8.6z"/>
					</g>
					<g id="&lt;Group&gt;">
						<path id="&lt;Path&gt;" class="s8" d="m608.9 855.5c3.8-2.2 9.8-1.9 13.3 0.6l38.5 27.8c3.6 2.5 3.4 6.4-0.4 8.6l-37.4 21.7c-3.7 2.2-9.7 1.9-13.2-0.7l-38.5-27.7c-3.6-2.6-3.4-6.5 0.4-8.6z"/>
					</g>
					<g id="&lt;Group&gt;">
						<path id="&lt;Path&gt;" class="s9" d="m624.6 830.7c-3.7 2.2-9.7 1.9-13.3-0.7l-38.5-27.7c-3.5-2.6-3.3-6.5 0.4-8.6l37.4-21.8c3.8-2.1 9.7-1.9 13.3 0.7l38.5 27.8c3.5 2.5 3.3 6.4-0.4 8.6z"/>
					</g>
					<g id="&lt;Group&gt;">
						<path id="&lt;Path&gt;" class="s8" d="m636.7 684.7c-3.5-2.5-3.3-6.4 0.4-8.6l37.4-21.7c3.8-2.2 9.7-1.9 13.3 0.7l38.5 27.7c3.5 2.6 3.3 6.5-0.4 8.7l-37.4 21.7c-3.8 2.1-9.8 1.9-13.3-0.7z"/>
					</g>
					<g id="&lt;Group&gt;">
						<path id="&lt;Path&gt;" class="s8" d="m734.9 780c3.7-2.2 9.7-1.9 13.3 0.7l38.5 27.7c3.5 2.6 3.3 6.5-0.5 8.7l-37.3 21.7c-3.8 2.2-9.8 1.9-13.3-0.7l-38.5-27.8c-3.5-2.5-3.4-6.4 0.4-8.6z"/>
					</g>
					<g id="&lt;Group&gt;">
						<path id="&lt;Path&gt;" class="s8" d="m415.9 698.8c3.5 2.5 3.3 6.4-0.5 8.6l-37.3 21.7c-3.8 2.2-9.8 1.9-13.3-0.6l-14.4-10.5c-3.6-2.5-6.5-4.6-6.4-4.6 0 0 3.1-1.9 6.8-4.1l37.1-21.7c3.8-2.2 9.8-2 13.3 0.6z"/>
					</g>
					<g id="&lt;Group&gt;">
						<path id="&lt;Path&gt;" class="s8" d="m379.2 673c3.6 2.5 3.4 6.4-0.4 8.6l-37.1 21.8c-3.8 2.2-6.8 4-6.9 4 0 0-2.9-2-6.4-4.6l-11.2-8.1c-3.6-2.5-3.4-6.4 0.4-8.6l37.4-21.7c3.7-2.2 9.7-1.9 13.2 0.7z"/>
					</g>
					<g id="&lt;Group&gt;">
						<path id="&lt;Path&gt;" class="s8" d="m468.8 628.9c-3.8 2.2-9.8 1.9-13.3-0.7l-12.4-8.9c-3.5-2.5-3.4-6.4 0.4-8.6l37.4-21.7c3.7-2.2 9.7-1.9 13.3 0.6l12.2 8.8c3.5 2.6 3.3 6.5-0.5 8.7z"/>
					</g>
					<g id="&lt;Group&gt;">
						<path id="&lt;Path&gt;" class="s9" d="m552.1 643.7c3.7-2.2 9.7-1.9 13.2 0.7l38.5 27.8c3.6 2.5 3.4 6.4-0.4 8.6l-37.3 21.7c-3.8 2.2-9.8 1.9-13.3-0.7l-38.5-27.7c-3.6-2.6-3.4-6.5 0.4-8.7z"/>
					</g>
					<g id="&lt;Group&gt;">
						<path id="&lt;Path&gt;" class="s10" d="m576.3 639c-3.5-2.6-3.3-6.5 0.4-8.6l37.4-21.8c3.8-2.1 9.7-1.9 13.3 0.7l38.5 27.8c3.5 2.5 3.3 6.4-0.4 8.6l-37.4 21.7c-3.8 2.2-9.7 1.9-13.3-0.7z"/>
					</g>
					<g id="&lt;Group&gt;">
						<path id="&lt;Path&gt;" class="s9" d="m671 817.7c3.8-2.2 9.7-1.9 13.3 0.7l38.5 27.7c3.5 2.6 3.3 6.5-0.4 8.7l-37.4 21.7c-3.8 2.2-9.7 1.9-13.3-0.7l-38.5-27.8c-3.5-2.5-3.3-6.4 0.4-8.6z"/>
					</g>
					<g id="&lt;Group&gt;">
						<path id="&lt;Path&gt;" class="s9" d="m688.5 793c-3.8 2.2-9.8 1.9-13.3-0.7l-38.5-27.7c-3.5-2.6-3.3-6.4 0.4-8.6l37.4-21.8c3.8-2.1 9.7-1.8 13.3 0.7l38.5 27.8c3.5 2.5 3.3 6.4-0.4 8.6z"/>
					</g>
					<g id="&lt;Group&gt;">
						<path id="&lt;Path&gt;" class="s8" d="m404.7 666.4c-3.8 2.2-9.7 2-13.3-0.6l-12.2-8.8c-3.5-2.5-3.3-6.4 0.4-8.6l37.4-21.7c3.8-2.2 9.7-1.9 13.3 0.6l12 8.7c3.5 2.5 3.3 6.4-0.4 8.6z"/>
					</g>
					<g id="&lt;Group&gt;">
						<path id="&lt;Path&gt;" class="s9" d="m502.2 740.2c-3.8 2.2-9.8 1.9-13.3-0.7l-38.5-27.7c-3.6-2.6-3.4-6.5 0.4-8.7l37.4-21.7c3.7-2.2 9.7-1.9 13.2 0.7l38.6 27.7c3.5 2.6 3.3 6.5-0.5 8.7z"/>
					</g>
					<g id="&lt;Group&gt;">
						<path id="&lt;Path&gt;" class="s9" d="m600.4 838.1c3.5 2.6 3.3 6.4-0.5 8.6l-37.3 21.7c-3.8 2.2-9.8 1.9-13.3-0.6l-38.5-27.8c-3.6-2.5-3.4-6.4 0.4-8.6l37.4-21.7c3.7-2.2 9.7-1.9 13.2 0.6z"/>
					</g>
					<g id="&lt;Group&gt;">
						<path id="&lt;Path&gt;" class="s9" d="m626.4 748.3c-3.7 2.2-9.7 1.9-13.2-0.7l-38.5-27.8c-3.6-2.5-3.4-6.4 0.4-8.6l37.3-21.7c3.8-2.2 9.8-1.9 13.3 0.7l38.5 27.7c3.6 2.6 3.4 6.5-0.4 8.6z"/>
					</g>
					<g id="&lt;Group&gt;">
						<path id="&lt;Path&gt;" class="s9" d="m538.3 793.4c3.5 2.5 3.3 6.4-0.4 8.6l-37.4 21.7c-3.8 2.2-9.7 1.9-13.3-0.7l-38.5-27.7c-3.5-2.6-3.3-6.5 0.4-8.7l37.4-21.7c3.8-2.2 9.7-1.9 13.3 0.7z"/>
					</g>
					<g id="&lt;Group&gt;">
						<path id="&lt;Path&gt;" class="s9" d="m477.9 747.6c3.5 2.5 3.3 6.4-0.4 8.6l-37.4 21.7c-3.7 2.2-9.7 1.9-13.3-0.6l-38.5-27.8c-3.5-2.6-3.3-6.4 0.5-8.6l37.3-21.7c3.8-2.2 9.8-1.9 13.3 0.6z"/>
					</g>
					<g id="&lt;Group&gt;">
						<path id="&lt;Path&gt;" class="s8" d="m451 650.6c3.8-2.2 9.7-1.9 13.3 0.6l13.6 9.8c3.5 2.6 3.3 6.5-0.4 8.7l-37.4 21.7c-3.7 2.2-9.7 1.9-13.3-0.7l-13.4-9.7c-3.5-2.5-3.3-6.4 0.4-8.6z"/>
					</g>
					<g id="&lt;Group&gt;">
						<path id="&lt;Path&gt;" class="s8" d="m515.1 613c3.7-2.2 9.7-1.9 13.2 0.6l13.5 9.8c3.5 2.5 3.3 6.4-0.4 8.6l-37.4 21.7c-3.8 2.2-9.7 1.9-13.3-0.7l-13.2-9.5c-3.6-2.6-3.4-6.5 0.4-8.7z"/>
					</g>
					<g id="&lt;Group&gt;">
						<path id="&lt;Path&gt;" class="s10" d="m848.8 774.7c3.5 2.6 3.3 6.6-0.5 8.8l-37.4 21.7c-3.7 2.2-9.7 1.8-13.2-0.8l-98.9-74c-3.5-2.6-3.2-6.5 0.5-8.7l37.4-21.7c3.8-2.2 9.7-1.9 13.2 0.7z"/>
					</g>
				</g>
				<g id="&lt;Group&gt;">
					<path id="&lt;Path&gt;" class="s5" d="m179.4 577.2l262.4-152.7 22.4 13-262.4 152.6z"/>
				</g>
				<g id="&lt;Group&gt;">
					<path id="&lt;Path&gt;" class="s6" d="m612.2 945.9q-0.3 0-0.7-0.2l-360.6-233.8q-0.1-0.1-0.3-0.3l-100.7-122.1c-0.4-0.5-0.4-1.4 0.2-1.8 0.6-0.5 1.4-0.4 1.9 0.2l100.5 121.9 360.4 233.7c0.7 0.4 0.8 1.2 0.4 1.8-0.2 0.4-0.6 0.6-1.1 0.6z"/>
				</g>
			</g>
		</g>
		<g id="&lt;Group&gt;">
			<g id="&lt;Group&gt;">
				<g id="&lt;Group&gt;">
					<path id="&lt;Path&gt;" class="s8" d="m519.8 530.1l-229.8 132.8c-5.1 3-11.7 1.9-15.5-2.6l-42.4-50.1c-5-5.8-3.4-14.7 3.2-18.5l229.8-132.8c5.1-3 11.7-1.9 15.5 2.7l42.4 50c5 5.8 3.4 14.7-3.2 18.5z"/>
					<path id="&lt;Compound Path&gt;" fill-rule="evenodd" class="s1" d="m283.9 665.9c-3.9 0-7.7-1.7-10.4-4.8l-42.4-50c-2.6-3.1-3.7-7.1-3-11.1 0.6-4 3-7.4 6.5-9.5l229.9-132.8c5.6-3.3 12.8-2 17.1 3l42.4 50c2.6 3.1 3.7 7.1 3 11.1-0.6 4-3 7.4-6.5 9.5l-229.8 132.8c-2.2 1.2-4.5 1.8-6.8 1.8zm187.3-207.4c-1.8 0-3.7 0.5-5.4 1.5l-229.8 132.8c-2.9 1.7-4.8 4.4-5.3 7.6-0.6 3.3 0.3 6.5 2.4 9l42.4 50c3.4 4 9.2 5 13.8 2.4l229.8-132.8c2.9-1.7 4.8-4.4 5.3-7.6 0.6-3.2-0.3-6.5-2.4-9l-42.4-50c-2.2-2.5-5.2-3.9-8.4-3.9z"/>
				</g>
			</g>
			<g id="&lt;Group&gt;">
				<g id="&lt;Group&gt;">
					<path id="&lt;Compound Path&gt;" fill-rule="evenodd" class="s11" d="m372.1 534.6l40.8 32.1-8.5 5-9.2-7.9-13.5 8 3.8 11-8.4 5.1-14.6-47.6zm6.7 29l9.6-5.7q-12.6-10.7-14.3-12.1-1.6-1.4-2.5-2.3 1.6 4 7.2 20.1z"/>
				</g>
				<g id="&lt;Group&gt;">
					<path id="&lt;Path&gt;" class="s11" d="m332.7 558.1l22.7 32.7 15.1-8.8 4.8 6.9-22.9 13.5-27.5-39.7z"/>
				</g>
				<g id="&lt;Group&gt;">
					<path id="&lt;Compound Path&gt;" fill-rule="evenodd" class="s11" d="m306.9 573.1l40.8 32.1-8.5 5-9.2-7.9-13.5 8 3.8 11.1-8.4 5-14.6-47.6zm6.6 29l9.7-5.7q-12.6-10.7-14.3-12.1-1.6-1.4-2.5-2.2 1.6 3.9 7.1 20z"/>
				</g>
				<g id="&lt;Group&gt;">
					<path id="&lt;Compound Path&gt;" fill-rule="evenodd" class="s11" d="m295.3 611.3q3.2 1.3 5.8 5.2 3.8 5.4 2.3 10.6-1.6 5.2-7.9 8.9l-13.9 8.2-27.5-39.7 11.6-6.8q7.8-4.6 13.1-4.3 5.2 0.3 8.8 5.5 2.5 3.6 2.5 6.8 0 3.2-2.2 5.2l0.2 0.2q4.1-1.2 7.2 0.2zm-1.6 14.2q0.6-2.3-1.3-5-3.4-5-10-1.1l-4.9 2.9 7.2 10.3 5.1-3q3.2-1.9 3.9-4.1zm-26.9-18.7l6.1 8.8 4.5-2.7q3.2-1.9 3.9-3.8 0.7-1.9-1-4.3-1.5-2.3-3.8-2.4-2.2 0-5.6 2z"/>
				</g>
				<g id="&lt;Group&gt;">
					<path id="&lt;Path&gt;" class="s11" d="m486.8 467.1l4.8 6.9-13.5 8 6 8.7 12.6-7.4 4.7 6.9-12.5 7.4 7.1 10.2 13.5-8 4.8 7-21.4 12.6-27.5-39.7z"/>
				</g>
				<g id="&lt;Group&gt;">
					<path id="&lt;Path&gt;" class="s11" d="m447.7 489.4q5.4-3.2 12.8-3.6l2.2 8.3q-2.8 0.2-5.5 0.6-2.6 0.5-4.7 1.7-4.4 2.6-4.4 7.6 0.1 5.1 4.5 11.4 9.2 13.3 18.5 7.8 3.9-2.3 8-7.7l4.9 7.1q-3.1 4.7-8.8 8-8.1 4.8-16 2.1-7.9-2.7-14.7-12.6-4.3-6.1-5.5-12-1.1-5.9 1.1-10.8 2.3-4.8 7.6-7.9z"/>
				</g>
				<g id="&lt;Group&gt;">
					<path id="&lt;Path&gt;" class="s11" d="m423 504.8l27.5 39.7-10 5.9-36.9-20.5-0.3 0.1q6 7.7 8.4 11.1l12.9 18.7-7 4.1-27.5-39.7 9.9-5.8 36.7 20.2 0.2-0.1q-5.8-7.5-8-10.7l-13-18.8z"/>
				</g>
			</g>
			<g id="&lt;Group&gt;">
				<g id="&lt;Group&gt;">
					<g id="&lt;Group&gt;">
						<path id="&lt;Path&gt;" class="s1" d="m214 299l232.7-135.3-0.8 284.3-232.7 135.2z"/>
						<g id="&lt;Group&gt;">
							<g id="&lt;Group&gt;">
								<g id="&lt;Group&gt;">
									<path id="&lt;Path&gt;" class="s8" d="m256 389.2l30.1 9.3 0.1 88.7-30.2-9.3-29.9 44-0.1-88.8z"/>
								</g>
								<g id="&lt;Group&gt;">
									<path id="&lt;Path&gt;" class="s8" d="m256.3 490.2l30.1 9.3v16.1l-30.1-9.3-29.9 43.9-0.1-16.1z"/>
								</g>
								<g id="&lt;Group&gt;">
									<g id="&lt;Group&gt;">
										<path id="&lt;Path&gt;" class="s11" d="m263.5 416.5l6.5-3.8-21.8 58.3-6.5 3.7z"/>
									</g>
									<g id="&lt;Group&gt;">
										<path id="&lt;Compound Path&gt;" fill-rule="evenodd" class="s11" d="m276.7 430.1q2.5 2.3 2.5 9.1 0 7.2-2.4 12.2-2.4 5-7 7.6-4.5 2.6-7 0.3-2.4-2.2-2.4-9.2-0.1-14.2 9.3-19.6 4.6-2.7 7-0.4zm-6.9 22.5q2.6-1.5 2.6-9.4 0-7.7-2.6-6.2-1.4 0.7-2 3-0.6 2.3-0.6 6.2 0 4 0.6 5.6 0.6 1.6 2 0.8z"/>
									</g>
									<g id="&lt;Group&gt;">
										<path id="&lt;Compound Path&gt;" fill-rule="evenodd" class="s11" d="m249 449.2q-2.4 5-7 7.7-4.5 2.6-7 0.3-2.4-2.3-2.4-9.2-0.1-14.3 9.3-19.7 4.6-2.6 7-0.4 2.5 2.3 2.5 9.2 0 7.1-2.4 12.1zm-9 0.4q0.6 1.6 2 0.8 2.6-1.5 2.6-9.3 0-7.8-2.6-6.3-1.4 0.8-2 3-0.6 2.3-0.6 6.3 0 3.9 0.6 5.5z"/>
									</g>
								</g>
							</g>
							<path id="&lt;Path&gt;" class="s2" d="m402.2 236.4v8.2l-170.3 92.2-0.1-8.2z"/>
							<g id="&lt;Group&gt;">
								<path id="&lt;Path&gt;" class="s2" d="m384.4 456.3v8.3l-84.3 48.6v-8.2z"/>
							</g>
							<g id="&lt;Group&gt;">
								<path id="&lt;Path&gt;" class="s2" d="m433.8 408.1v8.2l-133.7 77.2-0.1-8.2z"/>
							</g>
							<g id="&lt;Group&gt;">
								<path id="&lt;Path&gt;" class="s2" d="m433.8 387.6v8.3l-133.8 77.2v-8.2z"/>
							</g>
							<g id="&lt;Group&gt;">
								<path id="&lt;Path&gt;" class="s2" d="m384.2 386v8.2l-84.3 48.7v-8.2z"/>
							</g>
							<g id="&lt;Group&gt;">
								<path id="&lt;Path&gt;" class="s2" d="m433.6 337.7v8.2l-133.7 77.3-0.1-8.2z"/>
							</g>
							<g id="&lt;Group&gt;">
								<path id="&lt;Path&gt;" class="s2" d="m433.6 317.3v8.2l-133.8 77.3v-8.2z"/>
							</g>
							<g id="&lt;Group&gt;">
								<path id="&lt;Path&gt;" class="s2" d="m352.8 305v8.3l-120.8 63.6-0.1-8.2z"/>
							</g>
							<g id="&lt;Group&gt;">
								<path id="&lt;Path&gt;" class="s2" d="m402.3 256.8v8.2l-170.4 92.2v-8.2z"/>
							</g>
							<path id="&lt;Path&gt;" class="s2" d="m402.2 194.9v8.2l-170.4 92.2v-8.2z"/>
							<g id="&lt;Group&gt;">
								<path id="&lt;Path&gt;" class="s2" d="m402.2 215.3l0.1 8.2-170.4 92.2v-8.2z"/>
							</g>
						</g>
					</g>
					<g id="&lt;Group&gt;">
						<path id="&lt;Path&gt;" class="s1" d="m473.8 664.2l232.7-135.3c-0.1 40 13.4 85.5 38.1 128.2 24.7 42.8 57.4 77.4 92.2 97.4l-232.7 135.3c-34.8-20.1-67.5-54.7-92.2-97.4-24.7-42.8-38.2-88.3-38.1-128.2z"/>
					</g>
					<g id="&lt;Group&gt;">
						<path id="&lt;Path&gt;" class="s1" d="m252.7 215.1l233.8-134.5c-24.9 14.2-39.7 43.2-39.8 83.1l-232.7 135.3c0.1-40 13.8-69.7 38.7-83.9z"/>
					</g>
					<g id="&lt;Group&gt;">
						<path id="&lt;Path&gt;" class="s1" d="m474.4 449.3l232.7-135.2-0.6 214.8-232.7 135.3z"/>
					</g>
					<g id="&lt;Group&gt;">
						<path id="&lt;Path&gt;" class="s1" d="m252.8 216.4l232.7-135.3c23.6-13.7 56.3-11.8 92.3 9 71.5 41.3 129.6 141.8 129.3 224l-232.7 135.2c0.2-82.2-57.8-182.6-129.3-223.9-36-20.8-68.7-22.7-92.3-9z"/>
					</g>
					<g id="&lt;Group&gt;">
						<path id="&lt;Path&gt;" class="s3" d="m345.1 224.3c-34.8-20.1-67.6-23.3-92.4-9.2-24.9 14.2-38.6 43.9-38.7 83.9l-0.8 284.2 1.7-283.7c0.3-82.2 58.7-115.5 130.2-74.1 71.5 41.3 129.5 141.7 129.3 223.9l-0.6 214.9c-0.1 39.9 13.4 85.4 38.1 128.2 24.7 42.7 57.4 77.3 92.2 97.4-71.6-42.4-129.6-142.9-129.4-225.2l0.7-214.7c0.1-40-13.5-85.5-38.1-128.2-24.7-42.8-57.4-77.4-92.2-97.4z"/>
					</g>
				</g>
			</g>
			<g id="&lt;Group&gt;">
				<g id="&lt;Group&gt;">
					<g id="&lt;Group&gt;">
						<path id="&lt;Path&gt;" class="s8" d="m551.7 557.3c1.9-1.1 3.7-1.3 5.1-0.5 1.4 0.8 2 2.5 2.1 4.6 0 2-0.7 4.5-2.1 6.9l-9 15.6-22.1 37.9c-0.9 1.6-2.1 2.9-3.3 3.6-1.3 0.7-2.6 0.8-3.5 0.2l-13.2-9.2c-2.7-1.9-2.4-7.2 0.5-11.9 1.3-2.1 3-3.8 4.7-4.8 1.9-1.1 3.9-1.3 5.3-0.3l6.5 4.5 24.1-41.4q0.4-0.7 0.9-1.4c1.2-1.7 2.6-3 4-3.8z"/>
					</g>
					<g id="&lt;Group&gt;">
						<path id="&lt;Path&gt;" class="s2" d="m547.7 560.7v0.4q-0.5 0.7-0.9 1.4l-24.1 41.4-6.5-4.5c-1.4-1-3.4-0.8-5.3 0.3-1.7 1-3.4 2.7-4.7 4.8-2.9 4.7-3.2 10-0.5 11.9l13.2 9.2c0.9 0.6 2.2 0.5 3.5-0.2 1.2-0.7 2.4-2 3.3-3.6l22.1-37.9 0.1 32.9-48.8 28.1-0.2-56z"/>
					</g>
					<g id="&lt;Group&gt;">
						<path id="&lt;Path&gt;" class="s8" d="m551.5 486.9c1.9-1 3.7-1.3 5.1-0.4 1.4 0.7 2 2.4 2.1 4.5 0 2.1-0.7 4.6-2.1 7l-9 15.5-22.1 38c-0.9 1.6-2.1 2.8-3.3 3.5-1.3 0.8-2.6 0.9-3.5 0.2l-13.2-9.2c-2.7-1.8-2.4-7.1 0.5-11.8 1.3-2.2 3-3.9 4.7-4.8 1.9-1.2 3.9-1.3 5.3-0.4l6.5 4.6 24.1-41.4q0.4-0.8 0.9-1.5c1.2-1.6 2.6-2.9 4-3.8z"/>
					</g>
					<g id="&lt;Group&gt;">
						<path id="&lt;Path&gt;" class="s2" d="m547.5 490.3v0.4q-0.5 0.7-0.9 1.5l-24.1 41.4-6.5-4.6c-1.4-0.9-3.4-0.8-5.3 0.4-1.7 0.9-3.4 2.6-4.7 4.8-2.9 4.7-3.2 10-0.5 11.8l13.2 9.2c0.9 0.7 2.2 0.6 3.5-0.2 1.2-0.7 2.4-1.9 3.3-3.5l22.1-38 0.1 32.9-48.8 28.2-0.2-56.1z"/>
					</g>
					<g id="&lt;Group&gt;">
						<path id="&lt;Path&gt;" class="s2" d="m547.3 420.6v0.4q-0.5 0.7-1 1.5l-24 41.4-6.5-4.6c-1.4-1-3.4-0.8-5.3 0.4-1.7 0.9-3.4 2.6-4.7 4.8-3 4.7-3.2 10-0.5 11.8l13.2 9.2c0.9 0.7 2.2 0.6 3.5-0.2 1.2-0.7 2.4-1.9 3.3-3.5l22.1-38 0.1 32.9-48.8 28.2-0.2-56.1z"/>
					</g>
				</g>
				<g id="&lt;Group&gt;">
					<path id="&lt;Path&gt;" class="s8" d="m551.3 417.2c1.8-1 3.7-1.3 5.1-0.5 1.3 0.8 2 2.5 2 4.6 0 2.1-0.6 4.6-2 7l-9 15.5-22.1 38c-0.9 1.6-2.1 2.8-3.3 3.5-1.3 0.8-2.6 0.9-3.5 0.2l-13.2-9.2c-2.7-1.8-2.5-7.1 0.5-11.8 1.3-2.2 3-3.9 4.7-4.8 1.9-1.2 3.9-1.4 5.3-0.4l6.5 4.6 24-41.4q0.5-0.8 1-1.5c1.2-1.6 2.6-2.9 4-3.8z"/>
				</g>
				<g id="&lt;Group&gt;">
					<path id="&lt;Path&gt;" class="s2" d="m697.5 337.8v8.2l-133.8 77.3v-8.2z"/>
				</g>
				<g id="&lt;Group&gt;">
					<path id="&lt;Path&gt;" class="s2" d="m648.5 546.5v8.3l-84.3 48.6v-8.2z"/>
				</g>
				<g id="&lt;Group&gt;">
					<g id="&lt;Group&gt;">
						<path id="&lt;Path&gt;" class="s2" d="m698 498.3v8.2l-133.8 77.2v-8.2z"/>
					</g>
					<g id="&lt;Group&gt;">
						<path id="&lt;Path&gt;" class="s2" d="m697.9 477.9v8.2l-133.8 77.2v-8.2z"/>
					</g>
					<g id="&lt;Group&gt;">
						<path id="&lt;Path&gt;" class="s2" d="m648.3 476.2v8.2l-84.3 48.7v-8.2z"/>
					</g>
					<g id="&lt;Group&gt;">
						<path id="&lt;Path&gt;" class="s2" d="m697.8 427.9v8.2l-133.8 77.3v-8.2z"/>
					</g>
					<g id="&lt;Group&gt;">
						<path id="&lt;Path&gt;" class="s2" d="m697.7 407.5v8.2l-133.8 77.3v-8.2z"/>
					</g>
					<g id="&lt;Group&gt;">
						<path id="&lt;Path&gt;" class="s2" d="m648.1 406.5v8.2l-84.3 48.7v-8.2z"/>
					</g>
					<g id="&lt;Group&gt;">
						<path id="&lt;Path&gt;" class="s2" d="m697.5 358.2l0.1 8.2-133.8 77.3v-8.2z"/>
					</g>
				</g>
			</g>
			<g id="&lt;Group&gt;">
				<g id="&lt;Group&gt;">
					<g id="&lt;Group&gt;">
						<path id="&lt;Path&gt;" class="s10" d="m521.3 318.5l36.6 20.8c-8.6 14.9-13.9 31.6-13.8 46.6l-51.6 29.8c-0.1-30.4 10.2-64.9 28.8-97.2z"/>
					</g>
					<g id="&lt;Group&gt;">
						<path id="&lt;Path&gt;" class="s12" d="m591.3 244.7l0.1 59.2c-13.1 7.6-24.9 20.6-33.5 35.4l-36.6-20.8c18.7-32.3 43.5-58.5 70-73.8z"/>
					</g>
					<g id="&lt;Group&gt;">
						<path id="&lt;Path&gt;" class="s8" d="m661.4 237.6c18.8 10.7 29.2 33.3 29.3 63.7l-51.6 29.8c-0.1-15.1-5.4-25.6-14.1-30.6z"/>
					</g>
					<g id="&lt;Group&gt;">
						<path id="&lt;Path&gt;" class="s11" d="m591.3 244.7c26.4-15.3 51.3-17.8 70.1-7.1l-36.4 62.9c-8.6-4.9-20.5-4.1-33.6 3.4z"/>
					</g>
				</g>
				<g id="&lt;Group&gt;">
					<g id="&lt;Group&gt;">
						<path id="&lt;Path&gt;" class="s5" d="m598.7 345.1c2.5 0.9 4.3 3.3 4.8 6.8l-3.8 2.2z"/>
					</g>
					<g id="&lt;Group&gt;">
						<path id="&lt;Path&gt;" class="s5" d="m577.4 367c0.5-4.1 2.2-8.5 4.8-12.3l-1 10.1z"/>
					</g>
					<g id="&lt;Group&gt;">
						<path id="&lt;Path&gt;" class="s5" d="m695.2 299v3.5l-209.4 120.9-0.1-3.5 91.7-52.9 3.8-2.2 18.5-10.7 3.8-2.2z"/>
					</g>
					<g id="&lt;Group&gt;">
						<path id="&lt;Path&gt;" class="s5" d="m590.2 269.3l8.5 75.8 1 9-18.5 10.7 1-10.1z"/>
					</g>
				</g>
			</g>
			<g id="&lt;Group&gt;">
				<g id="&lt;Group&gt;">
					<path id="&lt;Path&gt;" class="s10" d="m482 283.7c14.2-8.1 25.7-1.6 25.8 14.7 0 16.3-11.5 36.2-25.6 44.4-14.2 8.1-25.8 1.6-25.8-14.7 0-16.3 11.4-36.2 25.6-44.4z"/>
				</g>
				<g id="&lt;Group&gt;">
					<path id="&lt;Path&gt;" class="s1" d="m492.9 287.6c0.9-0.5 1.8-0.6 2.5-0.2l2.5 1.4c1.4 0.8 1.4 3.4 0 5.8l-8.2 14.3 8.2 4.8c1.4 0.8 1.5 3.4 0.1 5.8l-2.5 4.3c-0.7 1.2-1.6 2.2-2.6 2.7-0.9 0.5-1.8 0.6-2.5 0.2l-8.3-4.7-8.2 14.2c-0.7 1.2-1.6 2.2-2.5 2.7-0.9 0.5-1.9 0.7-2.6 0.3l-2.5-1.5c-1.4-0.8-1.4-3.4 0-5.8l8.2-14.2-8.3-4.7c-1.4-0.8-1.4-3.4 0-5.9l2.5-4.3c0.7-1.2 1.6-2.1 2.5-2.7 1-0.5 1.9-0.6 2.6-0.2l8.3 4.7 8.2-14.3c0.7-1.2 1.6-2.1 2.6-2.7z"/>
				</g>
			</g>
			<g id="&lt;Group&gt;">
				<g id="&lt;Group&gt;">
					<path id="&lt;Path&gt;" class="s8" d="m680.2 167.3c14.2-8.2 25.8-1.6 25.8 14.7 0.1 16.2-11.4 36.1-25.6 44.3-14.2 8.2-25.7 1.6-25.8-14.7 0-16.3 11.5-36.1 25.6-44.3z"/>
				</g>
				<g id="&lt;Group&gt;">
					<path id="&lt;Path&gt;" class="s1" d="m693.3 171.5c0.8-0.5 1.6-0.7 2.2-0.5l2.5 0.6c1.8 0.4 2.2 3 1 5.7l-16.2 35.6-2.5 5.5c-0.8 1.7-2 3-3.2 3.7-0.7 0.5-1.5 0.6-2.2 0.5l-1.7-0.4-1.6-0.6-11.2-4c-1.7-0.6-2-3.2-0.6-5.9l1.9-3.9c0.8-1.5 1.9-2.7 3-3.4 0.9-0.5 1.7-0.6 2.4-0.4l8.6 3 14.4-31.8c0.8-1.7 2-3 3.2-3.7z"/>
				</g>
			</g>
			<g id="&lt;Group&gt;">
				<path id="&lt;Path&gt;" class="s2" d="m534.6 95.4l-184.3 105.8q-6.1-2.7-12-4.6l183.7-105.5q6.2 1.7 12.6 4.3z"/>
			</g>
			<g id="&lt;Group&gt;">
				<path id="&lt;Path&gt;" class="s2" d="m569.2 114.7l-185.1 106.4q-4.5-3.4-9.1-6.4l184.9-106.2q4.7 2.9 9.3 6.2z"/>
			</g>
			<g id="&lt;Group&gt;">
				<path id="&lt;Path&gt;" class="s2" d="m601.3 142.5l-185.7 106.7q-3.5-3.8-7.2-7.4l185.5-106.6q3.8 3.6 7.4 7.3z"/>
			</g>
			<g id="&lt;Group&gt;">
				<path id="&lt;Path&gt;" class="s2" d="m623.8 168.8l-186 106.9q-3-4.1-6.2-8l186-106.8q3.2 3.9 6.2 7.9z"/>
			</g>
		</g>
		<g id="&lt;Group&gt;">
			<g id="&lt;Group&gt;">
				<g id="&lt;Group&gt;">
					<g id="&lt;Group&gt;">
						<path id="&lt;Path&gt;" class="s13" d="m825.9 775.6l-0.1 11.4c0.1-7.7-5-15.3-15.1-21.1-20-11.6-52.5-11.6-72.3 0-9.9 5.7-14.9 13.2-14.9 20.8v-11.4c0.1-7.5 5-15.1 14.9-20.8 19.9-11.6 52.4-11.6 72.4 0 10.1 5.8 15.1 13.5 15.1 21.1z"/>
					</g>
					<g id="&lt;Group&gt;">
						<path id="&lt;Path&gt;" class="s12" d="m811 807.8c-7.5 4.3-16.7 7-26.4 8.1q0-5.7 0.1-11.3c9.6-1.1 18.9-3.8 26.3-8.2 9.9-5.7 14.9-13.2 14.9-20.8l-0.1 11.4c0 7.5-4.9 15.1-14.8 20.8z"/>
					</g>
					<g id="&lt;Group&gt;">
						<path id="&lt;Path&gt;" class="s12" d="m775.6 816.5q0-5.7 0-11.4 4.6 0 9.1-0.5-0.1 5.6-0.1 11.3-4.4 0.5-9 0.6z"/>
					</g>
					<g id="&lt;Group&gt;">
						<path id="&lt;Path&gt;" class="s12" d="m775.6 816.5q-0.4 0-0.8 0 0.1-5.7 0.1-11.4 0.4 0 0.7 0 0 5.7 0 11.4z"/>
					</g>
					<g id="&lt;Group&gt;">
						<path id="&lt;Path&gt;" class="s12" d="m738.6 807.8c-10.1-5.8-15.1-13.5-15.1-21.1v-11.4c0 7.7 5 15.3 15.1 21.1 10 5.8 23.2 8.7 36.3 8.7q0 5.7-0.1 11.4c-13.1 0-26.2-2.9-36.2-8.7z"/>
					</g>
					<g id="&lt;Group&gt;">
						<path id="&lt;Path&gt;" class="s12" d="m810.8 754.5c20 11.6 20.1 30.4 0.2 41.9-19.9 11.6-52.3 11.6-72.4 0-20-11.5-20.1-30.3-0.2-41.9 19.9-11.6 52.4-11.6 72.4 0z"/>
					</g>
					<g id="&lt;Group&gt;">
						<path id="&lt;Path&gt;" class="s13" d="m832.8 775.6v11.4c0 8.6-5.6 17.1-16.9 23.7-22.6 13.1-59.5 13.1-82.2 0-11.5-6.7-17.2-15.3-17.2-24l0.1-11.4c-0.1 8.7 5.7 17.4 17.1 24 22.8 13.1 59.7 13.1 82.3 0 11.2-6.5 16.8-15.1 16.8-23.7z"/>
					</g>
					<g id="&lt;Group&gt;">
						<path id="&lt;Compound Path&gt;" fill-rule="evenodd" class="s10" d="m815.7 751.6c22.8 13.2 22.9 34.6 0.3 47.7-22.6 13.1-59.5 13.1-82.3 0-22.7-13.1-22.9-34.5-0.3-47.7 22.6-13.1 59.5-13.1 82.3 0zm-77.1 44.8c20.1 11.6 52.5 11.6 72.4 0 19.9-11.5 19.8-30.3-0.2-41.9-20-11.6-52.5-11.6-72.4 0-19.9 11.6-19.8 30.4 0.2 41.9z"/>
					</g>
				</g>
			</g>
			<g id="&lt;Group&gt;">
				<g id="&lt;Group&gt;">
					<g id="&lt;Group&gt;">
						<path id="&lt;Path&gt;" class="s13" d="m817.3 760.2v11.4c0-7.7-5.1-15.3-15.1-21.1-20.1-11.6-52.5-11.6-72.4 0-9.9 5.7-14.9 13.2-14.9 20.8v-11.4c0.1-7.5 5-15.1 14.9-20.8 19.9-11.6 52.4-11.6 72.4 0 10.1 5.8 15.1 13.5 15.1 21.1z"/>
					</g>
					<g id="&lt;Group&gt;">
						<path id="&lt;Path&gt;" class="s12" d="m802.4 792.4c-7.5 4.3-16.7 7-26.4 8.1q0.1-5.7 0.1-11.3c9.7-1.1 18.9-3.8 26.3-8.2 9.9-5.7 14.9-13.2 14.9-20.8v11.4c-0.1 7.5-5 15.1-14.9 20.8z"/>
					</g>
					<g id="&lt;Group&gt;">
						<path id="&lt;Path&gt;" class="s12" d="m767 801.1q0-5.7 0.1-11.4 4.5 0 9-0.5 0 5.6-0.1 11.3-4.4 0.5-9 0.6z"/>
					</g>
					<g id="&lt;Group&gt;">
						<path id="&lt;Path&gt;" class="s12" d="m767 801.1q-0.4 0-0.7 0 0-5.7 0-11.4 0.4 0 0.8 0-0.1 5.7-0.1 11.4z"/>
					</g>
					<g id="&lt;Group&gt;">
						<path id="&lt;Path&gt;" class="s12" d="m730 792.4c-10.1-5.8-15.1-13.5-15.1-21.1v-11.4c0 7.7 5.1 15.3 15.1 21.1 10.1 5.8 23.2 8.7 36.3 8.7q0 5.7 0 11.4c-13.2 0-26.3-2.9-36.3-8.7z"/>
					</g>
					<g id="&lt;Group&gt;">
						<path id="&lt;Path&gt;" class="s10" d="m802.2 739.1c20 11.6 20.1 30.4 0.2 41.9-19.9 11.6-52.3 11.6-72.4 0-20-11.5-20.1-30.3-0.2-41.9 19.9-11.6 52.4-11.6 72.4 0z"/>
					</g>
					<g id="&lt;Group&gt;">
						<path id="&lt;Path&gt;" class="s10" d="m824.3 760.2l-0.1 11.4c0 8.6-5.6 17.1-16.8 23.7-22.7 13.1-59.6 13.1-82.3 0-11.5-6.7-17.2-15.4-17.2-24l0.1-11.4c0 8.7 5.7 17.4 17.1 24 22.8 13.1 59.7 13.1 82.3 0 11.2-6.5 16.8-15.1 16.9-23.7z"/>
					</g>
					<g id="&lt;Group&gt;">
						<path id="&lt;Compound Path&gt;" fill-rule="evenodd" class="s14" d="m807.1 736.2c22.8 13.2 22.9 34.6 0.3 47.7-22.6 13.1-59.5 13.1-82.3 0-22.7-13.1-22.9-34.5-0.3-47.7 22.7-13.1 59.6-13.1 82.3 0zm-77.1 44.8c20.1 11.6 52.5 11.6 72.4 0 19.9-11.5 19.8-30.3-0.2-41.9-20-11.6-52.5-11.6-72.4 0-19.9 11.6-19.8 30.4 0.2 41.9z"/>
					</g>
				</g>
			</g>
			<g id="&lt;Group&gt;">
				<g id="&lt;Group&gt;">
					<g id="&lt;Group&gt;">
						<path id="&lt;Path&gt;" class="s13" d="m813.4 745.1l-0.1 11.4c0.1-7.7-5-15.3-15.1-21.1-20-11.6-52.5-11.6-72.4 0-9.8 5.7-14.8 13.2-14.8 20.8v-11.4c0-7.5 5-15.1 14.9-20.8 19.9-11.6 52.3-11.6 72.4 0 10 5.8 15.1 13.5 15.1 21.1z"/>
					</g>
					<g id="&lt;Group&gt;">
						<path id="&lt;Path&gt;" class="s12" d="m798.5 777.3c-7.5 4.3-16.7 7-26.4 8.1q0-5.7 0-11.3c9.7-1.1 19-3.8 26.4-8.2 9.9-5.7 14.8-13.2 14.9-20.8l-0.1 11.4c0 7.5-4.9 15-14.8 20.8z"/>
					</g>
					<g id="&lt;Group&gt;">
						<path id="&lt;Path&gt;" class="s12" d="m763.1 786q0-5.7 0-11.4 4.6 0 9-0.5 0 5.6 0 11.3-4.5 0.5-9 0.6z"/>
					</g>
					<g id="&lt;Group&gt;">
						<path id="&lt;Path&gt;" class="s12" d="m763.1 786q-0.4 0-0.8 0 0-5.7 0.1-11.4 0.3 0 0.7 0 0 5.7 0 11.4z"/>
					</g>
					<g id="&lt;Group&gt;">
						<path id="&lt;Path&gt;" class="s12" d="m726.1 777.3c-10.1-5.8-15.1-13.5-15.1-21.1v-11.4c0 7.6 5 15.3 15.1 21.1 10 5.8 23.2 8.7 36.3 8.7q-0.1 5.7-0.1 11.4c-13.1 0-26.2-2.9-36.2-8.7z"/>
					</g>
					<g id="&lt;Group&gt;">
						<path id="&lt;Path&gt;" class="s12" d="m798.3 724c20 11.6 20.1 30.4 0.2 41.9-19.9 11.6-52.4 11.6-72.4 0-20-11.5-20.1-30.4-0.2-41.9 19.9-11.6 52.3-11.6 72.4 0z"/>
					</g>
					<g id="&lt;Group&gt;">
						<path id="&lt;Path&gt;" class="s13" d="m820.3 745.1v11.4c0 8.6-5.6 17.1-16.9 23.6-22.6 13.2-59.5 13.2-82.2 0-11.5-6.6-17.2-15.3-17.2-23.9v-11.4c0 8.7 5.7 17.4 17.2 24 22.7 13.1 59.7 13.1 82.3 0 11.2-6.5 16.8-15.1 16.8-23.7z"/>
					</g>
					<g id="&lt;Group&gt;">
						<path id="&lt;Compound Path&gt;" fill-rule="evenodd" class="s10" d="m803.2 721.1c22.7 13.2 22.9 34.5 0.3 47.7-22.6 13.1-59.6 13.1-82.3 0-22.8-13.2-22.9-34.5-0.3-47.7 22.6-13.1 59.5-13.1 82.3 0zm-77.1 44.8c20 11.6 52.5 11.6 72.4 0 19.9-11.5 19.8-30.3-0.2-41.9-20.1-11.6-52.5-11.6-72.4 0-19.9 11.5-19.8 30.4 0.2 41.9z"/>
					</g>
				</g>
			</g>
			<g id="&lt;Group&gt;">
				<g id="&lt;Group&gt;">
					<g id="&lt;Group&gt;">
						<path id="&lt;Path&gt;" class="s13" d="m826.4 733.5l-0.1 11.4c0-7.7-5-15.3-15.1-21.2-20-11.5-52.5-11.5-72.4 0-9.8 5.8-14.8 13.3-14.8 20.9v-11.4c0-7.5 5-15.1 14.9-20.8 19.9-11.6 52.3-11.6 72.4 0 10 5.8 15.1 13.5 15.1 21.1z"/>
					</g>
					<g id="&lt;Group&gt;">
						<path id="&lt;Path&gt;" class="s12" d="m811.5 765.7c-7.5 4.3-16.7 7-26.4 8.1q0-5.7 0-11.4c9.7-1 19-3.8 26.4-8.1 9.9-5.7 14.8-13.3 14.9-20.8l-0.1 11.4c0 7.5-4.9 15-14.8 20.8z"/>
					</g>
					<g id="&lt;Group&gt;">
						<path id="&lt;Path&gt;" class="s12" d="m776.1 774.3q0-5.6 0-11.3 4.6-0.1 9-0.6 0 5.7 0 11.4-4.5 0.5-9 0.5z"/>
					</g>
					<g id="&lt;Group&gt;">
						<path id="&lt;Path&gt;" class="s12" d="m776.1 774.3q-0.4 0.1-0.8 0.1 0-5.7 0.1-11.4 0.3 0 0.7 0 0 5.7 0 11.3z"/>
					</g>
					<g id="&lt;Group&gt;">
						<path id="&lt;Path&gt;" class="s12" d="m739.1 765.7c-10.1-5.8-15.1-13.5-15.1-21.1v-11.4c0 7.6 5 15.3 15.1 21.1 10 5.8 23.2 8.7 36.3 8.7q-0.1 5.7-0.1 11.4c-13.1 0-26.2-2.9-36.2-8.7z"/>
					</g>
					<g id="&lt;Group&gt;">
						<path id="&lt;Path&gt;" class="s10" d="m811.3 712.4c20 11.5 20.1 30.4 0.2 41.9-19.9 11.6-52.4 11.6-72.4 0-20-11.6-20.1-30.4-0.2-41.9 19.9-11.6 52.3-11.6 72.4 0z"/>
					</g>
					<g id="&lt;Group&gt;">
						<path id="&lt;Path&gt;" class="s10" d="m833.3 733.5v11.4c0 8.6-5.6 17.1-16.9 23.6-22.6 13.2-59.5 13.2-82.2 0-11.5-6.6-17.2-15.3-17.2-24v-11.3c0 8.7 5.7 17.4 17.2 24 22.7 13.1 59.7 13.1 82.3 0 11.2-6.6 16.8-15.1 16.8-23.7z"/>
					</g>
					<g id="&lt;Group&gt;">
						<path id="&lt;Compound Path&gt;" fill-rule="evenodd" class="s14" d="m816.2 709.5c22.7 13.2 22.9 34.5 0.3 47.7-22.6 13.1-59.6 13.1-82.3 0-22.8-13.2-22.9-34.5-0.3-47.7 22.6-13.1 59.5-13.1 82.3 0zm-77.1 44.8c20 11.6 52.5 11.6 72.4 0 19.9-11.5 19.8-30.4-0.2-41.9-20.1-11.6-52.5-11.6-72.4 0-19.9 11.5-19.8 30.3 0.2 41.9z"/>
					</g>
				</g>
			</g>
			<g id="&lt;Group&gt;">
				<g id="&lt;Group&gt;">
					<g id="&lt;Group&gt;">
						<path id="&lt;Path&gt;" class="s13" d="m745.7 814.6v11.4c0-7.6-5-15.3-15.1-21.1-20-11.6-52.5-11.6-72.4 0-9.9 5.7-14.8 13.3-14.8 20.8v-11.4c0-7.5 5-15 14.8-20.8 19.9-11.5 52.4-11.5 72.4 0 10.1 5.8 15.1 13.5 15.1 21.1z"/>
					</g>
					<g id="&lt;Group&gt;">
						<path id="&lt;Path&gt;" class="s12" d="m730.8 846.8c-7.4 4.4-16.6 7.1-26.3 8.2q0-5.7 0-11.4c9.7-1.1 18.9-3.8 26.4-8.1 9.9-5.8 14.8-13.3 14.8-20.9v11.4c0 7.6-5 15.1-14.9 20.8z"/>
					</g>
					<g id="&lt;Group&gt;">
						<path id="&lt;Path&gt;" class="s12" d="m695.5 855.5q0-5.7 0-11.4 4.5 0 9-0.5 0 5.7 0 11.4-4.5 0.5-9 0.5z"/>
					</g>
					<g id="&lt;Group&gt;">
						<path id="&lt;Path&gt;" class="s12" d="m695.5 855.5q-0.4 0-0.8 0 0-5.7 0-11.4 0.4 0 0.8 0 0 5.7 0 11.4z"/>
					</g>
					<g id="&lt;Group&gt;">
						<path id="&lt;Path&gt;" class="s12" d="m658.4 846.8c-10-5.8-15.1-13.4-15-21.1v-11.4c0 7.7 5 15.3 15.1 21.2 10 5.7 23.1 8.6 36.2 8.6q0 5.7 0 11.4c-13.1 0-26.2-2.9-36.3-8.7z"/>
					</g>
					<g id="&lt;Group&gt;">
						<path id="&lt;Path&gt;" class="s12" d="m730.6 793.5c20.1 11.6 20.2 30.4 0.3 42-19.9 11.5-52.4 11.5-72.4 0-20.1-11.6-20.2-30.4-0.3-42 19.9-11.5 52.4-11.5 72.4 0z"/>
					</g>
					<g id="&lt;Group&gt;">
						<path id="&lt;Path&gt;" class="s13" d="m752.7 814.7v11.3c-0.1 8.6-5.7 17.2-16.9 23.7-22.6 13.1-59.5 13.1-82.3 0-11.4-6.6-17.1-15.3-17.1-24v-11.4c0 8.7 5.7 17.4 17.2 24 22.7 13.2 59.6 13.2 82.2 0 11.3-6.5 16.9-15.1 16.9-23.6z"/>
					</g>
					<g id="&lt;Group&gt;">
						<path id="&lt;Compound Path&gt;" fill-rule="evenodd" class="s10" d="m735.5 790.7c22.8 13.1 22.9 34.5 0.3 47.6-22.6 13.2-59.5 13.2-82.2 0-22.8-13.1-22.9-34.5-0.3-47.6 22.6-13.2 59.5-13.2 82.2 0zm-77 44.8c20 11.5 52.5 11.5 72.4 0 19.9-11.6 19.8-30.4-0.3-42-20-11.5-52.5-11.5-72.4 0-19.9 11.6-19.8 30.4 0.3 42z"/>
					</g>
				</g>
			</g>
			<g id="&lt;Group&gt;">
				<g id="&lt;Group&gt;">
					<g id="&lt;Group&gt;">
						<path id="&lt;Path&gt;" class="s13" d="m737.8 801v11.4c0-7.6-5-15.3-15.1-21.1-20-11.6-52.5-11.6-72.4 0-9.9 5.7-14.8 13.3-14.9 20.8l0.1-11.4c0-7.5 4.9-15 14.8-20.8 19.9-11.6 52.4-11.6 72.4 0 10.1 5.8 15.1 13.5 15.1 21.1z"/>
					</g>
					<g id="&lt;Group&gt;">
						<path id="&lt;Path&gt;" class="s12" d="m722.9 833.2c-7.4 4.3-16.7 7.1-26.3 8.1q0-5.6 0-11.3c9.7-1.1 18.9-3.8 26.4-8.2 9.8-5.7 14.8-13.2 14.8-20.8v11.4c0 7.5-5 15.1-14.9 20.8z"/>
					</g>
					<g id="&lt;Group&gt;">
						<path id="&lt;Path&gt;" class="s12" d="m687.5 841.9q0.1-5.7 0.1-11.4 4.5 0 9-0.5 0 5.7 0 11.3-4.5 0.5-9.1 0.6z"/>
					</g>
					<g id="&lt;Group&gt;">
						<path id="&lt;Path&gt;" class="s12" d="m687.5 841.9q-0.3 0-0.7 0 0-5.7 0-11.4 0.4 0 0.8 0 0 5.7-0.1 11.4z"/>
					</g>
					<g id="&lt;Group&gt;">
						<path id="&lt;Path&gt;" class="s12" d="m650.5 833.2c-10.1-5.8-15.1-13.5-15.1-21.1l0.1-11.4c-0.1 7.7 5 15.3 15.1 21.1 10 5.8 23.1 8.7 36.2 8.7q0 5.7 0 11.4c-13.1 0-26.3-2.9-36.3-8.7z"/>
					</g>
					<g id="&lt;Group&gt;">
						<path id="&lt;Path&gt;" class="s10" d="m722.7 779.9c20 11.6 20.1 30.4 0.3 41.9-19.9 11.6-52.4 11.6-72.4 0-20.1-11.5-20.2-30.3-0.3-41.9 19.9-11.6 52.4-11.6 72.4 0z"/>
					</g>
					<g id="&lt;Group&gt;">
						<path id="&lt;Path&gt;" class="s10" d="m744.8 801l-0.1 11.4c0 8.6-5.6 17.1-16.8 23.7-22.6 13.1-59.5 13.1-82.3 0-11.4-6.6-17.2-15.3-17.1-24v-11.4c0 8.7 5.7 17.4 17.1 24 22.8 13.1 59.7 13.1 82.3 0 11.2-6.5 16.9-15.1 16.9-23.7z"/>
					</g>
					<g id="&lt;Group&gt;">
						<path id="&lt;Compound Path&gt;" fill-rule="evenodd" class="s14" d="m727.6 777c22.8 13.2 22.9 34.6 0.3 47.7-22.6 13.1-59.5 13.1-82.3 0-22.7-13.1-22.8-34.5-0.2-47.6 22.6-13.2 59.5-13.2 82.2-0.1zm-77 44.8c20 11.6 52.5 11.6 72.4 0 19.8-11.5 19.7-30.3-0.3-41.9-20-11.6-52.5-11.6-72.4 0-19.9 11.6-19.8 30.4 0.3 41.9z"/>
					</g>
				</g>
			</g>
			<g id="&lt;Group&gt;">
				<g id="&lt;Group&gt;">
					<g id="&lt;Group&gt;">
						<path id="&lt;Path&gt;" class="s13" d="m813.8 718.6v11.4c0-7.6-5-15.3-15.1-21.1-20-11.6-52.5-11.6-72.4 0-9.9 5.7-14.8 13.3-14.9 20.8l0.1-11.4c0-7.5 4.9-15 14.8-20.8 19.9-11.5 52.4-11.5 72.4 0 10.1 5.8 15.1 13.5 15.1 21.1z"/>
					</g>
					<g id="&lt;Group&gt;">
						<path id="&lt;Path&gt;" class="s12" d="m798.9 750.8c-7.4 4.4-16.7 7.1-26.3 8.2q0-5.7 0-11.4c9.7-1.1 18.9-3.8 26.4-8.1 9.8-5.8 14.8-13.3 14.8-20.9v11.4c0 7.6-5 15.1-14.9 20.8z"/>
					</g>
					<g id="&lt;Group&gt;">
						<path id="&lt;Path&gt;" class="s12" d="m763.6 759.5q0-5.7 0-11.4 4.5 0 9-0.5 0 5.7 0 11.4-4.5 0.5-9 0.5z"/>
					</g>
					<g id="&lt;Group&gt;">
						<path id="&lt;Path&gt;" class="s12" d="m763.6 759.5q-0.4 0-0.8 0 0-5.7 0-11.4 0.4 0 0.8 0 0 5.7 0 11.4z"/>
					</g>
					<g id="&lt;Group&gt;">
						<path id="&lt;Path&gt;" class="s12" d="m726.5 750.8c-10.1-5.8-15.1-13.4-15.1-21.1l0.1-11.4c-0.1 7.7 5 15.3 15.1 21.2 10 5.7 23.1 8.6 36.2 8.6q0 5.7 0 11.4c-13.1 0-26.3-2.9-36.3-8.7z"/>
					</g>
					<g id="&lt;Group&gt;">
						<path id="&lt;Path&gt;" class="s12" d="m798.7 697.5c20 11.6 20.2 30.4 0.3 42-19.9 11.5-52.4 11.5-72.4 0-20.1-11.6-20.2-30.4-0.3-42 19.9-11.5 52.4-11.5 72.4 0z"/>
					</g>
					<g id="&lt;Group&gt;">
						<path id="&lt;Path&gt;" class="s13" d="m820.8 718.7v11.3c-0.1 8.6-5.7 17.2-16.9 23.7-22.6 13.1-59.5 13.1-82.3 0-11.4-6.6-17.2-15.3-17.1-24v-11.4c0 8.7 5.7 17.4 17.1 24 22.8 13.2 59.7 13.2 82.3 0 11.2-6.5 16.9-15.1 16.9-23.6z"/>
					</g>
					<g id="&lt;Group&gt;">
						<path id="&lt;Compound Path&gt;" fill-rule="evenodd" class="s10" d="m803.6 694.7c22.8 13.1 22.9 34.5 0.3 47.6-22.6 13.2-59.5 13.2-82.3 0-22.7-13.1-22.8-34.5-0.2-47.6 22.6-13.2 59.5-13.2 82.2 0zm-77 44.8c20 11.5 52.5 11.5 72.4 0 19.9-11.6 19.7-30.4-0.3-42-20-11.5-52.5-11.5-72.4 0-19.9 11.6-19.8 30.4 0.3 42z"/>
					</g>
				</g>
			</g>
			<g id="&lt;Group&gt;">
				<g id="&lt;Group&gt;">
					<g id="&lt;Group&gt;">
						<path id="&lt;Path&gt;" class="s13" d="m826.8 707v11.4c0-7.6-5-15.3-15.1-21.1-20-11.6-52.5-11.6-72.4 0-9.9 5.7-14.8 13.3-14.9 20.8l0.1-11.4c0-7.5 4.9-15 14.8-20.8 19.9-11.6 52.4-11.6 72.4 0 10.1 5.8 15.1 13.5 15.1 21.1z"/>
					</g>
					<g id="&lt;Group&gt;">
						<path id="&lt;Path&gt;" class="s12" d="m811.9 739.2c-7.4 4.4-16.7 7.1-26.3 8.1q0-5.6 0-11.3c9.7-1.1 18.9-3.8 26.4-8.2 9.8-5.7 14.8-13.2 14.8-20.8v11.4c0 7.5-5 15.1-14.9 20.8z"/>
					</g>
					<g id="&lt;Group&gt;">
						<path id="&lt;Path&gt;" class="s12" d="m776.5 747.9q0.1-5.7 0.1-11.4 4.5 0 9-0.5 0 5.7 0 11.3-4.5 0.5-9.1 0.6z"/>
					</g>
					<g id="&lt;Group&gt;">
						<path id="&lt;Path&gt;" class="s12" d="m776.5 747.9q-0.3 0-0.7 0 0-5.7 0-11.4 0.4 0 0.8 0 0 5.7-0.1 11.4z"/>
					</g>
					<g id="&lt;Group&gt;">
						<path id="&lt;Path&gt;" class="s12" d="m739.5 739.2c-10.1-5.8-15.1-13.5-15.1-21.1l0.1-11.4c-0.1 7.7 5 15.3 15.1 21.1 10 5.8 23.1 8.7 36.2 8.7q0 5.7 0 11.4c-13.1 0-26.3-2.9-36.3-8.7z"/>
					</g>
					<g id="&lt;Group&gt;">
						<path id="&lt;Path&gt;" class="s10" d="m811.7 685.9c20 11.6 20.2 30.4 0.3 41.9-19.9 11.6-52.4 11.6-72.4 0-20.1-11.5-20.2-30.3-0.3-41.9 19.9-11.6 52.4-11.6 72.4 0z"/>
					</g>
					<g id="&lt;Group&gt;">
						<path id="&lt;Path&gt;" class="s10" d="m833.8 707.1v11.3c-0.1 8.6-5.7 17.1-16.9 23.7-22.6 13.1-59.5 13.1-82.3 0-11.4-6.6-17.2-15.3-17.1-24v-11.4c0 8.7 5.7 17.4 17.1 24 22.8 13.1 59.7 13.1 82.3 0 11.2-6.5 16.9-15.1 16.9-23.6z"/>
					</g>
					<g id="&lt;Group&gt;">
						<path id="&lt;Compound Path&gt;" fill-rule="evenodd" class="s14" d="m816.6 683.1c22.8 13.1 22.9 34.5 0.3 47.6-22.6 13.1-59.5 13.1-82.3 0-22.7-13.1-22.8-34.5-0.2-47.6 22.6-13.2 59.5-13.2 82.2 0zm-77 44.7c20 11.6 52.5 11.6 72.4 0 19.9-11.5 19.7-30.3-0.3-41.9-20-11.6-52.5-11.6-72.4 0-19.9 11.6-19.8 30.4 0.3 41.9z"/>
					</g>
				</g>
			</g>
			<g id="&lt;Group&gt;">
				<g id="&lt;Group&gt;">
					<g id="&lt;Group&gt;">
						<path id="&lt;Path&gt;" class="s13" d="m813.4 690.9l-0.1 11.4c0.1-7.7-5-15.3-15.1-21.2-20-11.5-52.5-11.5-72.4 0-9.8 5.8-14.8 13.3-14.8 20.9v-11.4c0-7.5 5-15.1 14.9-20.8 19.9-11.6 52.3-11.6 72.4 0 10.1 5.8 15.1 13.5 15.1 21.1z"/>
					</g>
					<g id="&lt;Group&gt;">
						<path id="&lt;Path&gt;" class="s12" d="m729.7 683.4c-8.8 5.1-13.2 11.9-13.2 18.6v-11.4c0-6.7 4.4-13.4 13.3-18.6 17.7-10.3 46.7-10.3 64.6 0 9 5.2 13.5 12.1 13.5 18.9v11.3c0-6.8-4.5-13.6-13.5-18.8-17.9-10.3-46.9-10.3-64.7 0z"/>
					</g>
					<g id="&lt;Group&gt;">
						<path id="&lt;Path&gt;" class="s10" d="m806.5 690.9v11.3c0-6.6-4.4-13.2-13.1-18.2-17.3-10-45.5-10-62.7 0-8.5 4.9-12.8 11.5-12.8 18v-11.4c0-6.5 4.3-13 12.9-18 17.2-10 45.3-10 62.6 0 8.8 5 13.1 11.7 13.1 18.3z"/>
					</g>
					<g id="&lt;Group&gt;">
						<path id="&lt;Path&gt;" class="s12" d="m792.4 675.7v11.4l-4.6-2.7v-11.3z"/>
					</g>
					<g id="&lt;Group&gt;">
						<path id="&lt;Path&gt;" class="s12" d="m787.8 673.1v11.3l-5.2 3 0.1-11.4z"/>
					</g>
					<g id="&lt;Group&gt;">
						<path id="&lt;Path&gt;" class="s10" d="m792.4 675.7v11.4l-5 2.9v-11.4z"/>
					</g>
					<g id="&lt;Group&gt;">
						<path id="&lt;Path&gt;" class="s12" d="m751.5 692.4v-11.4q0-0.2 0.1-0.5 0.2-3.4 4.8-6 4.8-2.8 11.8-2.4 7 0.4 14.5 3.9l-0.1 11.4q-7.5-3.6-14.5-3.9-6.9-0.4-11.8 2.4-4.5 2.6-4.8 6 0 0.2 0 0.5z"/>
					</g>
					<g id="&lt;Group&gt;">
						<path id="&lt;Path&gt;" class="s10" d="m765.1 693.6v-11.3q0-1.1 1.4-1.9 2.9-1.7 7.9 0.5l-0.1 11.3q-5-2.1-7.8-0.5-1.4 0.9-1.4 1.9z"/>
					</g>
					<g id="&lt;Group&gt;">
						<path id="&lt;Path&gt;" class="s12" d="m765.1 693.8q0-0.1 0-0.2v-11.3q0 0 0 0.1 0 5.7 0 11.4 0-5.7 0-11.4 0.1 1.1 1.4 3l-0.1 11.4q-1.2-1.9-1.3-3z"/>
					</g>
					<g id="&lt;Group&gt;">
						<path id="&lt;Path&gt;" class="s12" d="m774.4 680.9l-0.1 11.3-7.9 4.6 0.1-11.4z"/>
					</g>
					<g id="&lt;Group&gt;">
						<path id="&lt;Path&gt;" class="s12" d="m798.3 688.5v11.3q-3.5-5.1-10.9-9.8v-11.4q7.4 4.7 10.9 9.9z"/>
					</g>
					<g id="&lt;Group&gt;">
						<path id="&lt;Path&gt;" class="s10" d="m779.1 683.5v11.3l-9.9 5.8v-11.4z"/>
					</g>
					<g id="&lt;Group&gt;">
						<path id="&lt;Path&gt;" class="s10" d="m751.5 692.4v-11.4q0 3.3 3.8 8.3v11.4q-3.8-5-3.8-8.3z"/>
					</g>
					<g id="&lt;Group&gt;">
						<path id="&lt;Path&gt;" class="s10" d="m756.7 691.1v11.4l-1.4-1.8v-11.4z"/>
					</g>
					<g id="&lt;Group&gt;">
						<path id="&lt;Path&gt;" class="s12" d="m739.4 702.7q-2.4-2.6-3.7-4.8l0.1-11.3q1.2 2.2 3.7 4.7 0 5.7-0.1 11.4z"/>
					</g>
					<g id="&lt;Group&gt;">
						<path id="&lt;Path&gt;" class="s12" d="m770.9 702.9q-0.8-1.1-1.7-2.3v-11.4q1 1.2 1.7 2.3 0 5.7 0 11.4z"/>
					</g>
					<g id="&lt;Group&gt;">
						<path id="&lt;Path&gt;" class="s12" d="m735.8 686.6l-0.1 11.3-8.8 5.2v-11.4z"/>
					</g>
					<g id="&lt;Group&gt;">
						<path id="&lt;Path&gt;" class="s12" d="m739.4 702.7q0-0.1 0-0.1 0-0.6 0.1-1.2 0-2.9 0-5.8 0-2.1 0-4.3 0.4 0.4 0.8 0.8 3 3.1 6 5.1v11.3q-3-2-6.1-5-0.4-0.4-0.8-0.8z"/>
					</g>
					<g id="&lt;Group&gt;">
						<path id="&lt;Path&gt;" class="s12" d="m756.7 691.1v11.4l-10.4 6v-11.3z"/>
					</g>
					<g id="&lt;Group&gt;">
						<path id="&lt;Path&gt;" class="s10" d="m761 698.3v11.3q0-0.1-0.1-0.2-0.1-1.3-1.4-3.2v-11.4q1.3 2 1.5 3.2 0 0.1 0 0.3z"/>
					</g>
					<g id="&lt;Group&gt;">
						<path id="&lt;Path&gt;" class="s12" d="m770.9 702.9q0-0.1 0-0.2 0-5.6 0-11.2 2.6 3.6 3.3 5.6 0.3 0.8 0.4 1.5 0 5.7 0 11.4 0 0 0 0-0.1-0.7-0.4-1.5-0.7-2.1-3.3-5.6z"/>
					</g>
					<g id="&lt;Group&gt;">
						<path id="&lt;Path&gt;" class="s12" d="m774.6 710q0-0.1 0-0.2 0-1.8 0-3.5 0-3.9 0-7.7 0.1 0.6 0.1 1.1v11.4q0-0.6-0.1-1.1z"/>
					</g>
					<g id="&lt;Group&gt;">
						<path id="&lt;Path&gt;" class="s10" d="m759.5 694.8v11.4l-8.3 4.8v-11.3z"/>
					</g>
					<g id="&lt;Group&gt;">
						<path id="&lt;Path&gt;" class="s12" d="m759.7 711.4q-3.2 1.8-8.5-0.4v-11.3q5.4 2.2 8.5 0.3 0 5.7 0 11.4 0-5.7 0-11.4 1.3-0.7 1.3-1.7v11.3q0 1.1-1.3 1.8z"/>
					</g>
					<g id="&lt;Group&gt;">
						<path id="&lt;Path&gt;" class="s10" d="m798.3 688.5v11.3l-11 2.8v-11.4z"/>
					</g>
					<g id="&lt;Group&gt;">
						<path id="&lt;Path&gt;" class="s10" d="m787.3 691.2v11.4q-3.2-4.3-8.2-7.8v-11.3q5.1 3.4 8.2 7.7z"/>
					</g>
					<g id="&lt;Group&gt;">
						<path id="&lt;Path&gt;" class="s12" d="m719.5 709.1c-1.1-2.4-1.6-4.7-1.6-7.1v-11.4c0 2.4 0.5 4.8 1.7 7.1q-0.1 5.7-0.1 11.4z"/>
					</g>
					<g id="&lt;Group&gt;">
						<path id="&lt;Path&gt;" class="s10" d="m738.5 701.7l-0.1 11.4q-8-4.9-11.5-10v-11.4q3.5 5.2 11.6 10z"/>
					</g>
					<g id="&lt;Group&gt;">
						<path id="&lt;Path&gt;" class="s10" d="m774.7 699.7v11.4q0 1.1-0.5 2.1l0.1-11.3q0.4-1 0.4-2.2z"/>
					</g>
					<g id="&lt;Group&gt;">
						<path id="&lt;Path&gt;" class="s12" d="m738.5 701.7l-0.1 11.4-6.7 3.9v-11.4z"/>
					</g>
					<g id="&lt;Group&gt;">
						<path id="&lt;Path&gt;" class="s10" d="m736.3 708.3v11.4l-4.6-2.7v-11.4z"/>
					</g>
					<g id="&lt;Group&gt;">
						<path id="&lt;Path&gt;" class="s10" d="m743.2 704.3v11.4l-6.9 4v-11.4z"/>
					</g>
					<g id="&lt;Group&gt;">
						<path id="&lt;Path&gt;" class="s10" d="m774.3 701.9l-0.1 11.3q-0.9 2.1-3.8 3.8-5.4 3.1-12.5 2.7-7.1-0.4-14.7-4v-11.4q7.6 3.7 14.8 4 7.1 0.4 12.4-2.7 2.9-1.7 3.9-3.7z"/>
					</g>
					<g id="&lt;Group&gt;">
						<path id="&lt;Path&gt;" class="s12" d="m719.5 709.1c0-0.1 0-0.2 0-0.3q0-5.6 0.1-11.1c2 4.1 5.8 8 11.3 11.2 17.4 10 45.5 10 62.7 0 8.6-5 12.9-11.5 12.9-18v11.3c-0.1 6.6-4.3 13.1-12.9 18.1-17.2 10-45.3 10-62.7 0-5.6-3.3-9.4-7.1-11.4-11.2z"/>
					</g>
					<g id="&lt;Group&gt;">
						<path id="&lt;Path&gt;" class="s10" d="m807.9 690.9v11.3c-0.1 6.8-4.5 13.5-13.3 18.6-17.8 10.4-46.8 10.4-64.7 0-9-5.2-13.5-12-13.4-18.8v-11.4c0 6.8 4.5 13.7 13.5 18.9 17.9 10.3 46.9 10.3 64.6 0 8.8-5.2 13.3-11.9 13.3-18.6z"/>
					</g>
					<g id="&lt;Group&gt;">
						<path id="&lt;Compound Path&gt;" fill-rule="evenodd" class="s10" d="m794.4 672c17.9 10.3 18 27.2 0.2 37.5-17.7 10.3-46.7 10.3-64.6 0-17.9-10.3-18-27.1-0.2-37.5 17.7-10.3 46.7-10.3 64.6 0zm-63.5 36.9c17.4 10 45.5 10 62.7 0 17.3-10 17.2-26.3-0.2-36.3-17.3-10-45.4-10-62.6 0-17.3 10-17.2 26.3 0.1 36.3z"/>
					</g>
					<g id="&lt;Group&gt;">
						<path id="&lt;Path&gt;" class="s12" d="m761 698q0.1 1.2-1.3 2-3.1 1.9-8.5-0.3l8.3-4.9q1.3 2 1.5 3.2z"/>
					</g>
					<g id="&lt;Group&gt;">
						<path id="&lt;Compound Path&gt;" fill-rule="evenodd" class="s10" d="m779.1 683.5l-9.9 5.7q4.1 5.3 5 7.9 1 2.7 0.1 4.8-1 2-3.9 3.7-5.3 3.1-12.4 2.7-7.2-0.3-14.8-4l-6.9 4-4.6-2.7 6.8-3.9q-8.1-4.8-11.6-10l8.9-5.1q1.4 2.5 4.5 5.5 3 3.1 6 5.1l10.4-6.1-1.4-1.8q-4-5.4-3.7-8.8 0.2-3.4 4.8-6 4.8-2.8 11.8-2.4 7 0.4 14.5 3.9l5.1-2.9 4.6 2.6-5 2.9q7.4 4.7 10.9 9.9l-11 2.7q-3.1-4.3-8.2-7.7zm-18.1 14.5q-0.2-1.2-1.5-3.2l-8.3 4.9q5.4 2.2 8.5 0.3 1.4-0.8 1.3-2zm13.4-17.1q-5-2.2-7.9-0.5-1.5 0.8-1.4 2 0.1 1.1 1.4 3z"/>
					</g>
					<g id="&lt;Group&gt;">
						<path id="&lt;Compound Path&gt;" fill-rule="evenodd" class="s12" d="m793.4 672.6c17.4 10 17.5 26.3 0.2 36.3-17.2 10-45.3 10-62.7 0-17.3-10-17.4-26.3-0.1-36.3 17.2-10 45.3-10 62.6 0zm-35.4 35.7q7.1 0.4 12.4-2.7 2.9-1.7 3.9-3.7 0.9-2.1-0.1-4.8-0.9-2.6-5-7.9l9.9-5.7q5.1 3.4 8.2 7.7l11-2.7q-3.5-5.2-10.9-9.9l5-2.9-4.6-2.6-5.1 2.9q-7.5-3.5-14.5-3.9-7-0.4-11.8 2.4-4.6 2.6-4.8 6-0.3 3.4 3.7 8.8l1.4 1.8-10.4 6.1q-3-2-6-5.1-3.1-3-4.5-5.5l-8.9 5.1q3.5 5.2 11.6 10l-6.8 3.9 4.6 2.7 6.9-4q7.6 3.7 14.8 4z"/>
					</g>
					<g id="&lt;Group&gt;">
						<path id="&lt;Path&gt;" class="s12" d="m712 707.8q-1-2.9-1-5.8v-11.4q0 2.9 1 5.8 0 5.7 0 11.4z"/>
					</g>
					<g id="&lt;Group&gt;">
						<path id="&lt;Path&gt;" class="s12" d="m714.9 713.5q0-0.1 0-0.1 0-5.6 0-11.3c2.6 3.5 6.3 6.8 11.2 9.6q0.3 0.2 0.5 0.3 0 5.7 0 11.4-0.3-0.2-0.5-0.3c-5-2.9-8.7-6.1-11.2-9.6z"/>
					</g>
					<g id="&lt;Group&gt;">
						<path id="&lt;Path&gt;" class="s12" d="m726.6 723.4q0-5.7 0-11.4c20.1 11.3 52.2 11.2 71.9-0.3 9.9-5.7 14.8-13.3 14.9-20.8l-0.1 11.4c0 7.5-4.9 15-14.8 20.8-19.8 11.5-51.9 11.6-71.9 0.3z"/>
					</g>
					<g id="&lt;Group&gt;">
						<path id="&lt;Compound Path&gt;" fill-rule="evenodd" class="s12" d="m798.3 669.8c20 11.5 20.1 30.4 0.2 41.9-19.9 11.6-52.4 11.6-72.4 0-20-11.5-20.1-30.4-0.2-41.9 19.9-11.6 52.3-11.6 72.4 0zm-68.3 39.7c17.9 10.3 46.9 10.3 64.6 0 17.8-10.3 17.7-27.2-0.2-37.5-17.9-10.3-46.9-10.3-64.6 0-17.8 10.4-17.7 27.2 0.2 37.5z"/>
					</g>
					<g id="&lt;Group&gt;">
						<path id="&lt;Path&gt;" class="s12" d="m712.8 710q-0.5-1.1-0.8-2.2 0-5.7 0-11.4 0.4 1.1 0.9 2.2 0 5.7-0.1 11.4z"/>
					</g>
					<g id="&lt;Group&gt;">
						<path id="&lt;Path&gt;" class="s12" d="m712.8 710c0-0.1 0-0.2 0-0.3q0.1-5.6 0.1-11.1 0.8 1.7 1.9 3.3 0 5.7 0 11.4-1.2-1.7-2-3.3z"/>
					</g>
					<g id="&lt;Group&gt;">
						<path id="&lt;Path&gt;" class="s12" d="m714.9 713.5q-0.1-0.1-0.1-0.2 0-5.7 0-11.4 0.1 0.1 0.1 0.2 0 5.7 0 11.4z"/>
					</g>
					<g id="&lt;Group&gt;">
						<path id="&lt;Path&gt;" class="s13" d="m820.3 690.9v11.4c0 8.6-5.6 17.1-16.9 23.6-22.6 13.2-59.5 13.2-82.2 0-11.5-6.6-17.2-15.3-17.2-24l0.1-11.3c-0.1 8.7 5.6 17.4 17.1 24 22.7 13.1 59.6 13.1 82.3 0 11.2-6.6 16.8-15.1 16.8-23.7z"/>
					</g>
					<g id="&lt;Group&gt;">
						<path id="&lt;Compound Path&gt;" fill-rule="evenodd" class="s10" d="m803.2 666.9c22.7 13.2 22.9 34.5 0.3 47.7-22.7 13.1-59.6 13.1-82.3 0-22.8-13.2-22.9-34.5-0.3-47.7 22.6-13.1 59.5-13.1 82.3 0zm-77.1 44.8c20 11.6 52.5 11.6 72.4 0 19.9-11.5 19.8-30.4-0.2-41.9-20.1-11.6-52.5-11.6-72.4 0-19.9 11.5-19.8 30.4 0.2 41.9z"/>
					</g>
					<g id="&lt;Group&gt;">
						<path id="&lt;Path&gt;" class="s12" d="m766.5 680.4q2.9-1.7 7.9 0.5l-7.9 4.5q-1.3-1.9-1.4-3-0.1-1.2 1.4-2z"/>
					</g>
				</g>
			</g>
			<g id="&lt;Group&gt;">
				<g id="&lt;Group&gt;">
					<g id="&lt;Group&gt;">
						<path id="&lt;Path&gt;" class="s13" d="m749.2 788.2v11.4c0-7.7-5-15.3-15.1-21.1-20-11.6-52.5-11.6-72.4 0-9.9 5.7-14.8 13.2-14.9 20.8l0.1-11.4c0-7.5 4.9-15.1 14.8-20.8 19.9-11.6 52.4-11.6 72.4 0 10.1 5.8 15.1 13.5 15.1 21.1z"/>
					</g>
					<g id="&lt;Group&gt;">
						<path id="&lt;Path&gt;" class="s12" d="m734.3 820.4c-7.4 4.3-16.7 7-26.3 8.1q0-5.7 0-11.3c9.7-1.1 18.9-3.8 26.4-8.2 9.8-5.7 14.8-13.2 14.8-20.8v11.4c0 7.5-5 15.1-14.9 20.8z"/>
					</g>
					<g id="&lt;Group&gt;">
						<path id="&lt;Path&gt;" class="s12" d="m699 829.1q0-5.7 0-11.4 4.5 0 9-0.5 0 5.6 0 11.3-4.5 0.5-9 0.6z"/>
					</g>
					<g id="&lt;Group&gt;">
						<path id="&lt;Path&gt;" class="s12" d="m699 829.1q-0.4 0-0.8 0 0-5.7 0-11.4 0.4 0 0.8 0 0 5.7 0 11.4z"/>
					</g>
					<g id="&lt;Group&gt;">
						<path id="&lt;Path&gt;" class="s12" d="m661.9 820.4c-10.1-5.8-15.1-13.5-15.1-21.1l0.1-11.4c-0.1 7.7 5 15.3 15.1 21.1 10 5.8 23.1 8.7 36.2 8.7q0 5.7 0 11.4c-13.1 0-26.3-2.9-36.3-8.7z"/>
					</g>
					<g id="&lt;Group&gt;">
						<path id="&lt;Path&gt;" class="s12" d="m734.1 767.1c20 11.6 20.2 30.4 0.3 41.9-19.9 11.6-52.4 11.6-72.4 0-20.1-11.5-20.2-30.3-0.3-41.9 19.9-11.6 52.4-11.6 72.4 0z"/>
					</g>
					<g id="&lt;Group&gt;">
						<path id="&lt;Path&gt;" class="s13" d="m756.2 788.2v11.4c-0.1 8.6-5.7 17.1-16.9 23.7-22.6 13.1-59.5 13.1-82.3 0-11.4-6.7-17.2-15.4-17.1-24v-11.4c0 8.7 5.7 17.4 17.1 24 22.8 13.1 59.7 13.1 82.3 0 11.2-6.5 16.9-15.1 16.9-23.7z"/>
					</g>
					<g id="&lt;Group&gt;">
						<path id="&lt;Compound Path&gt;" fill-rule="evenodd" class="s10" d="m739 764.2c22.8 13.2 22.9 34.6 0.3 47.7-22.6 13.1-59.5 13.1-82.3 0-22.7-13.1-22.8-34.5-0.2-47.7 22.6-13.1 59.5-13.1 82.2 0zm-77 44.8c20 11.6 52.5 11.6 72.4 0 19.9-11.5 19.7-30.3-0.3-41.9-20-11.6-52.5-11.6-72.4 0-19.9 11.6-19.8 30.4 0.3 41.9z"/>
					</g>
				</g>
			</g>
			<g id="&lt;Group&gt;">
				<g id="&lt;Group&gt;">
					<g id="&lt;Group&gt;">
						<path id="&lt;Path&gt;" class="s13" d="m743.2 773.8l-0.1 11.4c0-7.6-5-15.3-15.1-21.1-20-11.6-52.5-11.6-72.4 0-9.9 5.7-14.8 13.3-14.8 20.8v-11.3c0-7.6 5-15.1 14.9-20.9 19.9-11.5 52.3-11.5 72.4 0 10 5.8 15.1 13.5 15.1 21.1z"/>
					</g>
					<g id="&lt;Group&gt;">
						<path id="&lt;Path&gt;" class="s12" d="m659.5 766.3c-8.8 5.2-13.2 11.9-13.2 18.6v-11.3c0-6.8 4.4-13.5 13.3-18.6 17.7-10.3 46.7-10.4 64.6 0 9 5.2 13.5 12 13.5 18.8l-0.1 11.4c0.1-6.8-4.4-13.7-13.4-18.9-17.9-10.3-46.9-10.3-64.7 0z"/>
					</g>
					<g id="&lt;Group&gt;">
						<path id="&lt;Path&gt;" class="s10" d="m736.3 773.8l-0.1 11.4c0.1-6.6-4.3-13.2-13-18.3-17.4-10-45.5-10-62.7 0-8.6 5-12.8 11.5-12.9 18l0.1-11.3c0-6.6 4.3-13.1 12.8-18.1 17.3-10 45.4-10 62.7 0 8.7 5.1 13.1 11.7 13.1 18.3z"/>
					</g>
					<g id="&lt;Group&gt;">
						<path id="&lt;Path&gt;" class="s12" d="m722.2 758.7v11.3l-4.6-2.6v-11.4z"/>
					</g>
					<g id="&lt;Group&gt;">
						<path id="&lt;Path&gt;" class="s12" d="m717.6 756v11.4l-5.2 3 0.1-11.4z"/>
					</g>
					<g id="&lt;Group&gt;">
						<path id="&lt;Path&gt;" class="s10" d="m722.2 758.7v11.3l-5 2.9v-11.3z"/>
					</g>
					<g id="&lt;Group&gt;">
						<path id="&lt;Path&gt;" class="s12" d="m681.3 775.3v-11.4q0-0.2 0.1-0.4 0.2-3.4 4.8-6 4.8-2.9 11.8-2.5 6.9 0.4 14.5 4l-0.1 11.4q-7.5-3.6-14.5-4-6.9-0.4-11.8 2.4-4.5 2.7-4.8 6 0 0.3 0 0.5z"/>
					</g>
					<g id="&lt;Group&gt;">
						<path id="&lt;Path&gt;" class="s10" d="m694.9 776.6v-11.4q0-1.1 1.4-1.9 2.9-1.6 7.9 0.5l-0.1 11.4q-5-2.2-7.8-0.5-1.4 0.8-1.4 1.9z"/>
					</g>
					<g id="&lt;Group&gt;">
						<path id="&lt;Path&gt;" class="s12" d="m694.9 776.7q0-0.1 0-0.1v-11.4q0 0.1 0 0.1 0 5.7 0 11.4 0-5.7 0-11.4 0.1 1.2 1.4 3.1l-0.1 11.4q-1.3-1.9-1.3-3.1z"/>
					</g>
					<g id="&lt;Group&gt;">
						<path id="&lt;Path&gt;" class="s12" d="m704.2 763.8l-0.1 11.4-7.9 4.6 0.1-11.4z"/>
					</g>
					<g id="&lt;Group&gt;">
						<path id="&lt;Path&gt;" class="s12" d="m728.1 771.4v11.4q-3.5-5.2-10.9-9.9v-11.3q7.4 4.6 10.9 9.8z"/>
					</g>
					<g id="&lt;Group&gt;">
						<path id="&lt;Path&gt;" class="s10" d="m708.9 766.4v11.4l-9.9 5.7v-11.3z"/>
					</g>
					<g id="&lt;Group&gt;">
						<path id="&lt;Path&gt;" class="s10" d="m681.3 775.3v-11.4q0 3.3 3.8 8.4v11.3q-3.8-5-3.8-8.3z"/>
					</g>
					<g id="&lt;Group&gt;">
						<path id="&lt;Path&gt;" class="s10" d="m686.5 774.1v11.3l-1.4-1.8v-11.3z"/>
					</g>
					<g id="&lt;Group&gt;">
						<path id="&lt;Path&gt;" class="s12" d="m669.2 785.6q-2.4-2.5-3.7-4.7v-11.4q1.3 2.2 3.8 4.8 0 5.7-0.1 11.3z"/>
					</g>
					<g id="&lt;Group&gt;">
						<path id="&lt;Path&gt;" class="s12" d="m700.7 785.8q-0.8-1.1-1.7-2.3v-11.3q1 1.2 1.7 2.3 0 5.6 0 11.3z"/>
					</g>
					<g id="&lt;Group&gt;">
						<path id="&lt;Path&gt;" class="s12" d="m665.5 769.5v11.4l-8.8 5.1v-11.3z"/>
					</g>
					<g id="&lt;Group&gt;">
						<path id="&lt;Path&gt;" class="s12" d="m669.2 785.6q0 0 0-0.1 0-0.5 0-1.1 0-3 0.1-5.9 0-2.1 0-4.2 0.4 0.4 0.8 0.8 3 3 6 5v11.4q-3-2-6.1-5-0.4-0.5-0.8-0.9z"/>
					</g>
					<g id="&lt;Group&gt;">
						<path id="&lt;Path&gt;" class="s12" d="m686.5 774.1v11.3l-10.4 6.1v-11.4z"/>
					</g>
					<g id="&lt;Group&gt;">
						<path id="&lt;Path&gt;" class="s10" d="m690.8 781.2l-0.1 11.4q0-0.2 0-0.3-0.2-1.2-1.4-3.2v-11.3q1.3 1.9 1.5 3.1 0 0.2 0 0.3z"/>
					</g>
					<g id="&lt;Group&gt;">
						<path id="&lt;Path&gt;" class="s12" d="m700.7 785.8q0-0.1 0-0.1 0-5.6 0-11.2 2.6 3.5 3.3 5.6 0.3 0.7 0.4 1.5 0 5.6 0 11.3 0 0 0 0-0.1-0.7-0.4-1.4-0.7-2.1-3.3-5.7z"/>
					</g>
					<g id="&lt;Group&gt;">
						<path id="&lt;Path&gt;" class="s12" d="m704.4 792.9q0-0.1 0-0.2 0-1.7 0-3.5 0-3.8 0-7.6 0.1 0.5 0.1 1.1v11.3q0-0.5-0.1-1.1z"/>
					</g>
					<g id="&lt;Group&gt;">
						<path id="&lt;Path&gt;" class="s10" d="m689.3 777.8v11.3l-8.3 4.9v-11.4z"/>
					</g>
					<g id="&lt;Group&gt;">
						<path id="&lt;Path&gt;" class="s12" d="m689.5 794.3q-3.2 1.9-8.5-0.3v-11.4q5.3 2.2 8.5 0.4 0 5.7 0 11.3 0-5.6 0-11.3 1.3-0.7 1.3-1.8l-0.1 11.4q0 1-1.2 1.7z"/>
					</g>
					<g id="&lt;Group&gt;">
						<path id="&lt;Path&gt;" class="s10" d="m728.1 771.4v11.4l-11.1 2.7 0.1-11.3z"/>
					</g>
					<g id="&lt;Group&gt;">
						<path id="&lt;Path&gt;" class="s10" d="m717.1 774.2l-0.1 11.3q-3.1-4.3-8.1-7.7v-11.4q5.1 3.5 8.2 7.8z"/>
					</g>
					<g id="&lt;Group&gt;">
						<path id="&lt;Path&gt;" class="s12" d="m649.3 792c-1.1-2.3-1.7-4.7-1.7-7.1l0.1-11.3c0 2.4 0.5 4.7 1.6 7q0 5.7 0 11.4z"/>
					</g>
					<g id="&lt;Group&gt;">
						<path id="&lt;Path&gt;" class="s10" d="m668.3 784.7l-0.1 11.3q-8-4.8-11.5-10v-11.3q3.5 5.1 11.6 10z"/>
					</g>
					<g id="&lt;Group&gt;">
						<path id="&lt;Path&gt;" class="s10" d="m704.5 782.7v11.3q0 1.2-0.5 2.2v-11.4q0.5-1 0.5-2.1z"/>
					</g>
					<g id="&lt;Group&gt;">
						<path id="&lt;Path&gt;" class="s12" d="m668.3 784.7l-0.1 11.3-6.7 4v-11.4z"/>
					</g>
					<g id="&lt;Group&gt;">
						<path id="&lt;Path&gt;" class="s10" d="m666.1 791.3v11.3l-4.6-2.6v-11.4z"/>
					</g>
					<g id="&lt;Group&gt;">
						<path id="&lt;Path&gt;" class="s10" d="m673 787.3v11.3l-6.9 4v-11.3z"/>
					</g>
					<g id="&lt;Group&gt;">
						<path id="&lt;Path&gt;" class="s10" d="m704 784.8v11.4q-0.9 2-3.9 3.7-5.3 3.1-12.4 2.8-7.1-0.4-14.7-4.1v-11.3q7.6 3.6 14.7 4 7.1 0.3 12.5-2.8 2.9-1.7 3.8-3.7z"/>
					</g>
					<g id="&lt;Group&gt;">
						<path id="&lt;Path&gt;" class="s12" d="m649.3 792c0-0.1 0-0.2 0-0.3q0-5.5 0-11.1c2.1 4.1 5.8 8 11.4 11.3 17.4 10 45.5 10 62.7 0 8.6-5 12.9-11.5 12.9-18.1l-0.1 11.4c0 6.5-4.3 13-12.8 18-17.2 10-45.4 10-62.7 0-5.6-3.2-9.4-7.1-11.4-11.2z"/>
					</g>
					<g id="&lt;Group&gt;">
						<path id="&lt;Path&gt;" class="s10" d="m737.7 773.8l-0.1 11.4c0 6.7-4.4 13.5-13.2 18.6-17.8 10.3-46.8 10.3-64.7 0-9-5.2-13.5-12-13.4-18.9v-11.3c0 6.8 4.5 13.6 13.5 18.8 17.8 10.3 46.8 10.3 64.6 0 8.8-5.1 13.3-11.8 13.3-18.6z"/>
					</g>
					<g id="&lt;Group&gt;">
						<path id="&lt;Compound Path&gt;" fill-rule="evenodd" class="s10" d="m724.2 755c17.9 10.3 18 27.1 0.2 37.4-17.8 10.3-46.8 10.3-64.6 0-17.9-10.3-18-27.1-0.2-37.4 17.7-10.3 46.7-10.4 64.6 0zm-63.5 36.9c17.4 10 45.5 10 62.7 0 17.2-10.1 17.2-26.3-0.2-36.4-17.3-10-45.4-10-62.7 0-17.2 10.1-17.1 26.3 0.2 36.4z"/>
					</g>
					<g id="&lt;Group&gt;">
						<path id="&lt;Path&gt;" class="s12" d="m690.8 780.9q0.1 1.3-1.3 2.1-3.2 1.8-8.5-0.4l8.3-4.8q1.3 1.9 1.5 3.1z"/>
					</g>
					<g id="&lt;Group&gt;">
						<path id="&lt;Compound Path&gt;" fill-rule="evenodd" class="s10" d="m708.9 766.4l-9.9 5.8q4.1 5.2 5 7.9 1 2.7 0 4.7-0.9 2-3.8 3.7-5.4 3.1-12.5 2.8-7.1-0.4-14.7-4l-6.9 4-4.6-2.7 6.8-3.9q-8.1-4.9-11.6-10l8.8-5.2q1.5 2.6 4.6 5.6 3 3 6 5l10.4-6-1.4-1.8q-4-5.4-3.7-8.8 0.2-3.4 4.8-6 4.8-2.9 11.8-2.5 6.9 0.4 14.5 4l5.1-3 4.6 2.7-5 2.9q7.4 4.6 10.9 9.8l-11 2.8q-3.1-4.3-8.2-7.8zm-18.1 14.5q-0.2-1.2-1.5-3.1l-8.3 4.8q5.3 2.2 8.5 0.4 1.4-0.8 1.3-2.1zm13.4-17.1q-5-2.1-7.9-0.5-1.5 0.9-1.4 2 0.1 1.2 1.4 3.1z"/>
					</g>
					<g id="&lt;Group&gt;">
						<path id="&lt;Compound Path&gt;" fill-rule="evenodd" class="s12" d="m723.2 755.5c17.4 10.1 17.4 26.3 0.2 36.4-17.2 10-45.3 10-62.7 0-17.3-10.1-17.4-26.3-0.2-36.4 17.3-10 45.4-10 62.7 0zm-35.5 35.8q7.1 0.3 12.5-2.8 2.9-1.7 3.8-3.7 1-2 0-4.7-0.9-2.7-5-7.9l9.9-5.8q5.1 3.5 8.2 7.8l11-2.8q-3.5-5.2-10.9-9.8l5-2.9-4.6-2.7-5.1 3q-7.6-3.6-14.5-4-7-0.4-11.8 2.5-4.6 2.6-4.8 6-0.3 3.4 3.7 8.8l1.4 1.8-10.4 6q-3-2-6-5-3.1-3-4.6-5.6l-8.8 5.2q3.5 5.1 11.6 10l-6.8 3.9 4.6 2.7 6.9-4q7.6 3.6 14.7 4z"/>
					</g>
					<g id="&lt;Group&gt;">
						<path id="&lt;Path&gt;" class="s12" d="m641.7 790.7q-0.9-2.8-0.9-5.8v-11.3q0 2.9 1 5.8 0 5.7-0.1 11.3z"/>
					</g>
					<g id="&lt;Group&gt;">
						<path id="&lt;Path&gt;" class="s12" d="m644.7 796.4q0 0 0 0 0-5.7 0-11.4c2.5 3.5 6.3 6.8 11.2 9.7q0.2 0.1 0.5 0.3 0 5.6 0 11.3-0.3-0.1-0.5-0.3c-5-2.8-8.7-6.1-11.2-9.6z"/>
					</g>
					<g id="&lt;Group&gt;">
						<path id="&lt;Path&gt;" class="s12" d="m656.4 806.3q0-5.7 0-11.3c20.1 11.2 52.2 11.1 71.9-0.3 9.9-5.8 14.8-13.3 14.9-20.9l-0.1 11.4c0 7.6-4.9 15.1-14.8 20.8-19.8 11.5-51.9 11.6-71.9 0.3z"/>
					</g>
					<g id="&lt;Group&gt;">
						<path id="&lt;Compound Path&gt;" fill-rule="evenodd" class="s12" d="m728.1 752.7c20 11.6 20.1 30.4 0.2 42-19.9 11.5-52.4 11.5-72.4 0-20-11.6-20.1-30.4-0.2-42 19.9-11.5 52.3-11.5 72.4 0zm-68.3 39.7c17.8 10.3 46.8 10.3 64.6 0 17.8-10.3 17.7-27.1-0.2-37.4-17.9-10.4-46.9-10.3-64.6 0-17.8 10.3-17.7 27.1 0.2 37.4z"/>
					</g>
					<g id="&lt;Group&gt;">
						<path id="&lt;Path&gt;" class="s12" d="m642.6 792.9q-0.5-1.1-0.9-2.2 0.1-5.6 0.1-11.3 0.3 1.1 0.9 2.1-0.1 5.7-0.1 11.4z"/>
					</g>
					<g id="&lt;Group&gt;">
						<path id="&lt;Path&gt;" class="s12" d="m642.6 792.9c0-0.1 0-0.2 0-0.2q0-5.6 0.1-11.2 0.8 1.7 1.9 3.4 0 5.6 0 11.3-1.2-1.6-2-3.3z"/>
					</g>
					<g id="&lt;Group&gt;">
						<path id="&lt;Path&gt;" class="s12" d="m644.7 796.4q-0.1-0.1-0.1-0.2 0-5.7 0-11.3 0.1 0.1 0.1 0.1 0 5.7 0 11.4z"/>
					</g>
					<g id="&lt;Group&gt;">
						<path id="&lt;Path&gt;" class="s13" d="m750.1 773.9v11.3c0 8.6-5.7 17.2-16.9 23.7-22.6 13.1-59.5 13.1-82.3 0-11.4-6.6-17.1-15.3-17.1-24v-11.4c0 8.7 5.7 17.4 17.2 24 22.7 13.2 59.6 13.2 82.2 0 11.3-6.5 16.9-15.1 16.9-23.6z"/>
					</g>
					<g id="&lt;Group&gt;">
						<path id="&lt;Compound Path&gt;" fill-rule="evenodd" class="s10" d="m733 749.9c22.7 13.1 22.9 34.5 0.2 47.6-22.6 13.2-59.5 13.2-82.2 0-22.8-13.1-22.9-34.5-0.3-47.6 22.6-13.2 59.5-13.2 82.3 0zm-77.1 44.8c20 11.5 52.5 11.5 72.4 0 19.9-11.6 19.8-30.4-0.2-42-20.1-11.5-52.5-11.5-72.4 0-19.9 11.6-19.8 30.4 0.2 42z"/>
					</g>
					<g id="&lt;Group&gt;">
						<path id="&lt;Path&gt;" class="s12" d="m696.3 763.3q2.9-1.6 7.9 0.5l-7.9 4.6q-1.3-1.9-1.4-3.1-0.1-1.1 1.4-2z"/>
					</g>
				</g>
			</g>
		</g>
		<g id="&lt;Group&gt;">
			<g id="&lt;Group&gt;">
				<g id="&lt;Group&gt;">
					<g id="&lt;Group&gt;">
						<path id="&lt;Path&gt;" class="s10" d="m842.6 421c-0.1-11.1 7.5-15.8 17.1-10.4 9.6 5.3 17.4 18.6 17.6 29.7 0.1 11.1-7.5 15.8-17.1 10.5-9.6-5.4-17.5-18.7-17.6-29.8z"/>
					</g>
					<g id="&lt;Group&gt;">
						<path id="&lt;Path&gt;" class="s10" d="m858 407.1c2.3 1.2 4.6 2.9 7 5.1 2.6 2.4 4.9 5.3 5.8 6.7 1.7 2.5 2 2.9 3.5 5.6 0.6 1.1 1.1 2.2 1.9 4 0 0 0.8 1.9 1.5 4.1 0.6 1.8 0.7 2.3 1.1 4.3 0.6 2.8 0.7 6 0.7 7.1 0 1.1-0.1 2.5-0.3 3.6-0.3 2.1-0.6 3.4-0.9 4.1-0.7 1.9-0.8 2.2-1.6 3.7 0 0-0.7 1.1-1.6 2.3-1.1 1.3-1.9 2-1.9 2-1.5 1.2-1.6 1.2-3.2 2.2-4 2-9.4 1.6-15.3-1.7-12.6-7-22.9-24.4-23-38.9 2.9-1.9 7.9-2 10.9-0.3 0.1 11.1 8 24.4 17.6 29.8 9.6 5.3 17.2 0.6 17.1-10.5-0.2-11.1-8-24.4-17.6-29.7-9.6-5.4-17.2-0.7-17.1 10.4-3-1.7-8-1.6-10.9 0.3-0.1-7.1 2.2-12.2 6.1-14.8 1.8-1.1 3.2-1.6 3.9-1.8 0.8-0.2 1.8-0.5 2.6-0.6 0.8-0.1 1.8-0.2 2.6-0.2 1.1 0 3 0.1 5.3 0.7 1.8 0.6 3.3 1.1 5.8 2.5z"/>
					</g>
					<g id="&lt;Group&gt;">
						<path id="&lt;Path&gt;" class="s10" d="m837.8 406.5c1.6-0.9 1.8-1 3.5-1.7 0 0 1.2-0.4 2.8-0.7 1.6-0.2 4.1-0.4 7.1 0.3q2.2 0.5 4.2 1.4c1.9 0.8 2.6 1.2 4.3 2.3 2.3 1.4 5.3 4 6.9 5.6 1.6 1.8 2.1 2.4 2.9 3.4 0.4 0.5 0.9 1.2 1.3 1.7 0.7 1.1 1.7 2.6 2.4 3.7 2.8 4.7 4 8.6 4.5 10.1 0.2 0.6 0.5 1.4 0.6 2.1 0.3 1.2 0.6 2.9 0.8 4.1 0.3 1.3 0.3 2.7 0.4 4.2 0 0.9 0.1 4.1-0.9 7.8-0.8 2.9-3 8.1-8.6 11.1 4.4-2.3 7.2-7.7 7.1-15.3-0.2-14.6-10.5-32-23.1-39-6.4-3.6-12.1-3.7-16.2-1.1z"/>
					</g>
					<g id="&lt;Group&gt;">
						<path id="&lt;Path&gt;" class="s10" d="m707.6 544.8c-2.8 1.4-6.5 1.1-10.6-1.2-8.6-4.8-15.7-16.8-15.9-26.9l150.6-95.4c0.1 14.5 10.4 31.9 23 38.9 5.9 3.3 11.2 3.7 15.2 1.7q-81.2 41.4-162.3 82.9z"/>
					</g>
					<g id="&lt;Group&gt;">
						<path id="&lt;Path&gt;" class="s10" d="m837.8 406.5c-3.9 2.6-6.2 7.7-6.1 14.8l-150.6 95.4c0-4.9 1.6-8.4 4.3-10.1q76.2-50 152.4-100.1z"/>
					</g>
					<g id="&lt;Group&gt;">
						<path id="&lt;Path&gt;" class="s10" d="m693.5 543.9c0 0-1.6-0.9-2.6-1.7-1.6-1.2-2.2-1.8-3.2-2.9-0.6-0.5-2.5-2.6-4.4-5.7-1.8-3.1-2.7-5.9-2.9-6.7-0.5-1.7-0.7-2.4-1-4.2-0.1-0.9-0.2-1.5-0.2-3 0-1.1 0.6-2.1 1.9-3 0.2 10.1 7.3 22.1 15.9 26.9 4.1 2.3 7.8 2.6 10.6 1.2-1 0.4-1.9 0.8-3.3 1.1-0.9 0.2-2 0.3-3.7 0.2-3.3-0.2-6.2-1.7-7.1-2.2z"/>
					</g>
					<g id="&lt;Group&gt;">
						<path id="&lt;Path&gt;" class="s10" d="m685.4 506.6c-2.7 1.7-4.3 5.2-4.3 10.1-1.3 0.9-1.9 1.9-1.9 3 0-2.1 0.1-4.8 1.6-7.8 0.7-1.6 1.7-2.7 1.7-2.7 1.2-1.4 1.6-1.7 2.9-2.6z"/>
					</g>
					<g id="&lt;Group&gt;">
						<path id="&lt;Path&gt;" class="s10" d="m681.4 522.7c-0.1-6.6 4.5-9.4 10.2-6.2 5.7 3.2 10.3 11.1 10.4 17.7 0.1 6.6-4.4 9.4-10.1 6.2-5.7-3.2-10.4-11.1-10.5-17.7z"/>
					</g>
					<g id="&lt;Group&gt;">
						<path id="&lt;Path&gt;" class="s15" d="m679.2 519.7c0-1.5 0-2.6 0.3-4.2 0.3-1.4 0.7-2.4 1.3-3.7 0.7-1.6 1.7-2.6 2.3-3.3 0.2-0.2 0.5-0.5 0.8-0.8 0.4-0.3 1-0.8 1.5-1.1 2.8-1.9 6.8-1.8 11.2 0.7 8.6 4.8 15.8 16.9 15.9 26.9 0 5.3-1.8 9-4.9 10.6-0.5 0.2-1.2 0.5-1.8 0.7-0.5 0.2-1.4 0.4-2.4 0.6q-2.6 0.3-4.9-0.3c-1.2-0.2-2.8-0.7-5-1.9-2.1-1.2-3.4-2.3-4.6-3.4-1.6-1.4-4.8-4.9-6.9-9.5-0.8-1.6-2.7-5.8-2.8-11.3 0 1.1 0.7 2.2 2.2 3 0.1 6.6 4.8 14.5 10.5 17.7 5.7 3.2 10.2 0.4 10.1-6.2-0.1-6.6-4.7-14.5-10.4-17.7-5.7-3.2-10.3-0.4-10.2 6.2-1.5-0.8-2.2-1.9-2.2-3z"/>
					</g>
					<g id="&lt;Group&gt;">
						<path id="&lt;Compound Path&gt;" fill-rule="evenodd" class="s10" d="m681.1 522.5c0-6.7 4.6-9.6 10.5-6.3 5.8 3.2 10.6 11.4 10.7 18.1 0.1 6.8-4.6 9.6-10.4 6.4-5.9-3.3-10.7-11.4-10.8-18.2zm0.3 0.2c0.1 6.6 4.8 14.5 10.5 17.7 5.7 3.2 10.2 0.4 10.1-6.2-0.1-6.6-4.7-14.5-10.4-17.7-5.7-3.2-10.3-0.4-10.2 6.2z"/>
					</g>
					<g id="&lt;Group&gt;">
						<path id="&lt;Path&gt;" class="s10" d="m692.8 545c-1.8 1.1-4.4 1-7.3-0.6-5.8-3.3-10.6-11.4-10.7-18.2l6.3-3.7c0.1 6.8 4.9 14.9 10.8 18.2 2.8 1.6 5.4 1.7 7.3 0.6-1.9 1.1-4.5 2.6-6.4 3.7z"/>
					</g>
					<g id="&lt;Group&gt;">
						<path id="&lt;Path&gt;" class="s10" d="m684.2 515.6c-1.9 1.1-3.1 3.5-3.1 6.9l-6.3 3.7c-0.1-3.4 1.1-5.8 3.1-6.9 1.9-1.2 4.4-2.6 6.3-3.7z"/>
					</g>
					<g id="&lt;Group&gt;">
						<path id="&lt;Path&gt;" class="s10" d="m681.4 522.7c-0.1-6.6 4.5-9.4 10.2-6.2 5.7 3.2 10.3 11.1 10.4 17.7 0.1 6.6-4.4 9.4-10.1 6.2-5.7-3.2-10.4-11.1-10.5-17.7z"/>
					</g>
					<g id="&lt;Group&gt;">
						<path id="&lt;Path&gt;" class="s10" d="m677.9 528c-0.1-4.8 3.2-6.8 7.3-4.5 4.2 2.3 7.6 8 7.6 12.8 0.1 4.8-3.2 6.8-7.3 4.5-4.2-2.3-7.6-8-7.6-12.8z"/>
					</g>
					<g id="&lt;Group&gt;">
						<path id="&lt;Path&gt;" class="s10" d="m685.4 506.6q76.2-50 152.4-100.1c4-2.6 9.8-2.5 16.2 1.1 12.6 7 22.9 24.4 23.1 39 0.1 7.7-2.7 13-7.2 15.3q0 0 0 0-81.2 41.4-162.3 82.9c3-1.6 4.9-5.3 4.9-10.6-0.1-10-7.3-22.1-15.9-26.9-4.5-2.5-8.4-2.6-11.2-0.7z"/>
					</g>
					<g id="&lt;Group&gt;">
						<path id="&lt;Path&gt;" class="s10" d="m677.9 519.3l6.3-3.7c1.9-1.1 4.5-1 7.4 0.6 5.8 3.2 10.6 11.4 10.7 18.1 0 3.5-1.2 5.9-3.1 7l-6.4 3.7c2-1.1 3.2-3.5 3.1-7-0.1-6.7-4.9-14.9-10.7-18.1-2.9-1.6-5.4-1.7-7.3-0.6z"/>
					</g>
					<g id="&lt;Group&gt;">
						<path id="&lt;Compound Path&gt;" fill-rule="evenodd" class="s15" d="m674.8 526.2c-0.1-6.7 4.6-9.6 10.4-6.3 5.8 3.2 10.6 11.4 10.7 18.1 0.1 6.8-4.6 9.6-10.4 6.4-5.8-3.3-10.6-11.4-10.7-18.2zm3.1 1.8c0 4.8 3.4 10.5 7.6 12.8 4.1 2.3 7.4 0.3 7.3-4.5 0-4.8-3.4-10.5-7.6-12.8-4.1-2.3-7.4-0.3-7.3 4.5z"/>
					</g>
				</g>
				<g id="&lt;Group&gt;">
					<g id="&lt;Group&gt;">
						<path id="&lt;Path&gt;" class="s7" d="m677.9 528c-0.1-4.8 3.2-6.8 7.3-4.5 4.2 2.3 7.6 8 7.6 12.8 0.1 4.8-3.2 6.8-7.3 4.5-4.2-2.3-7.6-8-7.6-12.8z"/>
					</g>
					<g id="&lt;Group&gt;">
						<path id="&lt;Path&gt;" class="s7" d="m692.8 536.3c0.1 2.4-0.8 4.1-2.2 4.9l-28.4 16.5c-0.3-8.2-1.5-15.7-3.5-22.3l21.4-12.4c1.3-0.7 3.1-0.7 5.1 0.5 4.2 2.3 7.6 8 7.6 12.8z"/>
					</g>
				</g>
			</g>
			<g id="&lt;Group&gt;">
				<g id="&lt;Group&gt;">
					<path id="&lt;Path&gt;" class="s7" d="m645.6 528.2q2.8 1.6 5.6 3.2c4.1 8.8 6.4 19.8 6.4 32.7 0.2 51.9-36.4 115.3-81.7 141.4l-5.5-3.3c45.2-26.1 81.8-89.4 81.6-141.4 0-12.9-2.3-23.8-6.4-32.6z"/>
				</g>
				<g id="&lt;Group&gt;">
					<path id="&lt;Path&gt;" class="s7" d="m645.6 528.2c-4.1-8.9-10.1-15.6-17.5-19.9l5.6 3.2c7.4 4.3 13.4 11 17.5 19.9q-2.8-1.6-5.6-3.2z"/>
				</g>
				<g id="&lt;Group&gt;">
					<path id="&lt;Path&gt;" class="s6" d="m624.8 514l5.6 3.3c13.8 8 22.5 25.1 22.5 49.5 0.2 48.9-34.4 108.7-77 133.3l-5.6-3.2c42.6-24.6 77.2-84.4 77-133.4 0-24.3-8.6-41.4-22.5-49.5z"/>
				</g>
				<g id="&lt;Group&gt;">
					<path id="&lt;Path&gt;" class="s7" d="m512.1 707.9c14.8 8.7 35.5 7.5 58.3-5.7l5.5 3.3c-22.7 13.1-43.4 14.4-58.3 5.7-1.6-1-3.9-2.3-5.5-3.3z"/>
				</g>
				<g id="&lt;Group&gt;">
					<path id="&lt;Path&gt;" class="s6" d="m521 705.4l-5.6-3.2c14.1 8.2 33.5 7 54.9-5.3l5.6 3.2c-21.4 12.4-40.9 13.5-54.9 5.3z"/>
				</g>
				<g id="&lt;Group&gt;">
					<path id="&lt;Path&gt;" class="s1" d="m569.8 519.3c21.5-12.3 40.9-13.5 55-5.3l5.6 3.3c-14.1-8.2-33.5-7.1-55 5.3-1.6-1-3.9-2.3-5.6-3.3z"/>
				</g>
				<g id="&lt;Group&gt;">
					<path id="&lt;Path&gt;" class="s6" d="m628.1 508.3l5.6 3.2c-14.9-8.7-35.5-7.4-58.3 5.7l-5.6-3.2c22.8-13.2 43.4-14.4 58.3-5.7z"/>
				</g>
				<g id="&lt;Group&gt;">
					<path id="&lt;Path&gt;" class="s7" d="m631.4 502.6l5.6 3.2c-15.8-9.1-37.6-7.8-61.6 6l-5.6-3.2c24-13.9 45.9-15.2 61.6-6z"/>
				</g>
				<g id="&lt;Group&gt;">
					<path id="&lt;Path&gt;" class="s1" d="m492.9 652.7c-0.1-24.5 8.5-51.7 22.4-75.8q2.8 1.6 5.6 3.3c-13.9 24.1-22.5 51.3-22.5 75.7 0.1 24.4 8.7 41.5 22.6 49.6l-5.6-3.3c-13.9-8.1-22.5-25.2-22.5-49.5z"/>
				</g>
				<g id="&lt;Group&gt;">
					<path id="&lt;Path&gt;" class="s1" d="m515.3 576.9c14-24.1 33.2-45.3 54.5-57.6l5.6 3.3c-21.3 12.3-40.6 33.4-54.5 57.6q-2.8-1.7-5.6-3.3z"/>
				</g>
				<g id="&lt;Group&gt;">
					<path id="&lt;Path&gt;" class="s6" d="m517.7 711.2l-5.6-3.2c-14.7-8.6-23.9-26.8-23.9-52.6-0.2-52 36.4-115.3 81.6-141.4l5.6 3.2c-45.2 26.1-81.8 89.5-81.7 141.5 0.1 25.8 9.2 44 24 52.5z"/>
				</g>
				<g id="&lt;Group&gt;">
					<path id="&lt;Compound Path&gt;" fill-rule="evenodd" class="s6" d="m575.4 517.2c45.3-26.1 82.1-5.1 82.2 46.9 0.2 51.9-36.4 115.3-81.7 141.4-45.2 26.1-82 5.1-82.2-46.8-0.1-52 36.5-115.4 81.7-141.5zm0.5 182.9c42.6-24.6 77.2-84.4 77-133.3-0.1-49-34.9-68.8-77.5-44.2-42.6 24.6-77.1 84.4-77 133.3 0.2 49 34.9 68.8 77.5 44.2z"/>
				</g>
				<g id="&lt;Group&gt;">
					<path id="&lt;Path&gt;" class="s7" d="m514.4 716.9l-5.6-3.3c-15.6-9-25.2-28.2-25.3-55.5-0.2-54.9 38.5-121.9 86.3-149.5l5.6 3.2c-47.8 27.6-86.5 94.7-86.3 149.6 0 27.2 9.7 46.4 25.3 55.5z"/>
				</g>
				<g id="&lt;Group&gt;">
					<path id="&lt;Compound Path&gt;" fill-rule="evenodd" class="s7" d="m662.3 561.3c0.1 54.9-38.6 122-86.3 149.6-47.8 27.5-86.8 5.3-86.9-49.5-0.2-54.9 38.5-122 86.3-149.6 39.3-22.7 72.7-11.6 83.3 23.6 2 6.6 3.2 14.1 3.5 22.3q0.1 1.8 0.1 3.6zm-4.7 2.7q0-1.8-0.1-3.5c-0.3-8.3-1.5-15.7-3.6-22.2-10.5-32.4-41.7-42.3-78.5-21.1-45.2 26.1-81.8 89.5-81.7 141.5 0.2 51.9 37 72.9 82.3 46.8 45.2-26.1 81.7-89.5 81.6-141.5z"/>
				</g>
				<path id="&lt;Path&gt;" class="s16" d="m575.4 522.6c42.6-24.6 77.4-4.8 77.5 44.2 0.2 48.9-34.4 108.7-77 133.3-42.6 24.6-77.3 4.8-77.5-44.2-0.1-48.9 34.4-108.7 77-133.3z"/>
				<path id="&lt;Path&gt;" class="s16" d="m598.1 542.2c26.7-15.4 48.5-3 48.6 27.7 0.1 30.7-21.6 68.2-48.3 83.7-26.7 15.4-48.5 3-48.6-27.7-0.1-30.7 21.6-68.3 48.3-83.7z"/>
			</g>
		</g>
		<g id="&lt;Group&gt;">
			<path id="&lt;Path&gt;" class="s1" d="m751.4 631.1c8.4 6.3 10.5 15.4 10.5 17.2 0-1.8 2-10.9 10.4-17.2-8.4-6.4-10.4-15.4-10.4-17.3 0 1.9-2.1 10.9-10.5 17.3z"/>
			<path id="&lt;Path&gt;" class="s1" d="m781.3 617.1c-0.2-1.7-1.5-2.5-3-2.5-1.5 0-2.6 1.7-2.5 3.1 0.2 1.6 1.6 2.4 3.1 2.4 1.5 0 2.6-1.7 2.4-3z"/>
			<path id="&lt;Path&gt;" class="s1" d="m788.1 598.4c-0.2-1.6-1.6-2.4-3.1-2.4-1.5 0-2.6 1.7-2.4 3.1 0.2 1.6 1.5 2.4 3 2.4 1.5 0 2.6-1.7 2.5-3.1z"/>
			<path id="&lt;Path&gt;" class="s1" d="m768.8 597.6c-0.1-1.6-1.5-2.4-3-2.4-1.5 0-2.6 1.7-2.4 3 0.1 1.7 1.5 2.5 3 2.5 1.5 0 2.6-1.7 2.4-3.1z"/>
			<path id="&lt;Path&gt;" class="s1" d="m200.2 402.9c-8.5 6.3-10.5 15.4-10.5 17.2 0-1.8-2-10.9-10.4-17.2 8.4-6.4 10.4-15.4 10.4-17.3 0 1.9 2 10.9 10.5 17.3z"/>
			<path id="&lt;Path&gt;" class="s1" d="m170.3 388.9c0.1-1.6 1.5-2.5 3-2.5 1.5 0 2.6 1.7 2.4 3.1-0.1 1.6-1.5 2.4-3 2.4-1.5 0-2.6-1.7-2.4-3z"/>
			<path id="&lt;Path&gt;" class="s1" d="m163.5 370.2c0.2-1.6 1.6-2.4 3.1-2.4 1.4 0 2.5 1.7 2.4 3.1-0.2 1.6-1.6 2.4-3.1 2.4-1.5 0-2.5-1.7-2.4-3.1z"/>
			<path id="&lt;Path&gt;" class="s1" d="m182.7 369.4c0.2-1.6 1.6-2.4 3.1-2.4 1.5 0 2.6 1.7 2.4 3-0.2 1.7-1.5 2.5-3 2.5-1.5 0-2.6-1.7-2.5-3.1z"/>
			<path id="&lt;Path&gt;" class="s1" d="m774 861.8c-8.5 6.4-10.5 15.4-10.5 17.3 0-1.9-2-10.9-10.4-17.3 8.4-6.3 10.4-15.4 10.4-17.2 0 1.8 2 10.9 10.5 17.2z"/>
			<path id="&lt;Path&gt;" class="s1" d="m779.1 841.7c0.1-1.6 1.5-2.4 3-2.4 1.5 0 2.6 1.6 2.5 3-0.2 1.6-1.6 2.4-3.1 2.4-1.5 0-2.6-1.6-2.4-3z"/>
			<path id="&lt;Path&gt;" class="s1" d="m774.4 827.7c0.2-1.6 1.6-2.5 3.1-2.5 1.5 0 2.6 1.7 2.4 3.1-0.2 1.6-1.6 2.4-3 2.4-1.5 0-2.6-1.7-2.5-3z"/>
			<path id="&lt;Path&gt;" class="s1" d="m765.8 832.7c0.2-1.6 1.6-2.4 3.1-2.4 1.5 0 2.6 1.7 2.4 3-0.2 1.6-1.6 2.5-3 2.5-1.5 0-2.6-1.7-2.5-3.1z"/>
			<path id="&lt;Path&gt;" class="s1" d="m777.6 879.7c-0.2-1.6-1.6-2.5-3.1-2.5-1.4 0-2.5 1.7-2.4 3.1 0.2 1.6 1.6 2.4 3.1 2.4 1.5 0 2.6-1.7 2.4-3z"/>
			<path id="&lt;Path&gt;" class="s1" d="m746.5 877c-0.2-1.6-1.6-2.4-3.1-2.4-1.5 0-2.5 1.7-2.4 3 0.2 1.6 1.6 2.5 3.1 2.5 1.4 0 2.5-1.7 2.4-3.1z"/>
		</g>
	</g>
</svg>