<svg version="1.2" xmlns="http://www.w3.org/2000/svg" viewBox="0 0 1000 1000" width="500" height="500">
	<title>6196252-ai</title>
	<defs>
		<clipPath clipPathUnits="userSpaceOnUse" id="cp1">
			<path d="m1000 1000h-1000v-717.18h1000z"/>
		</clipPath>
	</defs>
	<style>
		.s0 { fill: #23a9d8 } 
		.s1 { fill: #22b8e0 } 
		.s2 { fill: #032544 } 
		.s3 { fill: #ffffff } 
		.s4 { fill: #d17446 } 
		.s5 { opacity: .3;mix-blend-mode: overlay;fill: #032544 } 
		.s6 { opacity: .2;mix-blend-mode: multiply;fill: #032544 } 
		.s7 { fill: #d1dbdb } 
		.s8 { fill: #ffbe06 } 
		.s9 { fill: #f49c00 } 
		.s10 { fill: #fc563a } 
		.s11 { fill: #51d2f4 } 
		.s12 { fill: #ffa96e } 
		.s13 { fill: #031b2d } 
	</style>
	<g id="OBJECTS">
		<g id="&lt;Clip Group&gt;" clip-path="url(#cp1)">
			<g id="&lt;Group&gt;">
				<g id="&lt;Group&gt;">
					<path id="&lt;Path&gt;" class="s0" d="m900.7 752.4l1.6-0.9 55.7 32.2-1.5 0.9z"/>
				</g>
				<g id="&lt;Group&gt;">
					<g id="&lt;Group&gt;">
						<path id="&lt;Path&gt;" class="s0" d="m440.6 420.8l1.6-1 56.6 32.7-1.6 0.9z"/>
					</g>
					<g id="&lt;Group&gt;">
						<path id="&lt;Path&gt;" class="s0" d="m498.8 454.3l1.6-0.9 55.8 32.2-1.6 0.9z"/>
					</g>
					<g id="&lt;Group&gt;">
						<path id="&lt;Path&gt;" class="s0" d="m383.6 453.9l1.6-0.9 56.6 32.6-1.6 0.9z"/>
					</g>
					<g id="&lt;Group&gt;">
						<path id="&lt;Path&gt;" class="s0" d="m556.2 487.5l1.6-1 55.7 32.2-1.6 0.9z"/>
					</g>
					<g id="&lt;Group&gt;">
						<path id="&lt;Path&gt;" class="s0" d="m441.8 487.5l1.6-1 55.8 32.2-1.6 1z"/>
					</g>
					<g id="&lt;Group&gt;">
						<path id="&lt;Path&gt;" class="s0" d="m326.7 487l1.6-0.9 56.5 32.6-1.6 0.9z"/>
					</g>
					<g id="&lt;Group&gt;">
						<path id="&lt;Path&gt;" class="s0" d="m613.5 520.6l1.6-1 55.8 32.2-1.6 1z"/>
					</g>
					<g id="&lt;Group&gt;">
						<path id="&lt;Path&gt;" class="s0" d="m499.2 520.6l1.6-0.9 55.7 32.1-1.6 1z"/>
					</g>
					<g id="&lt;Group&gt;">
						<path id="&lt;Path&gt;" class="s0" d="m384.8 520.6l1.6-1 55.8 32.2-1.6 1z"/>
					</g>
					<g id="&lt;Group&gt;">
						<path id="&lt;Path&gt;" class="s0" d="m269.7 520.1l1.6-0.9 56.5 32.6-1.6 1z"/>
					</g>
					<g id="&lt;Group&gt;">
						<path id="&lt;Path&gt;" class="s0" d="m670.9 553.7l1.6-0.9 55.7 32.2-1.5 0.9z"/>
					</g>
					<g id="&lt;Group&gt;">
						<path id="&lt;Path&gt;" class="s0" d="m556.5 553.7l1.6-0.9 55.8 32.2-1.6 0.9z"/>
					</g>
					<g id="&lt;Group&gt;">
						<path id="&lt;Path&gt;" class="s0" d="m442.2 553.7l1.6-0.9 55.7 32.2-1.5 0.9z"/>
					</g>
					<g id="&lt;Group&gt;">
						<path id="&lt;Path&gt;" class="s0" d="m327.8 553.7l1.6-0.9 55.8 32.2-1.6 0.9z"/>
					</g>
					<g id="&lt;Group&gt;">
						<path id="&lt;Path&gt;" class="s0" d="m212.7 553.2l1.6-0.9 56.5 32.7-1.5 0.9z"/>
					</g>
					<g id="&lt;Group&gt;">
						<path id="&lt;Path&gt;" class="s0" d="m728.3 586.8l1.5-0.9 55.8 32.2-1.6 0.9z"/>
					</g>
					<g id="&lt;Group&gt;">
						<path id="&lt;Path&gt;" class="s0" d="m613.9 586.8l1.6-0.9 55.7 32.2-1.5 0.9z"/>
					</g>
					<g id="&lt;Group&gt;">
						<path id="&lt;Path&gt;" class="s0" d="m499.6 586.8l1.5-0.9 55.8 32.2-1.6 0.9z"/>
					</g>
					<g id="&lt;Group&gt;">
						<path id="&lt;Path&gt;" class="s0" d="m385.2 586.8l1.6-0.9 55.7 32.2-1.5 0.9z"/>
					</g>
					<g id="&lt;Group&gt;">
						<path id="&lt;Path&gt;" class="s0" d="m270.9 586.8l1.5-0.9 55.8 32.2-1.6 0.9z"/>
					</g>
					<g id="&lt;Group&gt;">
						<path id="&lt;Path&gt;" class="s0" d="m155.7 586.4l1.6-1 56.5 32.7-1.5 0.9z"/>
					</g>
					<g id="&lt;Group&gt;">
						<path id="&lt;Path&gt;" class="s0" d="m785.6 619.9l1.6-0.9 55.8 32.2-1.6 0.9z"/>
					</g>
					<g id="&lt;Group&gt;">
						<path id="&lt;Path&gt;" class="s0" d="m671.3 619.9l1.5-0.9 55.8 32.2-1.6 0.9z"/>
					</g>
					<g id="&lt;Group&gt;">
						<path id="&lt;Path&gt;" class="s0" d="m556.9 619.9l1.6-0.9 55.8 32.2-1.6 0.9z"/>
					</g>
					<g id="&lt;Group&gt;">
						<path id="&lt;Path&gt;" class="s0" d="m442.6 619.9l1.5-0.9 55.8 32.2-1.6 0.9z"/>
					</g>
					<g id="&lt;Group&gt;">
						<path id="&lt;Path&gt;" class="s0" d="m328.2 619.9l1.6-0.9 55.8 32.2-1.6 0.9z"/>
					</g>
					<g id="&lt;Group&gt;">
						<path id="&lt;Path&gt;" class="s0" d="m213.9 619.9l1.5-0.9 55.8 32.2-1.6 0.9z"/>
					</g>
					<g id="&lt;Group&gt;">
						<path id="&lt;Path&gt;" class="s0" d="m98.7 619.5l1.6-1 56.6 32.7-1.6 0.9z"/>
					</g>
					<g id="&lt;Group&gt;">
						<path id="&lt;Path&gt;" class="s0" d="m843 653l1.6-0.9 55.7 32.2-1.6 0.9z"/>
					</g>
					<g id="&lt;Group&gt;">
						<path id="&lt;Path&gt;" class="s0" d="m728.6 653l1.6-0.9 55.8 32.2-1.6 0.9z"/>
					</g>
					<g id="&lt;Group&gt;">
						<path id="&lt;Path&gt;" class="s0" d="m614.3 653l1.6-0.9 55.7 32.2-1.6 0.9z"/>
					</g>
					<g id="&lt;Group&gt;">
						<path id="&lt;Path&gt;" class="s0" d="m499.9 653.1l1.6-1 55.8 32.2-1.6 0.9z"/>
					</g>
					<g id="&lt;Group&gt;">
						<path id="&lt;Path&gt;" class="s0" d="m385.6 653l1.6-0.9 55.7 32.2-1.6 0.9z"/>
					</g>
					<g id="&lt;Group&gt;">
						<path id="&lt;Path&gt;" class="s0" d="m271.2 653.1l1.6-1 55.8 32.2-1.6 0.9z"/>
					</g>
					<g id="&lt;Group&gt;">
						<path id="&lt;Path&gt;" class="s0" d="m156.9 653l1.6-0.9 55.7 32.2-1.6 0.9z"/>
					</g>
					<g id="&lt;Group&gt;">
						<path id="&lt;Path&gt;" class="s0" d="m41.7 652.6l1.6-0.9 56.6 32.6-1.6 0.9z"/>
					</g>
					<g id="&lt;Group&gt;">
						<path id="&lt;Path&gt;" class="s0" d="m900.3 686.2l1.6-1 55.8 32.2-1.6 1z"/>
					</g>
					<g id="&lt;Group&gt;">
						<path id="&lt;Path&gt;" class="s0" d="m786 686.2l1.6-1 55.7 32.2-1.6 1z"/>
					</g>
					<g id="&lt;Group&gt;">
						<path id="&lt;Path&gt;" class="s0" d="m671.6 686.2l1.6-1 55.8 32.2-1.6 1z"/>
					</g>
					<g id="&lt;Group&gt;">
						<path id="&lt;Path&gt;" class="s0" d="m557.3 686.2l1.6-1 55.7 32.2-1.6 1z"/>
					</g>
					<g id="&lt;Group&gt;">
						<path id="&lt;Path&gt;" class="s0" d="m442.9 686.2l1.6-1 55.8 32.2-1.6 1z"/>
					</g>
					<g id="&lt;Group&gt;">
						<path id="&lt;Path&gt;" class="s0" d="m328.6 686.2l1.6-1 55.7 32.2-1.6 1z"/>
					</g>
					<g id="&lt;Group&gt;">
						<path id="&lt;Path&gt;" class="s0" d="m214.2 686.2l1.6-1 55.8 32.2-1.6 1z"/>
					</g>
					<g id="&lt;Group&gt;">
						<path id="&lt;Path&gt;" class="s0" d="m99.9 686.2l1.6-1 55.7 32.2-1.6 1z"/>
					</g>
					<g id="&lt;Group&gt;">
						<path id="&lt;Path&gt;" class="s0" d="m-15.3 685.7l1.6-0.9 56.6 32.6-1.6 1z"/>
					</g>
					<g id="&lt;Group&gt;">
						<path id="&lt;Path&gt;" class="s0" d="m957.7 719.3l1.6-0.9 55.7 32.1-1.5 1z"/>
					</g>
					<g id="&lt;Group&gt;">
						<path id="&lt;Path&gt;" class="s0" d="m843.3 719.3l1.6-0.9 55.8 32.2-1.6 0.9z"/>
					</g>
					<g id="&lt;Group&gt;">
						<path id="&lt;Path&gt;" class="s0" d="m729 719.3l1.6-0.9 55.7 32.1-1.5 1z"/>
					</g>
					<g id="&lt;Group&gt;">
						<path id="&lt;Path&gt;" class="s0" d="m614.6 719.3l1.6-0.9 55.8 32.2-1.6 0.9z"/>
					</g>
					<g id="&lt;Group&gt;">
						<path id="&lt;Path&gt;" class="s0" d="m500.3 719.3l1.6-0.9 55.7 32.1-1.5 1z"/>
					</g>
					<g id="&lt;Group&gt;">
						<path id="&lt;Path&gt;" class="s0" d="m385.9 719.3l1.6-0.9 55.8 32.2-1.6 0.9z"/>
					</g>
					<g id="&lt;Group&gt;">
						<path id="&lt;Path&gt;" class="s0" d="m271.6 719.3l1.6-0.9 55.7 32.1-1.5 1z"/>
					</g>
					<g id="&lt;Group&gt;">
						<path id="&lt;Path&gt;" class="s0" d="m157.2 719.3l1.6-0.9 55.8 32.1-1.6 1z"/>
					</g>
					<g id="&lt;Group&gt;">
						<path id="&lt;Path&gt;" class="s0" d="m42.9 719.3l1.6-0.9 55.8 32.2-1.6 0.9z"/>
					</g>
					<g id="&lt;Group&gt;">
						<path id="&lt;Path&gt;" class="s0" d="m-72.3 718.8l1.6-0.9 56.6 32.6-1.6 1z"/>
					</g>
					<g id="&lt;Group&gt;">
						<path id="&lt;Path&gt;" class="s0" d="m1016.6 751.5l56.6 32.6-1.6 0.9-56.5-32.6z"/>
					</g>
					<g id="&lt;Group&gt;">
						<path id="&lt;Path&gt;" class="s0" d="m786.4 752.4l1.5-0.9 55.8 32.2-1.6 0.9z"/>
					</g>
					<g id="&lt;Group&gt;">
						<path id="&lt;Path&gt;" class="s0" d="m672 752.4l1.6-0.9 55.7 32.2-1.5 0.9z"/>
					</g>
					<g id="&lt;Group&gt;">
						<path id="&lt;Path&gt;" class="s0" d="m557.7 752.4l1.5-0.9 55.8 32.2-1.6 0.9z"/>
					</g>
					<g id="&lt;Group&gt;">
						<path id="&lt;Path&gt;" class="s0" d="m443.3 752.4l1.6-0.9 55.7 32.2-1.5 0.9z"/>
					</g>
					<g id="&lt;Group&gt;">
						<path id="&lt;Path&gt;" class="s0" d="m329 752.4l1.6-0.9 55.7 32.2-1.6 0.9z"/>
					</g>
					<g id="&lt;Group&gt;">
						<path id="&lt;Path&gt;" class="s0" d="m214.6 752.4l1.6-0.9 55.8 32.2-1.6 0.9z"/>
					</g>
					<g id="&lt;Group&gt;">
						<path id="&lt;Path&gt;" class="s0" d="m100.3 752.4l1.6-0.9 55.7 32.2-1.6 0.9z"/>
					</g>
					<g id="&lt;Group&gt;">
						<path id="&lt;Path&gt;" class="s0" d="m-14.1 752.4l1.6-0.9 55.8 32.2-1.6 0.9z"/>
					</g>
					<g id="&lt;Group&gt;">
						<path id="&lt;Path&gt;" class="s0" d="m556.6 420.8l-56.2 32.6-1.6 0.9-55.4 32.2-1.6 1-55.4 32.1-1.6 1-55.4 32.2-1.6 0.9-55.4 32.2-1.5 0.9-55.5 32.2-1.5 0.9-55.4 32.2-1.6 0.9-55.4 32.2-1.6 1-55.4 32.2-1.6 0.9-55.4 32.2-1.6 0.9-56.2 32.7-1.6-1 56.2-32.6 1.6-1 55.4-32.1 1.6-1 55.4-32.2 1.6-0.9 55.4-32.2 1.6-0.9 55.4-32.2 1.5-0.9 55.5-32.2 1.5-0.9 55.4-32.2 1.6-1 55.4-32.2 1.6-0.9 55.4-32.2 1.6-0.9 55.4-32.2 1.6-0.9 56.2-32.7z"/>
					</g>
					<g id="&lt;Group&gt;">
						<path id="&lt;Path&gt;" class="s0" d="m843.7 785.5l1.6-0.9 55.8 32.2-1.6 0.9z"/>
					</g>
					<g id="&lt;Group&gt;">
						<path id="&lt;Path&gt;" class="s0" d="m959.6 784.6l56.6 32.6-1.6 1-56.5-32.7z"/>
					</g>
					<g id="&lt;Group&gt;">
						<path id="&lt;Path&gt;" class="s0" d="m729.4 785.5l1.5-0.9 55.8 32.2-1.6 0.9z"/>
					</g>
					<g id="&lt;Group&gt;">
						<path id="&lt;Path&gt;" class="s0" d="m615 785.5l1.6-0.9 55.8 32.2-1.6 0.9z"/>
					</g>
					<g id="&lt;Group&gt;">
						<path id="&lt;Path&gt;" class="s0" d="m500.7 785.5l1.5-0.9 55.8 32.2-1.6 0.9z"/>
					</g>
					<g id="&lt;Group&gt;">
						<path id="&lt;Path&gt;" class="s0" d="m386.3 785.5l1.6-0.9 55.8 32.2-1.6 0.9z"/>
					</g>
					<g id="&lt;Group&gt;">
						<path id="&lt;Path&gt;" class="s0" d="m272 785.5l1.6-0.9 55.7 32.2-1.6 0.9z"/>
					</g>
					<g id="&lt;Group&gt;">
						<path id="&lt;Path&gt;" class="s0" d="m157.6 785.5l1.6-0.9 55.8 32.2-1.6 0.9z"/>
					</g>
					<g id="&lt;Group&gt;">
						<path id="&lt;Path&gt;" class="s0" d="m43.3 785.5l1.6-0.9 55.7 32.2-1.6 0.9z"/>
					</g>
					<g id="&lt;Group&gt;">
						<path id="&lt;Path&gt;" class="s0" d="m614 453.9l-56.2 32.6-1.6 1-55.4 32.2-1.6 0.9-55.4 32.2-1.6 0.9-55.4 32.2-1.6 0.9-55.4 32.2-1.6 0.9-55.4 32.2-1.6 1-55.4 32.1-1.6 1-55.4 32.2-1.6 0.9-55.3 32.2-1.6 0.9-55.4 32.2-1.6 0.9-56.2 32.7-1.6-0.9 56.2-32.7 1.6-0.9 55.4-32.2 1.6-0.9 55.3-32.2 1.7-1 55.3-32.2 1.6-0.9 55.4-32.2 1.6-0.9 55.4-32.2 1.6-0.9 55.4-32.2 1.6-0.9 55.4-32.2 1.6-1 55.4-32.1 1.6-1 55.4-32.2 1.6-0.9 56.2-32.6z"/>
					</g>
					<g id="&lt;Group&gt;">
						<path id="&lt;Path&gt;" class="s0" d="m786.7 818.6l1.6-0.9 55.8 32.2-1.6 0.9z"/>
					</g>
					<g id="&lt;Group&gt;">
						<path id="&lt;Path&gt;" class="s0" d="m902.7 817.7l56.5 32.7-1.6 0.9-56.5-32.7z"/>
					</g>
					<g id="&lt;Group&gt;">
						<path id="&lt;Path&gt;" class="s0" d="m672.4 818.6l1.6-0.9 55.7 32.2-1.6 0.9z"/>
					</g>
					<g id="&lt;Group&gt;">
						<path id="&lt;Path&gt;" class="s0" d="m558 818.6l1.6-0.9 55.8 32.2-1.6 0.9z"/>
					</g>
					<g id="&lt;Group&gt;">
						<path id="&lt;Path&gt;" class="s0" d="m443.7 818.6l1.6-0.9 55.7 32.2-1.6 0.9z"/>
					</g>
					<g id="&lt;Group&gt;">
						<path id="&lt;Path&gt;" class="s0" d="m329.3 818.6l1.6-0.9 55.8 32.2-1.6 0.9z"/>
					</g>
					<g id="&lt;Group&gt;">
						<path id="&lt;Path&gt;" class="s0" d="m215 818.6l1.6-0.9 55.7 32.2-1.6 0.9z"/>
					</g>
					<g id="&lt;Group&gt;">
						<path id="&lt;Path&gt;" class="s0" d="m100.6 818.6l1.6-0.9 55.8 32.2-1.6 0.9z"/>
					</g>
					<g id="&lt;Group&gt;">
						<path id="&lt;Path&gt;" class="s0" d="m671.3 487l-56.2 32.6-1.6 1-55.4 32.2-1.6 0.9-55.4 32.2-1.5 0.9-55.5 32.2-1.5 0.9-55.4 32.2-1.6 0.9-55.4 32.2-1.6 1-55.4 32.2-1.6 0.9-55.4 32.2-1.6 0.9-55.4 32.2-1.6 0.9-55.4 32.2-1.6 0.9-56.2 32.7-1.6-0.9 56.2-32.7 1.6-0.9 55.4-32.2 1.6-0.9 55.4-32.2 1.6-1 55.4-32.1 1.6-1 55.4-32.2 1.6-0.9 55.4-32.2 1.6-0.9 55.4-32.2 1.5-0.9 55.5-32.2 1.5-0.9 55.4-32.2 1.6-1 55.4-32.2 1.6-0.9 56.2-32.6z"/>
					</g>
					<g id="&lt;Group&gt;">
						<path id="&lt;Path&gt;" class="s0" d="m729.7 851.7l1.6-0.9 55.8 32.2-1.6 0.9z"/>
					</g>
					<g id="&lt;Group&gt;">
						<path id="&lt;Path&gt;" class="s0" d="m845.7 850.8l56.5 32.7-1.6 0.9-56.5-32.7z"/>
					</g>
					<g id="&lt;Group&gt;">
						<path id="&lt;Path&gt;" class="s0" d="m615.4 851.7l1.6-0.9 55.7 32.2-1.6 0.9z"/>
					</g>
					<g id="&lt;Group&gt;">
						<path id="&lt;Path&gt;" class="s0" d="m501 851.7l1.6-0.9 55.8 32.2-1.6 0.9z"/>
					</g>
					<g id="&lt;Group&gt;">
						<path id="&lt;Path&gt;" class="s0" d="m386.7 851.7l1.6-0.9 55.8 32.2-1.7 0.9z"/>
					</g>
					<g id="&lt;Group&gt;">
						<path id="&lt;Path&gt;" class="s0" d="m272.3 851.8l1.6-1 55.8 32.2-1.6 0.9z"/>
					</g>
					<g id="&lt;Group&gt;">
						<path id="&lt;Path&gt;" class="s0" d="m158 851.8l1.6-1 55.7 32.2-1.6 1z"/>
					</g>
					<g id="&lt;Group&gt;">
						<path id="&lt;Path&gt;" class="s0" d="m728.7 520.1l-56.2 32.7-1.6 0.9-55.4 32.2-1.6 0.9-55.4 32.2-1.6 0.9-55.4 32.2-1.6 1-55.4 32.1-1.6 1-55.4 32.2-1.6 0.9-55.3 32.2-1.6 0.9-55.4 32.2-1.6 0.9-55.4 32.2-1.6 0.9-55.4 32.2-1.6 1-56.2 32.6-1.6-0.9 56.2-32.7 1.6-0.9 55.4-32.2 1.6-0.9 55.4-32.2 1.6-0.9 55.4-32.2 1.5-1 55.4-32.1 1.6-1 55.4-32.2 1.6-0.9 55.4-32.2 1.6-0.9 55.4-32.2 1.6-0.9 55.4-32.2 1.6-0.9 55.4-32.2 1.6-1 56.2-32.6z"/>
					</g>
					<g id="&lt;Group&gt;">
						<path id="&lt;Path&gt;" class="s0" d="m672.7 884.9l1.6-1 55.8 32.2-1.6 1z"/>
					</g>
					<g id="&lt;Group&gt;">
						<path id="&lt;Path&gt;" class="s0" d="m788.7 883.9l56.5 32.7-1.5 0.9-56.6-32.6z"/>
					</g>
					<g id="&lt;Group&gt;">
						<path id="&lt;Path&gt;" class="s0" d="m558.4 884.9l1.6-1 55.8 32.2-1.6 1z"/>
					</g>
					<g id="&lt;Group&gt;">
						<path id="&lt;Path&gt;" class="s0" d="m444 884.9l1.6-1 55.8 32.2-1.6 1z"/>
					</g>
					<g id="&lt;Group&gt;">
						<path id="&lt;Path&gt;" class="s0" d="m329.7 884.9l1.6-1 55.8 32.2-1.6 1z"/>
					</g>
					<g id="&lt;Group&gt;">
						<path id="&lt;Path&gt;" class="s0" d="m215.3 884.9l1.6-1 55.8 32.2-1.6 1z"/>
					</g>
					<g id="&lt;Group&gt;">
						<path id="&lt;Path&gt;" class="s0" d="m786 553.2l-56.2 32.7-1.5 0.9-55.5 32.2-1.5 0.9-55.4 32.2-1.6 0.9-55.4 32.2-1.6 1-55.4 32.2-1.6 0.9-55.4 32.2-1.6 0.9-55.4 32.2-1.6 0.9-55.4 32.2-1.6 0.9-55.4 32.2-1.6 1-55.4 32.1-1.6 1-56.1 32.6-1.6-0.9 56.1-32.6 1.7-1 55.3-32.2 1.6-0.9 55.4-32.2 1.6-0.9 55.4-32.2 1.6-0.9 55.4-32.2 1.6-0.9 55.4-32.2 1.6-1 55.4-32.2 1.6-0.9 55.4-32.2 1.6-0.9 55.4-32.2 1.5-0.9 55.5-32.2 1.5-0.9 56.2-32.7z"/>
					</g>
					<g id="&lt;Group&gt;">
						<path id="&lt;Path&gt;" class="s0" d="m615.8 918l1.6-0.9 55.7 32.2-1.6 0.9z"/>
					</g>
					<g id="&lt;Group&gt;">
						<path id="&lt;Path&gt;" class="s0" d="m731.7 917.1l56.6 32.6-1.6 0.9-56.6-32.6z"/>
					</g>
					<g id="&lt;Group&gt;">
						<path id="&lt;Path&gt;" class="s0" d="m501.4 918l1.6-0.9 55.8 32.2-1.6 0.9z"/>
					</g>
					<g id="&lt;Group&gt;">
						<path id="&lt;Path&gt;" class="s0" d="m387.1 918l1.6-0.9 55.7 32.2-1.6 0.9z"/>
					</g>
					<g id="&lt;Group&gt;">
						<path id="&lt;Path&gt;" class="s0" d="m272.7 918l1.6-0.9 55.8 32.2-1.6 0.9z"/>
					</g>
					<g id="&lt;Group&gt;">
						<path id="&lt;Path&gt;" class="s0" d="m843.4 586.3l-56.2 32.7-1.6 0.9-55.4 32.2-1.6 0.9-55.4 32.2-1.6 1-55.4 32.2-1.6 0.9-55.4 32.2-1.5 0.9-55.5 32.2-1.5 0.9-55.4 32.2-1.6 0.9-55.4 32.2-1.6 1-55.4 32.1-1.6 1-55.4 32.2-1.6 0.9-56.2 32.6-1.6-0.9 56.2-32.6 1.6-1 55.4-32.2 1.6-0.9 55.4-32.2 1.6-0.9 55.4-32.2 1.6-0.9 55.4-32.2 1.5-0.9 55.5-32.2 1.5-1 55.4-32.1 1.6-1 55.4-32.2 1.6-0.9 55.4-32.2 1.6-0.9 55.4-32.2 1.6-0.9 56.2-32.7z"/>
					</g>
					<g id="&lt;Group&gt;">
						<path id="&lt;Path&gt;" class="s0" d="m558.8 951.1l1.6-0.9 55.7 32.2-1.6 0.9z"/>
					</g>
					<g id="&lt;Group&gt;">
						<path id="&lt;Path&gt;" class="s0" d="m674.7 950.2l56.6 32.6-1.6 1-56.6-32.7z"/>
					</g>
					<g id="&lt;Group&gt;">
						<path id="&lt;Path&gt;" class="s0" d="m444.4 951.1l1.6-0.9 55.8 32.2-1.6 0.9z"/>
					</g>
					<g id="&lt;Group&gt;">
						<path id="&lt;Path&gt;" class="s0" d="m330.1 951.1l1.6-0.9 55.7 32.2-1.6 0.9z"/>
					</g>
					<g id="&lt;Group&gt;">
						<path id="&lt;Path&gt;" class="s0" d="m900.8 619.5l-56.2 32.6-1.6 0.9-55.4 32.2-1.6 1-55.4 32.2-1.6 0.9-55.4 32.2-1.6 0.9-55.4 32.2-1.6 0.9-55.4 32.2-1.6 0.9-55.4 32.2-1.6 0.9-55.4 32.2-1.6 1-55.3 32.2-1.6 0.9-55.4 32.2-1.6 0.9-56.2 32.7-1.6-1 56.2-32.6 1.6-0.9 55.4-32.2 1.6-1 55.3-32.2 1.7-0.9 55.3-32.2 1.6-0.9 55.4-32.2 1.6-0.9 55.4-32.2 1.6-0.9 55.4-32.2 1.6-0.9 55.4-32.2 1.6-1 55.4-32.2 1.6-0.9 55.4-32.2 1.6-0.9 56.2-32.7z"/>
					</g>
					<g id="&lt;Group&gt;">
						<path id="&lt;Path&gt;" class="s0" d="m501.8 984.2l1.6-0.9 55.7 32.2-1.6 0.9z"/>
					</g>
					<g id="&lt;Group&gt;">
						<path id="&lt;Path&gt;" class="s0" d="m617.7 983.3l56.6 32.6-1.6 1-56.6-32.7z"/>
					</g>
					<g id="&lt;Group&gt;">
						<path id="&lt;Path&gt;" class="s0" d="m387.4 984.2l1.6-0.9 55.8 32.2-1.6 0.9z"/>
					</g>
					<g id="&lt;Group&gt;">
						<path id="&lt;Path&gt;" class="s0" d="m958.1 652.6l-56.2 32.6-1.6 1-55.4 32.2-1.6 0.9-55.4 32.2-1.5 0.9-55.5 32.2-1.5 0.9-55.4 32.2-1.6 0.9-55.4 32.2-1.6 0.9-55.4 32.2-1.6 1-55.4 32.2-1.6 0.9-55.4 32.2-1.6 0.9-55.4 32.2-1.6 0.9-56.2 32.7-1.6-1 56.2-32.6 1.6-0.9 55.4-32.2 1.6-0.9 55.4-32.2 1.6-1 55.4-32.2 1.6-0.9 55.4-32.2 1.6-0.9 55.4-32.2 1.6-0.9 55.4-32.2 1.5-0.9 55.5-32.2 1.5-1 55.4-32.1 1.6-1 55.4-32.2 1.6-0.9 56.2-32.6z"/>
					</g>
					<g id="&lt;Group&gt;">
						<path id="&lt;Path&gt;" class="s0" d="m444.8 1017.3l1.6-0.9 55.8 32.2-1.7 0.9z"/>
					</g>
					<g id="&lt;Group&gt;">
						<path id="&lt;Path&gt;" class="s0" d="m560.7 1016.4l56.6 32.7-1.6 0.9-56.6-32.7z"/>
					</g>
					<g id="&lt;Group&gt;">
						<path id="&lt;Path&gt;" class="s0" d="m1015.5 685.7l-56.2 32.7-1.6 0.9-55.4 32.2-1.6 0.9-55.4 32.2-1.6 0.9-55.4 32.2-1.6 0.9-55.4 32.2-1.6 0.9-55.4 32.2-1.6 1-55.3 32.2-1.6 0.9-55.4 32.2-1.6 0.9-55.4 32.2-1.6 0.9-55.4 32.2-1.6 0.9-56.2 32.7-1.6-0.9 56.2-32.7 1.6-0.9 55.4-32.2 1.6-0.9 55.4-32.2 1.6-0.9 55.4-32.2 1.6-1 55.3-32.2 1.6-0.9 55.4-32.2 1.6-0.9 55.4-32.2 1.6-0.9 55.4-32.2 1.6-0.9 55.4-32.2 1.6-0.9 55.4-32.2 1.6-1 56.2-32.6z"/>
					</g>
					<g id="&lt;Group&gt;">
						<path id="&lt;Path&gt;" class="s0" d="m503.7 1049.5l56.6 32.7-1.6 0.9-56.6-32.6z"/>
					</g>
					<g id="&lt;Group&gt;">
						<path id="&lt;Path&gt;" class="s0" d="m1072.8 718.8l-56.2 32.7-1.5 0.9-55.5 32.2-1.5 0.9-55.4 32.2-1.6 0.9-55.4 32.2-1.6 0.9-55.4 32.2-1.6 1-55.4 32.2-1.6 0.9-55.4 32.2-1.6 0.9-55.4 32.2-1.6 0.9-55.4 32.2-1.6 0.9-55.4 32.2-1.6 1-56.1 32.6-1.6-0.9 56.1-32.7 1.7-0.9 55.3-32.2 1.6-0.9 55.4-32.2 1.6-0.9 55.4-32.2 1.6-0.9 55.4-32.2 1.6-1 55.4-32.2 1.6-0.9 55.4-32.2 1.6-0.9 55.4-32.2 1.6-0.9 55.4-32.2 1.5-0.9 55.5-32.2 1.5-1 56.2-32.6z"/>
					</g>
				</g>
			</g>
		</g>
		<g id="&lt;Group&gt;">
			<g id="&lt;Group&gt;">
				<g id="&lt;Group&gt;">
					<path id="&lt;Path&gt;" class="s1" d="m642.3 89.5l29.2 9v15.6l-29.1-9-29.1 42.6v-15.6z"/>
				</g>
				<g id="&lt;Group&gt;">
					<path id="&lt;Path&gt;" class="s1" d="m642.4 120.9l29.2 9v15.6l-29.2-9-29 42.6v-15.6z"/>
				</g>
				<g id="&lt;Group&gt;">
					<path id="&lt;Path&gt;" class="s1" d="m642.5 155.9l29.2 9v15.6l-29.2-9-29 42.6v-15.6z"/>
				</g>
			</g>
			<g id="&lt;Group&gt;">
				<g id="&lt;Group&gt;">
					<path id="&lt;Path&gt;" class="s1" d="m741.3 349.7l-29.2-9-0.1-15.6 29.2 9 29-42.6 0.1 15.6z"/>
				</g>
				<g id="&lt;Group&gt;">
					<path id="&lt;Path&gt;" class="s1" d="m741.2 318.3l-29.2-9v-15.6l29.1 9 29.1-42.6v15.6z"/>
				</g>
				<g id="&lt;Group&gt;">
					<path id="&lt;Path&gt;" class="s1" d="m741.1 283.3l-29.2-9v-15.6l29.1 9 29.1-42.6v15.6z"/>
				</g>
			</g>
		</g>
		<g id="&lt;Group&gt;">
			<g id="&lt;Group&gt;" style="opacity: .5">
				<g id="&lt;Group&gt;" style="opacity: .3">
					<path id="&lt;Path&gt;" class="s2" d="m342.1 794c57.7 33.3 58 87.4 0.7 120.7-57.4 33.4-150.8 33.4-208.5 0-57.7-33.3-58.1-87.4-0.7-120.7 57.4-33.4 150.7-33.4 208.5 0z"/>
				</g>
				<g id="&lt;Group&gt;" style="opacity: .3">
					<path id="&lt;Path&gt;" class="s2" d="m320.3 806.6c45.6 26.4 45.8 69.1 0.5 95.4-45.3 26.4-119.1 26.4-164.7 0-45.6-26.3-45.9-69-0.5-95.3 45.3-26.4 119.1-26.4 164.7-0.1z"/>
				</g>
				<g id="&lt;Group&gt;" style="opacity: .3">
					<path id="&lt;Path&gt;" class="s2" d="m300 818.4c34.4 19.9 34.6 52 0.4 71.9-34.1 19.8-89.7 19.8-124 0-34.4-19.9-34.6-52-0.4-71.9 34.1-19.8 89.7-19.8 124 0z"/>
				</g>
				<g id="&lt;Group&gt;" style="opacity: .3">
					<path id="&lt;Path&gt;" class="s2" d="m281.3 829.3c23.9 13.8 24 36.3 0.3 50.1-23.8 13.8-62.6 13.8-86.5 0-23.9-13.8-24.1-36.3-0.3-50.1 23.8-13.8 62.5-13.8 86.5 0z"/>
				</g>
			</g>
			<g id="&lt;Group&gt;">
				<path id="&lt;Path&gt;" class="s2" d="m310.2 275.5c-2 8.3-7.2 15.7-14.3 20.4-7.1 4.6-16 6.4-24.4 4.9-1.9-0.3-3.9-0.8-5.9-0.6-3.5 0.4-6.3 3.1-9.1 5.3-9.5 7.3-22.7 9.7-34.2 6.1-11.3-3.5-20.6-12.6-24.5-23.7-7.1-4-10.5-13.1-9.7-21.4 0.8-8.7 5.4-16.6 10.5-23.7 5.1-7.1 10.8-17.6 14.5-25.6 2.7-5.8 4.1-12.2 5.8-18.5 1.7-6.2 3.6-12.5 7.2-17.9 3.5-5.4 8.8-10 15.2-11.2 6.6-5.3 15.3-7.9 23.7-7.1 8.6 0.7 16.8 5 22.4 11.6 6.7 8 9.3 18.6 11.7 28.8 2.9 12.6 5.9 29 8.8 41.6 2.4 10.2 4.8 20.8 2.3 31z"/>
				<path id="&lt;Compound Path&gt;" class="s1" d="m453.8 237.7l-68.8 29.5c0 0-76.7-13.5-105-12.2-28.4 1.3-25.7 2.2-25.7 2.2 0 0-43.9 17.3-59 27.6l21.5 81.2 9.6 36.3c0 0-0.3 0.7-0.9 1.9-1.5 3.6-4.9 11.5-8.9 20.9-6.8 16.2-15.1 36.8-17.8 46l-0.1 0.4c-0.2 1-0.4 1.8-0.5 2.4h-0.1q0 0.1 0.2 0.2c0.3 0.1 0.9 0.5 1.7 1.1q0.1 0 0.1 0.1c6.8 4.3 29.3 18.9 47.8 28.7 2.4 1.4 4.8 2.6 7.1 3.7 15.5 7.7 71.8-35.1 71.8-35.1q0 0 0 0c-1.2-67-6.9-105-6.9-105 0 0 11.2-10 11.9-21.5 0.6-11.6-14.4-38-14.4-38 0 0 62.6 9.8 68.5 9.1 1-0.1 3.9-1.6 8.1-4.1 20.1-12 69.3-46.3 69.3-46.3 0 0-13.9-14.1-9.5-29.1z"/>
				<path id="&lt;Path&gt;" class="s3" d="m234.5 265.3l-3.7 1.7 60.5 98.8-6-92.9z"/>
				<path id="&lt;Path&gt;" class="s1" d="m193 791.9c0 0-15.4 50.9-15.7 61.1-0.4 10.1 5.9 28.9 13.1 31 7.2 2 27.6-19.6 29.6-28.2 2.1-8.6 4.3-58.5 4.3-58.5z"/>
				<path id="&lt;Path&gt;" class="s1" d="m273.1 759.1c0 0-10.2 6.6-11.2 17-0.9 10.5 0 58.1 0 58.1l5.4 3.8 6.9-35.9 2.4 40c0 0 33.7 19.4 46.9 16.5 13.2-2.8-17.7-54.7-17.7-54.7l-1.7-48.5z"/>
				<path id="&lt;Path&gt;" class="s4" d="m454 237.5c0 0 31.2-23.5 39.4-26.8 8.2-3.2 20.1-12.2 24.5-11.1 4.5 1.2-10.6 14.7-10.6 14.7 0 0 4.6 5.7 4.3 14.7-0.3 9-13.4 12.6-13.4 12.6 0 0-10.7 19-25.6 14.4l-10.9 8.6c0 0-13.2-14-7.7-27.1z"/>
				<path id="&lt;Path&gt;" class="s2" d="m327 524.4c-2 88.2-19 237.1-19 237.1-20.7 7.4-41.9-4.2-41.9-4.2 0 0-2.6-75.2-3.1-90.1-0.4-14.8 10.1-34.9 10.1-34.9l-6.6-27-34.4 190c-26.8 8.9-43.7-6.7-43.7-6.7l14.2-135.8c0 0-11.5-108.1-7.1-158.7 0.6-6.7 1.5-13.4 2.8-20 0.3 0.1 0.9 0.5 1.7 1.1q0.1 0 0.1 0.1c6.8 4.3 29.3 18.9 47.8 28.7 2.4 1.4 4.8 2.6 7.1 3.7 15.5 7.7 71.8-35.1 71.8-35.1q0 0 0 0 0.2-0.2 0.2-0.2c0.3 16.8 0.4 34.4 0 52z"/>
				<path id="&lt;Path&gt;" class="s5" d="m394 313.1c-4.2 2.5-7.1 4-8.1 4.1-5.9 0.7-68.5-9.1-68.5-9.1l-14.9-23.3z"/>
				<path id="&lt;Path&gt;" class="s5" d="m261.2 405.6l58.8-32.6c0 0-9.1-7.5-25.8-2.1-16.7 5.5-33 34.7-33 34.7z"/>
				<path id="&lt;Path&gt;" class="s6" d="m266.5 605.3l11.9-74.1 36.3-18-41.6 119.1z"/>
				<path id="&lt;Path&gt;" class="s5" d="m226 269.1l6.2 52.9 26.2 8.1-3.6 22.2 36.5 13.5-38.7-63.7-24-34.1z"/>
				<path id="&lt;Path&gt;" class="s5" d="m285.3 272.9l6 92.9 12.9-44.5-11.1-5.8 7.9-23.4-19.5-37.1z"/>
				<path id="&lt;Path&gt;" class="s4" d="m238.5 218.2q0 0 0 0c0 0-4 47.1-4 47.1l36.2 22.1 4.3-15.3-0.1-15.8c-0.8 0.1-5.1 1.3-5.9 1.3-16.8 0-30.5-17.5-30.5-34.3z"/>
				<g id="&lt;Group&gt;" style="opacity: .7;mix-blend-mode: overlay">
					<path id="&lt;Path&gt;" class="s2" d="m274.9 256.3c0 0-3.3 1.1-5.9 1.3-11.8 0.9-22.1-6.9-27.2-16.8 4.8 22.1 24.8 29.6 33.2 31.3 0 0 0.2-11.3-0.1-15.8z"/>
				</g>
				<path id="&lt;Path&gt;" class="s7" d="m235 259.9l-6.4 8.1c2.4 7.7 15.3 24.6 24 34.1 0 0 4.5-17.1 18.1-14.7l-36.2-22.1z"/>
				<path id="&lt;Path&gt;" class="s7" d="m274.9 256.3l2.5-0.9 4.1-0.4c0 0 8.7 19.5 5.8 35.8 0 0-9.9-5.6-16.6-3.4l4.3-15.3z"/>
				<path id="&lt;Path&gt;" class="s5" d="m211.1 343.4l9.3-11.3 14.1 69-8.5 22 4.8 9.7-11.6-13.7 7.2-16.8z"/>
				<path id="&lt;Path&gt;" class="s5" d="m262.7 477.4l-22.1-5-42.3 1.7c0 0 1.6-7.8 5.4-16.9l43.3 3.7z"/>
				<path id="&lt;Path&gt;" class="s4" d="m228.6 434.3l-17.5 25.5c0 0 7.5 17.7 32.4 5.7 0 0 14.9 12 19.2 11.9 4.2-0.1 3.1-15.9-1.5-25.7-4.5-9.9-32.6-17.4-32.6-17.4z"/>
				<path id="&lt;Path&gt;" class="s1" d="m195.3 284.8c0 0-67.3 85.1-62.4 101.3 4.9 16.2 77.4 76.7 77.4 76.7 0 0 19.4-12 20.5-30l-47.4-55.7 37-45c0 0 2.4-52.8-25.1-47.3z"/>
				<path id="&lt;Path&gt;" class="s4" d="m294.4 203v19.9c0 6.5-1.6 16.3-4.5 21.3q-0.1 0-0.1 0c-2.8 5.1-7.1 9-12.4 11.3-0.9 0.4-5.5 2.2-8.5 2.2-12 0-22.5-7-27.6-17h-0.1c-1.3-2.6-2.2-9.2-2.8-12.1-2.4-0.9-4.5-2.5-6-4.7-3.8-5.5-2.9-13.9 1.6-18.8 2.1-2.4 5.1-3.6 8.2-2.5 2.2 0.8 3.8 2.4 4.9 4.4 4.2-8.1 5.5-16.9 5.5-16.9 3.5 5 26.1 20.8 41.8 12.9z"/>
			</g>
		</g>
		<g id="&lt;Group&gt;">
			<g id="&lt;Group&gt;">
				<g id="&lt;Group&gt;">
					<path id="&lt;Path&gt;" class="s8" d="m284.5 414.3l2.2-1.3 0.1 45.6-2.2 1.3z"/>
				</g>
				<g id="&lt;Group&gt;">
					<path id="&lt;Path&gt;" class="s8" d="m285.1 647.8l-0.1-45.9 2.3-1.3 0.1 45.9z"/>
				</g>
				<g id="&lt;Group&gt;">
					<path id="&lt;Path&gt;" class="s8" d="m292.9 455.1c2.7-1.5 4.8-0.3 4.8 2.7l0.4 131.1c0 3-2.1 6.7-4.7 8.2l-6.1 3.5-2.3 1.3-6.1 3.5c-2.6 1.5-4.7 0.3-4.7-2.7l-0.4-131.1c0-3 2.1-6.6 4.7-8.1l6.1-3.6 2.2-1.3z"/>
				</g>
				<g id="&lt;Group&gt;">
					<path id="&lt;Path&gt;" class="s9" d="m322.4 299l2.2-1.3 0.1 31.3-2.3 1.2z"/>
				</g>
				<g id="&lt;Group&gt;">
					<path id="&lt;Path&gt;" class="s9" d="m322.8 458.9l-0.1-31.4 2.2-1.3 0.1 31.5z"/>
				</g>
				<g id="&lt;Group&gt;">
					<path id="&lt;Path&gt;" class="s9" d="m330.8 325.4c2.6-1.5 4.7-0.3 4.7 2.8l0.3 86.3c0 3-2.1 6.7-4.8 8.2l-6.1 3.5-2.2 1.3-6.1 3.5c-2.6 1.5-4.7 0.3-4.7-2.7l-0.3-86.3c0-3 2.1-6.7 4.7-8.2l6.1-3.6 2.3-1.2z"/>
				</g>
				<g id="&lt;Group&gt;">
					<path id="&lt;Path&gt;" class="s8" d="m371.6 347.1l2.2-1.3 0.1 45.6-2.2 1.3z"/>
				</g>
				<g id="&lt;Group&gt;">
					<path id="&lt;Path&gt;" class="s8" d="m380 387.9c2.6-1.6 4.8-0.3 4.8 2.7l0.3 131c0.1 3-2.1 6.7-4.7 8.2l-6.1 3.5-2.2 1.3-6.1 3.5c-2.6 1.5-4.8 0.3-4.8-2.7l-0.3-131c-0.1-3 2.1-6.7 4.7-8.2l6.1-3.5 2.2-1.3z"/>
				</g>
				<g id="&lt;Group&gt;">
					<path id="&lt;Path&gt;" class="s8" d="m372.1 549.8v-15.2l2.2-1.3v15.3z"/>
				</g>
				<g id="&lt;Group&gt;">
					<g id="&lt;Group&gt;">
						<path id="&lt;Path&gt;" class="s9" d="m427.4 365.3c2.6-1.5 4.8-0.3 4.8 2.7v9.7c0 3-2.1 6.7-4.7 8.2l-6.1 3.5-2.3 1.3-6.1 3.5c-2.6 1.5-4.7 0.3-4.7-2.7l-0.1-9.7c0-3 2.1-6.7 4.8-8.2l6.1-3.5 2.2-1.3z"/>
					</g>
					<g id="&lt;Group&gt;">
						<path id="&lt;Path&gt;" class="s9" d="m419.4 468.1l-0.3-77.4 2.3-1.3 0.2 77.5z"/>
					</g>
				</g>
				<g id="&lt;Group&gt;">
					<path id="&lt;Path&gt;" class="s9" d="m418.8 262.2l2.2-1.3 0.3 107.9-2.2 1.3z"/>
				</g>
				<g id="&lt;Group&gt;">
					<path id="&lt;Path&gt;" class="s8" d="m470.2 505l-0.3-97.9 2.2-1.3 0.4 97.9z"/>
				</g>
				<g id="&lt;Group&gt;">
					<g id="&lt;Group&gt;">
						<path id="&lt;Path&gt;" class="s8" d="m478 331.1c2.6-1.5 4.8-0.3 4.8 2.7l0.2 60.2c0 3.1-2.2 6.7-4.8 8.3l-6.1 3.5-2.2 1.3-6.1 3.5c-2.6 1.5-4.8 0.3-4.8-2.7l-0.1-60.3c0-3 2.1-6.6 4.7-8.1l6.1-3.6 2.2-1.3z"/>
					</g>
					<g id="&lt;Group&gt;">
						<path id="&lt;Path&gt;" class="s8" d="m469.6 290.3l2.2-1.3 0.1 45.6-2.2 1.3z"/>
					</g>
				</g>
				<g id="&lt;Group&gt;">
					<path id="&lt;Path&gt;" class="s1" d="m525.1 205.1c2.6-1.5 4.8-0.3 4.8 2.7l0.3 113.2c0 3-2.1 6.6-4.7 8.2l-6.1 3.5-2.3 1.3-6.1 3.5c-2.6 1.5-4.7 0.3-4.7-2.7l-0.3-113.2c0-3 2.1-6.6 4.7-8.2l6.1-3.5 2.2-1.3z"/>
				</g>
				<g id="&lt;Group&gt;">
					<path id="&lt;Path&gt;" class="s1" d="m516.8 205.5l2.2-1.3v4.4l-2.2 1.3z"/>
				</g>
				<g id="&lt;Group&gt;">
					<path id="&lt;Path&gt;" class="s1" d="m517.2 365.4l-0.1-31.4 2.3-1.3 0.1 31.4z"/>
				</g>
				<g id="&lt;Group&gt;">
					<path id="&lt;Path&gt;" class="s8" d="m557.2 425.8v-11.4l2.2-1.3v11.5z"/>
				</g>
				<g id="&lt;Group&gt;">
					<path id="&lt;Path&gt;" class="s8" d="m570.1 343.4l0.1 63.4-10.8 6.3-2.2 1.3-10.9 6.2-0.2-63.4 10.9-6.3 2.2-1.3z"/>
				</g>
				<g id="&lt;Group&gt;">
					<path id="&lt;Path&gt;" class="s8" d="m556.8 273.4l2.2-1.2 0.2 77.4-2.2 1.3z"/>
				</g>
				<g id="&lt;Group&gt;">
					<path id="&lt;Path&gt;" class="s1" d="m602.9 181.3l2.2-1.2 0.2 58.8-2.3 1.2z"/>
				</g>
				<g id="&lt;Group&gt;">
					<path id="&lt;Path&gt;" class="s1" d="m603.4 387.3l-0.2-77.5 2.2-1.2 0.3 77.4z"/>
				</g>
				<g id="&lt;Group&gt;">
					<path id="&lt;Path&gt;" class="s1" d="m611.4 235.3c2.6-1.5 4.7-0.3 4.7 2.7l0.2 58.8c0 3-2.1 6.7-4.8 8.2l-6.1 3.6-2.2 1.2-6.1 3.6c-2.6 1.5-4.7 0.3-4.7-2.7l-0.2-58.8c0-3 2.1-6.7 4.7-8.2l6.1-3.6 2.3-1.2z"/>
				</g>
				<g id="&lt;Group&gt;">
					<path id="&lt;Path&gt;" class="s8" d="m644.3 193.1l2.2-1.3 0.2 45.6-2.2 1.3z"/>
				</g>
				<g id="&lt;Group&gt;">
					<path id="&lt;Path&gt;" class="s8" d="m644.9 395.9v-15.2l2.2-1.3v15.2z"/>
				</g>
				<g id="&lt;Group&gt;">
					<path id="&lt;Path&gt;" class="s8" d="m652.8 233.9c2.6-1.5 4.7-0.3 4.7 2.7l0.4 131.1c0 3-2.1 6.6-4.7 8.2l-6.1 3.5-2.2 1.3-6.2 3.5c-2.6 1.5-4.7 0.3-4.7-2.7l-0.4-131.1c0-3 2.1-6.6 4.7-8.2l6.2-3.5 2.2-1.3z"/>
				</g>
				<g id="&lt;Group&gt;">
					<path id="&lt;Path&gt;" class="s9" d="m690.1 135.9l2.2-1.3 0.2 45.6-2.2 1.3z"/>
				</g>
				<g id="&lt;Group&gt;">
					<path id="&lt;Path&gt;" class="s9" d="m690.7 338.7v-15.3l2.2-1.2v15.2z"/>
				</g>
				<g id="&lt;Group&gt;">
					<path id="&lt;Path&gt;" class="s9" d="m698.6 176.7c2.6-1.5 4.7-0.3 4.7 2.7l0.4 131c0 3.1-2.1 6.7-4.7 8.2l-6.1 3.6-2.2 1.2-6.2 3.6c-2.6 1.5-4.7 0.3-4.7-2.7l-0.4-131.1c0-3 2.1-6.7 4.7-8.2l6.2-3.5 2.2-1.3z"/>
				</g>
				<g id="&lt;Group&gt;">
					<path id="&lt;Path&gt;" class="s8" d="m745.7 75.4c2.7-1.5 4.8-0.3 4.8 2.7l0.2 77.9c0 3-2.1 6.7-4.7 8.2l-6.1 3.5-2.2 1.3-6.1 3.5c-2.7 1.5-4.8 0.3-4.8-2.7l-0.2-77.9c0-3 2.1-6.7 4.7-8.2l6.1-3.5 2.2-1.3z"/>
				</g>
				<g id="&lt;Group&gt;">
					<path id="&lt;Path&gt;" class="s8" d="m737.3 51l2.3-1.3v29.2l-2.2 1.3z"/>
				</g>
				<g id="&lt;Group&gt;">
					<path id="&lt;Path&gt;" class="s8" d="m737.9 257l-0.2-88 2.2-1.3 0.2 88z"/>
				</g>
				<g id="&lt;Group&gt;">
					<g id="&lt;Group&gt;">
						<path id="&lt;Path&gt;" class="s9" d="m796.6 119.9c2.6-1.5 4.7-0.3 4.8 2.8l0.1 60.2c0 3-2.1 6.7-4.7 8.2l-6.1 3.5-2.2 1.3-6.1 3.5c-2.7 1.5-4.8 0.3-4.8-2.7l-0.2-60.2c0-3 2.1-6.7 4.8-8.2l6.1-3.5 2.2-1.3z"/>
					</g>
					<g id="&lt;Group&gt;">
						<path id="&lt;Path&gt;" class="s9" d="m788.1 79.2l2.3-1.3 0.1 45.6-2.2 1.3z"/>
					</g>
				</g>
				<g id="&lt;Group&gt;">
					<path id="&lt;Path&gt;" class="s9" d="m788.8 312.6l-0.3-116.7 2.2-1.3 0.3 116.7z"/>
				</g>
			</g>
			<g id="&lt;Group&gt;">
				<g id="&lt;Group&gt;">
					<path id="&lt;Path&gt;" class="s10" d="m777 396.1c0.7 0.8 1.8 1.2 3.1 1l-41 93.9c-1-0.6-2.2-0.7-3.5-0.3z"/>
				</g>
				<g id="&lt;Group&gt;">
					<path id="&lt;Path&gt;" class="s10" d="m734 491.4q0.8-0.4 1.6-0.7c1.3-0.4 2.5-0.3 3.5 0.3 1.2 0.7 2 2.3 2 4.5 0 4.4-3.2 9.9-7.1 12.1-3.8 2.3-7 0.5-7-4 0-1.7 0.4-3.6 1.2-5.3 0.8-1.7 1.9-3.4 3.1-4.7 0.8-0.9 1.8-1.6 2.7-2.2z"/>
				</g>
				<g id="&lt;Group&gt;">
					<path id="&lt;Path&gt;" class="s10" d="m651.7 413c1.4-1.2 2.5-2.8 3.3-4.5l76.3 85.1c-1.2 1.3-2.3 3-3.1 4.7z"/>
				</g>
				<g id="&lt;Group&gt;">
					<path id="&lt;Path&gt;" class="s10" d="m649.5 398.5c3.9-2.3 7.1-0.5 7.1 4 0 1.9-0.6 4.1-1.6 6-0.8 1.7-1.9 3.3-3.3 4.5q-1 1-2.1 1.7-1.1 0.6-2.1 0.8c-1.3 0.3-2.5 0.1-3.4-0.6-1-0.8-1.6-2.3-1.6-4.2 0-4.5 3.1-10 7-12.2z"/>
				</g>
				<g id="&lt;Group&gt;">
					<g id="&lt;Group&gt;">
						<path id="&lt;Path&gt;" class="s10" d="m588.1 540.5q0.7-0.4 1.4-0.6c1.3-0.5 2.6-0.5 3.5 0.1 1.4 0.7 2.2 2.3 2.2 4.5 0 4.5-3.1 10-7 12.2-3.9 2.2-7.1 0.4-7.1-4 0-2 0.6-4.1 1.6-6 0.8-1.7 2-3.3 3.3-4.6q1-0.9 2.1-1.6z"/>
					</g>
					<g id="&lt;Group&gt;">
						<path id="&lt;Path&gt;" class="s10" d="m579 542.5c1.3-1.3 2.3-3 3.1-4.7l3.9 4.3c-1.3 1.3-2.5 2.9-3.3 4.6z"/>
					</g>
					<g id="&lt;Group&gt;">
						<path id="&lt;Path&gt;" class="s10" d="m644.1 414.9c0.9 0.7 2.1 0.9 3.4 0.6l-54.5 124.5c-0.9-0.6-2.2-0.6-3.5-0.1z"/>
					</g>
					<g id="&lt;Group&gt;">
						<path id="&lt;Path&gt;" class="s10" d="m576.2 528.6c3.9-2.3 7.1-0.5 7.1 4 0 1.7-0.5 3.5-1.2 5.2-0.8 1.7-1.8 3.4-3.1 4.7-0.8 0.9-1.8 1.7-2.7 2.3q-0.9 0.5-1.8 0.7c-1.3 0.4-2.5 0.2-3.4-0.4-1.2-0.7-1.9-2.3-1.9-4.4 0-4.4 3.1-9.9 7-12.1z"/>
					</g>
				</g>
				<g id="&lt;Group&gt;">
					<path id="&lt;Path&gt;" class="s10" d="m558.7 567.3q1.7-1 3.1-1c1.3 0 2.3 0.5 3 1.4 0.6 0.9 1 2.1 1 3.6 0 4.5-3.1 9.9-7 12.2-3.9 2.2-7.1 0.4-7.1-4.1 0-2.1 0.7-4.4 1.8-6.5 0.9-1.6 2.1-3.2 3.4-4.3q0.9-0.8 1.8-1.3z"/>
				</g>
				<g id="&lt;Group&gt;">
					<path id="&lt;Path&gt;" class="s10" d="m571.1 545.1c0.9 0.6 2.1 0.8 3.4 0.4l-9.7 22.2c-0.7-0.9-1.7-1.4-3-1.4z"/>
				</g>
				<g id="&lt;Group&gt;">
					<path id="&lt;Path&gt;" class="s10" d="m524.5 529.1c3.9-2.2 7-0.4 7 4 0 1.8-0.5 3.8-1.3 5.6-0.8 1.8-1.9 3.4-3.2 4.7q-1.2 1.1-2.5 1.9-1.6 0.9-3 1c-1.3 0-2.3-0.5-3-1.4-0.7-0.9-1-2.1-1.1-3.6 0-4.5 3.2-10 7.1-12.2z"/>
				</g>
				<g id="&lt;Group&gt;">
					<path id="&lt;Path&gt;" class="s10" d="m527 543.4c1.3-1.3 2.4-2.9 3.2-4.7l26.7 29.9c-1.3 1.1-2.5 2.7-3.4 4.3z"/>
				</g>
				<g id="&lt;Group&gt;">
					<path id="&lt;Path&gt;" class="s10" d="m508.2 563.4q1.4-0.8 2.6-0.9c1.3-0.2 2.4 0.2 3.1 1 0.9 0.8 1.4 2.2 1.4 3.9 0 4.5-3.1 10-7 12.2-3.9 2.2-7.1 0.4-7.1-4 0-1.6 0.4-3.3 1.1-4.9 0.7-1.8 1.7-3.5 3-4.9 0.9-0.9 1.9-1.8 2.9-2.4z"/>
				</g>
				<g id="&lt;Group&gt;">
					<path id="&lt;Path&gt;" class="s10" d="m518.5 544.9c0.7 0.9 1.7 1.4 3 1.4l-7.6 17.2c-0.7-0.8-1.8-1.2-3.1-1z"/>
				</g>
				<g id="&lt;Group&gt;">
					<path id="&lt;Path&gt;" class="s10" d="m471.9 525.2c3.9-2.3 7.1-0.5 7.1 4 0 1.8-0.5 3.9-1.4 5.8-0.9 1.7-2 3.3-3.3 4.5q-1.1 1.1-2.3 1.9-1.2 0.6-2.3 0.8c-1.3 0.3-2.4 0-3.3-0.7-0.9-0.8-1.5-2.3-1.5-4.2 0-4.4 3.1-9.9 7-12.1z"/>
				</g>
				<g id="&lt;Group&gt;">
					<path id="&lt;Path&gt;" class="s10" d="m474.3 539.5c1.3-1.2 2.4-2.8 3.3-4.5l27.7 30.8c-1.3 1.4-2.3 3.1-3 4.9z"/>
				</g>
				<g id="&lt;Group&gt;">
					<path id="&lt;Path&gt;" class="s10" d="m466.4 541.5c0.9 0.7 2 1 3.3 0.7l-60.6 138.6c-1.1-0.4-2.4-0.2-3.8 0.4z"/>
				</g>
				<g id="&lt;Group&gt;">
					<path id="&lt;Path&gt;" class="s10" d="m346.3 616.1c3.8-2.2 7-0.4 7 4.1 0 2.1-0.7 4.4-1.8 6.5-0.9 1.7-2.1 3.2-3.4 4.3q-0.9 0.8-1.8 1.3-1.2 0.7-2.4 0.9c-1.3 0.2-2.4-0.1-3.2-0.8-0.9-0.9-1.5-2.3-1.5-4.1 0-4.5 3.2-9.9 7.1-12.2z"/>
				</g>
				<g id="&lt;Group&gt;">
					<path id="&lt;Path&gt;" class="s10" d="m404.6 681.6q0.4-0.2 0.7-0.4c1.4-0.6 2.7-0.8 3.8-0.4 1.6 0.6 2.6 2.3 2.6 4.8 0 4.5-3.1 9.9-7 12.2-3.9 2.2-7.1 0.4-7.1-4.1 0-1.8 0.6-3.9 1.5-5.8 0.8-1.7 1.9-3.3 3.2-4.5q1.1-1.1 2.3-1.8z"/>
				</g>
				<g id="&lt;Group&gt;">
					<path id="&lt;Path&gt;" class="s10" d="m348.1 631c1.3-1.1 2.5-2.6 3.4-4.3l50.8 56.7c-1.3 1.2-2.4 2.8-3.2 4.5z"/>
				</g>
				<g id="&lt;Group&gt;">
					<path id="&lt;Path&gt;" class="s10" d="m305.4 709.2q1.1-0.7 2.1-0.9c1.3-0.3 2.4 0 3.3 0.7 1 0.8 1.6 2.2 1.6 4.2 0.1 4.5-3.1 9.9-7 12.2-3.9 2.2-7 0.4-7-4.1-0.1-4.4 3.1-9.9 7-12.1z"/>
				</g>
				<g id="&lt;Group&gt;">
					<path id="&lt;Path&gt;" class="s10" d="m340.7 632.4c0.8 0.7 1.9 1 3.2 0.8l-33.1 75.8c-0.9-0.7-2-1-3.3-0.7z"/>
				</g>
				<g id="&lt;Group&gt;">
					<path id="&lt;Path&gt;" class="s10" d="m782.7 380c3.9-2.2 7-0.4 7.1 4 0 4.5-3.2 10-7.1 12.2q-1.4 0.8-2.6 0.9c-1.3 0.2-2.4-0.2-3.1-1-0.8-0.9-1.3-2.2-1.3-3.9 0-4.5 3.1-9.9 7-12.2z"/>
				</g>
			</g>
			<g id="&lt;Group&gt;">
				<g id="&lt;Group&gt;">
					<g id="&lt;Group&gt;">
						<path id="&lt;Path&gt;" class="s8" d="m574.9 118.3v3.8c0 10.2-7.1 22.6-15.9 27.7l-39.5 22.8-43.8 25.3c-8.9 5.1-16.1 0.9-16.1-9.2v-3.8c-0.1-10.2 7.1-22.6 15.9-27.7l31.4-18.1 14-8.1 8-4.6 14.8-8.5 15.1-8.8c8.8-5 16.1-0.9 16.1 9.2z"/>
					</g>
					<g id="&lt;Group&gt;">
						<path id="&lt;Path&gt;" class="s9" d="m566.2 105.7l4 2.3c-2.9-1.6-6.9-1.4-11.4 1.1l-3.9-2.3c4.4-2.5 8.4-2.8 11.3-1.1z"/>
					</g>
					<g id="&lt;Group&gt;">
						<path id="&lt;Path&gt;" class="s3" d="m525.9 135.2l0.1 17.1q0 2.9-1.1 5.7-1.2 2.9-3.3 5.3-2.2 2.4-5.1 4.1-4.4 2.6-6.9 1.4-2.4-1.2-2.4-5.8l-0.1-16.9 4.9-2.8v16.1q0 3 1.1 3.9 1.1 0.8 3.5-0.7 2.4-1.3 3.5-3.4 1-2 1-5.1v-16.1z"/>
					</g>
					<g id="&lt;Group&gt;">
						<path id="&lt;Compound Path&gt;" fill-rule="evenodd" class="s3" d="m501.8 163.8q0.9 1 0.9 3.5 0.1 3.6-2.2 7-2.3 3.3-6.1 5.5l-8.6 5-0.1-26.4 7.1-4.1q4.9-2.8 7.1-2.5 2.2 0.4 2.2 3.8 0 2.4-0.9 4.5-1 2-2.6 3.3v0.1q2.2-0.7 3.2 0.3zm-5.1 9.1q1-1.4 1-3.2 0-3.3-4.1-0.9l-3 1.7v6.9l3.2-1.9q2-1.1 2.9-2.6zm-6.1-12.7v5.9l2.8-1.7q2-1.1 2.9-2.3 0.9-1.2 0.8-2.8 0-1.6-0.9-1.7-1-0.1-3.1 1.1z"/>
					</g>
					<g id="&lt;Group&gt;">
						<path id="&lt;Path&gt;" class="s9" d="m464.3 199l-4-2.3c-2.9-1.7-4.7-5.3-4.7-10.3l4 2.3c0 5.1 1.8 8.6 4.7 10.3z"/>
					</g>
					<g id="&lt;Group&gt;">
						<path id="&lt;Path&gt;" class="s3" d="m548.7 122.1l-7.5 20.4v10.3l-4.8 2.8-0.1-10.1-7.6-11.9 5.2-3 4.8 8.1 4.8-13.6z"/>
					</g>
					<g id="&lt;Group&gt;">
						<path id="&lt;Path&gt;" class="s9" d="m459.6 188.7l-4-2.3v-3.8l4 2.3z"/>
					</g>
					<g id="&lt;Group&gt;">
						<path id="&lt;Path&gt;" class="s9" d="m475.5 157.2l-3.9-2.3 83.3-48.1 3.9 2.3z"/>
					</g>
					<g id="&lt;Group&gt;">
						<path id="&lt;Path&gt;" class="s9" d="m459.6 184.9l-4-2.3c0-10.2 7.1-22.6 16-27.7l3.9 2.3c-8.8 5.1-16 17.6-15.9 27.7z"/>
					</g>
				</g>
			</g>
			<g id="&lt;Group&gt;">
				<g id="&lt;Group&gt;">
					<g id="&lt;Group&gt;">
						<path id="&lt;Path&gt;" class="s11" d="m610.3 433.3v3.8c0 10.1-7.2 22.6-16 27.7l-68.4 39.5-14.9 8.5c-8.8 5.1-16 1-16-9.1v-3.9c-0.1-10.1 7.1-22.5 15.9-27.6l65.3-37.7 18-10.4c8.8-5.1 16-1 16.1 9.2z"/>
					</g>
					<g id="&lt;Group&gt;">
						<path id="&lt;Path&gt;" class="s1" d="m601.6 420.7l4 2.3c-2.9-1.7-7-1.5-11.4 1.1l-4-2.3c4.5-2.6 8.5-2.8 11.4-1.1z"/>
					</g>
					<g id="&lt;Group&gt;">
						<path id="&lt;Path&gt;" class="s1" d="m499.7 513.9l-4-2.3c-2.9-1.6-4.7-5.2-4.7-10.2l4 2.3c0 5 1.8 8.6 4.7 10.2z"/>
					</g>
					<g id="&lt;Group&gt;">
						<path id="&lt;Path&gt;" class="s3" d="m579.2 439.5v22.5l9.8-5.7v4.8l-14.8 8.6-0.1-27.2z"/>
					</g>
					<g id="&lt;Group&gt;">
						<path id="&lt;Path&gt;" class="s3" d="m560.2 450.5v22.4l9.8-5.6v4.8l-14.8 8.5-0.1-27.2z"/>
					</g>
					<g id="&lt;Group&gt;">
						<path id="&lt;Path&gt;" class="s3" d="m550.1 456.3v4.7l-8.7 5.1v6l8.1-4.7v4.7l-8.1 4.7v7l8.7-5 0.1 4.7-13.9 8v-27.2z"/>
					</g>
					<g id="&lt;Group&gt;">
						<path id="&lt;Path&gt;" class="s3" d="m524.7 470.6q1.8-1.1 3.5-1.5 1.7-0.5 3.6-0.7l-1.6 5.4q-2 0.3-3.2 0.6-1.3 0.4-2.5 1.1-1.4 0.8-2.2 2-0.8 1.2-0.8 2.5 0 0.7 0.4 1.1 0.3 0.4 1 0.6 0.6 0.1 3.2 0 3.4-0.1 4.6 1 1.3 1.1 1.3 3.8 0 3.6-2.4 7.1-2.3 3.5-6.5 5.9-3.8 2.2-6.8 2.3v-5.4q2.4-0.1 4.1-0.6 1.7-0.5 3.1-1.3 1.7-1 2.6-2.2 0.9-1.2 0.9-2.7 0-0.8-0.4-1.2-0.4-0.4-1.2-0.5-0.7-0.1-3.1 0-2.2 0-3.3-0.4-1.1-0.4-1.8-1.5-0.6-1-0.6-3 0-3.6 2.1-6.9 2.2-3.3 6-5.5z"/>
					</g>
					<g id="&lt;Group&gt;">
						<path id="&lt;Path&gt;" class="s1" d="m495 503.7l-4-2.3v-3.9l4 2.3z"/>
					</g>
					<g id="&lt;Group&gt;">
						<path id="&lt;Path&gt;" class="s1" d="m510.9 472.2l-4-2.3 83.3-48.1 4 2.3z"/>
					</g>
					<g id="&lt;Group&gt;">
						<path id="&lt;Path&gt;" class="s1" d="m495 499.8l-4-2.3c-0.1-10.1 7.1-22.5 15.9-27.6l4 2.3c-8.8 5.1-16 17.5-15.9 27.6z"/>
					</g>
				</g>
			</g>
		</g>
		<g id="&lt;Group&gt;">
			<g id="&lt;Group&gt;" style="opacity: .5">
				<g id="&lt;Group&gt;" style="opacity: .3">
					<path id="&lt;Path&gt;" class="s2" d="m944.9 824.5c57.7 33.4 58 87.4 0.6 120.8-57.3 33.3-150.7 33.3-208.4 0-57.8-33.4-58.1-87.4-0.7-120.8 57.4-33.3 150.7-33.3 208.5 0z"/>
				</g>
				<g id="&lt;Group&gt;" style="opacity: .3">
					<path id="&lt;Path&gt;" class="s2" d="m923.1 837.2c45.6 26.3 45.8 69.1 0.5 95.4-45.3 26.3-119.1 26.3-164.7 0-45.6-26.3-45.9-69-0.5-95.4 45.3-26.3 119-26.3 164.7 0z"/>
				</g>
				<g id="&lt;Group&gt;" style="opacity: .3">
					<path id="&lt;Path&gt;" class="s2" d="m902.8 849c34.4 19.8 34.5 52 0.4 71.8-34.1 19.9-89.7 19.9-124 0-34.4-19.8-34.6-52-0.4-71.8 34.1-19.9 89.6-19.9 124 0z"/>
				</g>
				<g id="&lt;Group&gt;" style="opacity: .3">
					<path id="&lt;Path&gt;" class="s2" d="m884.1 859.9c23.9 13.8 24 36.2 0.2 50-23.8 13.9-62.5 13.9-86.4 0-24-13.8-24.1-36.2-0.3-50 23.8-13.9 62.5-13.9 86.5 0z"/>
				</g>
			</g>
			<g id="&lt;Group&gt;">
				<path id="&lt;Path&gt;" class="s12" d="m872.6 294q0.2 0 0.2 0l4.5 11.7c-11.3-0.7-32.1 8.3-39.6 13.4-2.5 1.7-4.3 4.3-5.6 7l-0.4-0.2-1.1-12.1c-11.5 4-17.6-2.3-20.8-8.4-2.1-4.1-3-8.7-3-13.3v-47.2c7.5 0.5 17.3-3 21.1-2.5 5.8 0.8 5.4 22.3 5.4 22.3 5-9.3 15.2-10.8 17 3.5 1.7 14.3-9.1 17.7-9.1 17.7l2.5 18.5c9.8-6.1 26.6-9.9 28.9-10.4z"/>
				<path id="&lt;Path&gt;" class="s12" d="m652.6 355.9c-6 3.1-13.9 10.3-17.4 26.4-19-1.9-20.8-18.5-20.8-18.5 0 0-1.5 3.1-5.4 1.4-3.8-1.6-4.6-10.8-5-16-0.5-5.2 19-16.1 19-16.1-2.3-5.6-23-16.2-18.3-19 4.7-2.6 30.4 6 36.6 16.4 6.1 10.5 11.3 25.4 11.3 25.4z"/>
				<path id="&lt;Path&gt;" class="s3" d="m878.4 304.2l2.5 7.9q-0.4 0.1-0.8 0.3l-16.6 5.6c0 0-19 9-39.1 19.1 0.5-2.8 1.4-7.1 3.2-11 1.5-3 3.4-5.8 6-7.6 8.2-5.5 30.7-15.2 42.9-14.5q1 0.1 1.9 0.2z"/>
				<path id="&lt;Path&gt;" class="s1" d="m880.9 312.1c6.6-2.1 13.7-2.4 20.4-0.5 14 4 26.6 17 33.1 52 1.7 9.3 8.8 52.8 4.7 75.2-4.2 22.5-16.7 42.7-16.7 42.7l11.2 75.2c0 0-1.3 1.9-3.8 4.8-9.7 11.4-37.1 39.3-75.1 40.2-39.2 1-63.8-20.6-71.5-28.5-1.7-1.8-2.5-2.9-2.5-2.9l8.9-72.4-3.4-47.5c0 0-22.8 21.9-49.2 14.6-26.4-7.3-102.2-80.8-102.2-80.8q0.2-1 0.4-1.9c3.5-16.1 11.4-23.3 17.4-26.4 4.4-2.3 7.8-2.5 7.8-2.5l80.5 43.4c0 0 26.3-28.2 50.6-42.2 9-5.2 21.1-11.5 32.9-17.5 20.1-10.1 39.1-19.1 39.1-19.1l16.6-5.6q0.4-0.2 0.8-0.3z"/>
				<path id="&lt;Path&gt;" class="s2" d="m929.9 839c-7.8 2.9-26.6 7.4-43.6-8.3 0 0-0.5-2.1-1.2-5.7-4.2-19.7-17.6-84.6-17.6-95.2 0-8.9-3.5-41.2-5.5-59.2l13.8-61.6 49.7-26.6 3.2 0.1-6.3 120.1c0 0 8.8 18.6 7.4 30.9-1.4 12.2 3.9 103.9 3.9 103.9 0 0-1.4 0.8-3.8 1.6z"/>
				<path id="&lt;Path&gt;" class="s13" d="m929.9 839v35.8l-17.5 10.1-54.4-38.9c0 0-1.6-10.6 5.5-17.9 7-7.3 21.6-3.1 21.6-3.1 0.7 3.6 1.2 5.7 1.2 5.7 17 15.7 35.8 11.2 43.6 8.3z"/>
				<path id="&lt;Path&gt;" class="s2" d="m862 670.6l-18.6 83.2c10.5 23.6-2.1 133.4-2.1 133.4 0 0-0.8 0.8-2.3 2.1-3.9 3.4-12.7 9.8-23 10.6-14.1 1-28.4-18-28.4-18 0 0-3-47.3-4.3-84.7-1.2-34-0.2-195.5-0.1-224 7.7 7.9 32.3 29.5 71.5 28.5 38-0.9 65.4-28.8 75.1-40.2l-1.1 21-3.2-0.1-49.7 26.6z"/>
				<path id="&lt;Path&gt;" class="s2" d="m806.8 244.9c-4-0.3-7.3-1.7-8.9-5.2-4.6-10.4-5.2-18.6 8.9-20.3 14.1-1.7 26.9-11.8 39.4-10.2 12.6 1.7 25.7 8.7 25.8 18.2 0 0 15 3.8 15 18.2 0 12.2-10.9 39.9-14.4 48.4-2.3 0.5-19.1 4.3-28.9 10.4l-2.5-18.5c0 0 10.8-3.4 9.1-17.7-1.8-14.3-12-12.8-17-3.5 0 0 0.4-21.5-5.4-22.3-3.8-0.5-13.6 3-21.1 2.5z"/>
				<path id="&lt;Path&gt;" class="s13" d="m839 889.3v33.6l-28.7 12.9c0 0-61-33.4-61.7-39-0.7-5.7 16.7-13.5 19.7-14.9 3-1.3 19.3 0 19.3 0 0 0 14.3 19 28.4 18 10.3-0.8 19.1-7.2 23-10.6z"/>
				<path id="&lt;Path&gt;" class="s6" d="m922.4 481.5l3.4-92.9 9.9 63.3c0 0-4.6 14.9-13.3 29.6z"/>
				<path id="&lt;Path&gt;" class="s6" d="m786.2 450.4l33.3-26.6-29.9 74.1z"/>
				<path id="&lt;Path&gt;" class="s6" d="m862 670.6l13.8-61.6 49.7-26.6-41.5 46-16.5 101.4z"/>
			</g>
		</g>
	</g>
</svg>