<svg version="1.2" xmlns="http://www.w3.org/2000/svg" viewBox="0 0 3710 3710" width="500" height="500">
	<title>Wavy_Tsp-04_Single-03-ai</title>
	<defs>
		<linearGradient id="g1" x2="1" gradientUnits="userSpaceOnUse" gradientTransform="matrix(2520.988,2825.699,-2034.784,1815.362,1555.783,5.107)">
			<stop offset="0" stop-color="#ff9085"/>
			<stop offset="1" stop-color="#fb6fbb"/>
		</linearGradient>
		<linearGradient id="g2" x2="1" gradientUnits="userSpaceOnUse" gradientTransform="matrix(3101.631,2063.96,-1637.971,2461.474,849.914,1093.693)">
			<stop offset="0" stop-color="#aa80f9"/>
			<stop offset=".996" stop-color="#6165d7"/>
		</linearGradient>
		<linearGradient id="g3" x2="1" gradientUnits="userSpaceOnUse" gradientTransform="matrix(-414.406,0,0,-1266.792,2629.08,767.872)">
			<stop offset=".494" stop-color="#ebeff2"/>
			<stop offset="1" stop-color="#ffffff"/>
		</linearGradient>
		<linearGradient id="g4" x2="1" gradientUnits="userSpaceOnUse" gradientTransform="matrix(352.845,-361.246,1751.792,1711.055,1767.966,1568.173)">
			<stop offset="0" stop-color="#40447e"/>
			<stop offset=".996" stop-color="#3c3b6b"/>
		</linearGradient>
		<linearGradient id="g5" x2="1" gradientUnits="userSpaceOnUse" gradientTransform="matrix(352.847,-361.248,1751.84,1711.102,1965.884,1549.731)">
			<stop offset="0" stop-color="#40447e"/>
			<stop offset=".996" stop-color="#3c3b6b"/>
		</linearGradient>
		<linearGradient id="g6" x2="1" gradientUnits="userSpaceOnUse" gradientTransform="matrix(66.41,0,0,88.047,2304.896,1789.362)">
			<stop offset="0" stop-color="#40447e"/>
			<stop offset=".996" stop-color="#3c3b6b"/>
		</linearGradient>
		<linearGradient id="g7" x2="1" gradientUnits="userSpaceOnUse" gradientTransform="matrix(66.411,0,0,88.047,2503.881,1789.362)">
			<stop offset="0" stop-color="#40447e"/>
			<stop offset=".996" stop-color="#3c3b6b"/>
		</linearGradient>
		<linearGradient id="g8" x2="1" gradientUnits="userSpaceOnUse" gradientTransform="matrix(169.657,0,0,68.481,2274.002,1847.362)">
			<stop offset=".005" stop-color="#d8dee8"/>
			<stop offset="1" stop-color="#f4f7fa"/>
		</linearGradient>
		<linearGradient id="g9" x2="1" gradientUnits="userSpaceOnUse" gradientTransform="matrix(288.746,0,0,60.095,2443.66,1847.362)">
			<stop offset=".005" stop-color="#d8dee8"/>
			<stop offset="1" stop-color="#f4f7fa"/>
		</linearGradient>
		<linearGradient id="g10" x2="1" gradientUnits="userSpaceOnUse" gradientTransform="matrix(180.129,0,0,171.313,1940.081,2245.744)">
			<stop offset="0" stop-color="#40447e"/>
			<stop offset=".996" stop-color="#3c3b6b"/>
		</linearGradient>
		<linearGradient id="g11" x2="1" gradientUnits="userSpaceOnUse" gradientTransform="matrix(270.679,0,0,242.659,2205.661,2318.94)">
			<stop offset="0" stop-color="#40447e"/>
			<stop offset=".996" stop-color="#3c3b6b"/>
		</linearGradient>
		<linearGradient id="g12" x2="1" gradientUnits="userSpaceOnUse" gradientTransform="matrix(-92.417,0,0,-188.306,2077.705,2294.95)">
			<stop offset="0" stop-color="#444b8c"/>
			<stop offset=".996" stop-color="#3e4177"/>
		</linearGradient>
		<linearGradient id="g13" x2="1" gradientUnits="userSpaceOnUse" gradientTransform="matrix(153.678,301.279,-185.433,94.587,1672.727,2318.152)">
			<stop offset="0" stop-color="#ebeff2"/>
			<stop offset=".995" stop-color="#b7c0ce"/>
		</linearGradient>
		<linearGradient id="g14" x2="1" gradientUnits="userSpaceOnUse" gradientTransform="matrix(-112.646,0,0,-229.523,2434.723,2416.538)">
			<stop offset="0" stop-color="#444b8c"/>
			<stop offset=".996" stop-color="#3e4177"/>
		</linearGradient>
		<linearGradient id="g15" x2="1" gradientUnits="userSpaceOnUse" gradientTransform="matrix(187.316,367.224,-226.022,115.29,1941.101,2444.819)">
			<stop offset="0" stop-color="#ebeff2"/>
			<stop offset=".995" stop-color="#b7c0ce"/>
		</linearGradient>
		<linearGradient id="g16" x2="1" gradientUnits="userSpaceOnUse" gradientTransform="matrix(1016.194,0,0,798.908,1857.872,1892.586)">
			<stop offset="0" stop-color="#fcb148"/>
			<stop offset=".318" stop-color="#ffc444"/>
			<stop offset=".866" stop-color="#f8924f"/>
			<stop offset="1" stop-color="#f8924f"/>
		</linearGradient>
		<linearGradient id="g17" x2="1" gradientUnits="userSpaceOnUse" gradientTransform="matrix(517.456,-529.776,689.664,673.626,1543.675,2536.039)">
			<stop offset="0" stop-color="#40447e"/>
			<stop offset=".996" stop-color="#3c3b6b"/>
		</linearGradient>
		<linearGradient id="g18" x2="1" gradientUnits="userSpaceOnUse" gradientTransform="matrix(47.614,0,0,381.688,1892.466,2027.649)">
			<stop offset="0" stop-color="#fcb148"/>
			<stop offset=".318" stop-color="#ffc444"/>
			<stop offset=".866" stop-color="#f8924f"/>
			<stop offset="1" stop-color="#f8924f"/>
		</linearGradient>
		<linearGradient id="g19" x2="1" gradientUnits="userSpaceOnUse" gradientTransform="matrix(39.229,0,0,372.834,1896.659,2031.861)">
			<stop offset="0" stop-color="#40447e"/>
			<stop offset=".996" stop-color="#3c3b6b"/>
		</linearGradient>
		<linearGradient id="g20" x2="1" gradientUnits="userSpaceOnUse" gradientTransform="matrix(84.709,0,0,482.096,2076.126,2038.059)">
			<stop offset="0" stop-color="#fcb148"/>
			<stop offset=".318" stop-color="#ffc444"/>
			<stop offset=".866" stop-color="#f8924f"/>
			<stop offset="1" stop-color="#f8924f"/>
		</linearGradient>
		<linearGradient id="g21" x2="1" gradientUnits="userSpaceOnUse" gradientTransform="matrix(63.742,0,0,454.479,2086.611,2048.833)">
			<stop offset="0" stop-color="#40447e"/>
			<stop offset=".996" stop-color="#3c3b6b"/>
		</linearGradient>
		<linearGradient id="g22" x2="1" gradientUnits="userSpaceOnUse" gradientTransform="matrix(130.513,0,0,636.337,2378.403,2055.156)">
			<stop offset="0" stop-color="#fcb148"/>
			<stop offset=".318" stop-color="#ffc444"/>
			<stop offset=".866" stop-color="#f8924f"/>
			<stop offset="1" stop-color="#f8924f"/>
		</linearGradient>
		<linearGradient id="g23" x2="1" gradientUnits="userSpaceOnUse" gradientTransform="matrix(101.163,0,0,597.949,2393.078,2070.024)">
			<stop offset="0" stop-color="#40447e"/>
			<stop offset=".996" stop-color="#3c3b6b"/>
		</linearGradient>
		<linearGradient id="g24" x2="1" gradientUnits="userSpaceOnUse" gradientTransform="matrix(-460.923,-1113.52,1051.567,-435.279,2410.683,2800.562)">
			<stop offset="0" stop-color="#fcb148"/>
			<stop offset=".318" stop-color="#ffc444"/>
			<stop offset=".866" stop-color="#f8924f"/>
			<stop offset="1" stop-color="#f8924f"/>
		</linearGradient>
		<linearGradient id="g25" x2="1" gradientUnits="userSpaceOnUse" gradientTransform="matrix(613.447,0,0,419.37,2575.964,1987.119)">
			<stop offset="0" stop-color="#40447e"/>
			<stop offset=".996" stop-color="#3c3b6b"/>
		</linearGradient>
		<linearGradient id="g26" x2="1" gradientUnits="userSpaceOnUse" gradientTransform="matrix(-45.798,227.514,-279.504,-56.264,2736.246,2487.311)">
			<stop offset=".004" stop-color="#e38ddd"/>
			<stop offset="1" stop-color="#9571f6"/>
		</linearGradient>
		<linearGradient id="g27" x2="1" gradientUnits="userSpaceOnUse" gradientTransform="matrix(-45.707,227.061,-267.466,-53.841,3126.145,2571.43)">
			<stop offset=".004" stop-color="#e38ddd"/>
			<stop offset="1" stop-color="#9571f6"/>
		</linearGradient>
		<linearGradient id="g28" x2="1" gradientUnits="userSpaceOnUse" gradientTransform="matrix(2.938,-304.033,1470.725,14.211,2830.988,2930.571)">
			<stop offset="0" stop-color="#aa80f9"/>
			<stop offset=".996" stop-color="#6165d7"/>
		</linearGradient>
		<linearGradient id="g29" x2="1" gradientUnits="userSpaceOnUse" gradientTransform="matrix(573.004,0,0,97.639,2599.636,2592.784)">
			<stop offset="0" stop-color="#40447e"/>
			<stop offset=".996" stop-color="#3c3b6b"/>
		</linearGradient>
		<linearGradient id="g30" x2="1" gradientUnits="userSpaceOnUse" gradientTransform="matrix(1400.062,0,0,273.214,1833.65,1146.049)">
			<stop offset="0" stop-color="#ebeff2"/>
			<stop offset=".995" stop-color="#b7c0ce"/>
		</linearGradient>
		<linearGradient id="g31" x2="1" gradientUnits="userSpaceOnUse" gradientTransform="matrix(1440.016,0,0,454.014,1772.831,984.619)">
			<stop offset="0" stop-color="#ebeff2"/>
			<stop offset=".995" stop-color="#b7c0ce"/>
		</linearGradient>
		<linearGradient id="g32" x2="1" gradientUnits="userSpaceOnUse" gradientTransform="matrix(539.365,0,0,309.271,1242.183,785.985)">
			<stop offset="0" stop-color="#444b8c"/>
			<stop offset=".996" stop-color="#26264f"/>
		</linearGradient>
		<linearGradient id="g33" x2="1" gradientUnits="userSpaceOnUse" gradientTransform="matrix(-46.458,-45.804,94.586,-95.937,1848.959,2866.273)">
			<stop offset="0" stop-color="#fcb148"/>
			<stop offset=".318" stop-color="#ffc444"/>
			<stop offset=".866" stop-color="#f8924f"/>
			<stop offset="1" stop-color="#f8924f"/>
		</linearGradient>
		<linearGradient id="g34" x2="1" gradientUnits="userSpaceOnUse" gradientTransform="matrix(-115.156,-113.534,93.423,-94.757,2268.804,2970.315)">
			<stop offset="0" stop-color="#fcb148"/>
			<stop offset=".318" stop-color="#ffc444"/>
			<stop offset=".866" stop-color="#f8924f"/>
			<stop offset="1" stop-color="#f8924f"/>
		</linearGradient>
		<linearGradient id="g35" x2="1" gradientUnits="userSpaceOnUse" gradientTransform="matrix(-97.83,0,0,-139.403,2181.984,2868.945)">
			<stop offset="0" stop-color="#444b8c"/>
			<stop offset=".996" stop-color="#3e4177"/>
		</linearGradient>
		<linearGradient id="g36" x2="1" gradientUnits="userSpaceOnUse" gradientTransform="matrix(121.973,239.122,-169.6,86.51,1890.695,2855.18)">
			<stop offset="0" stop-color="#ebeff2"/>
			<stop offset=".995" stop-color="#b7c0ce"/>
		</linearGradient>
		<linearGradient id="g37" x2="1" gradientUnits="userSpaceOnUse" gradientTransform="matrix(-80.072,0,0,-120.078,1861.521,2828.339)">
			<stop offset="0" stop-color="#444b8c"/>
			<stop offset=".996" stop-color="#3e4177"/>
		</linearGradient>
		<linearGradient id="g38" x2="1" gradientUnits="userSpaceOnUse" gradientTransform="matrix(103.696,203.292,-140.299,71.565,1610.212,2820.734)">
			<stop offset="0" stop-color="#ebeff2"/>
			<stop offset=".995" stop-color="#b7c0ce"/>
		</linearGradient>
		<linearGradient id="g39" x2="1" gradientUnits="userSpaceOnUse" gradientTransform="matrix(-119.178,0,0,-163.877,2612.617,2844.3)">
			<stop offset="0" stop-color="#444b8c"/>
			<stop offset=".996" stop-color="#3e4177"/>
		</linearGradient>
		<linearGradient id="g40" x2="1" gradientUnits="userSpaceOnUse" gradientTransform="matrix(140.532,275.507,-204.14,104.129,2275.342,2831.438)">
			<stop offset="0" stop-color="#444b8c"/>
			<stop offset=".996" stop-color="#3e4177"/>
		</linearGradient>
		<linearGradient id="g41" x2="1" gradientUnits="userSpaceOnUse" gradientTransform="matrix(-61.552,0,0,-112.307,2535.518,2872.213)">
			<stop offset="0" stop-color="#444b8c"/>
			<stop offset=".996" stop-color="#3e4177"/>
		</linearGradient>
		<linearGradient id="g42" x2="1" gradientUnits="userSpaceOnUse" gradientTransform="matrix(982.95,1239.17,-1212.242,961.59,2372.105,3285.942)">
			<stop offset="0" stop-color="#fcb148"/>
			<stop offset=".318" stop-color="#ffc444"/>
			<stop offset=".866" stop-color="#f8924f"/>
			<stop offset="1" stop-color="#f8924f"/>
		</linearGradient>
		<linearGradient id="g43" x2="1" gradientUnits="userSpaceOnUse" gradientTransform="matrix(59.401,332.163,-1266.232,226.442,2395.132,2828.021)">
			<stop offset="0" stop-color="#fcb148"/>
			<stop offset=".318" stop-color="#ffc444"/>
			<stop offset=".866" stop-color="#f8924f"/>
			<stop offset="1" stop-color="#f8924f"/>
		</linearGradient>
		<linearGradient id="g44" x2="1" gradientUnits="userSpaceOnUse" gradientTransform="matrix(-196.498,0,0,-13.128,2564.503,2844.079)">
			<stop offset="0" stop-color="#fcb148"/>
			<stop offset=".318" stop-color="#ffc444"/>
			<stop offset=".866" stop-color="#f8924f"/>
			<stop offset="1" stop-color="#f8924f"/>
		</linearGradient>
		<linearGradient id="g45" x2="1" gradientUnits="userSpaceOnUse" gradientTransform="matrix(-163.346,0,0,-13.808,2550.293,2867.257)">
			<stop offset="0" stop-color="#fcb148"/>
			<stop offset=".318" stop-color="#ffc444"/>
			<stop offset=".866" stop-color="#f8924f"/>
			<stop offset="1" stop-color="#f8924f"/>
		</linearGradient>
		<linearGradient id="g46" x2="1" gradientUnits="userSpaceOnUse" gradientTransform="matrix(-173.546,-79.161,191.28,-419.345,1858.884,3318.437)">
			<stop offset="0" stop-color="#fcb148"/>
			<stop offset=".318" stop-color="#ffc444"/>
			<stop offset=".866" stop-color="#f8924f"/>
			<stop offset="1" stop-color="#f8924f"/>
		</linearGradient>
		<linearGradient id="g47" x2="1" gradientUnits="userSpaceOnUse" gradientTransform="matrix(-275.344,-271.467,134.097,-136.013,2132.027,2865.662)">
			<stop offset="0" stop-color="#fcb148"/>
			<stop offset=".318" stop-color="#ffc444"/>
			<stop offset=".866" stop-color="#f8924f"/>
			<stop offset="1" stop-color="#f8924f"/>
		</linearGradient>
		<linearGradient id="g48" x2="1" gradientUnits="userSpaceOnUse" gradientTransform="matrix(-433.131,0,0,-98.48,2465.984,2630.359)">
			<stop offset="0" stop-color="#444b8c"/>
			<stop offset=".996" stop-color="#3e4177"/>
		</linearGradient>
		<linearGradient id="g49" x2="1" gradientUnits="userSpaceOnUse" gradientTransform="matrix(-143.422,0,0,-94.043,1954.971,2628.921)">
			<stop offset="0" stop-color="#444b8c"/>
			<stop offset=".996" stop-color="#3e4177"/>
		</linearGradient>
		<linearGradient id="g50" x2="1" gradientUnits="userSpaceOnUse" gradientTransform="matrix(-142.446,0,0,-120.377,2057.216,2628.298)">
			<stop offset="0" stop-color="#444b8c"/>
			<stop offset=".996" stop-color="#3e4177"/>
		</linearGradient>
		<linearGradient id="g51" x2="1" gradientUnits="userSpaceOnUse" gradientTransform="matrix(-249.269,-245.759,228.832,-232.1,2424.059,2771.364)">
			<stop offset="0" stop-color="#444b8c"/>
			<stop offset=".996" stop-color="#3e4177"/>
		</linearGradient>
		<linearGradient id="g52" x2="1" gradientUnits="userSpaceOnUse" gradientTransform="matrix(-6.805,-6.709,6.495,-6.588,2054.025,2751.912)">
			<stop offset="0" stop-color="#444b8c"/>
			<stop offset=".996" stop-color="#3e4177"/>
		</linearGradient>
		<linearGradient id="g53" x2="1" gradientUnits="userSpaceOnUse" gradientTransform="matrix(-66.009,-65.079,38.991,-39.548,2008.159,2732.633)">
			<stop offset="0" stop-color="#444b8c"/>
			<stop offset=".996" stop-color="#3e4177"/>
		</linearGradient>
		<linearGradient id="g54" x2="1" gradientUnits="userSpaceOnUse" gradientTransform="matrix(-90.869,-89.589,98.939,-100.352,1943.371,2689.426)">
			<stop offset="0" stop-color="#444b8c"/>
			<stop offset=".996" stop-color="#3e4177"/>
		</linearGradient>
		<linearGradient id="g55" x2="1" gradientUnits="userSpaceOnUse" gradientTransform="matrix(-93.643,-92.324,63.494,-64.401,2056.293,2726.292)">
			<stop offset="0" stop-color="#fcb148"/>
			<stop offset=".318" stop-color="#ffc444"/>
			<stop offset=".866" stop-color="#f8924f"/>
			<stop offset="1" stop-color="#f8924f"/>
		</linearGradient>
		<linearGradient id="g56" x2="1" gradientUnits="userSpaceOnUse" gradientTransform="matrix(-185.918,-77.413,42.368,-101.752,2213.507,2855.167)">
			<stop offset="0" stop-color="#fcb148"/>
			<stop offset=".318" stop-color="#ffc444"/>
			<stop offset=".866" stop-color="#f8924f"/>
			<stop offset="1" stop-color="#f8924f"/>
		</linearGradient>
		<linearGradient id="g57" x2="1" gradientUnits="userSpaceOnUse" gradientTransform="matrix(-522.772,167.773,-176.926,-551.293,2369.771,1889.133)">
			<stop offset="0" stop-color="#fcb148"/>
			<stop offset=".318" stop-color="#ffc444"/>
			<stop offset=".866" stop-color="#f8924f"/>
			<stop offset="1" stop-color="#f8924f"/>
		</linearGradient>
		<linearGradient id="g58" x2="1" gradientUnits="userSpaceOnUse" gradientTransform="matrix(-491.17,1083.612,-1125.591,-510.198,3084.901,1119.344)">
			<stop offset="0" stop-color="#ffdb44"/>
			<stop offset="1" stop-color="#feef06"/>
		</linearGradient>
		<linearGradient id="g59" x2="1" gradientUnits="userSpaceOnUse" gradientTransform="matrix(-80.357,-438.99,421.624,-77.179,2148.816,2037.344)">
			<stop offset="0" stop-color="#fcb148"/>
			<stop offset=".318" stop-color="#ffc444"/>
			<stop offset=".866" stop-color="#f8924f"/>
			<stop offset="1" stop-color="#f8924f"/>
		</linearGradient>
		<linearGradient id="g60" x2="1" gradientUnits="userSpaceOnUse" gradientTransform="matrix(373.632,793.15,-745.065,350.981,2761.947,1048.737)">
			<stop offset="0" stop-color="#fcb148"/>
			<stop offset=".318" stop-color="#ffc444"/>
			<stop offset=".866" stop-color="#f8924f"/>
			<stop offset="1" stop-color="#f8924f"/>
		</linearGradient>
		<linearGradient id="g61" x2="1" gradientUnits="userSpaceOnUse" gradientTransform="matrix(167.876,629.17,-434.911,116.044,2852.761,969.063)">
			<stop offset="0" stop-color="#ffdb44"/>
			<stop offset="1" stop-color="#feef06"/>
		</linearGradient>
		<linearGradient id="g62" x2="1" gradientUnits="userSpaceOnUse" gradientTransform="matrix(331.747,704.236,-474.257,223.41,2825.689,988.734)">
			<stop offset="0" stop-color="#fcb148"/>
			<stop offset=".318" stop-color="#ffc444"/>
			<stop offset=".866" stop-color="#f8924f"/>
			<stop offset="1" stop-color="#f8924f"/>
		</linearGradient>
		<linearGradient id="g63" x2="1" gradientUnits="userSpaceOnUse" gradientTransform="matrix(-19.157,243.817,-602.249,-47.32,1429.683,3054.963)">
			<stop offset=".004" stop-color="#26264f"/>
			<stop offset="1" stop-color="#444b8c"/>
		</linearGradient>
		<linearGradient id="g64" x2="1" gradientUnits="userSpaceOnUse" gradientTransform="matrix(2.72,-197.238,139.882,1.929,1422.267,3194.246)">
			<stop offset="0" stop-color="#893976"/>
			<stop offset="1" stop-color="#311944"/>
		</linearGradient>
		<linearGradient id="g65" x2="1" gradientUnits="userSpaceOnUse" gradientTransform="matrix(-16.562,210.789,-193.337,-15.191,1118.397,3048.903)">
			<stop offset=".004" stop-color="#26264f"/>
			<stop offset="1" stop-color="#444b8c"/>
		</linearGradient>
		<linearGradient id="g66" x2="1" gradientUnits="userSpaceOnUse" gradientTransform="matrix(2.716,-196.932,136.155,1.878,1176.218,3191.01)">
			<stop offset="0" stop-color="#893976"/>
			<stop offset="1" stop-color="#311944"/>
		</linearGradient>
		<linearGradient id="g67" x2="1" gradientUnits="userSpaceOnUse" gradientTransform="matrix(-143.781,0,0,-584.196,1446.097,2586.601)">
			<stop offset="0" stop-color="#ff9085"/>
			<stop offset="1" stop-color="#fb6fbb"/>
		</linearGradient>
		<linearGradient id="g68" x2="1" gradientUnits="userSpaceOnUse" gradientTransform="matrix(-133.838,0,0,-584.198,1436.155,2586.599)">
			<stop offset="0" stop-color="#ff9085"/>
			<stop offset="1" stop-color="#fb6fbb"/>
		</linearGradient>
		<linearGradient id="g69" x2="1" gradientUnits="userSpaceOnUse" gradientTransform="matrix(-289.456,0,0,-572.748,1406.179,2578.144)">
			<stop offset="0" stop-color="#ff9085"/>
			<stop offset="1" stop-color="#fb6fbb"/>
		</linearGradient>
		<linearGradient id="g70" x2="1" gradientUnits="userSpaceOnUse" gradientTransform="matrix(-229.707,344.899,-228.61,-152.257,994.709,2173.364)">
			<stop offset=".004" stop-color="#26264f"/>
			<stop offset="1" stop-color="#444b8c"/>
		</linearGradient>
		<linearGradient id="g71" x2="1" gradientUnits="userSpaceOnUse" gradientTransform="matrix(-318.503,808.568,-610.109,-240.327,1145.571,2028.422)">
			<stop offset="0" stop-color="#ffc444"/>
			<stop offset=".996" stop-color="#f36f56"/>
		</linearGradient>
		<linearGradient id="g72" x2="1" gradientUnits="userSpaceOnUse" gradientTransform="matrix(143.046,190.203,-283.441,213.167,1351.332,2500.995)">
			<stop offset=".004" stop-color="#6165d7"/>
			<stop offset="1" stop-color="#aa80f9"/>
		</linearGradient>
		<linearGradient id="g73" x2="1" gradientUnits="userSpaceOnUse" gradientTransform="matrix(408.782,166.668,-298.369,731.802,1289.886,2523.147)">
			<stop offset="0" stop-color="#aa80f9"/>
			<stop offset=".996" stop-color="#6165d7"/>
		</linearGradient>
		<linearGradient id="g74" x2="1" gradientUnits="userSpaceOnUse" gradientTransform="matrix(38.842,92.25,-183.889,77.427,1479.897,2270.677)">
			<stop offset=".004" stop-color="#26264f"/>
			<stop offset="1" stop-color="#444b8c"/>
		</linearGradient>
		<linearGradient id="g75" x2="1" gradientUnits="userSpaceOnUse" gradientTransform="matrix(538.037,219.368,-567.302,1391.405,1199.355,2479.032)">
			<stop offset="0" stop-color="#aa80f9"/>
			<stop offset=".996" stop-color="#6165d7"/>
		</linearGradient>
		<linearGradient id="g76" x2="1" gradientUnits="userSpaceOnUse" gradientTransform="matrix(-80.875,8.276,-3.923,-38.332,1444.778,2475.143)">
			<stop offset="0" stop-color="#893976"/>
			<stop offset="1" stop-color="#311944"/>
		</linearGradient>
		<linearGradient id="g77" x2="1" gradientUnits="userSpaceOnUse" gradientTransform="matrix(-345.211,876.371,-807.762,-318.185,1126.832,1952.819)">
			<stop offset="0" stop-color="#ffc444"/>
			<stop offset=".996" stop-color="#f36f56"/>
		</linearGradient>
		<linearGradient id="g78" x2="1" gradientUnits="userSpaceOnUse" gradientTransform="matrix(-307.768,967.643,-789.891,-251.232,1066.355,2102.449)">
			<stop offset="0" stop-color="#ffc444"/>
			<stop offset=".247" stop-color="#fcaf48"/>
			<stop offset=".996" stop-color="#f36f56"/>
		</linearGradient>
		<linearGradient id="g79" x2="1" gradientUnits="userSpaceOnUse" gradientTransform="matrix(-120.069,-220.655,275.263,-149.783,1463.376,2215.086)">
			<stop offset="0" stop-color="#893976"/>
			<stop offset="1" stop-color="#311944"/>
		</linearGradient>
		<linearGradient id="g80" x2="1" gradientUnits="userSpaceOnUse" gradientTransform="matrix(-197.676,-149.282,152.635,-202.115,1448.122,2149.199)">
			<stop offset="0" stop-color="#893976"/>
			<stop offset="1" stop-color="#311944"/>
		</linearGradient>
		<linearGradient id="g81" x2="1" gradientUnits="userSpaceOnUse" gradientTransform="matrix(-23.941,46.3,-73.543,-38.028,1556.659,2361.415)">
			<stop offset="0" stop-color="#893976"/>
			<stop offset="1" stop-color="#311944"/>
		</linearGradient>
	</defs>
	<style>
		.s0 { fill: #f4f7fa } 
		.s1 { fill: url(#g1) } 
		.s2 { opacity: .3;fill: #fcfdfe } 
		.s3 { fill: url(#g2) } 
		.s4 { fill: #97a6b7 } 
		.s5 { opacity: .5;mix-blend-mode: multiply;fill: #97a6b7 } 
		.s6 { opacity: .1;mix-blend-mode: multiply;fill: #97a6b7 } 
		.s7 { fill: url(#g3) } 
		.s8 { fill: #d8dee8 } 
		.s9 { fill: #ffffff } 
		.s10 { fill: url(#g4) } 
		.s11 { fill: url(#g5) } 
		.s12 { fill: url(#g6) } 
		.s13 { fill: url(#g7) } 
		.s14 { fill: url(#g8) } 
		.s15 { fill: url(#g9) } 
		.s16 { fill: url(#g10) } 
		.s17 { fill: url(#g11) } 
		.s18 { fill: url(#g12) } 
		.s19 { fill: url(#g13) } 
		.s20 { fill: url(#g14) } 
		.s21 { fill: url(#g15) } 
		.s22 { fill: url(#g16) } 
		.s23 { fill: url(#g17) } 
		.s24 { fill: url(#g18) } 
		.s25 { fill: url(#g19) } 
		.s26 { fill: url(#g20) } 
		.s27 { fill: url(#g21) } 
		.s28 { fill: url(#g22) } 
		.s29 { fill: url(#g23) } 
		.s30 { fill: url(#g24) } 
		.s31 { fill: url(#g25) } 
		.s32 { fill: url(#g26) } 
		.s33 { fill: url(#g27) } 
		.s34 { fill: url(#g28) } 
		.s35 { fill: url(#g29) } 
		.s36 { fill: url(#g30) } 
		.s37 { fill: url(#g31) } 
		.s38 { mix-blend-mode: multiply;fill: #d8dee8 } 
		.s39 { fill: url(#g32) } 
		.s40 { opacity: .2;mix-blend-mode: multiply;fill: #d8dee8 } 
		.s41 { opacity: .3;mix-blend-mode: multiply;fill: #97a6b7 } 
		.s42 { fill: url(#g33) } 
		.s43 { fill: url(#g34) } 
		.s44 { fill: url(#g35) } 
		.s45 { fill: url(#g36) } 
		.s46 { fill: url(#g37) } 
		.s47 { fill: url(#g38) } 
		.s48 { fill: url(#g39) } 
		.s49 { fill: url(#g40) } 
		.s50 { fill: url(#g41) } 
		.s51 { fill: url(#g42) } 
		.s52 { fill: url(#g43) } 
		.s53 { fill: url(#g44) } 
		.s54 { fill: url(#g45) } 
		.s55 { opacity: .8;fill: #ffffff } 
		.s56 { opacity: .4;mix-blend-mode: soft-light;fill: #ffffff } 
		.s57 { fill: url(#g46) } 
		.s58 { opacity: .5;mix-blend-mode: multiply;fill: url(#g47) } 
		.s59 { fill: url(#g48) } 
		.s60 { fill: url(#g49) } 
		.s61 { fill: url(#g50) } 
		.s62 { opacity: .3;mix-blend-mode: multiply;fill: url(#g51) } 
		.s63 { opacity: .3;fill: url(#g52) } 
		.s64 { opacity: .3;mix-blend-mode: multiply;fill: url(#g53) } 
		.s65 { opacity: .3;mix-blend-mode: multiply;fill: url(#g54) } 
		.s66 { fill: url(#g55) } 
		.s67 { fill: url(#g56) } 
		.s68 { fill: url(#g57) } 
		.s69 { fill: url(#g58) } 
		.s70 { fill: url(#g59) } 
		.s71 { fill: url(#g60) } 
		.s72 { fill: url(#g61) } 
		.s73 { opacity: .3;mix-blend-mode: multiply;fill: url(#g62) } 
		.s74 { fill: url(#g63) } 
		.s75 { fill: url(#g64) } 
		.s76 { fill: url(#g65) } 
		.s77 { fill: url(#g66) } 
		.s78 { fill: url(#g67) } 
		.s79 { opacity: .3;mix-blend-mode: multiply;fill: url(#g68) } 
		.s80 { fill: url(#g69) } 
		.s81 { fill: url(#g70) } 
		.s82 { fill: url(#g71) } 
		.s83 { fill: url(#g72) } 
		.s84 { fill: url(#g73) } 
		.s85 { fill: url(#g74) } 
		.s86 { opacity: .3;mix-blend-mode: multiply;fill: url(#g75) } 
		.s87 { fill: url(#g76) } 
		.s88 { opacity: .3;mix-blend-mode: multiply;fill: url(#g77) } 
		.s89 { fill: url(#g78) } 
		.s90 { fill: url(#g79) } 
		.s91 { fill: url(#g80) } 
		.s92 { fill: url(#g81) } 
	</style>
	<g id="Illustration">
		<g id="Transportation surtax">
			<path id="&lt;Path&gt;" class="s0" d="m2574.4 620.9c93 133.2-16.1 349.2 122 449.4 134.4 97.5 299.6-62.4 426.2 21.6 188 124.5 153.7 694.4-121.1 1048.5-82.6 106.5-151.7 148-182.3 268.4-65.6 258.6 165.1 412.4 121.2 540.3-98.8 288-1619.6 529.7-2229.7-335.8-285-404.2-327.6-987.9-73-1431.2 460.1-801.1 1727.8-860.2 1936.7-561.2z"/>
			<g id="&lt;Group&gt;">
				<g id="&lt;Group&gt;">
					<g id="&lt;Group&gt;">
						<path id="&lt;Path&gt;" class="s1" d="m857 1623c165.9 107.9 69.4 176.8 9.8 327.5-12.5 31.6-14.2 59.3-7.8 83.4 30.9 116.4 241.9 155.3 350.7 160.2 82.5 3.7 164.1 7.4 208.6-45.7 30.8-36.7 35.5-89.9 42.7-191.1 2.3-32.1 3-64.2 1.6-96.3q-1.2-25.9-4-51.7-1.3-12.1-3-24.2c-0.2-0.8-0.3-1.9-0.4-3.1q0-0.2-0.1-0.5c0 0-10.4-53.2-32.5-103.8-26.7-61-80.5-104.6-112.2-165.5-37.1-71.2-34.7-137.6-27.9-189.2 35.8-270.3-148.8-778.6-447.3-607-171.3 98.5-18.6 339.8-113.9 504.8-90.5 156.9-30.2 294.4 135.7 402.2z"/>
						<path id="&lt;Path&gt;" class="s2" d="m1074.5 1540.7c0 0 0.1 0.1 0.1 0.1 6.1 13.3 12.2 26.6 18.6 39.8 78.9 162.6 182.2 308.2 305.6 432.9 0.8 0.4 1.7 0.3 2.2-0.4 0.5-0.6 0.4-1.7-0.3-2.4-227.9-229.2-382.4-526.4-449.4-863.4-0.8-141.7 61.9-267.6 125.5-358.8 0.2-0.9-0.1-1.8-0.9-2.3-0.8-0.5-1.8-0.5-2.5 0.1q-0.1 0-0.1 0.1c-61.2 88.2-121.4 208.7-125.1 344.8-23.7-125.3-35.5-255.9-34.5-390.6-0.2-0.9-1-1.5-2-1.5-1-0.1-1.8 0.6-2 1.5-1.6 278.7 52.8 548.2 159.4 788-92.6-99.2-220.5-148.2-333.8-171.6-0.9 0-1.8 0.7-2 1.6-0.3 1.2 0.3 2.2 1.4 2.5l0.1 0.1c116 24 247.3 74.8 339.7 179.5z"/>
					</g>
					<g id="&lt;Group&gt;">
						<path id="&lt;Path&gt;" class="s3" d="m802.5 2455.3c23.4 7.8 35.9 16.8 56.5 23.7 32.5 10.7 208.2 68.9 304.7-26.1 57.9-57.2 68-150.7 49.7-219.2-26.8-99.6-100.3-96.4-166.5-201.5-91.5-145.4 0.2-229.6-89.8-366.3-56-85.1-167-167.2-278.7-150.2-15.4 2.4-75.7 18.2-125.8 67.4-140.9 138.5 67.7 333.5 17.2 517.2-48.1 174.6 45 292.5 232.7 355z"/>
						<path id="&lt;Path&gt;" class="s2" d="m1020.4 2354.6c23.2 27.1 47.1 53.3 71.7 78.6 0.4 0.7 1.4 0.8 1.9 0.3 0.6-0.5 0.6-1.3 0.2-1.9-127.9-131.4-235.9-286.2-320.3-460.1-35.6-132.7-9.6-265.9 27-368.9-0.1-0.9-0.6-1.6-1.5-1.9-0.9-0.3-1.8 0-2.3 0.8 0 0-0.1 0.1-0.1 0.1-35 99.4-60 226.7-30.2 354.9-56.2-118.6-101.5-246-134.8-380.8-0.5-0.8-1.5-1.2-2.5-0.9-0.9 0.3-1.4 1.1-1.4 2 0 0.1 0 0.1 0 0.2 68 273.2 188.9 523.2 353.7 730.6-114.2-71.1-249.3-85.2-364-79.1-0.8 0.4-1.3 1.3-1.2 2.2 0.1 1 0.9 1.7 1.8 1.9q0 0 0 0c117.5-6.2 256.4 9 371.6 85.3 10 12.3 20.1 24.6 30.4 36.7z"/>
					</g>
				</g>
				<g id="&lt;Group&gt;">
					<g id="&lt;Group&gt;">
						<path id="&lt;Path&gt;" class="s4" d="m2178.2 1116v856.5l97.2-25.9v-749.2l-88.4-74-7.7-6.4z"/>
						<path id="&lt;Path&gt;" class="s0" d="m1908.2 1115.2v857.3h270v-857.3z"/>
						<path id="&lt;Path&gt;" class="s4" d="m2092.5 1916.2h34.3v-706.3h-34.3z"/>
						<path id="&lt;Path&gt;" class="s4" d="m2019.6 1916.2h35.7v-706.3h-35.7z"/>
						<path id="&lt;Path&gt;" class="s4" d="m1948.2 1916.2h35.7v-706.3h-35.7z"/>
						<path id="&lt;Path&gt;" class="s5" d="m2092.5 1916.2h11.4v-706.3h-11.4z"/>
						<path id="&lt;Path&gt;" class="s5" d="m2019.6 1916.2h11.4v-706.3h-11.4z"/>
						<path id="&lt;Path&gt;" class="s5" d="m1946.7 1916.2h11.5v-706.3h-11.5z"/>
						<path id="&lt;Path&gt;" class="s6" d="m1908.2 1972.5h270l97.2-25.9v-87.2c-45-97-30.2-137.4-39.9-209.4-9.5-70.2 10.5-440.5-48.5-526.6q-3.2-4.7-6.7-8.2-0.5 0.9-1 1.8-0.5 1-1.1 1.9c-30.7 55-44.7 81.3-51.4 109.2-6.5 27.2-6 56-7.1 114.5-1.3 71.9-1 134.5-15.8 177.5-3.1 9.1-6.8 17.3-11.4 24.5-8.9 14.1-20.9 24.6-37.2 30.7q-2.7 1.1-5.5 1.9c-6.3 1.9-12.6 4.9-18.8 8.8q-5.7 3.6-11.4 8.4c-12.6 10.7-24.6 25.3-35.7 43-9.4 15-18 32.2-25.7 51.1q-5.3 13-10 27-0.8 2.1-1.5 4.3c-17.5 53.8-27.8 117.7-26.9 182.7 0.4 28.3-4.1 51.1-11.6 70z"/>
					</g>
					<g id="&lt;Group&gt;">
						<path id="&lt;Path&gt;" class="s7" d="m2214.7 767.9v1266.8h414.4v-1266.8z"/>
						<path id="&lt;Path&gt;" class="s4" d="m2246.1 967.5h351.5v-79.3h-351.5z"/>
						<path id="&lt;Path&gt;" class="s4" d="m2246.1 1108.2h351.5v-79.3h-351.5z"/>
						<path id="&lt;Path&gt;" class="s4" d="m2246.1 1249h351.5v-79.3h-351.5z"/>
						<path id="&lt;Path&gt;" class="s4" d="m2246.1 1389.8h351.5v-79.4h-351.5z"/>
						<path id="&lt;Path&gt;" class="s4" d="m2246.1 1530.5h351.5v-79.3h-351.5z"/>
						<path id="&lt;Path&gt;" class="s4" d="m2246.1 1671.3h351.5v-79.4h-351.5z"/>
						<path id="&lt;Path&gt;" class="s4" d="m2246.1 1812h351.5v-79.3h-351.5z"/>
						<path id="&lt;Path&gt;" class="s4" d="m2629.1 767.9v1266.8l111.4-38.4v-1108.1l-108.2-116.8-2.8-3z"/>
						<path id="&lt;Path&gt;" class="s5" d="m2706.2 1080.1v17.9h68.6v-17.9z"/>
						<path id="&lt;Path&gt;" class="s5" d="m2706.2 1302.7v18h68.6v-18z"/>
						<path id="&lt;Path&gt;" class="s5" d="m2706.2 1525.4v17.9h68.6v-17.9z"/>
						<path id="&lt;Path&gt;" class="s5" d="m2706.2 1748v18h68.6v-18z"/>
						<path id="&lt;Path&gt;" class="s5" d="m2246.1 903.5h351.5v-15.3h-351.5z"/>
						<path id="&lt;Path&gt;" class="s5" d="m2246.1 1044.3h351.5v-15.4h-351.5z"/>
						<path id="&lt;Path&gt;" class="s5" d="m2246.1 1185h351.5v-15.3h-351.5z"/>
						<path id="&lt;Path&gt;" class="s5" d="m2246.1 1325.8h351.5v-15.4h-351.5z"/>
						<path id="&lt;Path&gt;" class="s5" d="m2246.1 1466.5h351.5v-15.3h-351.5z"/>
						<path id="&lt;Path&gt;" class="s5" d="m2246.1 1607.3h351.5v-15.4h-351.5z"/>
						<path id="&lt;Path&gt;" class="s5" d="m2246.1 1748h351.5v-15.3h-351.5z"/>
						<path id="&lt;Path&gt;" class="s6" d="m2228.4 2034.7h400.7l111.4-38.4v-245.4c-4.3-15.3-9-29.9-14.1-43.2-46.9-125.1-31.7-176-41.5-267.5-9.7-90.4 11.5-575.1-52.6-668.8q-1.2-1.9-2.5-3.5-0.2 0.2-0.3 0.5-0.2 0.5-0.4 1c-25.3 56.9-39.6 89.7-47.8 118.8-1.4 5.1-2.7 10.2-3.8 15.3-4.2 19.3-6 38.5-6.9 64-0.6 17-0.9 36.8-1.2 61.4q0 7.4-0.2 15.4 0 4.6-0.1 9.4c-0.3 18.7-0.5 36.9-0.7 54.5-0.4 21.5-0.9 42-1.7 61.5q-0.3 7.8-0.8 15.3c-1.3 23.3-3.3 44.7-6.6 64-4 24.2-10 44.9-18.8 61.4q-4.5 8.5-10.1 15.4c-8.4 10.3-18.6 18.1-31.2 22.8-15.9 6-31.4 20.3-45.8 41.2-11.5 16.6-22.4 37.3-32.2 61.4-2.1 4.9-4.1 10.1-6 15.3-7.3 19.7-13.9 41.1-19.7 64-5 19.5-9.4 40.1-13.1 61.4q-1.3 7.6-2.5 15.4c-3.2 20.7-5.8 42.2-7.6 64-1.6 20.2-2.7 40.7-3 61.4q-0.2 7.6-0.2 15.3 0 4.8 0.1 9.5c0.2 20.3-1.1 38.4-3.7 54.5-20.7 128.1-120.5 138.2-137.1 222.7z"/>
					</g>
					<g id="&lt;Group&gt;">
						<path id="&lt;Path&gt;" class="s5" d="m2956.4 1078.3h-70v18h70z"/>
						<path id="&lt;Path&gt;" class="s5" d="m2956.4 1301h-70v17.9h70z"/>
						<path id="&lt;Path&gt;" class="s5" d="m2956.4 1523.6h-70v18h70z"/>
						<g id="&lt;Group&gt;">
							<path id="&lt;Path&gt;" class="s4" d="m3027.8 957.3v1077.4l111.4-32.7v-942.5z"/>
							<path id="&lt;Path&gt;" class="s0" d="m2679.1 959.8v1074.9h348.7v-1074.9z"/>
							<g id="&lt;Group&gt;">
								<path id="&lt;Path&gt;" class="s4" d="m2896.3 1087.8v168.9h68.6v-168.9z"/>
								<path id="&lt;Path&gt;" class="s4" d="m2800.6 1087.8v168.9h70v-168.9z"/>
								<path id="&lt;Path&gt;" class="s4" d="m2706.2 1087.8v168.9h68.6v-168.9z"/>
								<path id="&lt;Path&gt;" class="s4" d="m2896.3 1310.4v168.9h68.6v-168.9z"/>
								<path id="&lt;Path&gt;" class="s4" d="m2800.6 1310.4v168.9h70v-168.9z"/>
								<path id="&lt;Path&gt;" class="s4" d="m2706.2 1310.4v168.9h68.6v-168.9z"/>
								<path id="&lt;Path&gt;" class="s4" d="m2896.3 1533.1v168.9h68.6v-168.9z"/>
								<path id="&lt;Path&gt;" class="s4" d="m2800.6 1533.1v168.9h70v-168.9z"/>
								<path id="&lt;Path&gt;" class="s4" d="m2706.2 1533.1v168.9h68.6v-168.9z"/>
								<path id="&lt;Path&gt;" class="s4" d="m2896.3 1755.7v168.9h68.6v-168.9z"/>
								<path id="&lt;Path&gt;" class="s4" d="m2800.6 1755.7v168.9h70v-168.9z"/>
								<path id="&lt;Path&gt;" class="s4" d="m2706.2 1755.7v168.9h68.6v-168.9z"/>
							</g>
							<path id="&lt;Path&gt;" class="s5" d="m2964.9 1087.8h-68.6v17.9h68.6z"/>
							<path id="&lt;Path&gt;" class="s5" d="m2964.9 1310.4h-68.6v17.9h68.6z"/>
							<path id="&lt;Path&gt;" class="s5" d="m2964.9 1533.1h-68.6v17.9h68.6z"/>
							<path id="&lt;Path&gt;" class="s5" d="m2964.9 1755.7h-68.6v17.9h68.6z"/>
							<path id="&lt;Path&gt;" class="s6" d="m2679.1 2016.8v17.9h348.7l111.4-32.7v-159.5c-7.4-34-16.4-67.1-27.1-94.5-41-104.9-27.6-147.6-36.2-224.3-8.6-76.8 10.5-493.1-48.1-563.9-54.8 118.6-51 113.5-52.9 239.7-1 67.6-0.9 127.3-10 171.6-7.9 38.6-22.6 65.5-51 75.8-5.9 2.2-11.8 5.6-17.6 10.3-18.4 14.7-35.8 41.3-50.5 75.9-19.3 45.4-34.1 104.6-41 168.9-1.9 17.6-3.2 35.5-3.8 53.7q-0.4 9.1-0.4 18.2-0.1 8 0 15.9 0 2.8 0 5.6c-0.3 45.9-10.9 77.5-25.8 101.8-6.3 10.3-13.3 19.3-20.7 27.4-29.6 32.6-64.3 52.3-75 92.2z"/>
						</g>
					</g>
				</g>
			</g>
			<g id="&lt;Group&gt;">
				<path id="&lt;Path&gt;" class="s4" d="m543.3 2431.3c8.9 54.5 74 111.2 294.8 196 120.3 46.3 456.7 178.2 753.2 275.3 282.3 92.5 387.9 140.6 533.6 182.4 62.8 18 588.6 163 838.7-49.9 92.9-79.2 153.2-191.3 171.5-321.5-1.9-0.4-0.5-44.1-2.4-44.5-775.5-173.9-1380.5-249.2-1365.7-360.7 4.2-31.2 54.7-61.2 130.8-86.1l-4-141.4c-87.4 5.4-167.8 11-225.8 15.9-210.5 18-615.8 52.2-845.2 132.5-123.4 43.2-224.3 64-264.1 97.8-14.6 12.4-19.4 49.1-19 61.7 0.8 23.9 1.1 27.1 3.6 42.5z"/>
				<path id="&lt;Path&gt;" class="s8" d="m546.6 2376.2c8.9 54.3 70.7 114.6 291.2 199.9 120.1 46.5 456.2 179.1 752.4 276.9 282.1 93.2 387.5 141.5 533.1 183.6 62.7 18.2 588.1 164.5 838-47.2 92.8-78.7 153.1-190.5 171.4-320.3-778.8-174.7-1381.7-297-1366.9-408.5 4.1-31.1 54.6-60.9 130.7-85.6l-4.1-141.1c-87.3 5.2-167.6 10.5-225.6 15.2-210.3 17.4-615.2 50.3-844.3 129.7-236.3 82-284.8 143.2-275.9 197.4z"/>
				<g id="&lt;Group&gt;">
					<g id="&lt;Group&gt;">
						<path id="&lt;Path&gt;" class="s9" d="m2876.3 2937.3c8.2-0.5 15.7-6.1 18-14.3 3-10.3-3.1-20.9-13.5-23.7-39.2-10.5-78.4-21.2-116.5-31.7-10.6-2.9-21.7 3.1-24.8 13.4-3.1 10.4 2.9 21.2 13.5 24 38.3 10.5 77.7 21.2 117.1 31.6 2.1 0.6 4.2 0.8 6.2 0.7z"/>
					</g>
					<g id="&lt;Group&gt;">
						<path id="&lt;Compound Path&gt;" class="s9" d="m2472 2824.9c-94.5-28-188.8-57.1-288.4-88.9-11.2-3.6-17-14.9-13-25.4 4-10.5 16.2-16.1 27.3-12.5 99.1 31.9 192.9 61 286.8 89.1 10.8 3.2 16.7 14.3 13.2 24.7-2.7 8.1-10.4 13.5-18.9 13.9-2.3 0.1-4.7-0.2-7-0.9zm-584.4-186.2q-21.4-7.3-43.1-14.6c-86.8-29.5-166-61.5-256.8-104.1-11.2-5.3-15.4-17.7-9.5-27.8 6-10.1 19.9-14 31.1-8.7 88.9 41.9 166.4 73.4 251.2 102.4q21.6 7.4 42.9 14.6c11.4 3.9 17.1 15.6 12.8 26.1-3.4 8-11.5 13-20.2 13.3-2.8 0.1-5.6-0.3-8.4-1.2z"/>
					</g>
					<g id="&lt;Group&gt;">
						<path id="&lt;Path&gt;" class="s9" d="m1303.6 2379.6c8.4-0.1 16.6-4.3 20.8-11.3 6-10.2 1.6-22.8-10-28-45-20.6-88.4-39.1-132.6-56.6-12.1-4.8-26.4-0.1-31.9 10.4-5.6 10.6-0.3 23 11.8 27.7 43.6 17.2 86.3 35.3 130.7 55.5 3.6 1.6 7.4 2.3 11.2 2.3z"/>
					</g>
				</g>
			</g>
			<g id="&lt;Group&gt;">
				<path id="&lt;Path&gt;" class="s10" d="m2338.1 1839.7c-2.4 0-4.6-1.4-5.7-3.6-1.3-2.8-131.9-278.3-284.1-399.6-2.7-2.2-3.2-6.1-1-8.8 2.2-2.7 6.1-3.2 8.8-1 154.5 123.2 286.4 401.2 287.7 404 1.5 3.2 0.1 6.9-3 8.4-0.9 0.4-1.8 0.6-2.7 0.6z"/>
				<path id="&lt;Path&gt;" class="s11" d="m2536 1821.2c-2.3 0-4.6-1.3-5.7-3.6-1.3-2.8-131.9-278.2-284.1-399.5-2.7-2.2-3.1-6.2-1-8.9 2.2-2.7 6.1-3.1 8.9-1 154.4 123.2 286.3 401.3 287.6 404.1 1.5 3.1 0.1 6.9-3 8.3-0.9 0.4-1.8 0.6-2.7 0.6z"/>
				<g id="&lt;Group&gt;">
					<path id="&lt;Path&gt;" class="s12" d="m2336.8 1793.7c-1.1-2.6-3.7-4.3-6.5-4.3h-18.4c-5 0-8.4 5-6.5 9.7l32.4 78.3h33.5z"/>
					<path id="&lt;Path&gt;" class="s13" d="m2535.7 1793.7c-1-2.6-3.6-4.3-6.4-4.3h-18.4c-5 0-8.4 5-6.5 9.7l32.3 78.3h33.6z"/>
					<path id="&lt;Path&gt;" class="s14" d="m2274 1915.8v-47.5l169.7-20.9v60.1z"/>
					<path id="&lt;Path&gt;" class="s15" d="m2732.4 1861.3l-288.7-13.9v60.1h288.7z"/>
					<path id="&lt;Path&gt;" class="s8" d="m1985.3 1949.4c-4.8-4.2 0-30.8 0-30.8l505.3-36.3 369 9.8v36.3z"/>
					<path id="&lt;Path&gt;" class="s16" d="m2120.2 2417.1l-180.1-7.9v-163.5l180.1 33.4z"/>
					<path id="&lt;Path&gt;" class="s17" d="m2476.1 2555.9c-0.4 10.3-232.3 3.5-232.3 3.5l-38.1-150.1 50.3-87.4c0 0 229.5-47 220.1 234z"/>
					<g id="&lt;Group&gt;">
						<path id="&lt;Path&gt;" class="s18" d="m2043.5 2299.2q0.1 0 0.1 0c3.3 0.4 6.3 2.3 9.3 4.9 2.9 2.1 6.3 4.6 6.3 7.7v0.1c11.2 16.5 18.5 47 18.5 81.2 0.1 45.5-12.9 82.3-30 86.6 0 0 0.1 0 0.1 0-1.2 0.2-15.5 7.6-60.6 0.3-1.2-27.7-1.9-184.5-1.9-184.5 0 0 36-2.7 58.2 3.7z"/>
						<g id="&lt;Group&gt;">
							<path id="&lt;Path&gt;" class="s19" d="m1953.5 2384.4c0 52 16.8 95.2 37.3 96.3 20 1 35.9-38.9 35.9-89.2 0-50.2-16-93.1-36-96-20.4-2.9-37.2 36.9-37.2 88.9z"/>
							<path id="&lt;Path&gt;" class="s9" d="m1969.5 2385.6c0 36.9 11.2 67.6 24.9 68.5 13.5 0.9 24.3-27.6 24.3-63.7 0-36.1-10.9-66.7-24.4-68.4-13.6-1.8-24.8 26.7-24.8 63.6z"/>
						</g>
					</g>
					<g id="&lt;Group&gt;">
						<path id="&lt;Path&gt;" class="s20" d="m2393.1 2421.7q0 0 0 0c4 0.6 7.7 2.8 11.4 6 3.5 2.6 7.7 5.6 7.7 9.4v0.1c13.6 20.1 22.5 57.3 22.5 99 0.1 55.5-15.7 100.3-36.5 105.5 0 0 0 0 0 0-1.4 0.3-18.8 9.4-73.8 0.5-1.5-33.8-2.3-225-2.3-225 0 0 43.9-3.2 71 4.5z"/>
						<g id="&lt;Group&gt;">
							<path id="&lt;Path&gt;" class="s21" d="m2283.3 2525.5c0 63.5 20.6 116.1 45.5 117.4 24.4 1.3 43.8-47.4 43.7-108.7 0-61.2-19.5-113.5-43.8-117-24.9-3.5-45.4 44.9-45.4 108.3z"/>
							<path id="&lt;Path&gt;" class="s9" d="m2302.8 2527c0 45 13.7 82.5 30.4 83.6 16.4 1 29.6-33.8 29.6-77.7 0-44-13.2-81.3-29.7-83.4-16.7-2.2-30.3 32.5-30.3 77.5z"/>
						</g>
					</g>
					<path id="&lt;Path&gt;" class="s22" d="m1985.3 1935.4l-102.6 19.9c-7.6 1.5-13.3 7.7-14.1 15.3-17.7 156.7-9 329.7-5.4 385.4 0.8 11.2 7.5 21.3 17.6 26.3l52.8 25.9c7.1 3.6 15.5-1.8 15.2-9.7q-0.1-4.7-0.1-9.4c0-58.7 16.4-106.2 36.6-106.2 20.2 0 36.6 47.5 36.6 106.2 0 16.6-1.3 32.3-3.7 46.3-1.3 8 2.8 15.9 10 19.5l212.1 104.4c6.6 3.3 14.4-1.7 14.3-9.2q-0.2-5.1-0.2-10.3c0-83.8 22.9-151.8 51-151.8 28.2 0 51.1 68 51.1 151.8 0 22.2-1.7 43.3-4.6 62.4-1 6.7 2.6 13.3 8.7 16.3l148.2 73 76.5-5.7 288.8-793.2z"/>
					<path id="&lt;Path&gt;" class="s23" d="m2594 2416.5l-18-429.4c-60.2-5-594.1-15.2-707.8-13-7.5 67.8-10.1 138.4-10.3 201.2l504.9 112.3z"/>
					<path id="&lt;Path&gt;" class="s24" d="m1936.5 2029.9l-40-2.2c-2.2-0.2-4 1.6-4 3.8v356.5l41.1 20.2c2.1 1.1 4.4 1.3 6.5 1v-375.5c0-2-1.6-3.7-3.6-3.8z"/>
					<path id="&lt;Path&gt;" class="s25" d="m1935.4 2404.5l-38.7-19.1v-353.5l39.2 2.1v370.7q-0.3-0.1-0.5-0.2z"/>
					<path id="&lt;Path&gt;" class="s26" d="m2155.8 2042.1l-72.5-4c-3-0.2-5.6 2.2-5.6 5.3-0.4 44.6-2.5 341.4-1.1 435.3l84.2 41.5v-472.7c0-2.9-2.2-5.2-5-5.4z"/>
					<path id="&lt;Path&gt;" class="s27" d="m2087 2472.1c-1.2-97.1 0.7-371.3 1.1-423.3l62.3 3.5v451z"/>
					<path id="&lt;Path&gt;" class="s28" d="m2498.3 2061.2l-108.1-6c-6.4-0.4-11.8 4.7-11.8 11.2 0 72.4 0.1 456 0 560.9l130.4 64.2h0.1v-619.1c0-6-4.6-10.9-10.6-11.2z"/>
					<path id="&lt;Path&gt;" class="s29" d="m2393.1 2618.2c0-54.2 0-193.9 0-546.5v-1.7l101.1 5.7v592.3z"/>
					<path id="&lt;Path&gt;" class="s30" d="m2576 1956.6v30.5l7.2 0.9v417.1l-7.2 1.4v268.3c0 8.5 7.1 15.2 15.5 14.7l580.8-33.4c9.6-0.5 17.1-8.5 17.1-18.1v-675.7c0-12-7.6-22.8-18.9-26.6-171.3-58.2-364.1-55.4-573.5-5.6-12.3 2.9-21 13.9-21 26.5z"/>
					<path id="&lt;Path&gt;" class="s31" d="m3189.4 2395.2l-613.4 11.3v-419.4h613.4z"/>
					<g id="&lt;Group&gt;">
						<path id="&lt;Path&gt;" class="s32" d="m2725.5 2517.6l-55.5 2.1c-6.4 0.3-11.7 5.3-11.7 11.4v33.5c0 6 5.3 10.7 11.7 10.4l55.5-2.6c6.4-0.3 11.5-5.4 11.5-11.3v-33.2c0-5.9-5.1-10.6-11.5-10.3z"/>
						<path id="&lt;Path&gt;" class="s33" d="m3133.1 2502l-49.2 1.9c-5.7 0.2-10.3 5-10.3 10.6v31.6c0 5.7 4.6 10 10.3 9.8l49.2-2.3c5.6-0.3 10.2-5 10.2-10.6v-31.3c0-5.6-4.6-9.9-10.2-9.7z"/>
					</g>
					<g id="&lt;Group&gt;" style="opacity: .3;mix-blend-mode: overlay">
						<path id="&lt;Path&gt;" class="s9" d="m3189.4 2638v-675.7c0-12-7.6-22.8-18.9-26.6-134.2-45.6-281.7-53.8-440-31.2 69.3 47.4 100 96.9 112.8 140.9 26.2 90.5-28.5 140 7.4 238.9 40.2 110.7 135.1 121.1 221.1 220.7 29.7 34.5 61.2 82.8 83.5 152.1l17-1c9.6-0.5 17.1-8.5 17.1-18.1z"/>
					</g>
					<path id="&lt;Path&gt;" class="s34" d="m2539.1 2573.4l75.1 37.2 575.2-27.4v63.2c0 14.6-11.3 26.8-25.9 27.8l-561.5 38.3c-17.2 1.2-34.4-1-50.8-6.6l-42.4-14.4 6-103.9c0.7-12.1 13.5-19.6 24.3-14.2z"/>
					<path id="&lt;Path&gt;" class="s35" d="m2599.6 2636.5v35.4c0 10.6 9 19.1 19.6 18.5l543.1-30.5c5.8-0.3 10.3-5.1 10.3-10.9v-45.3c0-6.2-5.2-11.2-11.4-10.9l-543.9 25.2c-9.9 0.5-17.7 8.6-17.7 18.5z"/>
				</g>
				<path id="&lt;Path&gt;" class="s36" d="m1845.7 1300c2 2.3 4.5 4.9 6.9 7.3 2.5 2.3 5 4.7 7.7 6.9 2.6 2.2 5.3 4.5 8.1 6.5 2.8 2.1 5.5 4.3 8.4 6.2l8.7 5.9 9 5.4 4.4 2.8 4.7 2.5 9.2 4.9c24.9 12.9 51.4 22.8 78.4 30.7l10.1 3c3.3 1 6.8 1.7 10.2 2.6 6.8 1.7 13.7 3.4 20.5 5l20.8 4 10.3 2 10.5 1.6 20.9 3.1c7 0.9 14 1.4 21.1 2.2 7 0.7 14 1.5 21 2.1l21.1 1.2c56.4 3.1 113 1.2 169.4-3.5l42.2-4.2c3.5-0.3 7-0.8 10.5-1.2l10.5-1.5 21-2.8 21.1-2.8 20.9-3.6 41.8-7.1c111.3-21 220.9-50.3 328.8-84.8 107.9-34.5 214.2-74.2 319.1-116.9l79.2-30.8c4.3-1.8 9.2 0.3 10.9 4.6 1.8 4.3-0.3 9.2-4.6 10.9l-79.1 30.8c-105.6 42.3-212.5 81.4-321.1 115.5-108.5 33.9-218.8 62.7-330.9 83.2l-42.1 6.9-21.1 3.4-21.2 2.8-21.2 2.7-10.6 1.4c-3.5 0.4-7 0.9-10.6 1.2l-42.5 4c-56.9 4.4-114 5.9-171 2.5l-21.3-1.4c-7.1-0.6-14.2-1.5-21.3-2.2-7.1-0.8-14.2-1.4-21.3-2.4l-21.2-3.3-10.6-1.6-10.5-2.1-21-4.2c-7-1.7-13.9-3.5-20.9-5.2-3.4-0.9-6.9-1.7-10.3-2.7l-10.3-3.1c-27.4-8.2-54.4-18.5-79.8-31.8l-9.5-5.2-4.7-2.6-4.6-2.8-9.2-5.7-8.9-6.1c-3-2-5.8-4.3-8.7-6.5-2.9-2.1-5.7-4.5-8.4-6.9-2.8-2.2-5.4-4.8-8.1-7.3-2.6-2.6-5.1-5.1-7.6-8.2-1.6-1.9-1.3-4.6 0.6-6.1 1.8-1.5 4.5-1.3 6 0.6z"/>
				<path id="&lt;Path&gt;" class="s37" d="m1786.5 1318.8c0.5 1 1.4 2.2 2.2 3.2l2.5 3.3c1.8 2.1 3.5 4.2 5.4 6.3 1.9 2 3.8 4.1 5.7 6.1l6.1 5.8c2 1.8 4.2 3.6 6.3 5.5l3.2 2.7 3.3 2.6 6.7 5.1c2.2 1.7 4.6 3.2 6.9 4.8 18.5 12.7 38.7 22.9 59.7 31.2 20.8 8.6 42.8 14.3 64.8 19.3l16.6 3.1c2.8 0.5 5.6 1.1 8.4 1.5l8.4 1.1 16.8 2.2c2.8 0.4 5.6 0.6 8.5 0.8l8.4 0.6c45.2 3.5 90.7 1.8 135.8-3l33.8-4.3c2.8-0.3 5.6-0.8 8.4-1.2l8.4-1.5 16.8-2.9c5.6-0.9 11.2-1.8 16.8-2.9l16.7-3.6c11.1-2.4 22.2-4.6 33.3-7.2 88.4-21.4 174.8-51 259.1-85.5 84.3-34.4 166.7-73.7 247.6-115.7l397.6-210.6c4.1-2.2 9.1-0.6 11.3 3.5 2.1 4.2 0.5 9.2-3.6 11.3l-397.6 210.7c-81.6 41.6-164.7 80.5-249.8 114.5-85.1 34-172.3 63.2-261.7 84.2-11.2 2.5-22.5 4.7-33.7 7l-16.9 3.5c-5.6 1.1-11.3 1.9-17 2.9l-17 2.7-8.5 1.4c-2.8 0.5-5.7 1-8.5 1.3l-34.3 4c-45.7 4.5-91.9 5.9-137.8 2.1l-8.7-0.7c-2.8-0.3-5.7-0.5-8.6-0.9l-17.1-2.4-8.6-1.1c-2.8-0.5-5.6-1.1-8.5-1.6l-17-3.4c-22.4-5.2-44.9-11.2-66.2-20.2-21.5-8.7-42.2-19.4-61.3-32.6-2.4-1.7-4.8-3.3-7.1-5.1l-6.9-5.3-3.4-2.7-3.3-2.9c-2.2-2-4.4-3.8-6.6-5.8l-6.2-6.1c-2.1-2.1-4-4.3-6-6.5-2-2.1-3.9-4.4-5.7-6.7-1.9-2.4-3.6-4.6-5.3-7.4-1.3-2-0.7-4.7 1.3-6 2-1.2 4.7-0.6 6 1.4z"/>
			</g>
			<g id="&lt;Group&gt;">
				<g id="&lt;Group&gt;">
					<path id="&lt;Path&gt;" class="s4" d="m2086.9 2531.4c0 19.4-14.7 36-33 36.9l-1160.8 60.3c-21.4 1.1-38.7-15.1-38.7-36.1v-1722.3c0-21.1 17.3-37.1 38.7-35.8l15.5-0.8 1145.3 71.6c18.3 1.1 33 17.8 33 37.3z"/>
					<path id="&lt;Path&gt;" class="s8" d="m2109.8 2530.6c0 19.4-14.8 36-33 36.9l-1160.9 60.3c-21.3 1.1-38.6-15.1-38.6-36.1v-1722.3c0-21.1 17.3-37.1 38.6-35.8l1160.9 70.8c18.2 1.1 33 17.8 33 37.3z"/>
					<path id="&lt;Path&gt;" class="s38" d="m1217.1 995.5c-28.9 37.1-33 107.2 16.5 136 107.1 66 247.3 45.4 350.3-24.7 75.9-53.1 43.6-151.5 21.9-231.1l-228.3-13.9c-19.7 54.9-124.2 85.5-160.4 133.7z"/>
					<path id="&lt;Compound Path&gt;" fill-rule="evenodd" class="s39" d="m1781.5 1095.3l-535.7-20.9-3.6-4.6 41.8-83.8c4.4-9 13.8-14.7 23.3-14.2l58.2 3.1c26 1.4 50.9-17.4 57.7-43.7l15.8-60.8c3-11.2 13.5-19.2 24.6-18.5l18.2 1.1c6.6 0.4 13.4-1.9 18.8-6.5 5.4-4.5 9-10.9 10.1-17.7 3.8-25.2 26.6-44.3 50.9-42.7 24.1 1.6 40.6 23.2 36.8 48.3-2.1 14.1 7.2 26.3 20.7 27.1l17.9 1.1c10.8 0.7 18.5 9.7 18 20.9l-2.7 60.7c-1.2 26.2 16.9 47.1 41.9 48.4l55.3 3c8.9 0.5 16 6.8 17.5 15.9zm-213-269.5c1.1-7.4-3.7-13.7-10.8-14.2-7.1-0.4-13.8 5.2-14.9 12.5-1.1 7.4 3.7 13.7 10.8 14.2 7.1 0.4 13.8-5.2 14.9-12.5z"/>
					<g id="&lt;Group&gt;">
						<path id="&lt;Path&gt;" class="s9" d="m2060.5 1044.5v1451.2l-158.5 7.6-946.5 44.2-7-238.4v-1297.3l166.7 5z"/>
						<path id="&lt;Compound Path&gt;" class="s8" d="m1039.4 1194.1v28.2l46.6 0.8v131l37.3 0.4v-130.7l46.6 0.9v-27.9z"/>
						<path id="&lt;Compound Path&gt;" fill-rule="evenodd" class="s8" d="m1342.7 1357.2l-38.3-0.4-12.2-37.6-29.7-0.5-31.8-0.4-12.3 37.4-38.8-0.5 59.9-157.7 21.3 0.5 22.4 0.4zm-58.9-66.2c-10.8-32.5-17.1-51.6-18.9-57.2q-0.1-0.4-0.2-0.7-2.2-6.8-3.1-10.6-3.8 13.7-21.8 67.9l25.1 0.3z"/>
						<path id="&lt;Compound Path&gt;" class="s8" d="m1447.8 1279.8l51.8-76.3-37.7-0.8-35 55.5-35.8-56.9-39-0.8 51.8 76.8-55.3 80 37.8 0.5 38.7-58.7 38.5 59.6 40 0.5z"/>
						<path id="&lt;Path&gt;" class="s8" d="m1865.1 1244.6l-308.8-5.7v-34.6l308.8 6.2z"/>
						<path id="&lt;Path&gt;" class="s8" d="m1996 1306.8l-439.7-6.8v-36.6l439.7 7.5z"/>
						<path id="&lt;Path&gt;" class="s8" d="m1996 1364.5l-439.7-5.4v-34.6l439.7 6.2z"/>
						<path id="&lt;Path&gt;" class="s8" d="m1356.3 1519.2l-316.2-1.3v-35.6l316.2 1.9z"/>
						<g id="&lt;Group&gt;">
							<g id="&lt;Group&gt;">
								<path id="&lt;Compound Path&gt;" fill-rule="evenodd" class="s8" d="m1211.9 1574.6v136.8l-81.4 0.5-21.9 0.1-43.6 0.2v-137.8l126.2 0.2zm-20.9 18.8h-13.2l-96.4-0.2v100.1h6.4l58.1-0.3 45.1-0.2z"/>
							</g>
							<path id="&lt;Path&gt;" class="s8" d="m1996 1611.4l-721.2 0.4v-37.2l721.2 0.9z"/>
							<path id="&lt;Path&gt;" class="s8" d="m1996 1669.1l-721.2 2.7v-35.2l721.2-1.4z"/>
						</g>
						<g id="&lt;Group&gt;">
							<g id="&lt;Group&gt;">
								<path id="&lt;Compound Path&gt;" fill-rule="evenodd" class="s8" d="m1211.9 1777.7v136.9l-146.9 2.3v-137.8l116.9-1.1zm-21 18.9l-22.8 0.2-86.7 0.9v100.1l20-0.3 35.1-0.5 54.4-0.8z"/>
							</g>
						</g>
						<g id="&lt;Group&gt;">
							<path id="&lt;Compound Path&gt;" class="s4" d="m1282.5 1871.5c6.5 3.2 17 6.4 27.5 6.3 11.4-0.1 17.4-4.7 17.4-11.6 0-6.6-5.3-10.3-18.4-14.5-18.2-6.1-30.3-15.7-30.4-31 0-18 15.7-31.7 41.4-31.9 12.5-0.1 21.4 2.2 27.9 5.1l-5.4 19.1c-4.3-2-12.2-4.9-22.8-4.8-10.7 0.1-15.9 4.9-15.8 10.3 0 6.7 6 9.6 20.3 14.6 19.3 6.7 28.2 16.3 28.3 31.1 0 17.6-13.9 32.8-43.9 33.1-12.5 0.2-24.9-2.9-31.1-6.2z"/>
							<path id="&lt;Compound Path&gt;" class="s4" d="m1401.6 1789.8l0.2 60.2c0 18.2 7.3 27.3 19.7 27.2 12.8-0.2 19.8-9 19.8-27.6l-0.2-60 24.3-0.2 0.2 58.6c0.1 32.2-16.7 47.8-44.9 48.1-27.3 0.4-43.3-14.2-43.4-47.6l-0.2-58.5z"/>
							<path id="&lt;Compound Path&gt;" fill-rule="evenodd" class="s4" d="m1494.5 1790.6c7.8-1.3 19.3-2.3 32.3-2.4 15.8-0.1 26.9 2.2 34.5 8 6.5 4.9 10 12.2 10.1 21.8 0 13.1-9.6 22.3-18.8 25.6v0.5c7.5 2.8 11.6 9.6 14.3 19.1 3.4 11.8 6.6 25.3 8.6 29.3l-24.7 0.3c-1.5-3-4.3-11.3-7.3-24.1-3.1-13.1-7.7-16.5-17.7-16.5l-7.1 0.1 0.1 40.9-24 0.3zm24.1 44.7l9.6-0.1c12-0.1 19.1-6.1 19.1-15.2 0-9.4-6.7-14.3-17.8-14.2-5.9 0.1-9.2 0.4-10.9 0.9z"/>
							<path id="&lt;Compound Path&gt;" class="s4" d="m1617.1 1808.1l-28.7 0.2-0.1-19.7 81.4-0.5v19.6l-28.8 0.2 0.2 83.8-23.8 0.3z"/>
							<path id="&lt;Compound Path&gt;" fill-rule="evenodd" class="s4" d="m1703.6 1864.5l-7.4 26.6-24.5 0.3 31.7-103.6 31.1-0.2 32.8 102.6-25.6 0.3-8.1-26.3zm26.5-17.7l-6.5-21.8c-1.9-6.1-3.8-13.8-5.4-19.9h-0.3c-1.5 6.2-3.1 14-4.8 20l-6.1 21.9z"/>
							<path id="&lt;Compound Path&gt;" class="s4" d="m1839.7 1889.3l-9.4-18.4c-3.8-7.1-6.3-12.4-9.3-18.3h-0.3c-2.1 5.9-4.7 11.3-8.1 18.5l-8.4 18.6-26.8 0.4 29.9-52.3-29.1-50.5 27-0.1 9.1 18.6c3.1 6.2 5.4 11.2 7.9 17h0.3c2.4-6.6 4.4-11.2 7-17.1l8.7-18.8 26.7-0.1-29 50.1 30.8 52.1z"/>
						</g>
						<g id="&lt;Group&gt;">
							<g id="&lt;Group&gt;">
								<path id="&lt;Compound Path&gt;" fill-rule="evenodd" class="s8" d="m1211.9 1980.9v136.8l-146.9 3.9v-137.8zm-21 19.1l-109.5 2.2v102.2l109.5-2.8z"/>
							</g>
							<path id="&lt;Path&gt;" class="s8" d="m1996 2001.5l-721.2 15.4v-37.2l721.2-14z"/>
							<path id="&lt;Path&gt;" class="s8" d="m1996 2059.3l-721.2 17.5v-35.1l721.2-16.3z"/>
						</g>
						<g id="&lt;Group&gt;">
							<g id="&lt;Group&gt;">
								<path id="&lt;Compound Path&gt;" fill-rule="evenodd" class="s8" d="m1211.9 2184.1v136.8l-146.9 5.4v-137.9zm-21 19.3l-109.5 3.4v102.2l109.5-3.9z"/>
							</g>
							<path id="&lt;Path&gt;" class="s8" d="m1996 2196.6l-721.2 22.8v-37.2l721.2-21.4z"/>
							<path id="&lt;Path&gt;" class="s8" d="m1996 2254.4l-721.2 24.9v-35.1l721.2-23.7z"/>
						</g>
						<path id="&lt;Path&gt;" class="s4" d="m1119.8 1907.3c-4.7 0.1-9.1-1.6-12.4-4.6l-48.9-44.6c-6.9-6.2-6.9-16.6 0-23 6.9-6.5 18-6.6 24.9-0.3l33.9 31 78.4-105.8c5.5-7.3 16.3-9.3 24.2-4.2 7.8 5 9.8 15.1 4.3 22.5l-90 121.8c-3 4-7.7 6.6-12.9 7.1q-0.7 0.1-1.5 0.1z"/>
						<path id="&lt;Path&gt;" class="s40" d="m1902.2 2503.3l-948.3 45.6-5.4-239.8v-1297.3l166.9 5c63.9 22.9 127.6 73.3 145.5 181.2 1.9 11.3 3.2 23.2 4 35.8 1.2 17.6 1.2 36.6 0 56.9q-0.8 13.6-2.4 28-0.6 6-1.4 12.1c-7.8 62.1-7.2 111.9-0.2 152.8 2.1 12.6 4.8 24.2 8.1 35.2 6.3 21 14.5 39.4 24.4 55.9 8.1 13.5 17.3 25.8 27.3 37.1 7.8 8.7 16 16.9 24.6 24.7 13.6 12.3 28.2 23.7 43.4 34.8 42.1 31.1 88.7 60.6 130.8 103.7 10.9 11.1 21.5 23.1 31.7 36.3q8.8 11.5 17.2 24.3c7 10.7 13.7 22.1 20 34.3q6.1 11.5 11.7 24.1c11.6 26.1 18.8 52.5 22.9 78.9 2 12.2 3.2 24.4 4 36.5 0.5 8.1 0.7 16.2 0.8 24.3 0.1 11.6-0.2 23.1-0.8 34.6-1.7 35.3-6.2 70.1-10.3 103.8-1.5 12.4-2.9 24.6-4.1 36.7q-1.3 12.3-2.2 24.4c-0.8 11.7-1.3 23.3-1.4 34.6-0.4 112.4 46.3 201.5 293.2 235.5z"/>
					</g>
					<path id="&lt;Compound Path&gt;" fill-rule="evenodd" class="s4" d="m1785.1 1099.8l-539.3-25.4 41.7-83.8c4.5-9 13.9-14.7 23.4-14.2l58.2 3.1c26 1.4 50.9-17.4 57.7-43.7l15.8-60.8c3-11.3 13.5-19.2 24.6-18.6l18.2 1.2c6.6 0.4 13.4-1.9 18.8-6.5 5.4-4.5 9-10.9 10.1-17.8 3.8-25.2 26.6-44.3 50.8-42.6 24.2 1.6 40.7 23.2 36.9 48.2-2.1 14.2 7.2 26.4 20.7 27.2l17.9 1.1c10.8 0.7 18.5 9.7 18 20.9l-2.7 60.7c-1.2 26.2 16.8 47 41.8 48.4l55.4 3c8.9 0.4 16 6.8 17.5 15.9zm-213-269.5c1.1-7.4-3.7-13.7-10.8-14.2-7.1-0.5-13.8 5.1-14.9 12.5-1.1 7.4 3.7 13.7 10.8 14.2 7.1 0.4 13.8-5.2 14.9-12.5z"/>
					<path id="&lt;Path&gt;" class="s41" d="m1753.1 1000.2l-55.4-3c-16.6-0.9-30.1-10.4-36.9-24.4-51.3 10.8-105.3-0.4-159.3 10.4-37.1 8.2-33 65.9-74.2 70-59.1 8-117.6 8.6-175.5 9.1l-6 12.1 539.3 25.4-14.5-83.7c-1.5-9.1-8.6-15.5-17.5-15.9z"/>
				</g>
			</g>
			<g id="&lt;Group&gt;">
				<path id="&lt;Path&gt;" class="s42" d="m1751 2880.1h17.2l21.2-54c0 0-39 2.7-38.4 54z"/>
				<path id="&lt;Path&gt;" class="s43" d="m2151.3 2973.4l-111.6-20.7c0 0-10.1-86.1 39.8-94.3 49.8-8.2 76.6 58.5 71.8 115z"/>
				<g id="&lt;Group&gt;">
					<path id="&lt;Path&gt;" class="s44" d="m2145.8 2872.1q0 0 0.1 0c3.4 0.3 6.6 1.7 9.8 3.6 3.1 1.6 6.7 3.4 6.7 5.7v0.1c11.8 12.2 19.5 34.8 19.6 60.1 0 33.7-13.7 61-31.7 64.1 0 0 0 0 0 0-1.2 0.2-16.4 5.7-64.1 0.3-1.3-20.5-2-136.6-2-136.6 0 0 38.1-2 61.6 2.7z"/>
					<g id="&lt;Group&gt;">
						<path id="&lt;Path&gt;" class="s45" d="m2050.5 2935.1c0 38.6 17.8 70.5 39.5 71.3 21.2 0.8 38-28.7 38-66-0.1-37.1-17-68.9-38.1-71-21.6-2.2-39.4 27.2-39.4 65.7z"/>
						<path id="&lt;Path&gt;" class="s9" d="m2067.4 2936c0 27.4 11.9 50.1 26.4 50.8 14.3 0.6 25.7-20.5 25.7-47.2 0-26.7-11.5-49.4-25.8-50.7-14.4-1.3-26.3 19.8-26.3 47.1z"/>
					</g>
				</g>
				<g id="&lt;Group&gt;">
					<path id="&lt;Path&gt;" class="s46" d="m1831.4 2831q0 0 0.1 0c2.8 0.3 6.1 1.5 8.7 3.2 2.5 1.3 1.8 2.9 6.2 4.9 7.4 10.6 15.1 30 15.1 51.8 0.1 29.1-11.4 52.5-26.1 55.2 0 0-0.2 0.1-0.2 0.1-0.9 0.1-13.3 4.8-52.1 0.2-1-17.7-1.7-117.7-1.7-117.7 0 0 31-1.7 50 2.3z"/>
					<g id="&lt;Group&gt;">
						<path id="&lt;Path&gt;" class="s47" d="m1754.1 2885.4c0 33.2 14.5 60.7 32 61.4 17.2 0.7 30.9-24.8 30.9-56.9-0.1-32-13.8-59.4-31-61.2-17.5-1.8-31.9 23.5-31.9 56.7z"/>
						<path id="&lt;Path&gt;" class="s9" d="m1767.8 2886.1c0 23.6 9.7 43.2 21.4 43.7 11.6 0.6 20.9-17.6 20.9-40.6 0-23-9.3-42.5-20.9-43.6-11.8-1.2-21.4 17-21.4 40.5z"/>
					</g>
				</g>
				<g id="&lt;Group&gt;">
					<path id="&lt;Path&gt;" class="s48" d="m2567.8 2845q0.1 0 0.1 0c4.3 0 7.6 2.1 11.6 4.1 3.8 1.5 6.3 4.4 7.7 6.9v0.1c16.2 13.1 25.4 39.3 25.4 69.6 0 40.3-17.1 73.4-39.8 78 0 0 0.2 0 0.2 0-1.5 0.3-20.1 7.4-77.3 3.1-1.5-23.3-2.3-156.9-2.3-156.9 0 0 45.6-7.9 74.4-4.9z"/>
					<g id="&lt;Group&gt;">
						<path id="&lt;Path&gt;" class="s49" d="m2454.6 2928.7c0 43.3 20.4 78.5 45.6 78.5 25.2 0 45.6-35.2 45.6-78.5 0-43.4-20.4-78.6-45.6-78.6-25.2 0-45.6 35.2-45.6 78.6z"/>
						<path id="&lt;Path&gt;" class="s50" d="m2474 2928.4c0 31 13.7 56.1 30.7 56.1 17 0 30.8-25.1 30.8-56.1 0-31-13.8-56.2-30.8-56.2-17 0-30.7 25.2-30.7 56.2z"/>
					</g>
				</g>
				<path id="&lt;Path&gt;" class="s51" d="m1736.3 2849.8c-1.6 7.2 0.4 14.8 5.4 20.2l9.3 10.1c2.6-29.7 17.9-52.5 36.5-52.5 20.3 0 36.8 27.4 36.8 61.2 0 8-0.9 15.6-2.6 22.6l4.1 1.7 219.3 40.6c-0.6-4.5-1.6-9.2-1.6-13.9 0-4.3-0.1-8.5-0.1-12.6q0-0.1 0-0.1c7.3-35 25.2-61.6 49.8-61.6 27.5 0 50.2 33.3 50.2 74.3 0 11.2-1.5 21.8-4.5 31.3l32.8 6.1c0 0 0.1 0.7 0.2 0.8 1 1.1 9 8.1 47.7 8.1h427.9c19.3 0 33.8-16.9 33.8-36.3v-1.6c0-7.4-3.6-14.2-10.2-17.5 0 0 11.8-33.9 2.4-74.5-3.7-16.3-10.6-33.5-23.1-50.1-7.3-9.7-16.2-19.1-27.5-27.9 0 0-48.7-40.4-138-50.9 0 0-74.1-53.8-141.8-89.5-33.4-17.6-70-26.5-107.8-26.5h-247.7c-42.9 0-85.1 11.9-121.7 34.6l-64.5 39.8c0 0-15.4 9.2-31.1 31.2-17.9 25-36.1 66.5-32.5 129.9z"/>
				<path id="&lt;Path&gt;" class="s52" d="m2171.8 2977.2c0 0 0.1 0.7 0.2 0.8 2.9 1.8 6.7 11 106 8.1h369.5c19.3 0 33.8-16.9 33.8-36.3v-1.6c0-0.4 0.6-0.8 0.6-1.3-0.5-6.9-4.2-13.1-10.5-16.2l-430.3 4.1c0 0-40.5-7.4-54.5-0.1-1.9 1-3.3 2.3-4 3.9-5.9 13.5-13.5 32.3-10.8 38.6z"/>
				<g id="&lt;Group&gt;" style="opacity: .8">
					<path id="&lt;Path&gt;" class="s9" d="m2574.3 2857v5.6c0 4.4 1.8 8.5 4.9 11.6 3.1 3 7.4 4.6 11.7 4.4l46-2c11.1-0.4 21.6-5 29.4-12.9l7.6-7.5c-3.8-16.3-10.9-33.5-23.3-50.1q-0.3 0-0.5 0l-22.1 17.5c-11.7 9.2-25.6 15.3-40.3 17.6-7.7 1.3-13.4 8-13.4 15.8z"/>
				</g>
				<g id="&lt;Group&gt;" style="opacity: .4;mix-blend-mode: multiply">
					<path id="&lt;Path&gt;" class="s53" d="m2370 2850.6c3 3.6 8.1 6.6 11.2 6.6q86.2 0 172.3 0c3.1 0 7.5-3 9.8-6.6 2.3-3.6 1.2-6.5-2.3-6.5q-94.9 0-190 0c-3.5 0-4 2.9-1 6.5z"/>
					<path id="&lt;Path&gt;" class="s54" d="m2389.4 2874.1c3.2 3.8 7.9 7 10.4 7q70.1-0.1 140-0.1c2.6 0 6.6-3.1 9-6.9 2.4-3.8 1.9-6.8-1.1-6.8q-79.2 0-158.6 0c-3 0-2.9 3 0.3 6.8q0 0 0 0z"/>
				</g>
				<path id="&lt;Path&gt;" class="s55" d="m2320 2879.8c10.4-0.3 18.8-7.9 18.8-17.2v-5.7c0-8.8-7.6-16.2-17.5-17.1l-18.7-1.6-111.4-29.3 2.5 14c3.7 21.2 19.9 39.1 42.5 46.8l16.5 5.7c10.9 3.7 22.5 5.5 34.2 5.2z"/>
				<path id="&lt;Path&gt;" class="s56" d="m2186.7 2935.1l46.5 12.7h449.3c-0.4-7.3-4.5-13.5-10.8-16.6l-430.4 4c0 0-40.7-7.4-54.6-0.1z"/>
				<g id="&lt;Group&gt;">
					<path id="&lt;Path&gt;" class="s57" d="m1894.1 2903.8q0.1 0 0.1 0c1.5-3 2.7-2.1 2.6-3.6 0-0.9-2.7-91.3 0-128 2.3-31.7 7.6-37.5 8.1-37.9 1.2-0.7 1.7-2.2 1.2-3.5-0.6-1.4-2.1-2.1-3.5-1.5-2 0.7-8.6 6.1-11.2 42.2-2.7 36.9 0 128 0 128.9 0.1 1.5 1.3 3.4 2.7 3.4z"/>
				</g>
				<path id="&lt;Path&gt;" class="s58" d="m1736.3 2849.8l1.5-3c-3.6-63.4 14.6-104.9 32.5-129.9 11.2 0.6 26.3 6.2 25.2 31.8-1.8 40.3 6.2 61.2 36.9 79.7 14.6 8.7 30.6 16.2 43.5 27.4 11.5 10 16.9 25.4 28.6 34.8 19.9 15.9 46.9 8.9 70 7.8 21.1-1 68.9-2 68.9 28.7q0 0 0 0.1c0 4.1 0.1 8.3 0.1 12.6 0 4.7 1.1 9.4 1.7 13.9l-219.4-40.6-4.1-1.7c1.7-7 2.6-14.6 2.6-22.6 0-33.8-16.5-61.2-36.8-61.2-18.6 0-33.9 22.8-36.5 52.5l-9.3-10.1c-5-5.4-7-13-5.4-20.2z"/>
				<g id="&lt;Group&gt;">
					<g id="&lt;Group&gt;">
						<path id="&lt;Path&gt;" class="s59" d="m2032.9 2630.4c0 0 28.8 73.9 36 84.7 0.7 1 1.6 2.5 2.6 3.4 10 8.3 34.4 10.3 34.4 10.3h360.1c-80.3-61.7-148.9-98.4-148.9-98.4z"/>
						<g id="&lt;Group&gt;">
							<path id="&lt;Path&gt;" class="s60" d="m1811.5 2692.5c0 0 38.5 15.7 90.1 30.5 1.6-8 4.3-18 8.7-29 8-20.3 21.6-44.1 44.7-65.1-17.9 1.3-38.8 4.8-60.8 12.5-27 9.4-55.8 25.2-82.7 51.1z"/>
							<path id="&lt;Path&gt;" class="s61" d="m1914.8 2726.6c25.7 7 54 13.4 82 17.6 16 2.3 31.9 3.9 47.2 4.3q6.7 0.2 13.2 0.2 0-0.1 0-0.1c-0.7-2.9-28.1-115.1-53.4-118.4-5.9-0.7-15.1-1.7-26.8-1.9-27.4 20.3-43.3 45.5-52.3 67-5.2 12.1-8.2 23.1-9.9 31.3z"/>
						</g>
					</g>
					<path id="&lt;Path&gt;" class="s62" d="m2071.5 2718.4c10 8.4 34.4 10.4 34.4 10.4h360.1c-80.3-61.7-148.9-98.4-148.9-98.4h-5.1c-8 2.9-15.7 10-22.7 19.8-27.8 39.7-181.7 9.6-217.8 68.2z"/>
					<path id="&lt;Path&gt;" class="s63" d="m2044 2748.5q6.7 0.2 13.2 0.2 0-0.1 0-0.1c-3.6 0-8.1-0.1-13.2-0.1z"/>
					<path id="&lt;Path&gt;" class="s64" d="m1924.7 2695.3c-5.2 12.1-8.2 23.1-9.9 31.3 25.7 7 53.9 13.4 82 17.6-4-4-7.6-8.9-10.8-15.1-13.9-27-38.6-31.6-61.3-33.8z"/>
					<path id="&lt;Path&gt;" class="s65" d="m1811.5 2692.5c0 0 38.5 15.7 90.1 30.5 1.6-8 4.3-18 8.7-29-13.7-1.4-25.6-3.5-32.4-11.7-11.9-14.4 2.8-30.5 16.3-40.9-27 9.4-55.8 25.2-82.7 51.1z"/>
				</g>
				<g id="&lt;Group&gt;">
					<path id="&lt;Path&gt;" class="s66" d="m2058.2 2753.9c0 0-11.4-45-27.6-46.8-16.2-1.8-62.4-15-66.6 7.2-4.2 22.2 4.2 33.3 27.6 34.7 23.4 1.3 39 0 39 0l10.8 11.5c0 0 17.4 12 16.8-6.6z"/>
					<path id="&lt;Path&gt;" class="s67" d="m2063.6 2753.9c0 0-11.4-45-27.6-46.8-16.2-1.8-62.4-15-66.6 7.2-4.2 22.2 4.2 33.3 27.6 34.7 23.4 1.3 39 0 39 0l10.8 11.5c0 0 17.4 12 16.8-6.6z"/>
				</g>
			</g>
			<g id="&lt;Group&gt;">
				<path id="&lt;Path&gt;" class="s68" d="m2734.7 1436.7c0 188.6-147.4 336.9-335.9 331.1-196.1-6-361.1-175.4-361.1-378.1 0-202.7 165-349.8 361.1-329.4 188.5 19.6 335.9 187.8 335.9 376.4z"/>
				<path id="&lt;Path&gt;" class="s69" d="m2785.6 1420.4c0 188.6-147.4 336.9-335.9 331.2-196.1-6.1-361-175.5-361-378.1 0-202.7 164.9-349.9 361-329.5 188.5 19.7 335.9 187.9 335.9 376.4z"/>
				<path id="&lt;Path&gt;" class="s70" d="m2770.8 1419.4c0 180.3-141 321.9-321.1 316-187-6-344-167.7-344-360.8 0-193.1 157-333.6 344-314.5 180.1 18.5 321.1 179.1 321.1 359.3z"/>
				<path id="&lt;Path&gt;" class="s71" d="m2760.3 1418.7c0 174.3-136.6 311.1-310.6 305.2-180.5-6-331.9-162.2-331.9-348.5 0-186.3 151.4-322 331.9-303.7 174 17.6 310.6 172.7 310.6 347z"/>
				<g id="&lt;Group&gt;">
					<path id="&lt;Compound Path&gt;" fill-rule="evenodd" class="s72" d="m2448 1131c9.2 0.8 16.7 9.2 16.7 18.6v32.1q27.8 3.1 55.6 9.6 20.6 4.8 40.8 11.5c8.1 2.7 13.6 10.8 12.8 19.3l-3.9 40.2c-1.1 10.7-11.6 17-21.6 12.5q-13.3-5.9-27.3-10.2-24.5-7.4-51.7-9.6l-4.7-0.4v91.9c48.3 13.5 83.8 31.7 106.7 54.6 22.8 22.7 34.2 51.1 34.2 85.1 0 36.9-12.6 66.4-37.8 88.6-25.4 22.3-60.9 34.9-106.9 37.6v35.5c0 9.4-7.5 16.7-16.8 16.3h-0.3c-9.3-0.3-16.8-8.3-16.8-17.7v-35l-7.5-0.3q-32.3-1.5-61.9-6.6-22-3.8-42.9-9.9c-8.4-2.4-14.2-10.4-13.4-19l4.6-51.8c1.1-11.2 12.3-17.7 22.9-13.5q18.6 7.4 37.7 12.4 29.7 7.8 60.2 10l0.3-102.2c-46.4-11.5-81.1-28.5-103.9-51-22.9-22.6-34.4-51.5-34.4-86.7 0-36.4 12.4-64.5 37.3-84.3 24.7-19.6 59.8-29.4 105.1-29.3v-32.9c0-9.4 7.6-16.3 16.9-15.4zm-16.9 122.7q-21.5 1.5-33.5 11.8-12 10.2-12 27.6 0 16.4 11.1 27.4 11.1 11 34.4 17.5zm29.8 185.2v93.7q23.3 0.1 35.8-11.1 12.5-11.2 12.5-31.6 0-18.6-11.6-30.8-11.6-12.3-36.7-20.2z"/>
				</g>
				<path id="&lt;Path&gt;" class="s73" d="m2393.5 1461.4c10.5-103.6 105.8-147.5 93.3-242.8-7.6-58.7-52.2-108.2-101.8-146.9-150.7 15.8-267.2 140.6-267.2 303.7 0 186.3 151.4 342.5 331.9 348.5 17.6 0.6 34.7-0.3 51.3-2.5-71.7-71.3-116.5-171-107.5-260z"/>
			</g>
			<g id="&lt;Group&gt;">
				<path id="&lt;Path&gt;" class="s74" d="m1409 3182.8c0 0 59.4 27 60.4 31.3 0.9 4.3-38.2-1.4-54.2-0.8-16 0.6-29.2-4.1-27.7-10.9 1.4-6.7 7-23.8 7-23.8z"/>
				<path id="&lt;Path&gt;" class="s75" d="m1411.2 3160.9l-3.6 26.8c0 0-9.4 3.3-15.8-0.6l-2.7-29.4z"/>
				<path id="&lt;Path&gt;" class="s76" d="m1131.5 3161.6l-6.9 11.1c-1.9 3.1-2.5 6.8-1.6 10.3 2.4 9.3 7.2 27.2 9.4 31.9 2.8 6.4 41.2 10.2 41.2 10.2 0 0 3.5-4.8-4.5-10.7-8-5.8-13.1-6.7-15.9-15.3-2.8-8.6-4.7-32.9-4.7-32.9z"/>
				<path id="&lt;Path&gt;" class="s77" d="m1160.2 3133.4c-2.5 2-14.8 39.5-14.8 39.5 0 0-4 5.1-11.6-2.5-7.6-7.5-3.4-3.3-3.4-3.3l1.4-36.9z"/>
				<path id="&lt;Path&gt;" class="s78" d="m1443.8 2623.7c3.2 79.8 3.3 166.5-1.3 259-5.1 104.3-15.5 200.6-28.6 288q-7.3 0.2-15.3 0-5.4-0.2-10.5-0.5c-6.8-18.1-14.8-41.9-22-70.4-7.6-29.9-12.1-56.7-15.4-82.4-11.4-90.3 2-98.2-7.3-165.2-8.2-59.3-19.9-61.6-33.6-145.8-14.9-91.3-3.8-105 1.6-109.9 22.9-21.1 76.8-6.8 132.4 27.2z"/>
				<path id="&lt;Path&gt;" class="s79" d="m1311.4 2596.5c21.8-20.1 71.9-8 124.8 22.7-60.9 65.7-67.5 108.3-60.2 136 8.2 31.2 33.3 40.2 33.2 74.4-0.1 42-38 53.1-37.2 97.6 0.5 29.4 17.2 29.1 21.1 65.4 4.7 42.9-17.1 57.7-10.1 89.5 3.1 13.7 11.7 31.5 36.4 49.9-1.8 13.1-3.6 26-5.5 38.7q-7.3 0.2-15.3 0-5.4-0.2-10.5-0.5c-6.8-18.1-14.8-41.9-22-70.4-7.6-29.9-12.1-56.7-15.4-82.4-11.4-90.3 2-98.2-7.3-165.2-8.2-59.3-19.9-61.6-33.6-145.8-14.9-91.3-3.8-105 1.6-109.9z"/>
				<path id="&lt;Path&gt;" class="s80" d="m1406.2 2622.4c-52.4 76.6-108.9 172-159.4 286.1-38.1 86.3-65.8 167.2-86.1 239.4-2.8 1.3-9.3 3.8-17.6 2.7-11.3-1.5-18.1-8.7-19.8-10.7-8.3-51.7-7.4-95.6-4.6-127.2 1.8-20.2 5-53.9 17.9-95.6 14.5-46.6 24.4-49.2 43.3-98.6 19.5-51.2 14.8-63.9 33.5-128 7.7-26.3 20.6-65.5 41.9-112.4q75.4 22.2 150.9 44.3z"/>
				<path id="&lt;Path&gt;" class="s81" d="m1381.6 2294.8c48.1-46.7 73.1-48.8 82.1-82.3 8.9-33.1-2.6-79.3-35.3-97.2-39-21.4-76.5 2.4-106 28.2-33.9 29.5-62.3 52.5-109.7 53.2-40.2 0.6-80.4-6.6-120.6-0.6-11.5 1.7-22.7 4.7-33.3 9.4-43.7 19.1-31.5 85.7-75.9 100.9-29.7 10.2-43.9-16.5-85.8-14.5-49.1 2.4-93.8 42.3-114.5 82.6-37.7 73.5-1.5 160.5 45.1 207.5 38.3 38.6 109.4 76.3 155.7 53 36.6-18.4 38.4-65.3 72.9-69.2 24.5-2.7 31 20.1 62 25 50.8 8.2 98.5-43 111.5-57 37.1-39.7 25.5-56.5 68.1-128.4 16.9-28.4 41.2-69.3 83.7-110.6z"/>
				<path id="&lt;Path&gt;" class="s82" d="m1548 2288c40.6 44.6 70.5 118.7 46.5 145-8.2 9-21.3 10.6-31.3 11.9-43 5.3-63.5-26.4-80.3-18.1-21.5 10.5-8.8 75.6-3.8 125.2 8.8 87.5 32.2 102.9 16.7 133-20.3 39.1-77.8 47.4-93.3 49.6-53.1 7.6-62.1-17.1-120.3-14.2-66.4 3.3-72.6 36.4-121.2 27.6-44.5-8.1-62.4-39.9-95.4-29.6-20.5 6.5-24.5 22.3-44.5 22.7-20.1 0.4-42.6-15.2-45.8-33.1-4.1-22.4 20.5-53.5 63.7-58 17.7 4.3 46.8 8.3 77.6-2.6 50.5-18 72.9-64.8 97.8-116.7 17.2-36 48.9-102 41-183.6-3.3-33.6-10.6-42.8-3.3-61.7 10.2-26.2 74.8-67 149.9-64.6 9.9 0.3 88.6 4.1 146 67.2z"/>
				<g id="&lt;Group&gt;">
					<path id="&lt;Path&gt;" class="s83" d="m1584.5 2343.8l-144.4 20.4c-1.6 0.3-2.8 1.4-3.2 3l-48.9 196.4c-0.7 2.8 3 9.3 5.9 8.7l141.3-34.2c1.4-0.3 2.6-1.4 3-2.8l52.9-184.1c0.7-2.7-3.8-7.8-6.6-7.4z"/>
					<path id="&lt;Path&gt;" class="s84" d="m1587.2 2348.2l-144.3 20.5c-1.6 0.2-2.9 1.3-3.3 2.9l-48.9 196.4c-0.7 2.8 1.8 5.4 4.6 4.8l142.6-30.3c1.4-0.3 2.6-1.4 3-2.8l50.7-186.6c0.7-2.7-1.6-5.3-4.4-4.9z"/>
					<path id="&lt;Path&gt;" class="s85" d="m1548.3 2359.3l4-15.7c0.4-1.4-0.8-2.8-2.2-2.6l-52.8 5.4c-0.9 0.1-1.6 0.8-1.8 1.7l-3.6 17.2c-0.3 1.4 0.9 2.7 2.3 2.5l52.3-7c0.9-0.1 1.6-0.7 1.8-1.5z"/>
					<path id="&lt;Path&gt;" class="s86" d="m1474.4 2518.4c6.3-31.5-11.2-49.8 2.2-75.2 18.9-35.8 68.4-26.5 80.6-55.1 3.3-7.7 4.1-18.8-3.1-35.2l33.1-4.7c2.8-0.4 5.1 2.2 4.4 4.9l-50.7 186.6c-0.4 1.4-1.6 2.5-3 2.8l-86.6 18.4c14.2-15.2 20.6-29.7 23.1-42.5z"/>
				</g>
				<path id="&lt;Path&gt;" class="s87" d="m1366.3 2506.5c0 0 21.4-6.6 29.3-12.8 7.9-6.2 16-15.6 28.5-16.4 12.5-0.8 25.7 4.2 20.1 6.3-5.6 2-15.2 14.5-22.9 19.8-7.8 5.4-26.5 7.7-30 7.8-3.5 0.1-16.5 9.8-16.5 9.8z"/>
				<path id="&lt;Path&gt;" class="s88" d="m1039 2650c17.7 4.3 46.8 8.3 77.6-2.6 50.5-18 72.9-64.8 97.8-116.7 17.2-36 48.9-102 41-183.6-3.3-33.6-10.6-42.8-3.3-61.7 1.2-3 2.6-5.8 4.2-8.5 24.1 12.9 34.5 27.3 38.4 40.5 9.6 32-17.1 61.8 1.1 88.4 17.4 25.5 52.9 14.3 62.8 36.7 10.7 24.2-27.8 43.3-25.7 82.1 2.7 46.5 60.7 63.5 54.1 95.5-5.7 27.7-52.5 30.5-51 44.9 1.7 17.1 70.5 37.9 124.8 11.1 16.5-8.2 28.6-19.3 37.5-29.6 3.6 14.9 4.3 25.3-2.5 38.5-20.3 39.1-77.8 47.4-93.3 49.6-53.1 7.6-62.1-17.1-120.3-14.2-66.4 3.3-72.6 36.4-121.2 27.6-44.5-8.1-62.4-39.9-95.4-29.6-20.5 6.5-24.5 22.3-44.5 22.7-20.1 0.4-42.6-15.2-45.8-33.1-4.1-22.4 20.5-53.5 63.7-58z"/>
				<path id="&lt;Path&gt;" class="s89" d="m1365.9 2497.4q11.9 16.9 23.9 33.8c-9.9 6.2-115.6 70.1-201.4 26.3-10.6-5.4-38.8-19.8-56.5-51.8-19.5-35.3-14.2-70.5-10.8-93.4 8.5-56.6 42.7-118.5 97.1-147.6 20.8-11.1 46.1-18.2 69.9-24.9 20.2-5.7 52-13.4 53-10.4 0.5 1.5-6.8 4.2-11.7 7.7-30.2 21.4 18.1 92-15.8 131.7-32.5 38-79.9 37.2-84.2 69.1-2.1 14.8 6.5 27.1 10.3 32.5 21.4 30.6 71.4 40.1 126.2 27z"/>
				<path id="&lt;Path&gt;" class="s90" d="m1408.1 2165.8c0 0-9.1 39.3-24.8 46.9-15.6 7.5-40.6 16.9-43.5 19.9-3 2.9 89.5 22.9 138.3 4.3-14.9-4.8-18.9-6.4-18.9-6.4-4.1-1.6-11.6-4.6-18.8-9.8-5-3.6-12.9-10.3-19.5-22.3l2.4-22z"/>
				<path id="&lt;Path&gt;" class="s91" d="m1404.4 2179.7c0 0 8.2 14.1 23.8 10.2 14-3.4 9.6-39-0.6-44.1-3.5-1.7-10.1-1.8-14.7 0.5-3.3 1.6-12.6 10.9-9.1 22.8-3.2-1.3-6.3-0.8-7.3 0.8-1.1 2.1 1.4 5.3 2 6 2 2.5 4.7 3.4 5.9 3.8z"/>
				<path id="&lt;Path&gt;" class="s92" d="m1577 2406.8c0 0 11.9-22.8 0-29.3-11.9-6.5-31.4 0-31.4 0 0 0 2.9 5.7 11.6 10.6 8.7 4.8 19.8 18.7 19.8 18.7z"/>
			</g>
		</g>
	</g>
</svg>