<svg version="1.2" xmlns="http://www.w3.org/2000/svg" viewBox="0 0 1000 1000" width="500" height="500">
	<title>515319-PIRK7F-523-ai</title>
	<style>
		.s0 { fill: #ffcc00 } 
		.s1 { opacity: .5;mix-blend-mode: screen;fill: #ffcc00 } 
		.s2 { opacity: .5;mix-blend-mode: multiply;fill: #ffcc00 } 
		.s3 { fill: #f0f1f3 } 
		.s4 { fill: #ffffff } 
		.s5 { opacity: .5;fill: #f3a100 } 
		.s6 { opacity: .5;fill: #1e2346 } 
		.s7 { fill: #6cacac } 
		.s8 { fill: #5a9997 } 
		.s9 { fill: #a2c2c0 } 
		.s10 { fill: #7bc3c3 } 
		.s11 { fill: #68b0ae } 
		.s12 { fill: #b5d9d7 } 
		.s13 { fill: #86d4d4 } 
		.s14 { fill: #72c1bf } 
		.s15 { fill: #c3eae8 } 
		.s16 { fill: #1e2346 } 
		.s17 { fill: #d68900 } 
		.s18 { fill: #f3a100 } 
		.s19 { fill: #f9a91c } 
		.s20 { fill: #141930 } 
		.s21 { fill: #e6976d } 
		.s22 { fill: #e59303 } 
		.s23 { fill: #e37463 } 
		.s24 { fill: #42528e } 
		.s25 { fill: #d68505 } 
		.s26 { opacity: .4;mix-blend-mode: multiply;fill: #e37463 } 
		.s27 { fill: #1a427d } 
		.s28 { fill: #a9bff8 } 
		.s29 { fill: #102f54 } 
		.s30 { fill: #f0f1f5 } 
		.s31 { fill: #cbced8 } 
		.s32 { fill: #26377c } 
		.s33 { fill: #f3ce87 } 
	</style>
	<g id="OBJECTS">
		<g id="&lt;Group&gt;">
			<g id="&lt;Group&gt;">
				<g id="&lt;Group&gt;">
					<path id="&lt;Path&gt;" class="s0" d="m397.8 815.1h-274.5v-42.8h274.5z"/>
					<path id="&lt;Path&gt;" class="s1" d="m217.4 815.1h-94.1v-42.8h94.1z"/>
					<path id="&lt;Path&gt;" class="s2" d="m307.7 815.1h90.1v-42.8h-90.1z"/>
				</g>
				<g id="&lt;Group&gt;">
					<path id="&lt;Path&gt;" class="s0" d="m387.8 772.4h-274.5v-42.7h274.5z"/>
					<path id="&lt;Path&gt;" class="s1" d="m186.2 772.4h-72.9v-42.7h72.9z"/>
					<path id="&lt;Path&gt;" class="s2" d="m272.2 772.4h115.6v-42.7h-115.6z"/>
				</g>
				<g id="&lt;Group&gt;">
					<path id="&lt;Path&gt;" class="s0" d="m417.7 729.5h-274.4v-42.7h274.4z"/>
					<path id="&lt;Path&gt;" class="s1" d="m250.6 729.5h-107.3v-42.7h107.3z"/>
					<path id="&lt;Path&gt;" class="s2" d="m339.7 729.5h78v-42.7h-78z"/>
				</g>
				<g id="&lt;Group&gt;">
					<path id="&lt;Path&gt;" class="s0" d="m400.7 687.1h-274.5v-42.8h274.5z"/>
					<path id="&lt;Path&gt;" class="s1" d="m208 687.1h-81.8v-42.8h81.8z"/>
					<path id="&lt;Path&gt;" class="s2" d="m289.3 687.1h111.4v-42.8h-111.4z"/>
				</g>
				<path id="&lt;Path&gt;" class="s2" d="m386.8 778.7h-263.5v-6.4h263.5z"/>
				<path id="&lt;Path&gt;" class="s2" d="m143.3 693.7h257.4v-6.6h-257.4z"/>
			</g>
			<g id="&lt;Group&gt;">
				<path id="&lt;Path&gt;" class="s3" d="m794.7 778.7h-342c-19.9 0-36-16.1-36-36v-536c0-19.9 16.1-36 36-36h342c19.9 0 36 16.1 36 36v536c0 19.9-16.1 36-36 36z"/>
				<g id="&lt;Group&gt;">
					<path id="&lt;Path&gt;" class="s4" d="m456.7 696.7v-486h334v486z"/>
				</g>
				<path id="&lt;Path&gt;" class="s5" d="m493.7 329.7h-18v108h18z"/>
				<path id="&lt;Path&gt;" class="s6" d="m521.7 309.7h-18v128h18z"/>
				<path id="&lt;Path&gt;" class="s5" d="m549.7 271.7h-18v166h18z"/>
				<path id="&lt;Path&gt;" class="s6" d="m577.7 315.7h-18v122h18z"/>
				<path id="&lt;Path&gt;" class="s5" d="m605.7 361.7h-18v76h18z"/>
				<path id="&lt;Path&gt;" class="s5" d="m633.7 306.7h-18v131h18z"/>
				<path id="&lt;Path&gt;" class="s6" d="m661.7 387.7h-18v50h18z"/>
				<path id="&lt;Path&gt;" class="s5" d="m689.7 402.7h-18v35h18z"/>
				<path id="&lt;Path&gt;" class="s5" d="m717.7 365.7h-18v72h18z"/>
				<path id="&lt;Path&gt;" class="s6" d="m745.7 345.7h-18v92h18z"/>
				<path id="&lt;Path&gt;" class="s5" d="m773.7 329.7h-18v108h18z"/>
				<path id="&lt;Path&gt;" class="s5" d="m755.7 543.7h18v108h-18z"/>
				<path id="&lt;Path&gt;" class="s6" d="m727.7 523.7h18v128h-18z"/>
				<path id="&lt;Path&gt;" class="s5" d="m699.7 485.7h18v166h-18z"/>
				<path id="&lt;Path&gt;" class="s6" d="m671.7 529.7h18v122h-18z"/>
				<path id="&lt;Path&gt;" class="s5" d="m643.7 575.7h18v76h-18z"/>
				<path id="&lt;Path&gt;" class="s5" d="m615.7 520.7h18v131h-18z"/>
				<path id="&lt;Path&gt;" class="s6" d="m587.7 601.7h18v50h-18z"/>
				<path id="&lt;Path&gt;" class="s5" d="m559.7 616.7h18v35h-18z"/>
				<path id="&lt;Path&gt;" class="s5" d="m531.7 579.7h18v72h-18z"/>
				<path id="&lt;Path&gt;" class="s6" d="m503.7 559.7h18v92h-18z"/>
				<path id="&lt;Path&gt;" class="s5" d="m475.7 543.7h18v108h-18z"/>
				<path id="&lt;Path&gt;" class="s4" d="m644.7 732.7c0-11.6-9.4-21-21-21-11.6 0-21 9.4-21 21 0 11.6 9.4 21 21 21 11.6 0 21-9.4 21-21z"/>
			</g>
			<g id="&lt;Group&gt;">
				<g id="&lt;Group&gt;">
					<path id="&lt;Path&gt;" class="s7" d="m895.2 623.3h-402.7v-207.9h402.7z"/>
					<path id="&lt;Compound Path&gt;" fill-rule="evenodd" class="s8" d="m839.8 600.5h-291.8v-3.2c0-19.7-14.4-35.7-32.1-35.7h-2.9v-84.5h2.9c17.7 0 32.1-16 32.1-35.7v-3.3h291.8v3.3c0 19.7 14.4 35.7 32.1 35.7h2.9v84.5h-2.9c-17.7 0-32.1 16-32.1 35.7zm-286.1-6.5h280.4c1.4-20.7 16.3-37.3 34.9-38.9v-71.7c-18.6-1.5-33.5-18.1-34.9-38.8h-280.4c-1.4 20.7-16.3 37.3-34.9 38.8v71.7c18.6 1.6 33.5 18.2 34.9 38.9z"/>
					<g id="&lt;Group&gt;">
						<path id="&lt;Path&gt;" class="s8" d="m733 483.5h-10.3c-1.2-2.9-2.7-5.6-4.6-8.1h10.6l9-13.1-4.7-3.6h-72.3l-9 13.2 4.7 3.5h35c3.6 0 7 1 9.9 2.6 1.6 1.6 2.9 3.5 3.9 5.5h-46.1l-9 13.2 4.7 3.5h50.9c-3.1 7.5-10.4 12.7-19 12.7h-34.2v15.1l27.6 48.4 4.6 3.6h18.9l-28-50.4h15.4q0.2 0 0.4 0 0.2 0 0.3 0c17-0.1 31-12.9 33.1-29.4h3.9l9-13.1z"/>
						<path id="&lt;Path&gt;" class="s9" d="m713.4 471.9h10.6l9-13.2h-72.3l-9 13.2h35c8.2 0 15.2 4.7 18.5 11.6h-46.1l-9 13.2h56.7c-2 9.3-10.2 16.2-20.1 16.2h-34.2v15.1l27.6 48.4h18.8l-27.9-50.3h15.3q0.2 0 0.4 0 0.2 0 0.3 0c17.1-0.2 31-12.9 33.1-29.4h3.9l9-13.2h-13.8c-1.2-4.3-3.2-8.2-5.8-11.6z"/>
					</g>
				</g>
				<g id="&lt;Group&gt;">
					<path id="&lt;Path&gt;" class="s10" d="m886.7 612.6h-402.7v-207.9h402.7z"/>
					<path id="&lt;Compound Path&gt;" fill-rule="evenodd" class="s11" d="m831.3 589.8h-291.8v-3.2c0-19.7-14.4-35.7-32.1-35.7h-2.9v-84.5h2.9c17.7 0 32.1-16 32.1-35.7v-3.3h291.8v3.3c0 19.7 14.4 35.7 32.1 35.7h2.9v84.5h-2.9c-17.7 0-32.1 16-32.1 35.7zm-286.1-6.5h280.4c1.4-20.7 16.3-37.3 34.9-38.9v-71.7c-18.6-1.5-33.5-18.1-34.9-38.8h-280.4c-1.4 20.7-16.3 37.3-34.9 38.8v71.7c18.6 1.6 33.5 18.2 34.9 38.9z"/>
					<g id="&lt;Group&gt;">
						<path id="&lt;Path&gt;" class="s11" d="m724.5 472.8h-10.3c-1.2-2.9-2.7-5.6-4.6-8.1h10.6l9-13.1-4.7-3.6h-72.3l-9 13.2 4.7 3.5h35c3.6 0 7 1 9.9 2.6 1.6 1.6 2.9 3.5 3.9 5.5h-46.1l-9 13.2 4.7 3.5h50.9c-3.1 7.5-10.4 12.7-19 12.7h-34.2v15.1l27.5 48.4 4.7 3.6h18.9l-28-50.4h15.4q0.2 0 0.4 0 0.2 0 0.3 0c17-0.1 31-12.9 33.1-29.4h3.9l9-13.1z"/>
						<path id="&lt;Path&gt;" class="s12" d="m704.9 461.2h10.6l9-13.2h-72.3l-9 13.2h35c8.2 0 15.2 4.7 18.5 11.6h-46.1l-9 13.2h56.7c-2 9.3-10.2 16.2-20.1 16.2h-34.2v15.1l27.5 48.4h18.9l-27.9-50.3h15.3q0.2 0 0.4 0 0.2 0 0.3 0c17-0.2 31-12.9 33.1-29.4h3.9l9-13.2h-13.8c-1.2-4.3-3.2-8.2-5.8-11.6z"/>
					</g>
				</g>
				<g id="&lt;Group&gt;">
					<path id="&lt;Path&gt;" class="s13" d="m872.7 601h-402.7v-207.8h402.7z"/>
					<path id="&lt;Compound Path&gt;" fill-rule="evenodd" class="s14" d="m817.2 578.3h-291.8v-3.3c0-19.7-14.4-35.7-32.1-35.7h-2.9v-84.4h2.9c17.7 0 32.1-16.1 32.1-35.8v-3.2h291.8v3.2c0 19.7 14.4 35.8 32.1 35.8h2.9v84.4h-2.9c-17.7 0-32.1 16-32.1 35.7zm-286.1-6.5h280.4c1.4-20.7 16.3-37.2 34.9-38.8v-71.7c-18.6-1.6-33.5-18.2-34.9-38.9h-280.4c-1.4 20.7-16.3 37.3-34.9 38.9v71.7c18.6 1.6 33.5 18.1 34.9 38.8z"/>
					<g id="&lt;Group&gt;">
						<path id="&lt;Path&gt;" class="s14" d="m710.4 461.3h-10.3c-1.2-2.9-2.7-5.7-4.6-8.1h10.6l9-13.2-4.7-3.5h-72.3l-9 13.1 4.7 3.6h35c3.6 0 7 0.9 10 2.5 1.5 1.7 2.9 3.5 3.9 5.6h-46.2l-9 13.1 4.7 3.6h50.9c-3.1 7.4-10.4 12.7-18.9 12.7h-34.2l-0.1 15 27.6 48.4 4.7 3.6h18.8l-27.9-50.3h15.3q0.2 0 0.4 0 0.2 0 0.3 0c17.1-0.2 31-12.9 33.1-29.4h3.9l9-13.2z"/>
						<path id="&lt;Path&gt;" class="s15" d="m690.8 449.6h10.6l9-13.1h-72.3l-9 13.1h35.1c8.1 0 15.1 4.8 18.5 11.7h-46.2l-9 13.1h56.7c-1.9 9.3-10.2 16.3-20 16.3h-34.2l-0.1 15 27.6 48.4h18.9l-28-50.3h15.4q0.2 0 0.4 0 0.1 0 0.3 0c17-0.1 30.9-12.9 33-29.4h3.9l9-13.1h-13.8c-1.1-4.3-3.1-8.3-5.8-11.7z"/>
					</g>
				</g>
			</g>
			<g id="&lt;Group&gt;" style="opacity: .5">
				<path id="&lt;Path&gt;" class="s16" d="m206.8 427l-10.5-9.3 151.8-169.5 95.8 96.7 182.6-164.5 70.1 100.1 60.9-53.3 9.2 10.5-72.6 63.6-69.9-99.9-180.8 162.9-94.8-95.6z"/>
				<g id="&lt;Group&gt;">
					<path id="&lt;Path&gt;" class="s16" d="m775.9 262.2l20.2-59.5-61.6 12.2z"/>
				</g>
			</g>
			<g id="&lt;Group&gt;">
				<path id="&lt;Path&gt;" class="s0" d="m887.2 708.1c0 67.7-54.9 122.5-122.5 122.5-67.7 0-122.5-54.8-122.5-122.5 0-67.6 54.8-122.5 122.5-122.5 67.6 0 122.5 54.9 122.5 122.5z"/>
				<path id="&lt;Path&gt;" class="s17" d="m858.7 708.1c0 52-42.1 94.1-94 94.1-52 0-94.1-42.1-94.1-94.1 0-51.9 42.1-94 94.1-94 51.9 0 94 42.1 94 94z"/>
				<path id="&lt;Path&gt;" class="s18" d="m855.1 708.1c0 50-40.5 90.5-90.4 90.5-50 0-90.5-40.5-90.5-90.5 0-49.9 40.5-90.4 90.5-90.4 49.9 0 90.4 40.5 90.4 90.4z"/>
				<path id="&lt;Path&gt;" class="s17" d="m808.8 671.9h-11c-1.2-3.1-2.8-6-4.9-8.6h11.3l9.6-14.1-5-3.8h-77l-9.6 14.1 5 3.8h37.3c3.9 0 7.5 1 10.6 2.7 1.7 1.7 3.1 3.7 4.1 5.9h-49.1l-9.6 14 5 3.8h54.2c-3.2 7.9-11 13.5-20.1 13.5h-36.5v16l29.3 51.6 5 3.8h20.1l-29.8-53.6h16.4q0.2 0 0.4 0 0.2 0 0.4 0c18.1-0.2 33-13.8 35.2-31.3h4.1l9.6-14z"/>
				<path id="&lt;Path&gt;" class="s0" d="m788 659.5h11.3l9.5-14.1h-77l-9.6 14.1h37.4c8.6 0 16.1 5 19.6 12.4h-49.1l-9.6 14h60.4c-2.1 9.9-10.8 17.3-21.3 17.3h-36.5v16l29.3 51.6h20.1l-29.8-53.6h16.4q0.2 0 0.5 0 0.1 0 0.3 0c18.1-0.2 33-13.8 35.2-31.3h4.2l9.5-14h-14.7c-1.2-4.6-3.3-8.8-6.1-12.4z"/>
			</g>
			<path id="&lt;Path&gt;" class="s19" d="m608 818.4h-183.3v-108.7h183.3z"/>
			<g id="&lt;Group&gt;">
				<path id="&lt;Path&gt;" class="s20" d="m561.2 528.4c0 0-8-3.5-18-1.7l11-28 12.7 6.5z"/>
				<path id="&lt;Path&gt;" class="s21" d="m564.2 503.3c0 5.6-4.6 10.1-10.2 10.1-5.5 0-10.1-4.5-10.1-10.1 0-5.6 4.6-10.1 10.1-10.1 5.6 0 10.2 4.5 10.2 10.1z"/>
				<path id="&lt;Path&gt;" class="s20" d="m518.4 492.9c0 0-3.2 16.8-6.5 20.5-3.2 3.8-7.7 7.3-5.2 11.3 2.5 4 8.2 5 13 4.2 5-0.7 10.2-2 13.5-0.5 3.2 1.5 1-19.5 1-19.5l-6.5-21.7c0 0-10.3 5.5-9.3 5.7z"/>
				<path id="&lt;Path&gt;" class="s21" d="m434.3 626.7c0 0-10 4.7-23.3 8.3 0 0 14 10.4 29-1.3z"/>
				<path id="&lt;Path&gt;" class="s22" d="m509.3 543c0 0-16.6 56-75 83.7l5 10.3c0 0 40-6 82.4-60.3z"/>
				<path id="&lt;Path&gt;" class="s21" d="m416.4 782.4c0 0-11.2 16.8-22.7 21.3 0 0 12.5 1 19.5-5.5 7-6.5 3.2-15.8 3.2-15.8z"/>
				<path id="&lt;Path&gt;" class="s23" d="m449.9 706.1c0 0 35.9 79.2 37.8 94.3 1.8 15.1-12 37.1-12 37.1h6.3l20.8-25.8-23.3-97.4 20.7-2.6-10.7-27-38.9-0.6z"/>
				<path id="&lt;Path&gt;" class="s21" d="m452.2 653.3c0 0-17-3.8-20.8 11.3-3.8 15.1-21.7 133.9-21.7 133.9l16.3-4.4 27.7-105 45.9 1.9c0 0-22.9-29.6-47.4-37.7z"/>
				<path id="&lt;Path&gt;" class="s24" d="m426 794.1c0 0 2.6 7.6-1.8 13.2-4.4 5.7-11.7 14.4-11.7 14.4l-1.9-3.1 4.1-11.9-25.6 3.1-14.4-8.1c0 0 17.6 2.3 35-3.2z"/>
				<path id="&lt;Path&gt;" class="s24" d="m482 837.5l20.8-25.8c5 6.1 3.7 11.6 3.7 11.6l-0.8 21.3h-3.8l-1.7-18.4-16.3 16.3h-17.2l9-5z"/>
				<path id="&lt;Path&gt;" class="s19" d="m552.7 536.7l18.1 8c4.5 1.9 6.9 6.8 5.6 11.5-3.6 13-8.3 46.9-3.5 79.6h-58.4c0 0-8.3-51.6-7.6-88.6 0.1-4.6 3.5-8.6 8.1-9.4l16.2-2.9z"/>
				<path id="&lt;Path&gt;" class="s23" d="m561.5 548.7c-0.5 7-10.6 11.9-22.5 11.1-11.8-0.9-21-7.3-20.5-14.3 0.5-7 10.5-11.9 22.4-11.1 11.9 0.9 21.1 7.3 20.6 14.3z"/>
				<path id="&lt;Path&gt;" class="s23" d="m550.5 513.1c0 0 0.3 15.4 2.8 24.6 0 0-11.1 2.7-24.3 0 0 0 5.2-5.2 6.1-21.5z"/>
				<path id="&lt;Path&gt;" class="s19" d="m512 555.5l-12.6 24.3c0 0 4 13.2 21.1 11.6l17.8-11.6z"/>
				<path id="&lt;Path&gt;" class="s24" d="m572.9 635.8c0 0 8.9 23.9 9.4 39.3 0.4 14.8-3.8 33.3-37.3 35.9-31.5 2.3-36.5 3.1-60.6 3.1 0 0-6.6-48.2-23.1-61.5 0 0 24.9-7.9 53.2-16.8z"/>
				<path id="&lt;Path&gt;" class="s25" d="m576.1 550.2c-1-0.6-1.8-1.1-2.4-1.4-8.2-4-16.7 9-16.7 9 0 0-13 26.8-46.2 50.6 1.1 9 2.1 16.6 2.8 21.5 16.4-7 35-17.7 50.1-34 3.1-3.4 5.8-6.5 8-9.4 1.1-13.2 3-24.1 4.7-30.3 0.5-2 0.4-4.1-0.3-6z"/>
				<path id="&lt;Path&gt;" class="s18" d="m558.3 554.7c0 0-25.3 47.7-90.8 69.8l4.7 11c0 0 54.6-5.6 91.5-42.5 33-33 15.8-44.4 11.6-46.6-8-4.4-17 8.3-17 8.3z"/>
				<path id="&lt;Path&gt;" class="s21" d="m467.5 624.5l-24.5 9.2 4.7 11.3c0 0 12.3 2 24.5-9.5z"/>
				<path id="&lt;Path&gt;" class="s26" d="m551.4 527.1c-0.2-1.7-0.3-3.4-0.4-5l-15.7-5.9h-0.2c-0.6 11.1-3.2 17.1-4.8 19.7 11-0.7 17.7-5.4 21.1-8.8z"/>
				<path id="&lt;Path&gt;" class="s21" d="m538.1 530h-1.6c-8.5 0-15.5-6.9-15.5-15.5v-28.1h32.6v28.1c0 8.6-7 15.5-15.5 15.5z"/>
				<path id="&lt;Path&gt;" class="s16" d="m545.4 487.2c0 0 0.3 10.2 7 16.5 0 0 2.8-7.3 6.3-2.5 3.5 4.7 0.2 9.7-5.5 10.5 0 0-1.8 13.2 3.7 19 5.5 5.7 5.5-4.8 12.8-3.8 7.2 1 12-1 8-7.5-4-6.5-10.8-23-11.5-31-0.8-8-3.3-20.7-12.3-17.7 0 0-1.2-8.3-10.2-8.8-9-0.5-15.3 8-22.3 6.8-7-1.3-14 1.5-15 10-1.2 10.5 2.5 18 15.5 16.2 0 0 19.3-3 23.5-7.7z"/>
			</g>
			<path id="&lt;Path&gt;" class="s27" d="m623 658.3h-283.5v-10.8h283.5z"/>
			<path id="&lt;Path&gt;" class="s28" d="m626.3 654h-290.1v-2.2h290.1z"/>
			<g id="&lt;Group&gt;">
				<path id="&lt;Path&gt;" class="s0" d="m459.2 493.9c0 82-66.5 148.5-148.5 148.5-82 0-148.5-66.5-148.5-148.5 0-82 66.5-148.5 148.5-148.5 82 0 148.5 66.5 148.5 148.5z"/>
				<path id="&lt;Path&gt;" class="s17" d="m424.7 493.9c0 63-51.1 114-114 114-62.9 0-114-51-114-114 0-62.9 51.1-113.9 114-113.9 62.9 0 114 51 114 113.9z"/>
				<path id="&lt;Path&gt;" class="s18" d="m420.4 493.9c0 60.6-49.1 109.7-109.7 109.7-60.6 0-109.6-49.1-109.6-109.7 0-60.5 49-109.6 109.6-109.6 60.6 0 109.7 49.1 109.7 109.6z"/>
				<path id="&lt;Path&gt;" class="s17" d="m364.2 450h-13.3c-1.5-3.8-3.5-7.3-5.9-10.5h13.7l11.5-16.9-6-4.7h-93.3l-11.6 17 6 4.6h45.2c4.7 0 9 1.2 12.8 3.3 2.1 2.1 3.8 4.5 5.1 7.2h-59.6l-11.6 17 6 4.6h65.8c-4 9.6-13.5 16.3-24.5 16.3h-44.2v19.5l35.6 62.5 6 4.6h24.4l-36.1-65h19.8q0.3 0 0.5 0 0.2 0 0.4 0c22-0.2 40-16.7 42.7-37.9h5.1l11.5-17z"/>
				<path id="&lt;Path&gt;" class="s0" d="m338.9 434.9h13.7l11.6-17h-93.3l-11.6 17h45.2c10.5 0 19.6 6.2 23.9 15.1h-59.6l-11.6 17h73.2c-2.5 12-13.2 20.9-25.9 20.9h-44.2v19.5l35.6 62.5h24.4l-36.2-65h19.9q0.2 0 0.5 0 0.2 0 0.4 0c22-0.2 40-16.7 42.7-37.9h5l11.6-17h-17.8c-1.5-5.6-4.1-10.6-7.5-15.1z"/>
			</g>
			<path id="&lt;Path&gt;" class="s29" d="m618.6 663.4h-272.8v-5.1h272.8z"/>
			<path id="&lt;Path&gt;" class="s21" d="m328.7 851.6h-9l33.3-188.2h13.8z"/>
			<path id="&lt;Path&gt;" class="s21" d="m630 851.6h9l-33.3-188.2h-13.8z"/>
			<g id="&lt;Group&gt;">
				<path id="&lt;Path&gt;" class="s30" d="m454.5 642.6h-92.5l-16.2-60.3h92.5z"/>
				<path id="&lt;Path&gt;" class="s31" d="m454.7 642.6h-2.7l-16.2-60.3 2.7 2.9z"/>
				<path id="&lt;Path&gt;" class="s31" d="m493.5 647.5h-131.5v-4.9h131.5z"/>
				<path id="&lt;Path&gt;" class="s31" d="m401.9 613.2c0.9 5.2-1.9 10.2-6.5 11-4.5 0.8-9-2.7-9.9-8-1-5.2 1.9-10.2 6.4-11 4.5-0.8 9 2.7 10 8z"/>
			</g>
			<g id="&lt;Group&gt;">
				<path id="&lt;Path&gt;" class="s3" d="m153.5 833.1h-53.1l-6.7-66.1h66.4z"/>
				<path id="&lt;Path&gt;" class="s3" d="m160.1 767c0-3.7-14.8-6.6-33.2-6.6-18.3 0-33.2 2.9-33.2 6.6 0 3.7 14.9 6.6 33.2 6.6 18.4 0 33.2-2.9 33.2-6.6z"/>
				<path id="&lt;Path&gt;" class="s16" d="m156.1 767c0-3.2-13.1-5.8-29.2-5.8-16.1 0-29.1 2.6-29.1 5.8 0 3.2 13 5.8 29.1 5.8 16.1 0 29.2-2.6 29.2-5.8z"/>
				<path id="&lt;Path&gt;" class="s3" d="m153.5 832.9c0-3.7-11.9-6.6-26.6-6.6-14.6 0-26.5 2.9-26.5 6.6 0 3.6 11.9 6.6 26.5 6.6 14.7 0 26.6-3 26.6-6.6z"/>
				<g id="&lt;Group&gt;">
					<g id="&lt;Group&gt;">
						<g id="&lt;Group&gt;">
							<path id="&lt;Path&gt;" class="s32" d="m158.8 744.1c0.1-3.1-1.2-5.4-2.4-7.4-1.1-2-2-3.7-0.7-5.7 0.7-0.9 2-1.8 3.6-2.8 1.6-1 3.6-2 5.7-3 4.2-2 8.8-4.2 12.3-7.3 1.8-1.5 3-3.1 3.9-4.5 1-1.5 1.5-2.9 1.9-4.3 0.7-2.9 0.7-5.6 0.9-8.1 0.1-1.2 1-2.5 2.3-3.5 1.4-1.1 3.2-2.1 5.1-3.1 1.9-0.9 4.1-1.8 6-2.7 1.9-1 3.9-1.8 5.3-2.9 0.8-0.5 1.4-1.3 1.9-2.1q0.8-1.1 1.3-2.5c0.7-1.8 1-3.8 1.1-5.6 0.3-3.4-1.3-6.6-4.3-8.2-1.6-0.8-3.6-1.6-5.6-1.9q-1.6-0.2-3.2-0.1-1.6 0.3-3.1 1.1c-1.9 1-3.8 2.3-5.6 4.1-1.9 1.7-3.7 3.5-5.4 5.3-1.7 1.8-3.3 3.4-4.8 4.6-1.5 1.2-2.9 2-4.2 2-2.7 0-5.8-0.3-9 0.7-1.6 0.4-3.4 1.2-5.2 2.3-1.7 1.2-3.5 2.9-5.4 5.2-3.6 4.6-5.7 10.4-7 15.6-0.7 2.5-1.2 5-1.7 7-0.5 2.1-1 3.7-1.7 4.8-1.3 2.3-3.3 2.3-5.8 2.3-2.4 0-5.3 0-8.2 2.5-1.1 0.9-1.7 2.5-1.9 4.5-0.2 2 0.1 4.5 0.4 7.3 0.4 2.9 1.1 6.1 1.7 9.6 0.5 3.4 1.3 7.2 1.8 11.1 0.4 2.7 3.3 3.7 5.3 1.9 3-2.6 5.8-4.7 8.7-6.3 2.9-1.6 5.5-2.9 7.9-3.9 2.4-1.1 4.3-2 5.7-2.9 1.4-0.9 2.3-1.9 2.3-3.1z"/>
						</g>
					</g>
					<path id="&lt;Path&gt;" class="s4" d="m128.6 768.4c-0.4-0.2-0.6-0.6-0.5-1 0 0 0.6-1.7 1.5-4.7 0.5-1.5 1.1-3.3 1.9-5.3 0.8-2.1 1.6-4.4 2.7-6.8 4.3-9.9 11-22.6 19.9-33.9 4.3-5.7 9.2-11 13.8-15.8 4.9-4.7 9.5-8.9 13.8-12.1 4.1-3.4 7.9-5.9 10.5-7.7 2.6-1.6 4.1-2.6 4.1-2.6 0.4-0.2 0.9-0.1 1.1 0.2 0.2 0.4 0.1 0.8-0.3 1.1 0 0-1.5 0.9-4.1 2.6-2.6 1.8-6.3 4.2-10.4 7.5-4.2 3.3-8.9 7.4-13.6 12-4.6 4.8-9.5 10-13.7 15.7-8.8 11.2-15.5 23.8-19.7 33.5-1.1 2.4-1.9 4.7-2.7 6.8-0.8 2-1.4 3.7-1.9 5.2-0.9 3-1.4 4.7-1.4 4.7-0.2 0.4-0.6 0.7-1 0.6z"/>
				</g>
				<g id="&lt;Group&gt;">
					<g id="&lt;Group&gt;">
						<path id="&lt;Path&gt;" class="s13" d="m136.4 732c-2.1-2.7-4.9-3.3-7.2-3.7-2.3-0.5-4.3-0.9-4.9-3.1-0.4-1.1-0.5-2.7-0.4-4.6 0-1.9 0.2-4.2 0.2-6.6 0-4.9-0.5-10.6-2.8-15.3-1.2-2.4-2.5-4.2-3.9-5.6-1.4-1.3-2.9-2.2-4.3-2.9-2.8-1.4-5.7-1.5-8.2-1.9-1.3-0.1-2.3-1.1-3.5-2.4-1.1-1.2-2.3-3-3.4-4.9-1.2-1.8-2.5-3.8-3.8-5.6q-1-1.4-2.1-2.5-1.1-1.2-2.2-2-1.2-0.9-2.6-1.3-1.5-0.4-3-0.3c-1.9 0-3.9 0.6-5.5 1.2-3.1 1.2-5.1 4.1-5.6 7.4-0.2 1.7-0.4 3.6-0.2 5.4q0.2 1.3 0.6 2.5c0.3 0.8 0.7 1.6 1.3 2.2q0.8 0.8 1.9 1.6 1 0.7 2.2 1.5c1.5 1.1 3.3 2.1 4.8 3.1 1.5 1.1 2.9 2.3 3.9 3.4 1 1.1 1.4 2.3 1.2 3.4-0.4 2.4-1.1 4.8-1.2 7.4 0 1.4 0.1 2.7 0.6 4.1 0.5 1.4 1.2 2.9 2.5 4.5 2.3 3.1 6.1 5.6 9.5 8 1.7 1.2 3.3 2.3 4.5 3.4 1.3 1.1 2.3 2.1 2.7 3 0.7 1.9-0.6 3.3-2.2 4.8-1.7 1.6-3.6 3.3-4.2 5.9-0.3 1.1 0.2 2 1.3 3 1.1 1.1 2.7 2.2 4.6 3.5 2 1.3 4.1 2.9 6.4 4.8 2.4 2 4.6 4.3 6.7 7.1 1.5 2 4.6 1.9 5.6-0.4 1.5-3.3 3.3-6.4 4.8-9.3 1.5-2.9 3-5.6 4.1-8 1.1-2.4 2.1-4.6 2.4-6.4 0.4-1.9 0.2-3.3-0.6-4.4z"/>
					</g>
					<path id="&lt;Path&gt;" class="s4" d="m123.4 768.6c-0.5 0-0.8-0.3-0.8-0.7 0 0-0.1-1.6-0.2-4.3 0-1.4-0.1-3-0.3-4.9-0.2-1.9-0.4-4-0.8-6.3-1.4-9.2-4.4-21.4-9.8-32.7-2.6-5.7-5.8-11.1-8.9-16-3.3-4.8-6.6-9.2-9.7-12.7-3-3.6-5.9-6.2-7.8-8.2-2-1.8-3.2-2.8-3.2-2.8-0.3-0.3-0.3-0.7 0-1.1 0.2-0.3 0.7-0.3 1 0 0 0 1.2 1 3.2 2.9 2 1.9 4.9 4.6 7.9 8.2 3.2 3.6 6.5 8 9.8 12.9 3.2 5 6.4 10.4 9 16.2 5.5 11.4 8.6 23.7 10 33.1 0.4 2.3 0.6 4.5 0.7 6.4 0.2 1.9 0.4 3.6 0.4 4.9 0.1 2.8 0.2 4.4 0.2 4.4 0 0.4-0.3 0.7-0.7 0.7z"/>
				</g>
				<g id="&lt;Group&gt;">
					<g id="&lt;Group&gt;">
						<g id="&lt;Group&gt;">
							<path id="&lt;Path&gt;" class="s33" d="m142.3 727.1c-1.2-3.3-3.4-5-5.4-6.4-1.9-1.5-3.5-2.7-3.2-5.5 0.2-1.3 1-3 2-4.9 1-1.9 2.3-4 3.8-6.2 2.8-4.5 6.1-9.4 7.9-14.6 1-2.6 1.4-4.9 1.6-6.9 0.3-2 0.2-3.8-0.1-5.4-0.7-3.3-1.8-6-2.7-8.6-0.5-1.3-0.2-2.9 0.5-4.8 0.8-1.8 2.1-3.9 3.4-6 1.4-2.1 3-4.2 4.4-6.3q1.1-1.6 2.1-3.1 1-1.5 1.6-2.9c0.5-1 0.8-2.1 0.9-3.2q0.3-1.6 0.1-3.2c-0.2-2.1-0.8-4.2-1.5-6-1.3-3.3-4.2-5.3-7.8-4.9-1.9 0.2-4 0.6-6.1 1.6q-1.6 0.7-3 1.8-1.4 1.2-2.4 2.8-1 1.5-1.8 3.3-0.9 1.8-1.6 3.9c-0.9 2.7-1.8 5.5-2.5 8.2-0.8 2.6-1.5 5.2-2.4 7.2-0.9 2-1.8 3.6-3 4.4-2.4 1.5-5.4 3-7.9 5.8-1.2 1.4-2.5 3.1-3.6 5.2-1.1 2.1-1.9 4.8-2.6 8-1.2 6.5-0.5 13.4 0.6 19.3 0.5 2.9 1.2 5.6 1.7 7.9 0.5 2.3 0.7 4.3 0.6 5.8-0.1 3-1.9 4-4.1 5.4-2.2 1.3-4.8 2.8-6.2 6.8-0.6 1.5-0.4 3.3 0.3 5.5 0.8 2.1 2.1 4.5 3.8 7.2 1.5 2.7 3.6 5.6 5.8 8.8 2.1 3.3 4.5 6.8 6.8 10.6 1.5 2.6 4.6 2.2 5.6-0.7 1.4-4.2 2.9-7.8 4.8-11 1.8-3.2 3.5-5.9 5.2-8.3 1.6-2.3 2.9-4.3 3.7-6.1 0.9-1.7 1.2-3.1 0.7-4.5z"/>
						</g>
					</g>
					<path id="&lt;Path&gt;" class="s4" d="m126.7 768.1c-0.4 0.1-0.8-0.3-0.9-0.8 0 0-0.3-2-0.8-5.6-0.2-0.9-0.4-1.9-0.5-3q-0.1-1.6-0.3-3.5c-0.3-2.5-0.6-5.3-0.8-8.4-0.7-12.3-0.5-28.9 2.5-45.2 1.3-8.2 3.4-16.2 5.5-23.6 2.3-7.4 4.7-14.2 7.2-19.9 2.3-5.7 4.8-10.3 6.3-13.5 1.8-3.2 2.7-5 2.7-5 0.3-0.5 0.8-0.7 1.2-0.5 0.3 0.2 0.4 0.8 0.1 1.2 0 0-0.9 1.8-2.7 5-1.5 3.2-3.9 7.7-6.2 13.4-2.5 5.6-4.9 12.4-7.2 19.7-2.1 7.4-4.2 15.3-5.5 23.4-2.9 16.2-3.2 32.7-2.4 44.9 0.1 3.1 0.5 5.9 0.7 8.4q0.2 1.8 0.4 3.4c0.1 1.1 0.3 2.1 0.4 3 0.6 3.5 0.9 5.5 0.9 5.5 0.1 0.6-0.2 1-0.6 1.1z"/>
				</g>
			</g>
			<g id="&lt;Group&gt;">
				<path id="&lt;Path&gt;" class="s3" d="m873.5 833.1h-53.1l-6.7-66.1h66.4z"/>
				<path id="&lt;Path&gt;" class="s3" d="m880.1 767c0-3.7-14.8-6.6-33.2-6.6-18.3 0-33.2 2.9-33.2 6.6 0 3.7 14.9 6.6 33.2 6.6 18.4 0 33.2-2.9 33.2-6.6z"/>
				<path id="&lt;Path&gt;" class="s16" d="m876.1 767c0-3.2-13.1-5.8-29.2-5.8-16.1 0-29.1 2.6-29.1 5.8 0 3.2 13 5.8 29.1 5.8 16.1 0 29.2-2.6 29.2-5.8z"/>
				<path id="&lt;Path&gt;" class="s3" d="m873.5 832.9c0-3.7-11.9-6.6-26.6-6.6-14.6 0-26.5 2.9-26.5 6.6 0 3.6 11.9 6.6 26.5 6.6 14.7 0 26.6-3 26.6-6.6z"/>
				<g id="&lt;Group&gt;">
					<g id="&lt;Group&gt;">
						<g id="&lt;Group&gt;">
							<path id="&lt;Path&gt;" class="s32" d="m878.8 744.1c0.1-3.1-1.2-5.4-2.4-7.4-1.1-2-2-3.7-0.7-5.7 0.7-0.9 2-1.8 3.6-2.8 1.6-1 3.6-2 5.7-3 4.2-2 8.8-4.2 12.3-7.3 1.8-1.5 3-3.1 3.9-4.5 1-1.5 1.5-2.9 1.9-4.3 0.7-2.9 0.7-5.6 0.9-8.1 0.1-1.2 1-2.5 2.3-3.5 1.4-1.1 3.2-2.1 5.1-3.1 1.9-0.9 4.1-1.8 6-2.7 1.9-1 3.9-1.8 5.3-2.9 0.8-0.5 1.4-1.3 1.9-2.1q0.8-1.1 1.3-2.5c0.7-1.8 1-3.8 1.1-5.6 0.3-3.4-1.3-6.6-4.3-8.2-1.6-0.8-3.6-1.6-5.6-1.9q-1.6-0.2-3.2-0.1-1.6 0.3-3.1 1.1c-1.9 1-3.8 2.3-5.6 4.1-1.9 1.7-3.7 3.5-5.4 5.3-1.7 1.8-3.3 3.4-4.8 4.6-1.5 1.2-2.9 2-4.2 2-2.7 0-5.8-0.3-9 0.7-1.6 0.4-3.4 1.2-5.2 2.3-1.7 1.2-3.5 2.9-5.4 5.2-3.6 4.6-5.7 10.4-7 15.6-0.7 2.5-1.2 5-1.7 7-0.5 2.1-1 3.7-1.7 4.8-1.3 2.3-3.3 2.3-5.8 2.3-2.4 0-5.3 0-8.2 2.5-1.1 0.9-1.7 2.5-1.9 4.5-0.2 2 0.1 4.5 0.4 7.3 0.4 2.9 1.1 6.1 1.7 9.6 0.5 3.4 1.3 7.2 1.8 11.1 0.4 2.7 3.3 3.7 5.3 1.9 3-2.6 5.8-4.7 8.8-6.3 2.8-1.6 5.4-2.9 7.8-3.9 2.4-1.1 4.3-2 5.7-2.9 1.4-0.9 2.3-1.9 2.4-3.1z"/>
						</g>
					</g>
					<path id="&lt;Path&gt;" class="s4" d="m848.6 768.4c-0.4-0.2-0.6-0.6-0.5-1 0 0 0.6-1.7 1.5-4.7 0.5-1.5 1.1-3.3 1.9-5.3 0.8-2.1 1.6-4.4 2.7-6.8 4.3-9.9 11-22.6 19.9-33.9 4.3-5.7 9.2-11 13.8-15.8 4.9-4.7 9.5-8.9 13.8-12.1 4.1-3.4 7.9-5.9 10.5-7.7 2.6-1.6 4.1-2.6 4.1-2.6 0.4-0.2 0.9-0.1 1.1 0.2 0.2 0.4 0.1 0.8-0.3 1.1 0 0-1.5 0.9-4.1 2.6-2.6 1.8-6.3 4.2-10.4 7.5-4.2 3.3-8.9 7.4-13.6 12-4.6 4.8-9.5 10-13.7 15.7-8.8 11.2-15.5 23.8-19.7 33.5-1.1 2.4-1.9 4.7-2.7 6.8-0.8 2-1.4 3.7-1.9 5.2-0.9 3-1.4 4.7-1.4 4.7-0.2 0.4-0.6 0.7-1 0.6z"/>
				</g>
				<g id="&lt;Group&gt;">
					<g id="&lt;Group&gt;">
						<path id="&lt;Path&gt;" class="s13" d="m856.4 732c-2.1-2.7-4.9-3.3-7.2-3.7-2.3-0.5-4.3-0.9-4.9-3.1-0.4-1.1-0.5-2.7-0.4-4.6 0-1.9 0.2-4.2 0.2-6.6 0-4.9-0.5-10.6-2.8-15.3-1.2-2.4-2.5-4.2-3.9-5.6-1.4-1.3-2.9-2.2-4.3-2.9-2.8-1.4-5.7-1.5-8.2-1.9-1.3-0.1-2.3-1.1-3.5-2.4-1.1-1.2-2.3-3-3.4-4.9-1.2-1.8-2.5-3.8-3.8-5.6q-1-1.4-2.1-2.5-1.1-1.2-2.2-2-1.2-0.9-2.6-1.3-1.5-0.4-3-0.3c-1.9 0-3.9 0.6-5.5 1.2-3.1 1.2-5.1 4.1-5.6 7.4-0.2 1.7-0.4 3.6-0.2 5.4q0.2 1.3 0.6 2.5c0.3 0.8 0.7 1.6 1.3 2.2q0.8 0.8 1.9 1.6 1 0.7 2.2 1.5c1.5 1.1 3.3 2.1 4.8 3.1 1.5 1.1 2.9 2.3 3.9 3.4 1 1.1 1.4 2.3 1.2 3.4-0.4 2.4-1.1 4.8-1.2 7.4 0 1.4 0.1 2.7 0.6 4.1 0.5 1.4 1.2 2.9 2.5 4.5 2.3 3.1 6.1 5.6 9.5 8 1.7 1.2 3.3 2.3 4.5 3.4 1.3 1.1 2.3 2.1 2.7 3 0.7 1.9-0.6 3.3-2.2 4.8-1.7 1.6-3.6 3.3-4.2 5.9-0.3 1.1 0.2 2 1.3 3 1.1 1.1 2.7 2.2 4.6 3.5 2 1.3 4.1 2.9 6.4 4.8 2.4 2 4.6 4.3 6.7 7.1 1.5 2 4.6 1.9 5.6-0.4 1.5-3.3 3.3-6.4 4.8-9.3 1.5-2.9 3-5.6 4.1-8 1.1-2.4 2.1-4.6 2.4-6.4 0.4-1.9 0.2-3.3-0.6-4.4z"/>
					</g>
					<path id="&lt;Path&gt;" class="s4" d="m843.4 768.6c-0.5 0-0.8-0.3-0.8-0.7 0 0-0.1-1.6-0.2-4.3 0-1.4-0.1-3-0.3-4.9-0.2-1.9-0.4-4-0.8-6.3-1.4-9.2-4.4-21.4-9.8-32.7-2.6-5.7-5.8-11.1-8.9-16-3.3-4.8-6.6-9.2-9.7-12.7-3-3.6-5.9-6.2-7.8-8.2-2-1.8-3.2-2.8-3.2-2.8-0.3-0.3-0.3-0.7 0-1.1 0.2-0.3 0.7-0.3 1 0 0 0 1.2 1 3.2 2.9 2 1.9 4.9 4.6 7.9 8.2 3.2 3.6 6.5 8 9.8 12.9 3.2 5 6.4 10.4 9 16.2 5.5 11.4 8.6 23.7 10 33.1 0.4 2.3 0.6 4.5 0.7 6.4 0.2 1.9 0.4 3.6 0.4 4.9 0.1 2.8 0.2 4.4 0.2 4.4 0 0.4-0.3 0.7-0.7 0.7z"/>
				</g>
				<g id="&lt;Group&gt;">
					<g id="&lt;Group&gt;">
						<g id="&lt;Group&gt;">
							<path id="&lt;Path&gt;" class="s33" d="m862.3 727.1c-1.2-3.3-3.4-5-5.4-6.4-1.9-1.5-3.5-2.7-3.2-5.5 0.2-1.3 1-3 2-4.9 1-1.9 2.3-4 3.8-6.2 2.8-4.5 6.1-9.4 7.9-14.6 1-2.6 1.4-4.9 1.6-6.9 0.3-2 0.2-3.8-0.1-5.4-0.7-3.3-1.8-6-2.7-8.6-0.5-1.3-0.2-2.9 0.5-4.8 0.8-1.8 2.1-3.9 3.4-6 1.4-2.1 3-4.2 4.4-6.3q1.1-1.6 2.1-3.1 1-1.5 1.6-2.9c0.5-1 0.8-2.1 0.9-3.2q0.3-1.6 0.1-3.2c-0.2-2.1-0.8-4.2-1.5-6-1.3-3.3-4.2-5.3-7.8-4.9-1.9 0.2-4 0.6-6.1 1.6q-1.6 0.7-3 1.8-1.4 1.2-2.4 2.8-1 1.5-1.8 3.3-0.9 1.8-1.6 3.9c-0.9 2.7-1.8 5.5-2.5 8.2-0.8 2.6-1.5 5.2-2.4 7.2-0.9 2-1.8 3.6-3 4.4-2.4 1.5-5.4 3-7.9 5.8-1.2 1.4-2.5 3.1-3.6 5.2-1.1 2.1-1.9 4.8-2.6 8-1.2 6.5-0.5 13.4 0.6 19.3 0.5 2.9 1.2 5.6 1.7 7.9 0.5 2.3 0.7 4.3 0.6 5.8-0.1 3-1.9 4-4.1 5.4-2.2 1.3-4.8 2.8-6.2 6.8-0.6 1.5-0.4 3.3 0.3 5.5 0.8 2.1 2.1 4.5 3.8 7.2 1.5 2.7 3.6 5.6 5.8 8.8 2.1 3.3 4.5 6.8 6.8 10.6 1.5 2.6 4.6 2.2 5.6-0.7 1.4-4.2 2.9-7.8 4.8-11 1.8-3.2 3.5-5.9 5.2-8.3 1.6-2.3 2.9-4.3 3.7-6.1 0.9-1.7 1.2-3.1 0.7-4.5z"/>
						</g>
					</g>
					<path id="&lt;Path&gt;" class="s4" d="m846.7 768.1c-0.4 0.1-0.8-0.3-0.9-0.8 0 0-0.3-2-0.8-5.6-0.2-0.9-0.4-1.9-0.5-3q-0.1-1.6-0.3-3.5c-0.3-2.5-0.6-5.3-0.8-8.4-0.7-12.3-0.5-28.9 2.5-45.2 1.3-8.2 3.4-16.2 5.5-23.6 2.3-7.4 4.7-14.2 7.2-19.9 2.3-5.7 4.8-10.3 6.3-13.5 1.8-3.2 2.7-5 2.7-5 0.3-0.5 0.8-0.7 1.2-0.5 0.3 0.2 0.4 0.8 0.1 1.2 0 0-0.9 1.8-2.7 5-1.5 3.2-3.9 7.7-6.2 13.4-2.5 5.6-4.9 12.4-7.2 19.7-2.1 7.4-4.2 15.3-5.5 23.4-2.9 16.2-3.2 32.7-2.4 44.9 0.1 3.1 0.5 5.9 0.7 8.4q0.2 1.8 0.4 3.4c0.1 1.1 0.3 2.1 0.4 3 0.6 3.5 0.9 5.5 0.9 5.5 0.1 0.6-0.2 1-0.6 1.1z"/>
				</g>
			</g>
		</g>
	</g>
</svg>